<svg id="圖層_2" data-name="圖層 2" xmlns="http://www.w3.org/2000/svg" viewBox="0 0 93.66 383.48"><defs><style>.cls-1,.cls-2{fill:#fff;}.cls-1{stroke:#16120f;stroke-miterlimit:10;stroke-width:10px;}</style></defs><path class="cls-1" d="M391.51,387.05c2.31-.82,5-1.83,8-3s6.19-2.48,9.58-3.88L419.17,376l2.73,10.57q-6.45,3.3-13.13,6.6t-12.47,5.95Zm2-35h26.43v11.32H393.49Zm8.26-17.5H412.9v55.4H401.75Zm15,31.54,41.86-17.92,4.3,10.24-41.7,18.25Zm7.76-24.61h11.39V394a14.9,14.9,0,0,0,.33,3.67,2.14,2.14,0,0,0,1.53,1.57,12.91,12.91,0,0,0,3.59.37h13.88a5.87,5.87,0,0,0,3.26-.74,4.79,4.79,0,0,0,1.69-2.81,33.8,33.8,0,0,0,.91-6,25.87,25.87,0,0,0,4.95,2.56,32.81,32.81,0,0,0,5.45,1.73,30.75,30.75,0,0,1-2.27,9.41,10.09,10.09,0,0,1-4.66,5,18.44,18.44,0,0,1-8.18,1.53H440.23a25.79,25.79,0,0,1-9.54-1.41,8.36,8.36,0,0,1-4.79-5,28.6,28.6,0,0,1-1.36-9.91Zm15.85-8.17h11.23V392H440.39Zm15.36,17.34h-.91l3.8-2.48,9,2.81-.41,1.73q-.17,5.7-.54,12.27c-.24,4.37-.58,8.69-1,13s-.95,8.11-1.61,11.52l-9.74-2.73q.4-3.3.66-7.68t.41-9.29c.11-3.27.19-6.55.25-9.82S455.75,353.56,455.75,350.64Z" transform="translate(-383.33 -328.3)"/><path class="cls-1" d="M414,452.7h13.46q-.33,6.53-.95,13.09a101.34,101.34,0,0,1-2.06,12.92,59.47,59.47,0,0,1-4.22,12.22,46.07,46.07,0,0,1-7.35,11,48.09,48.09,0,0,1-11.51,9.29,32.11,32.11,0,0,0-3.8-5.24,30.71,30.71,0,0,0-5-4.66,40.17,40.17,0,0,0,10.12-7.77,35.57,35.57,0,0,0,6.15-9.16,43.55,43.55,0,0,0,3.22-10.16,86.63,86.63,0,0,0,1.32-10.73C413.61,459.88,413.8,456.28,414,452.7Zm-20.23-7.6h75.47v11.65H393.74ZM421.9,465h30.88v11.56H421.9Zm1.48-29.56L435.27,431q1.65,2.73,3.35,6t2.68,5.7L428.92,448a49.82,49.82,0,0,0-2.4-6.07Q424.87,438.33,423.38,435.44ZM449.72,465h12.56c-.06,1.21-.1,2.22-.13,3a11.23,11.23,0,0,1-.21,1.94q-.66,11.06-1.56,18.16a74.66,74.66,0,0,1-2.11,11.15,14.63,14.63,0,0,1-3,6,12.09,12.09,0,0,1-4.46,3.26,21.1,21.1,0,0,1-5.53,1.28,52,52,0,0,1-6.45.33q-3.87,0-8-.08a19.27,19.27,0,0,0-1.32-6,21.73,21.73,0,0,0-3.05-5.78q4.21.33,8.13.41c2.62.06,4.58.08,5.91.08a11.46,11.46,0,0,0,2.27-.2,5,5,0,0,0,1.85-.87c.83-.72,1.56-2.28,2.19-4.71a76.07,76.07,0,0,0,1.7-10.07q.74-6.43,1.23-16Z" transform="translate(-383.33 -328.3)"/><path class="cls-1" d="M398.61,557.73h11.07v8.76q0,4.29-.29,9.53t-1.12,10.78a80.81,80.81,0,0,1-2.35,10.77,48,48,0,0,1-3.92,9.62,26.58,26.58,0,0,0-3.06-1.61c-1.27-.57-2.57-1.12-3.92-1.65s-2.52-.92-3.51-1.19a38.76,38.76,0,0,0,3.88-8.88,67.91,67.91,0,0,0,2.11-9.66c.46-3.28.77-6.44.9-9.5s.21-5.82.21-8.3ZM417.11,531l11,4.38a65.23,65.23,0,0,1-8.46,9.95A90.85,90.85,0,0,1,409.1,554a85.11,85.11,0,0,1-11.31,6.77,38.64,38.64,0,0,0-1.57-3.59q-1.08-2.19-2.32-4.42a29.37,29.37,0,0,0-2.23-3.55,75.49,75.49,0,0,0,9.75-4.75,59.93,59.93,0,0,0,8.87-6.23A41.13,41.13,0,0,0,417.11,531Zm-11.73,26.75h32V585h-32v-8.09h21.14V565.82H405.38Zm.17,10.32h27.58v6.78H405.55Zm.82,18.67h32.95v22.54h-10.4V594.73H416.28v14.94h-9.91Zm4.13-37.66h16.76v6.77H410.5Zm.5,49.88h22v8.67H411Zm2.64-56.57,5.78-8.91,5.66,3.17q3.17,1.79,6.44,3.6t6.11,3.51q2.85,1.69,4.83,3.09l-6.11,10.24a78.55,78.55,0,0,0-6.53-4.58q-4-2.6-8.34-5.29T413.64,542.37Zm28.65-2.72h11.23v46.82H442.29Zm14.7-8.09h11.48v64.32a22.23,22.23,0,0,1-.91,7.14,7.17,7.17,0,0,1-3.47,4A15.57,15.57,0,0,1,457.9,609a73.15,73.15,0,0,1-8.67.45,42.1,42.1,0,0,0-1.36-6,47.31,47.31,0,0,0-2.19-6.07l5.7.12c1.81,0,3.08,0,3.79,0a2.11,2.11,0,0,0,1.41-.37,1.81,1.81,0,0,0,.41-1.36Z" transform="translate(-383.33 -328.3)"/><path class="cls-1" d="M406,631.39l12.47,2.81a121.14,121.14,0,0,1-4.38,12.63,113.12,113.12,0,0,1-5.53,11.68,63.55,63.55,0,0,1-6.19,9.38,27.85,27.85,0,0,0-3.14-2.44q-2-1.37-4.05-2.68c-1.37-.88-2.59-1.6-3.63-2.15a42.65,42.65,0,0,0,5.94-8.09,79.09,79.09,0,0,0,4.92-10.16A86.82,86.82,0,0,0,406,631.39Zm-11.81,63.66h75.14v11.73H394.15ZM404,669.29h57.63v11.56H404Zm3.3-24.36h57.64v11.73H407.28Zm18.08-14.37h12.56v70.27H425.36Z" transform="translate(-383.33 -328.3)"/><path class="cls-2" d="M391.47,386.23c2.31-.82,5-1.83,8-3s6.19-2.48,9.57-3.88,6.76-2.8,10.12-4.17l2.73,10.57q-6.45,3.3-13.13,6.6t-12.47,6Zm2-35h26.42v11.31H393.45Zm8.26-17.51h11.14v55.41H401.71Zm15,31.55,41.86-17.92,4.29,10.24-41.7,18.25Zm7.76-24.61h11.39v52.52a15,15,0,0,0,.33,3.67,2.15,2.15,0,0,0,1.53,1.57,12.86,12.86,0,0,0,3.59.37h13.87a6,6,0,0,0,3.27-.74,4.82,4.82,0,0,0,1.69-2.81,34.74,34.74,0,0,0,.91-6,24.78,24.78,0,0,0,4.95,2.56,31.74,31.74,0,0,0,5.45,1.74,30.75,30.75,0,0,1-2.27,9.41,10.13,10.13,0,0,1-4.66,5,18.45,18.45,0,0,1-8.18,1.52H440.19a25.82,25.82,0,0,1-9.54-1.4,8.36,8.36,0,0,1-4.79-4.95,28.6,28.6,0,0,1-1.36-9.91Zm15.85-8.17h11.23v58.71H440.35Zm15.36,17.34h-.91l3.8-2.48,9,2.81-.41,1.73q-.17,5.7-.54,12.26t-1,13q-.62,6.39-1.61,11.52l-9.74-2.73q.4-3.3.66-7.68c.16-2.92.3-6,.41-9.29s.19-6.55.25-9.82S455.71,352.73,455.71,349.82Z" transform="translate(-383.33 -328.3)"/><path class="cls-2" d="M413.93,451.88h13.46q-.33,6.53-.95,13.08a99.49,99.49,0,0,1-2.07,12.93,58.86,58.86,0,0,1-4.21,12.22,46.07,46.07,0,0,1-7.35,11,48,48,0,0,1-11.52,9.29,35.12,35.12,0,0,0-8.75-9.91,40.15,40.15,0,0,0,10.12-7.76,35.74,35.74,0,0,0,6.15-9.16A44,44,0,0,0,412,473.43a86.56,86.56,0,0,0,1.32-10.74Q413.68,457.25,413.93,451.88Zm-20.23-7.6h75.47v11.64H393.7Zm28.16,19.9h30.88v11.56H421.86Zm1.48-29.56,11.89-4.46q1.65,2.73,3.35,6c1.12,2.2,2,4.1,2.68,5.7l-12.39,5.28a48,48,0,0,0-2.39-6.07Q424.83,437.52,423.34,434.62Zm26.34,29.56h12.55c-.05,1.21-.09,2.22-.12,3a11.12,11.12,0,0,1-.21,1.94q-.66,11.07-1.57,18.17a73.59,73.59,0,0,1-2.1,11.15,14.39,14.39,0,0,1-3,5.94,12,12,0,0,1-4.45,3.27,21.59,21.59,0,0,1-5.54,1.28,53.78,53.78,0,0,1-6.44.33c-2.58,0-5.26,0-8-.09a19.28,19.28,0,0,0-1.32-6,21.73,21.73,0,0,0-3.05-5.78c2.8.22,5.51.35,8.13.41s4.58.08,5.9.08a10.8,10.8,0,0,0,2.28-.21,4.77,4.77,0,0,0,1.85-.86q1.24-1.08,2.19-4.71A76.35,76.35,0,0,0,448.44,482q.75-6.45,1.24-16Z" transform="translate(-383.33 -328.3)"/><path class="cls-2" d="M398.57,556.91h11.06v8.75q0,4.3-.28,9.54T408.23,586a82.41,82.41,0,0,1-2.35,10.77,48.28,48.28,0,0,1-3.92,9.62,26.58,26.58,0,0,0-3.06-1.61c-1.27-.58-2.57-1.13-3.92-1.65s-2.52-.92-3.51-1.2a38.5,38.5,0,0,0,3.88-8.87,67.88,67.88,0,0,0,2.1-9.66c.47-3.28.78-6.45.91-9.5s.21-5.82.21-8.3Zm18.5-26.75,11,4.37a63.81,63.81,0,0,1-8.47,10,88,88,0,0,1-10.52,8.71A84.66,84.66,0,0,1,397.74,560a35.66,35.66,0,0,0-1.56-3.6c-.72-1.45-1.49-2.93-2.32-4.41a30.68,30.68,0,0,0-2.23-3.55,77.47,77.47,0,0,0,9.75-4.75,60,60,0,0,0,8.87-6.24A40.74,40.74,0,0,0,417.07,530.16Zm-11.73,26.75h32v27.25h-32v-8.09h21.14V565H405.34Zm.17,10.32h27.58V574H405.51Zm.82,18.66h32.95v22.55H428.87V593.9H416.24v15h-9.91Zm4.13-37.65h16.76V555H410.46Zm.5,49.87h22v8.67H411Zm2.64-56.56,5.78-8.92q2.47,1.41,5.65,3.18l6.44,3.59q3.27,1.83,6.12,3.51c1.9,1.13,3.5,2.17,4.83,3.1l-6.11,10.24c-1.66-1.32-3.83-2.85-6.53-4.58s-5.48-3.5-8.34-5.29S416,543,413.6,541.55Zm28.65-2.72h11.23v46.82H442.25Zm14.7-8.09h11.48v64.32a22.52,22.52,0,0,1-.91,7.14,7.17,7.17,0,0,1-3.47,4,15.79,15.79,0,0,1-6.19,1.94,73.15,73.15,0,0,1-8.67.45,40.66,40.66,0,0,0-1.37-6,45.91,45.91,0,0,0-2.18-6.07l5.69.12c1.82,0,3.09,0,3.8,0a2.11,2.11,0,0,0,1.41-.37A1.81,1.81,0,0,0,457,595Z" transform="translate(-383.33 -328.3)"/><path class="cls-2" d="M405.92,630.57l12.47,2.8A122.12,122.12,0,0,1,414,646a113.12,113.12,0,0,1-5.53,11.68,62.89,62.89,0,0,1-6.19,9.37,30.2,30.2,0,0,0-3.14-2.43q-2-1.36-4-2.69c-1.38-.88-2.59-1.59-3.63-2.14a42.84,42.84,0,0,0,5.94-8.1,78.31,78.31,0,0,0,4.92-10.15A89.56,89.56,0,0,0,405.92,630.57Zm-11.81,63.66h75.14V706H394.11Zm9.83-25.76h57.63V680H403.94Zm3.3-24.36h57.64v11.72H407.24Zm18.08-14.37h12.55V700H425.32Z" transform="translate(-383.33 -328.3)"/></svg>