<?xml version="1.0" encoding="UTF-8"?>
<svg version="1.1" xmlns="http://www.w3.org/2000/svg" width="305" height="1010">
<path d="M0 0 C5.4537385 0.39663553 9.46607798 1.47814129 14.37890625 3.828125 C17.54961181 5.24572808 20.78032303 6.36507434 24.0625 7.5 C28.51528035 9.05871073 32.64732831 10.72327663 36.78515625 12.96875 C41.05071686 14.95483113 45.63623974 16.24849095 50.12109375 17.65625 C53 19 53 19 53.91015625 21.15625 C53.93980469 21.7646875 53.96945313 22.373125 54 23 C53.34 23 52.68 23 52 23 C51.67 24.32 51.34 25.64 51 27 C51.99 27.66 52.98 28.32 54 29 C54 27.35 54 25.7 54 24 C65.88 24 77.76 24 90 24 C90 17.4 90 10.8 90 4 C108.48 4 126.96 4 146 4 C146.06778525 27.67026129 146.12302156 51.34044369 146.15543652 75.01077747 C146.17088904 86.00193068 146.19194768 96.99301919 146.22631836 107.98413086 C146.25627016 117.56675295 146.27558674 127.14932816 146.28226548 136.73199576 C146.28616794 141.80342805 146.2953056 146.87472627 146.31719017 151.94611549 C146.33764667 156.72557707 146.34381535 161.50485014 146.33932304 166.28435135 C146.34014416 168.03259114 146.34605496 169.78083763 146.35761642 171.52903938 C146.44569291 185.54171541 144.87432411 196.18851384 137 208 C136.34 208 135.68 208 135 208 C135 208.66 135 209.32 135 210 C132.62109375 211.65625 132.62109375 211.65625 129.4375 213.5 C128.40496094 214.1084375 127.37242187 214.716875 126.30859375 215.34375 C98.07127917 229.47907631 52.42925993 220.65843921 22 220 C22 219.01 22 218.02 22 217 C20.68 217 19.36 217 18 217 C18 218.32 18 219.64 18 221 C1.17 221 -15.66 221 -33 221 C-33 219.35 -33 217.7 -33 216 C-33.7321875 215.71769531 -34.464375 215.43539062 -35.21875 215.14453125 C-37.7364167 214.10846897 -40.09226068 212.95321228 -42.5 211.6875 C-53.25487691 206.28623242 -64.36603761 202.88033094 -76 200 C-75.40165275 195.85701333 -73.99335715 192.81805623 -71.9375 189.1875 C-71.38964844 188.21167969 -70.84179688 187.23585938 -70.27734375 186.23046875 C-69.64505859 185.12638672 -69.64505859 185.12638672 -69 184 C-68.34 184 -67.68 184 -67 184 C-66.87367187 183.42636719 -66.74734375 182.85273437 -66.6171875 182.26171875 C-65.79149082 179.23590623 -64.46683215 176.53788398 -63.1328125 173.70703125 C-56.35747494 157.51631081 -54.75459916 140.10414261 -53.75 122.75 C-53.70898163 122.04157959 -53.66796326 121.33315918 -53.6257019 120.60327148 C-53.371334 116.07025272 -53.17705143 111.53678598 -53 107 C-52.94166992 106.04963867 -52.88333984 105.09927734 -52.82324219 104.12011719 C-52.56420624 97.85725739 -54.02647419 93.35157791 -56.75 87.75 C-57.09804688 86.986875 -57.44609375 86.22375 -57.8046875 85.4375 C-59.41010086 81.98883427 -61.08430973 78.76063678 -63.265625 75.640625 C-65 73 -65 73 -65 70 C-65.66 70 -66.32 70 -67 70 C-67 69.01 -67 68.02 -67 67 C-67.66 67 -68.32 67 -69 67 C-72 63.53846154 -72 63.53846154 -72 61 C-72.66 61 -73.32 61 -74 61 C-74 60.01 -74 59.02 -74 58 C-74.66 58 -75.32 58 -76 58 C-76.33 56.68 -76.66 55.36 -77 54 C-76.38592285 53.75354736 -75.7718457 53.50709473 -75.13916016 53.25317383 C-72.29935426 52.11058526 -69.46218576 50.96157844 -66.625 49.8125 C-65.65949219 49.42513672 -64.69398437 49.03777344 -63.69921875 48.63867188 C-57.30444084 46.04213454 -51.11845735 43.192732 -45 40 C-44.38398926 39.6810376 -43.76797852 39.3620752 -43.13330078 39.03344727 C-25.3122004 29.64642476 -10.6654476 17.17514859 0 0 Z " fill="#060606" transform="translate(110,506)"/>
<path d="M0 0 C18.15 0 36.3 0 55 0 C55 11.55 55 23.1 55 35 C57.64 34.01 60.28 33.02 63 32 C64.32 32.33 65.64 32.66 67 33 C67.21269531 33.78117187 67.42539063 34.56234375 67.64453125 35.3671875 C68.71748123 38.09998126 68.71748123 38.09998126 70.91162109 38.92285156 C73.48665493 39.74732101 76.06740631 40.45738894 78.6875 41.125 C80.46329892 41.60285135 82.23806489 42.08455978 84.01171875 42.5703125 C84.85911621 42.80137695 85.70651367 43.03244141 86.57958984 43.27050781 C89.86132821 44.25959741 92.89106807 45.56249112 96 47 C95.5321849 51.30551638 95.05042513 55.60644758 94.5 59.90234375 C93.3963105 68.64704418 92.82112745 77.31487283 92.5625 86.125 C92.24910092 96.37675116 91.52982319 106.54334093 90.5625 116.75 C90.37892944 118.71090576 90.37892944 118.71090576 90.19165039 120.71142578 C89.36280829 129.18319512 88.27438288 137.5843561 87 146 C91.66083257 148.18166631 96.03143702 149.57931811 101.08203125 150.5703125 C103 151 103 151 105 152 C103.84262788 168.28083824 102.29233711 183.55638003 94 198 C93.34 198 92.68 198 92 198 C91.7421875 198.5878125 91.484375 199.175625 91.21875 199.78125 C87.8622558 205.89179072 81.50526943 209.94593096 75.03564453 212.15332031 C62.32815808 215.69759915 48.77445224 215.31490173 35.70117188 215.26074219 C32.63651642 215.25004022 29.57245008 215.26068861 26.5078125 215.2734375 C-13.61424019 215.3035305 -13.61424019 215.3035305 -27 204 C-27 203.34 -27 202.68 -27 202 C-27.66 202 -28.32 202 -29 202 C-37.77898176 191.84743606 -38.85124675 177.75720716 -40 165 C-46.0715781 166.77960048 -51.51731092 169.15423559 -57.14990234 172.03173828 C-65.34145475 176.21470447 -73.66218674 180.11854753 -82 184 C-82.84369141 184.39493652 -83.68738281 184.78987305 -84.55664062 185.19677734 C-87.03267452 186.35096529 -89.51499056 187.49028673 -92 188.625 C-92.75958008 188.98005615 -93.51916016 189.3351123 -94.30175781 189.70092773 C-99.65496557 192.11501148 -99.65496557 192.11501148 -103 191 C-104.01147461 189.08569336 -104.01147461 189.08569336 -104.90234375 186.58984375 C-105.23556641 185.68169922 -105.56878906 184.77355469 -105.91210938 183.83789062 C-106.41967773 182.40219727 -106.41967773 182.40219727 -106.9375 180.9375 C-109.04351991 175.08203424 -111.18825964 169.42525585 -114.06030273 163.90112305 C-115.65331415 160.67826518 -116.84651661 157.31668834 -118.0625 153.9375 C-118.55171335 152.59183886 -119.04258807 151.2467805 -119.53515625 149.90234375 C-119.77250488 149.25378418 -120.00985352 148.60522461 -120.25439453 147.93701172 C-121.00371049 145.99036049 -121.83149876 144.09500145 -122.68359375 142.19140625 C-124 139 -124 139 -124 136 C-118.66912381 133.99339666 -113.33556082 131.99411113 -108 130 C-106.86433594 129.57460937 -105.72867188 129.14921875 -104.55859375 128.7109375 C-103.59050781 128.35257813 -102.62242188 127.99421875 -101.625 127.625 C-100.77164063 127.30789062 -99.91828125 126.99078125 -99.0390625 126.6640625 C-97 126 -97 126 -95 126 C-95 117.42 -95 108.84 -95 100 C-101.6 100 -108.2 100 -115 100 C-115 82.18 -115 64.36 -115 46 C-108.4 46 -101.8 46 -95 46 C-95 31.81 -95 17.62 -95 3 C-76.85 3 -58.7 3 -40 3 C-39.505 11.415 -39.505 11.415 -39 20 C-26.13 20 -13.26 20 0 20 C0 13.4 0 6.8 0 0 Z " fill="#060606" transform="translate(160,26)"/>
<path d="M0 0 C4.54579961 0.61153451 9.00952159 1.37028401 13.4921875 2.33984375 C15.29236328 2.7275293 15.29236328 2.7275293 17.12890625 3.12304688 C18.36511719 3.39181641 19.60132812 3.66058594 20.875 3.9375 C22.10347656 4.20240234 23.33195312 4.46730469 24.59765625 4.74023438 C31.07009103 6.13808605 37.53783654 7.5554343 44 9 C44 6.03 44 3.06 44 0 C63.47 0 82.94 0 103 0 C103 11.88 103 23.76 103 36 C124.45 36 145.9 36 168 36 C168 54.15 168 72.3 168 91 C146.55 91 125.1 91 103 91 C103 92.32 103 93.64 103 95 C121.81 95 140.62 95 160 95 C160 113.15 160 131.3 160 150 C141.19 150 122.38 150 103 150 C103 152.64 103 155.28 103 158 C128.08 158 153.16 158 179 158 C179 176.48 179 194.96 179 214 C109.37 214 39.74 214 -32 214 C-32 195.52 -32 177.04 -32 158 C-6.92 158 18.16 158 44 158 C44 155.36 44 152.72 44 150 C26.84 150 9.68 150 -8 150 C-7.875 132.9375 -7.875 132.9375 -7.75732422 127.59350586 C-7.59892611 119.45539276 -7.59892611 119.45539276 -11.16333008 112.41796875 C-13.7084662 110.63947928 -16.1915926 109.31012083 -19 108 C-20.33314205 107.07059626 -21.64855898 106.11479294 -22.9375 105.125 C-25.84363962 102.89599909 -25.84363962 102.89599909 -29 102 C-29 101.34 -29 100.68 -29 100 C-29.68449219 99.90847656 -30.36898437 99.81695313 -31.07421875 99.72265625 C-34.70056363 98.82696359 -37.55047308 97.24973718 -40.8125 95.4375 C-41.40998047 95.10814453 -42.00746094 94.77878906 -42.62304688 94.43945312 C-44.08533998 93.63226733 -45.5431399 92.81695083 -47 92 C-45.79618552 89.50638429 -44.54571278 87.31856917 -43 85 C-42.34 85 -41.68 85 -41 85 C-41 84.34 -41 83.68 -41 83 C-40.278125 82.443125 -39.55625 81.88625 -38.8125 81.3125 C-36.36988959 79.30413144 -35.04732947 77.80577556 -33.3125 75.25 C-32.549375 74.1775 -31.78625 73.105 -31 72 C-30.34 72 -29.68 72 -29 72 C-28.71125 71.2575 -28.4225 70.515 -28.125 69.75 C-27.17697356 67.43260203 -26.15154089 65.22082885 -25 63 C-24.34 63 -23.68 63 -23 63 C-22.90203125 62.47535156 -22.8040625 61.95070313 -22.703125 61.41015625 C-21.76530423 58.19551505 -20.28043913 55.41520223 -18.75 52.4375 C-18.11091945 51.17110714 -17.47290705 49.90417471 -16.8359375 48.63671875 C-15.76442322 46.51075953 -14.68683378 44.38853857 -13.6015625 42.26953125 C-10.21125422 35.30536297 -8.24726384 28.13830518 -6.26953125 20.68359375 C-5.03230087 16.04034091 -3.63668606 11.45598065 -2.1875 6.875 C-1.85878906 5.83533081 -1.85878906 5.83533081 -1.5234375 4.7746582 C-1.01800674 3.1823475 -0.50939513 1.5910469 0 0 Z M27 91 C26.67 92.32 26.34 93.64 26 95 C31.94 95 37.88 95 44 95 C44 93.68 44 92.36 44 91 C38.39 91 32.78 91 27 91 Z " fill="#FDFDFD" transform="translate(79,751)"/>
<path d="M0 0 C1.22338867 1.50610352 1.22338867 1.50610352 2.41796875 3.62890625 C3.08735474 4.80054321 3.08735474 4.80054321 3.77026367 5.99584961 C4.23795166 6.84284424 4.70563965 7.68983887 5.1875 8.5625 C5.91126831 9.8474939 5.91126831 9.8474939 6.6496582 11.15844727 C8.11191919 13.76573869 9.5566606 16.38219813 11 19 C11.83320249 20.48705248 12.66652647 21.97403691 13.5 23.4609375 C14.2308571 24.78552703 14.96012634 26.11099441 15.6875 27.4375 C16.02612061 28.044729 16.36474121 28.65195801 16.71362305 29.27758789 C18.47520736 32.55708854 19 34.1613246 19 38 C42.43 38 65.86 38 90 38 C90 56.15 90 74.3 90 93 C84.39 93 78.78 93 73 93 C73.02320313 94.29550781 73.04640625 95.59101563 73.0703125 96.92578125 C73.2008231 107.59831103 72.76292292 117.9603887 71.49609375 128.5546875 C71.02807028 132.51384441 70.79840317 136.4534565 70.625 140.4375 C70.18872076 148.11913099 69.19083367 155.6945158 68.125 163.3125 C67.96338379 164.49320068 67.80176758 165.67390137 67.63525391 166.89038086 C66.1579352 177.10168239 63.79938054 186.66820745 59.8125 196.1875 C59.53986328 196.85330078 59.26722656 197.51910156 58.98632812 198.20507812 C58.32994014 199.80574356 57.66585195 201.40324823 57 203 C56.34 203 55.68 203 55 203 C54.690625 203.61875 54.38125 204.2375 54.0625 204.875 C53.375 206.25 52.6875 207.625 52 209 C51.34 209 50.68 209 50 209 C50 209.66 50 210.32 50 211 C42.81209931 216.8482719 34.87110001 219.73659177 26 222 C25.39097839 222.17764389 24.78195679 222.35528778 24.15447998 222.53831482 C21.61098764 223.08336176 19.28253611 223.11972032 16.68066406 223.11352539 C15.61986633 223.11344986 14.5590686 223.11337433 13.46612549 223.11329651 C12.32746033 223.10813522 11.18879517 223.10297394 10.015625 223.09765625 C8.84489441 223.0962413 7.67416382 223.09482635 6.46795654 223.09336853 C2.72861171 223.0877709 -1.01067326 223.0752188 -4.75 223.0625 C-7.28515539 223.0574847 -9.82031171 223.05292184 -12.35546875 223.04882812 C-18.57033293 223.03780224 -24.78516219 223.02106644 -31 223 C-31.07745956 222.36595749 -31.15491913 221.73191498 -31.23472595 221.07865906 C-31.59404045 218.18014023 -31.96682054 215.28350391 -32.33984375 212.38671875 C-32.46145874 211.38926636 -32.58307373 210.39181396 -32.70837402 209.36413574 C-33.60540449 202.49922272 -35.0001486 196.76876257 -39 191 C-39.66 190.01 -40.32 189.02 -41 188 C-42.14842923 189.28935919 -43.29366227 190.58156579 -44.4375 191.875 C-45.07558594 192.59429687 -45.71367188 193.31359375 -46.37109375 194.0546875 C-48.05014465 195.90750491 -48.05014465 195.90750491 -49 198 C-49.66 198 -50.32 198 -51 198 C-51 198.66 -51 199.32 -51 200 C-51.66 200 -52.32 200 -53 200 C-53.33 200.99 -53.66 201.98 -54 203 C-54.66 203 -55.32 203 -56 203 C-56 203.66 -56 204.32 -56 205 C-56.66 205 -57.32 205 -58 205 C-58 205.66 -58 206.32 -58 207 C-58.66 207 -59.32 207 -60 207 C-60 207.66 -60 208.32 -60 209 C-60.66 209 -61.32 209 -62 209 C-62.33 209.99 -62.66 210.98 -63 212 C-68.37142857 216 -68.37142857 216 -71 216 C-71 216.66 -71 217.32 -71 218 C-71.99 218 -72.98 218 -74 218 C-74 218.66 -74 219.32 -74 220 C-75.64453125 221.2890625 -75.64453125 221.2890625 -77.8125 222.625 C-78.52019531 223.07101562 -79.22789063 223.51703125 -79.95703125 223.9765625 C-82 225 -82 225 -85 225 C-85 225.66 -85 226.32 -85 227 C-86.26691507 227.67408308 -87.53870749 228.33900497 -88.8125 229 C-89.52019531 229.37125 -90.22789063 229.7425 -90.95703125 230.125 C-93 231 -93 231 -96 231 C-96.83848804 229.54462432 -97.67063934 228.08559627 -98.5 226.625 C-98.9640625 225.81289063 -99.428125 225.00078125 -99.90625 224.1640625 C-101 222 -101 222 -101 220 C-101.66 220 -102.32 220 -103 220 C-103.66 218.02 -104.32 216.04 -105 214 C-105.66 214 -106.32 214 -107 214 C-108.33203125 212.390625 -108.33203125 212.390625 -109.8125 210.25 C-112.22779291 206.89114057 -114.70189798 204.52207802 -118 202 C-118 201.34 -118 200.68 -118 200 C-119.0209375 199.6596875 -119.0209375 199.6596875 -120.0625 199.3125 C-123.6988709 197.68773854 -127.02829263 195.67196743 -130 193 C-130 192.34 -130 191.68 -130 191 C-130.804375 190.731875 -131.60875 190.46375 -132.4375 190.1875 C-133.283125 189.795625 -134.12875 189.40375 -135 189 C-135.33 188.01 -135.66 187.02 -136 186 C-130.22230581 182.59186625 -124.45305581 179.2188509 -118.5 176.125 C-100.22035682 166.16865256 -87.75270589 151.6421614 -81 132 C-77.27127947 119.14923104 -75.81702986 106.32488563 -74 93 C-90.17 93 -106.34 93 -123 93 C-123 74.85 -123 56.7 -123 38 C-85.38 37.505 -85.38 37.505 -47 37 C-49.64 32.38 -52.28 27.76 -55 23 C-55 22.01 -55 21.02 -55 20 C-38.11521726 12.85041102 -38.11521726 12.85041102 -30.00390625 10.61328125 C-27.16106448 9.74324975 -24.62871993 8.3741036 -22 7 C-20.00170718 6.32823348 -18.00144038 5.66232985 -16 5 C-12.63363536 3.6945942 -9.2792009 2.36171109 -5.92578125 1.0234375 C-3 0 -3 0 0 0 Z M-22 142 C-23.47276731 147.18724066 -23.47276731 147.18724066 -24.93066406 152.37866211 C-26.50211 157.81510425 -28.58717312 162.88447399 -31 168 C-25.7678105 168.21677407 -20.53539813 168.41368737 -15.30175781 168.59204102 C-13.52062902 168.65555993 -11.73968674 168.7245502 -9.95898438 168.79907227 C-7.40263405 168.90511241 -4.84626349 168.99160304 -2.2890625 169.07421875 C-1.09055161 169.1302552 -1.09055161 169.1302552 0.13217163 169.18742371 C2.60827315 169.29095246 2.60827315 169.29095246 6 169 C8.42004851 165.36992723 8.88165 161.96478573 9.5625 157.75 C9.68818359 157.01136719 9.81386719 156.27273438 9.94335938 155.51171875 C10.70078546 151.01474922 11.35473245 146.51687285 12 142 C0.78 142 -10.44 142 -22 142 Z " fill="#FBFBFB" transform="translate(168,261)"/>
<path d="M0 0 C6.27444779 2.02392461 12.42984439 4.26976993 18.5625 6.6875 C19.38041016 7.00783203 20.19832031 7.32816406 21.04101562 7.65820312 C23.02813622 8.43678254 25.01418427 9.21809845 27 10 C27 10.99 27 11.98 27 13 C26.34 13 25.68 13 25 13 C25 14.32 25 15.64 25 17 C26.02673828 17.38671875 26.02673828 17.38671875 27.07421875 17.78125 C30.42231146 19.17591612 33.61533818 20.79529711 36.8125 22.5 C37.77361694 23.01143555 37.77361694 23.01143555 38.75415039 23.53320312 C46.39030657 27.66195302 53.69590425 32.31616462 61 37 C61.33 31.72 61.66 26.44 62 21 C71.24 21 80.48 21 90 21 C90 58.95 90 96.9 90 136 C80.76 136 71.52 136 62 136 C61.67 104.98 61.34 73.96 61 42 C59.02 45.3 57.04 48.6 55 52 C53.71827488 54.04792243 52.42880536 56.09106364 51.125 58.125 C50.52945313 59.05570313 49.93390625 59.98640625 49.3203125 60.9453125 C48.66675781 61.96238281 48.66675781 61.96238281 48 63 C44.41624615 62.37530896 42.1651464 60.88529832 39.25 58.75 C34.93048514 55.64174376 30.54010773 52.77451028 26 50 C26 53.63 26 57.26 26 61 C12.14 61 -1.72 61 -16 61 C-16 59.02 -16 57.04 -16 55 C-20.29 57.97 -24.58 60.94 -29 64 C-2.93 64.33 23.14 64.66 50 65 C50 87.11 50 109.22 50 132 C26.9 132 3.8 132 -20 132 C-20 133.32 -20 134.64 -20 136 C4.75 136 29.5 136 55 136 C55 154.15 55 172.3 55 191 C46.42 191 37.84 191 29 191 C29 189.68 29 188.36 29 187 C19.1 187 9.2 187 -1 187 C-1 188.65 -1 190.3 -1 192 C-9.25 192 -17.5 192 -26 192 C-26.33 184.08 -26.66 176.16 -27 168 C-27.33 168.99 -27.66 169.98 -28 171 C-28.66 171 -29.32 171 -30 171 C-30.66 173.64 -31.32 176.28 -32 179 C-32.66 179 -33.32 179 -34 179 C-34.66 180.98 -35.32 182.96 -36 185 C-40.30186502 184.33317026 -43.95608149 182.86281785 -47.9375 181.125 C-49.12214844 180.61195313 -50.30679688 180.09890625 -51.52734375 179.5703125 C-54.72861397 178.12271899 -57.87044453 176.59583439 -61 175 C-61 173.68 -61 172.36 -61 171 C-60.34 171 -59.68 171 -59 171 C-58.82597656 169.96166016 -58.82597656 169.96166016 -58.6484375 168.90234375 C-57.92013753 165.64254327 -56.81552511 162.68311884 -55.625 159.5625 C-53.03453806 152.46688685 -51.38968314 145.43423991 -50 138 C-49.34 138 -48.68 138 -48 138 C-46.07769053 123.78936679 -45.58576342 109.70252188 -45.375 95.375 C-45.33670256 93.19269477 -45.29764462 91.01040275 -45.2578125 88.828125 C-45.16313469 83.55220296 -45.07774063 78.27619743 -45 73 C-45.99 73 -46.98 73 -48 73 C-48.17015625 72.443125 -48.3403125 71.88625 -48.515625 71.3125 C-51.16237104 62.97806565 -54.74174144 56.0938517 -59.828125 48.98046875 C-61 47 -61 47 -61 44 C-59.98164062 43.55011719 -58.96328125 43.10023438 -57.9140625 42.63671875 C-36.29789489 32.89214833 -13.92605204 19.80698618 0 0 Z " fill="#FAFAFA" transform="translate(116,522)"/>
<path d="M0 0 C4.54579961 0.61153451 9.00952159 1.37028401 13.4921875 2.33984375 C15.29236328 2.7275293 15.29236328 2.7275293 17.12890625 3.12304688 C18.36511719 3.39181641 19.60132812 3.66058594 20.875 3.9375 C22.10347656 4.20240234 23.33195312 4.46730469 24.59765625 4.74023438 C31.07009103 6.13808605 37.53783654 7.5554343 44 9 C44 6.03 44 3.06 44 0 C63.47 0 82.94 0 103 0 C103 11.88 103 23.76 103 36 C124.45 36 145.9 36 168 36 C168 54.15 168 72.3 168 91 C146.55 91 125.1 91 103 91 C103 92.32 103 93.64 103 95 C121.81 95 140.62 95 160 95 C160 113.15 160 131.3 160 150 C141.19 150 122.38 150 103 150 C103 152.64 103 155.28 103 158 C128.08 158 153.16 158 179 158 C179 176.48 179 194.96 179 214 C109.37 214 39.74 214 -32 214 C-32 195.52 -32 177.04 -32 158 C-6.92 158 18.16 158 44 158 C44 155.36 44 152.72 44 150 C26.84 150 9.68 150 -8 150 C-7.875 132.9375 -7.875 132.9375 -7.75732422 127.59350586 C-7.59892611 119.45539276 -7.59892611 119.45539276 -11.16333008 112.41796875 C-13.7084662 110.63947928 -16.1915926 109.31012083 -19 108 C-20.33314205 107.07059626 -21.64855898 106.11479294 -22.9375 105.125 C-25.84363962 102.89599909 -25.84363962 102.89599909 -29 102 C-29 101.34 -29 100.68 -29 100 C-29.68449219 99.90847656 -30.36898437 99.81695313 -31.07421875 99.72265625 C-34.70056363 98.82696359 -37.55047308 97.24973718 -40.8125 95.4375 C-41.40998047 95.10814453 -42.00746094 94.77878906 -42.62304688 94.43945312 C-44.08533998 93.63226733 -45.5431399 92.81695083 -47 92 C-45.79618552 89.50638429 -44.54571278 87.31856917 -43 85 C-42.34 85 -41.68 85 -41 85 C-41 84.34 -41 83.68 -41 83 C-40.278125 82.443125 -39.55625 81.88625 -38.8125 81.3125 C-36.36988959 79.30413144 -35.04732947 77.80577556 -33.3125 75.25 C-32.549375 74.1775 -31.78625 73.105 -31 72 C-30.34 72 -29.68 72 -29 72 C-28.71125 71.2575 -28.4225 70.515 -28.125 69.75 C-27.17697356 67.43260203 -26.15154089 65.22082885 -25 63 C-24.34 63 -23.68 63 -23 63 C-22.90203125 62.47535156 -22.8040625 61.95070313 -22.703125 61.41015625 C-21.76530423 58.19551505 -20.28043913 55.41520223 -18.75 52.4375 C-18.11091945 51.17110714 -17.47290705 49.90417471 -16.8359375 48.63671875 C-15.76442322 46.51075953 -14.68683378 44.38853857 -13.6015625 42.26953125 C-10.21125422 35.30536297 -8.24726384 28.13830518 -6.26953125 20.68359375 C-5.03230087 16.04034091 -3.63668606 11.45598065 -2.1875 6.875 C-1.85878906 5.83533081 -1.85878906 5.83533081 -1.5234375 4.7746582 C-1.01800674 3.1823475 -0.50939513 1.5910469 0 0 Z M57 14 C57 25.55 57 37.1 57 49 C48.75 49 40.5 49 32 49 C33.32 45.7 34.64 42.4 36 39 C36.78426186 36.71983127 37.54008702 34.42940007 38.25 32.125 C38.58515625 31.05507813 38.9203125 29.98515625 39.265625 28.8828125 C40.16457243 25.8497791 40.16457243 25.8497791 40 22 C36.31341552 21.18330882 32.62558072 20.3724052 28.9375 19.5625 C27.89916016 19.33240234 26.86082031 19.10230469 25.79101562 18.86523438 C20.53886783 17.7147639 15.33720197 16.65863343 10 16 C9.7733667 16.69037354 9.5467334 17.38074707 9.31323242 18.09204102 C8.27454659 21.24993189 7.23106505 24.40621833 6.1875 27.5625 C5.83107422 28.64853516 5.47464844 29.73457031 5.10742188 30.85351562 C3.28493391 36.35441967 1.39284927 41.72144595 -1 47 C-2.42793941 50.33185862 -3.3869315 53.42376708 -4 57 C-4.66 57 -5.32 57 -6 57 C-7.25664978 59.90600261 -8 61.79604584 -8 65 C-8.66 65 -9.32 65 -10 65 C-11.72060659 67.30676114 -11.72060659 67.30676114 -13.4375 70.1875 C-14.03433594 71.15042969 -14.63117188 72.11335937 -15.24609375 73.10546875 C-16.36699766 74.95533467 -17.4716059 76.81523834 -18.5546875 78.6875 C-20.34347781 81.5495645 -22.55609791 83.68820073 -25 86 C-23.64756308 90.05731077 -21.78968798 90.56198097 -18.125 92.6875 C-12.52389956 95.97983898 -7.36058986 99.61164386 -2.2421875 103.62890625 C-1.50226563 104.08136719 -0.76234375 104.53382813 0 105 C6.88192366 102.70602545 10.77416156 92.89591152 13.95703125 86.71484375 C15 85 15 85 17 84 C17 82.68 17 81.36 17 80 C17.66 80 18.32 80 19 80 C19 79.34 19 78.68 19 78 C31.87 78 44.74 78 58 78 C58 88.23 58 98.46 58 109 C40.51 109 23.02 109 5 109 C5 118.24 5 127.48 5 137 C22.49 137 39.98 137 58 137 C58 148.55 58 160.1 58 172 C32.92 172 7.84 172 -18 172 C-18 181.24 -18 190.48 -18 200 C42.39 200 102.78 200 165 200 C165 190.76 165 181.52 165 172 C139.59 172 114.18 172 88 172 C88 160.45 88 148.9 88 137 C107.14 137 126.28 137 146 137 C146 127.76 146 118.52 146 109 C126.86 109 107.72 109 88 109 C88 98.77 88 88.54 88 78 C109.78 78 131.56 78 154 78 C154 68.43 154 58.86 154 49 C132.55 49 111.1 49 89 49 C89 37.45 89 25.9 89 14 C78.44 14 67.88 14 57 14 Z M27 91 C26.67 92.32 26.34 93.64 26 95 C31.94 95 37.88 95 44 95 C44 93.68 44 92.36 44 91 C38.39 91 32.78 91 27 91 Z " fill="#070707" transform="translate(79,751)"/>
<path d="M0 0 C1.22338867 1.50610352 1.22338867 1.50610352 2.41796875 3.62890625 C3.08735474 4.80054321 3.08735474 4.80054321 3.77026367 5.99584961 C4.23795166 6.84284424 4.70563965 7.68983887 5.1875 8.5625 C5.91126831 9.8474939 5.91126831 9.8474939 6.6496582 11.15844727 C8.11191919 13.76573869 9.5566606 16.38219813 11 19 C11.83320249 20.48705248 12.66652647 21.97403691 13.5 23.4609375 C14.2308571 24.78552703 14.96012634 26.11099441 15.6875 27.4375 C16.02612061 28.044729 16.36474121 28.65195801 16.71362305 29.27758789 C18.47520736 32.55708854 19 34.1613246 19 38 C42.43 38 65.86 38 90 38 C90 56.15 90 74.3 90 93 C84.39 93 78.78 93 73 93 C73.02320313 94.29550781 73.04640625 95.59101563 73.0703125 96.92578125 C73.2008231 107.59831103 72.76292292 117.9603887 71.49609375 128.5546875 C71.02807028 132.51384441 70.79840317 136.4534565 70.625 140.4375 C70.18872076 148.11913099 69.19083367 155.6945158 68.125 163.3125 C67.96338379 164.49320068 67.80176758 165.67390137 67.63525391 166.89038086 C66.1579352 177.10168239 63.79938054 186.66820745 59.8125 196.1875 C59.53986328 196.85330078 59.26722656 197.51910156 58.98632812 198.20507812 C58.32994014 199.80574356 57.66585195 201.40324823 57 203 C56.34 203 55.68 203 55 203 C54.690625 203.61875 54.38125 204.2375 54.0625 204.875 C53.375 206.25 52.6875 207.625 52 209 C51.34 209 50.68 209 50 209 C50 209.66 50 210.32 50 211 C42.81209931 216.8482719 34.87110001 219.73659177 26 222 C25.39097839 222.17764389 24.78195679 222.35528778 24.15447998 222.53831482 C21.61098764 223.08336176 19.28253611 223.11972032 16.68066406 223.11352539 C15.61986633 223.11344986 14.5590686 223.11337433 13.46612549 223.11329651 C12.32746033 223.10813522 11.18879517 223.10297394 10.015625 223.09765625 C8.84489441 223.0962413 7.67416382 223.09482635 6.46795654 223.09336853 C2.72861171 223.0877709 -1.01067326 223.0752188 -4.75 223.0625 C-7.28515539 223.0574847 -9.82031171 223.05292184 -12.35546875 223.04882812 C-18.57033293 223.03780224 -24.78516219 223.02106644 -31 223 C-31.07745956 222.36595749 -31.15491913 221.73191498 -31.23472595 221.07865906 C-31.59404045 218.18014023 -31.96682054 215.28350391 -32.33984375 212.38671875 C-32.46145874 211.38926636 -32.58307373 210.39181396 -32.70837402 209.36413574 C-33.60540449 202.49922272 -35.0001486 196.76876257 -39 191 C-39.66 190.01 -40.32 189.02 -41 188 C-42.14842923 189.28935919 -43.29366227 190.58156579 -44.4375 191.875 C-45.07558594 192.59429687 -45.71367188 193.31359375 -46.37109375 194.0546875 C-48.05014465 195.90750491 -48.05014465 195.90750491 -49 198 C-49.66 198 -50.32 198 -51 198 C-51 198.66 -51 199.32 -51 200 C-51.66 200 -52.32 200 -53 200 C-53.33 200.99 -53.66 201.98 -54 203 C-54.66 203 -55.32 203 -56 203 C-56 203.66 -56 204.32 -56 205 C-56.66 205 -57.32 205 -58 205 C-58 205.66 -58 206.32 -58 207 C-58.66 207 -59.32 207 -60 207 C-60 207.66 -60 208.32 -60 209 C-60.66 209 -61.32 209 -62 209 C-62.33 209.99 -62.66 210.98 -63 212 C-68.37142857 216 -68.37142857 216 -71 216 C-71 216.66 -71 217.32 -71 218 C-71.99 218 -72.98 218 -74 218 C-74 218.66 -74 219.32 -74 220 C-75.64453125 221.2890625 -75.64453125 221.2890625 -77.8125 222.625 C-78.52019531 223.07101562 -79.22789063 223.51703125 -79.95703125 223.9765625 C-82 225 -82 225 -85 225 C-85 225.66 -85 226.32 -85 227 C-86.26691507 227.67408308 -87.53870749 228.33900497 -88.8125 229 C-89.52019531 229.37125 -90.22789063 229.7425 -90.95703125 230.125 C-93 231 -93 231 -96 231 C-96.83848804 229.54462432 -97.67063934 228.08559627 -98.5 226.625 C-98.9640625 225.81289063 -99.428125 225.00078125 -99.90625 224.1640625 C-101 222 -101 222 -101 220 C-101.66 220 -102.32 220 -103 220 C-103.66 218.02 -104.32 216.04 -105 214 C-105.66 214 -106.32 214 -107 214 C-108.33203125 212.390625 -108.33203125 212.390625 -109.8125 210.25 C-112.22779291 206.89114057 -114.70189798 204.52207802 -118 202 C-118 201.34 -118 200.68 -118 200 C-119.0209375 199.6596875 -119.0209375 199.6596875 -120.0625 199.3125 C-123.6988709 197.68773854 -127.02829263 195.67196743 -130 193 C-130 192.34 -130 191.68 -130 191 C-130.804375 190.731875 -131.60875 190.46375 -132.4375 190.1875 C-133.283125 189.795625 -134.12875 189.40375 -135 189 C-135.33 188.01 -135.66 187.02 -136 186 C-130.22230581 182.59186625 -124.45305581 179.2188509 -118.5 176.125 C-100.22035682 166.16865256 -87.75270589 151.6421614 -81 132 C-77.27127947 119.14923104 -75.81702986 106.32488563 -74 93 C-90.17 93 -106.34 93 -123 93 C-123 74.85 -123 56.7 -123 38 C-85.38 37.505 -85.38 37.505 -47 37 C-49.64 32.38 -52.28 27.76 -55 23 C-55 22.01 -55 21.02 -55 20 C-38.11521726 12.85041102 -38.11521726 12.85041102 -30.00390625 10.61328125 C-27.16106448 9.74324975 -24.62871993 8.3741036 -22 7 C-20.00170718 6.32823348 -18.00144038 5.66232985 -16 5 C-12.63363536 3.6945942 -9.2792009 2.36171109 -5.92578125 1.0234375 C-3 0 -3 0 0 0 Z M-13.83203125 18.6796875 C-14.79560547 19.03160156 -15.75917969 19.38351562 -16.75195312 19.74609375 C-18.26692383 20.30490234 -18.26692383 20.30490234 -19.8125 20.875 C-20.81087891 21.23980469 -21.80925781 21.60460937 -22.83789062 21.98046875 C-27.25011583 23.59720683 -31.64305371 25.23881668 -36 27 C-35.39657055 30.77651913 -34.29728319 33.78485404 -32.5625 37.1875 C-31.91474609 38.47720703 -31.91474609 38.47720703 -31.25390625 39.79296875 C-30.06628271 42.11072432 -30.06628271 42.11072432 -28 44 C-27.01 47.465 -27.01 47.465 -26 51 C-53.39 51 -80.78 51 -109 51 C-109 60.57 -109 70.14 -109 80 C-92.83 80 -76.66 80 -60 80 C-63.55002964 121.89034977 -63.55002964 121.89034977 -70 141.9375 C-70.2369458 142.67790527 -70.4738916 143.41831055 -70.71801758 144.18115234 C-72.19876181 148.4952582 -73.9544502 151.52795309 -77 155 C-77.91228755 156.38513518 -78.80869471 157.78088373 -79.6875 159.1875 C-87.71331885 171.28642191 -98.51724488 180.69876588 -111 188 C-110.63648437 188.42410156 -110.27296875 188.84820312 -109.8984375 189.28515625 C-109.14433594 190.16494141 -109.14433594 190.16494141 -108.375 191.0625 C-107.83101562 191.69414062 -107.28703125 192.32578125 -106.7265625 192.9765625 C-105.58425215 194.31528821 -104.45376463 195.6642017 -103.3359375 197.0234375 C-102.81257813 197.65507812 -102.28921875 198.28671875 -101.75 198.9375 C-101.03070313 199.81728516 -101.03070313 199.81728516 -100.296875 200.71484375 C-99.06752886 202.23463009 -99.06752886 202.23463009 -97 202 C-96.01 204.475 -96.01 204.475 -95 207 C-94.34 207 -93.68 207 -93 207 C-92.731875 207.639375 -92.46375 208.27875 -92.1875 208.9375 C-91.11332248 211.33131686 -91.11332248 211.33131686 -88 212 C-70.77970709 204.08398199 -56.02391001 186.15090199 -47 170 C-47 169.34 -47 168.68 -47 168 C-46.34 168 -45.68 168 -45 168 C-44.60167969 166.85402344 -44.20335938 165.70804688 -43.79296875 164.52734375 C-43.25794062 162.99735102 -42.72277715 161.46740562 -42.1875 159.9375 C-41.79594727 158.80924805 -41.79594727 158.80924805 -41.39648438 157.65820312 C-40.14960223 154.10227998 -38.85956534 150.62329716 -37.30078125 147.19140625 C-35.74837273 143.9570305 -35.74837273 143.9570305 -36 140 C-35.34 140 -34.68 140 -34 140 C-33.67 136.04 -33.34 132.08 -33 128 C-13.2 128 6.6 128 27 128 C26.01 133.28 25.02 138.56 24 144 C23.62948793 149.68389755 23.62948793 149.68389755 23.31640625 155.37109375 C22.89673955 160.18430814 21.83459592 164.7224157 20.62109375 169.390625 C19.88422255 172.03936521 19.88422255 172.03936521 20 175 C19.34 175 18.68 175 18 175 C16.64613064 176.65002828 15.31321858 178.3174387 14 180 C10.61606992 181.69196504 6.77522209 181.11986549 3.0546875 181.09765625 C2.1696756 181.0962413 1.2846637 181.09482635 0.37283325 181.09336853 C-2.45981191 181.0877614 -5.29237864 181.07520771 -8.125 181.0625 C-10.04296761 181.05748592 -11.96093646 181.05292285 -13.87890625 181.04882812 C-18.58596782 181.03778966 -23.2929706 181.02052025 -28 181 C-27.35522931 182.62542193 -26.70914857 184.25032424 -26.0625 185.875 C-25.70285156 186.77992188 -25.34320313 187.68484375 -24.97265625 188.6171875 C-24.05098738 190.96137667 -24.05098738 190.96137667 -23 193 C-22.34 193 -21.68 193 -21 193 C-21.04125 193.763125 -21.0825 194.52625 -21.125 195.3125 C-21.22080824 198.22718416 -21.22080824 198.22718416 -19 201 C-18.5859375 203.26171875 -18.5859375 203.26171875 -18.375 205.6875 C-18.30023438 206.49574219 -18.22546875 207.30398438 -18.1484375 208.13671875 C-18.07496094 209.05904297 -18.07496094 209.05904297 -18 210 C-13.59329294 210.07559007 -9.1869544 210.12926088 -4.77978516 210.16479492 C-3.28850717 210.17964702 -1.79727089 210.19993422 -0.30615234 210.22631836 C19.78236259 210.87827668 19.78236259 210.87827668 37.265625 202.76171875 C37.83796875 202.18035156 38.4103125 201.59898437 39 201 C39.69609375 200.40832031 40.3921875 199.81664062 41.109375 199.20703125 C48.18432692 192.53230471 49.54970761 184.26469677 51 175 C51 173.68 51 172.36 51 171 C51.66 171 52.32 171 53 171 C54.35098912 166.41789523 54.41731201 161.73835925 54.71875 156.99609375 C55 154 55 154 56 151 C56.16646705 149.65296754 56.2918466 148.30058134 56.38891602 146.94677734 C56.44890274 146.13518158 56.50888947 145.32358582 56.57069397 144.48739624 C56.63115402 143.61241486 56.69161407 142.73743347 56.75390625 141.8359375 C56.81907944 140.92929352 56.88425262 140.02264954 56.95140076 139.08853149 C57.08855696 137.16706564 57.22376444 135.24545984 57.35717773 133.32373047 C57.5602842 130.40682213 57.77086993 127.49052532 57.98242188 124.57421875 C58.11503535 122.70315698 58.24721051 120.83206409 58.37890625 118.9609375 C58.44139053 118.0981015 58.50387482 117.2352655 58.56825256 116.34628296 C58.62508713 115.51577423 58.68192169 114.6852655 58.74047852 113.82958984 C58.79075699 113.11249847 58.84103546 112.3954071 58.89283752 111.65658569 C59.04945287 107.77405046 59 103.88569276 59 100 C30.29 100 1.58 100 -28 100 C-27.67 97.69 -27.34 95.38 -27 93 C-27 88.71 -27 84.42 -27 80 C6.99 80 40.98 80 76 80 C76 70.43 76 60.86 76 51 C50.59 50.67 25.18 50.34 -1 50 C1.64 48.68 4.28 47.36 7 46 C6.505 42.535 6.505 42.535 6 39 C5.34 39 4.68 39 4 39 C3.93683594 38.35675781 3.87367188 37.71351563 3.80859375 37.05078125 C2.64246116 32.65102494 0.38591146 29.07505942 -1.9375 25.1875 C-2.39318359 24.39923828 -2.84886719 23.61097656 -3.31835938 22.79882812 C-3.97868164 21.68217773 -3.97868164 21.68217773 -4.65234375 20.54296875 C-5.05445068 19.86258545 -5.45655762 19.18220215 -5.87084961 18.48120117 C-6.42977905 17.74800659 -6.42977905 17.74800659 -7 17 C-9.57025189 17 -11.41510483 17.79351805 -13.83203125 18.6796875 Z M-22 142 C-23.47276731 147.18724066 -23.47276731 147.18724066 -24.93066406 152.37866211 C-26.50211 157.81510425 -28.58717312 162.88447399 -31 168 C-25.7678105 168.21677407 -20.53539813 168.41368737 -15.30175781 168.59204102 C-13.52062902 168.65555993 -11.73968674 168.7245502 -9.95898438 168.79907227 C-7.40263405 168.90511241 -4.84626349 168.99160304 -2.2890625 169.07421875 C-1.09055161 169.1302552 -1.09055161 169.1302552 0.13217163 169.18742371 C2.60827315 169.29095246 2.60827315 169.29095246 6 169 C8.42004851 165.36992723 8.88165 161.96478573 9.5625 157.75 C9.68818359 157.01136719 9.81386719 156.27273438 9.94335938 155.51171875 C10.70078546 151.01474922 11.35473245 146.51687285 12 142 C0.78 142 -10.44 142 -22 142 Z " fill="#060606" transform="translate(168,261)"/>
<path d="M0 0 C9.24 0 18.48 0 28 0 C28 14.19 28 28.38 28 43 C32.62 41.02 37.24 39.04 42 37 C49.87663626 37 49.87663626 37 52.89453125 38.05859375 C53.53970703 38.27966797 54.18488281 38.50074219 54.84960938 38.72851562 C55.82124023 39.07946289 55.82124023 39.07946289 56.8125 39.4375 C57.47958984 39.66759766 58.14667969 39.89769531 58.83398438 40.13476562 C61.28418159 40.98776062 63.67712554 41.83856277 66 43 C66.26949347 60.87640042 65.98367519 78.93430766 63.73095703 96.68212891 C62.97080124 102.74497292 62.62352205 108.7961265 62.4296875 114.90258789 C62.24046221 119.54667114 61.4102804 123.53587932 60 128 C59.60825846 129.64192903 59.23042167 131.28732795 58.875 132.9375 C58.70742187 133.70964844 58.53984375 134.48179687 58.3671875 135.27734375 C58.18542969 136.13005859 58.18542969 136.13005859 58 137 C53.32638819 136.30331252 48.80538913 135.23505638 44.25 134 C43.24259766 133.73316406 43.24259766 133.73316406 42.21484375 133.4609375 C37.2616342 132.1308171 37.2616342 132.1308171 35 131 C35.11977451 124.88418232 35.24409085 118.76847841 35.37231445 112.65283203 C35.41517872 110.57961426 35.45687899 108.50637203 35.49731445 106.43310547 C35.73552489 94.26378715 36.09658361 82.14014274 37 70 C36.071875 70.495 35.14375 70.99 34.1875 71.5 C31 73 31 73 28 73 C28 96.43 28 119.86 28 144 C18.76 144 9.52 144 0 144 C0 125.19 0 106.38 0 87 C-3.3 87.99 -6.6 88.98 -10 90 C-10 112.77 -10 135.54 -10 159 C-5.88405929 160.64637629 -4.2207425 161.25342121 -0.10546875 161.30639648 C0.83901123 161.32238388 1.78349121 161.33837128 2.7565918 161.35484314 C3.7650415 161.36020584 4.77349121 161.36556854 5.8125 161.37109375 C6.85897705 161.38012222 7.9054541 161.3891507 8.98364258 161.39845276 C11.19251654 161.4129366 13.40143322 161.42183735 15.61035156 161.42553711 C18.98836218 161.43745893 22.36456073 161.48668602 25.7421875 161.53710938 C27.8906161 161.54657113 30.0390559 161.55380735 32.1875 161.55859375 C33.70017456 161.58789223 33.70017456 161.58789223 35.2434082 161.61778259 C39.92151738 161.58767896 42.2529239 161.54438103 46.11791992 158.72802734 C47.89131472 156.15753655 48.6696589 154.8431531 48.92578125 151.79296875 C48.99990234 151.04208984 49.07402344 150.29121094 49.15039062 149.51757812 C49.20388672 148.74865234 49.25738281 147.97972656 49.3125 147.1875 C49.42174805 146.00510742 49.42174805 146.00510742 49.53320312 144.79882812 C49.70876962 142.86759666 49.85714108 140.93392603 50 139 C53.67240403 139.72738437 56.76629637 141.24825439 60.125 142.875 C65.64966711 145.47190567 71.09313202 147.47994819 77 149 C77.45036274 155.81864994 76.00845711 160.77951641 73.4375 167.0625 C72.95313477 168.35124023 72.95313477 168.35124023 72.45898438 169.66601562 C69.61753632 176.75069276 65.54314329 182.60079283 58.4375 185.875 C53.21190247 187.58519556 48.30001888 188.12554774 42.81787109 188.16113281 C41.61576996 188.17074036 40.41366882 188.1803479 39.17514038 188.19024658 C37.88757843 188.19449646 36.60001648 188.19874634 35.2734375 188.203125 C34.60989887 188.20595238 33.94636024 188.20877975 33.26271439 188.21169281 C29.74756734 188.22663798 26.2324608 188.23589554 22.71728516 188.24023438 C19.12005343 188.24569637 15.52320452 188.26968921 11.92609215 188.29820633 C9.13077784 188.31700607 6.33555234 188.32204752 3.54018021 188.32357025 C1.57958816 188.32799819 -0.380956 188.34656068 -2.34146118 188.36553955 C-12.35799459 188.34092018 -23.10014879 188.01557687 -30.60546875 180.6015625 C-39.46239573 170.4297416 -39.15551466 158.18454786 -39.09765625 145.40625 C-39.0962413 144.21898315 -39.09482635 143.03171631 -39.09336853 141.80847168 C-39.08779811 138.03895484 -39.07525105 134.26949871 -39.0625 130.5 C-39.05748118 127.93489669 -39.05291894 125.36979245 -39.04882812 122.8046875 C-39.03783836 116.53643783 -39.02112981 110.26822325 -39 104 C-41.64 104.33 -44.28 104.66 -47 105 C-47.50403768 103.70990357 -48.00309926 102.41786211 -48.5 101.125 C-48.7784375 100.40570313 -49.056875 99.68640625 -49.34375 98.9453125 C-50 97 -50 97 -50 95 C-50.66 95 -51.32 95 -52 95 C-52.73612138 93.2935368 -53.47073009 91.58639465 -54.1953125 89.875 C-54.85311606 88.34225384 -55.54657936 86.82485437 -56.25 85.3125 C-57.13535117 82.58266722 -57.12863034 81.62166151 -56 79 C-53.70703125 77.55078125 -53.70703125 77.55078125 -50.8125 76.3125 C-49.87019531 75.89613281 -48.92789063 75.47976562 -47.95703125 75.05078125 C-45 74 -45 74 -39 73 C-39 55.51 -39 38.02 -39 20 C-29.43 20 -19.86 20 -10 20 C-10 32.87 -10 45.74 -10 59 C-6.7 58.01 -3.4 57.02 0 56 C0 37.52 0 19.04 0 0 Z " fill="#F9F9F9" transform="translate(173,39)"/>
<path d="M0 0 C8.91 0 17.82 0 27 0 C27 14.19 27 28.38 27 43 C32.61 43 38.22 43 44 43 C44 52.24 44 61.48 44 71 C38.39 71 32.78 71 27 71 C27 82.88 27 94.76 27 107 C30.96 105.35 34.92 103.7 39 102 C40.65 102 42.3 102 44 102 C44.268125 103.258125 44.53625 104.51625 44.8125 105.8125 C45.81386818 110.37989154 47.07380333 114.84562994 48.4140625 119.32421875 C49.06238612 122.2848966 49.03907305 124.97756966 49 128 C43.33132795 130.84722216 37.66095743 133.69104118 31.98950195 136.53271484 C30.06822898 137.49583525 28.14731833 138.45967885 26.22680664 139.42431641 C20.70184279 142.19906961 15.17002096 144.95920233 9.6272583 147.69824219 C7.90080857 148.55366604 6.1765666 149.41356296 4.45477295 150.27832031 C2.12073464 151.4489716 -0.22130154 152.60171634 -2.56640625 153.75 C-3.59217018 154.27134521 -3.59217018 154.27134521 -4.63865662 154.80322266 C-7.53170812 156.1990495 -9.6178453 157.01882181 -12.85522461 156.859375 C-15 156 -15 156 -16.75 153.5 C-18.24293759 149.31977476 -18.71594323 145.40777747 -19 141 C-19.66 141 -20.32 141 -21 141 C-21.33 138.69 -21.66 136.38 -22 134 C-22.66 134 -23.32 134 -24 134 C-24.33 132.02 -24.66 130.04 -25 128 C-24.01773438 127.65388672 -24.01773438 127.65388672 -23.015625 127.30078125 C-16.72603275 125.05322922 -10.56578123 122.60057135 -4.43359375 119.953125 C-2 119 -2 119 0 119 C0 103.16 0 87.32 0 71 C-6.6 71 -13.2 71 -20 71 C-20 61.76 -20 52.52 -20 43 C-13.4 43 -6.8 43 0 43 C0 28.81 0 14.62 0 0 Z " fill="#FCFCFC" transform="translate(79,42)"/>
<path d="M0 0 C9.24 0 18.48 0 28 0 C28 56.76 28 113.52 28 172 C27.34 172 26.68 172 26 172 C25.9175 172.886875 25.835 173.77375 25.75 174.6875 C24.84433331 178.68752787 23.97804105 180.16722924 21 183 C11.35856257 188.99988732 2.11178798 190.32717918 -9.0625 190.125 C-10.02349609 190.11597656 -10.98449219 190.10695313 -11.97460938 190.09765625 C-14.31667805 190.07435208 -16.65819792 190.04164058 -19 190 C-19.12769775 189.38801758 -19.25539551 188.77603516 -19.38696289 188.14550781 C-19.5596167 187.33952148 -19.73227051 186.53353516 -19.91015625 185.703125 C-20.079104 184.90551758 -20.24805176 184.10791016 -20.42211914 183.28613281 C-21.0652302 180.74194525 -22.09783247 178.47959199 -23.203125 176.10546875 C-25.0404641 171.25093063 -25.90893576 166.06357802 -27 161 C-26.2479126 160.97494385 -25.4958252 160.9498877 -24.72094727 160.92407227 C-21.33460804 160.80849486 -17.94857387 160.68559655 -14.5625 160.5625 C-13.37849609 160.52318359 -12.19449219 160.48386719 -10.97460938 160.44335938 C-9.28754883 160.38051758 -9.28754883 160.38051758 -7.56640625 160.31640625 C-6.52427979 160.27974854 -5.48215332 160.24309082 -4.40844727 160.20532227 C-2.0500174 160.26484659 -2.0500174 160.26484659 -1 159 C-0.8909311 156.95005212 -0.85308745 154.89630684 -0.84178162 152.8434906 C-0.83684364 152.19335135 -0.83190566 151.5432121 -0.82681805 150.87337166 C-0.81137193 148.67917431 -0.80306333 146.48500637 -0.79467773 144.29077148 C-0.78510479 142.72413877 -0.77509506 141.15750868 -0.76467896 139.59088135 C-0.73756056 135.32456437 -0.71658868 131.05823625 -0.69667697 126.79188037 C-0.67486003 122.33820724 -0.64745042 117.88456871 -0.62062073 113.43092346 C-0.57063561 104.99135066 -0.52571845 96.55175871 -0.48259836 88.11214834 C-0.43327561 78.50648099 -0.37833914 68.90084834 -0.32291877 59.29521453 C-0.20900943 39.53017515 -0.10238912 19.76510213 0 0 Z " fill="#FAFAFA" transform="translate(214,523)"/>
<path d="M0 0 C1.25159912 0.00523682 2.50319824 0.01047363 3.79272461 0.01586914 C4.78942421 0.01799156 4.78942421 0.01799156 5.80625916 0.02015686 C7.93590735 0.02577021 10.06545175 0.03832485 12.19506836 0.05102539 C13.63582205 0.05603868 15.07657739 0.06060188 16.51733398 0.06469727 C20.05577938 0.07574394 23.59416375 0.09301747 27.13256836 0.11352539 C27.13256836 3.74352539 27.13256836 7.37352539 27.13256836 11.11352539 C16.90256836 11.11352539 6.67256836 11.11352539 -3.86743164 11.11352539 C-3.86743164 0.15311671 -3.86743164 0.15311671 0 0 Z " fill="#191919" transform="translate(117.867431640625,676.886474609375)"/>
<path d="M0 0 C13.86 0 27.72 0 42 0 C42 1.98 42 3.96 42 6 C28.14 6 14.28 6 0 6 C0 4.02 0 2.04 0 0 Z " fill="#0F0F0F" transform="translate(98,607)"/>
<path d="M0 0 C13.86 0 27.72 0 42 0 C42 1.65 42 3.3 42 5 C28.14 5 14.28 5 0 5 C0 3.35 0 1.7 0 0 Z " fill="#030303" transform="translate(98,629)"/>
<path d="M0 0 C3.79257446 1.62538905 7.29776165 3.68117233 10.625 6.125 C10.625 6.455 10.625 6.785 10.625 7.125 C4.355 7.125 -1.915 7.125 -8.375 7.125 C-8.375 5.125 -8.375 5.125 -5.6875 2.4375 C-3.54534375 0.7547339 -2.76864126 0.14571796 0 0 Z " fill="#0B0B0B" transform="translate(122.375,558.875)"/>
</svg>
