<?xml version="1.0" encoding="UTF-8"?>
<svg version="1.1" xmlns="http://www.w3.org/2000/svg" width="1130" height="346">
<path d="M0 0 C1.67578125 1.78125 1.67578125 1.78125 1.67578125 4.78125 C2.33578125 4.78125 2.99578125 4.78125 3.67578125 4.78125 C5.04296875 6.72265625 5.04296875 6.72265625 6.55078125 9.34375 C7.3396875 10.70693359 7.3396875 10.70693359 8.14453125 12.09765625 C8.64984375 12.98324219 9.15515625 13.86882813 9.67578125 14.78125 C10.09859375 15.49152344 10.52140625 16.20179687 10.95703125 16.93359375 C13.67578125 21.52633929 13.67578125 21.52633929 13.67578125 23.78125 C14.60390625 23.74 15.53203125 23.69875 16.48828125 23.65625 C19.57667162 23.65625 22.39933756 24.05190555 25.42578125 24.65625 C31.9572241 25.9184072 38.50856234 26.55193652 45.12109375 27.21484375 C51.43719998 27.84875532 57.74316447 28.56860526 64.05078125 29.28125 C75.5814068 30.57611128 87.12070737 31.72853695 98.67578125 32.78125 C98.78444695 39.13819355 98.05816938 44.56050342 96.67578125 50.78125 C101.95578125 51.11125 107.23578125 51.44125 112.67578125 51.78125 C112.15886719 50.74484375 111.64195312 49.7084375 111.109375 48.640625 C110.44339006 47.27113484 109.7780595 45.90132632 109.11328125 44.53125 C108.77103516 43.84933594 108.42878906 43.16742188 108.07617188 42.46484375 C106.29547769 38.75956091 105.36994785 36.70253522 106.67578125 32.78125 C107.21130615 32.66120605 107.74683105 32.54116211 108.29858398 32.41748047 C120.59310983 29.65592083 132.86269712 26.80536383 145.10913086 23.83740234 C150.95241729 22.42341951 156.80254523 21.06544979 162.67578125 19.78125 C163.00578125 20.44125 163.33578125 21.10125 163.67578125 21.78125 C167.30297873 23.12576216 171.21986343 23.08241046 175.046875 23.28125 C175.76504898 23.32185547 176.48322296 23.36246094 177.22315979 23.40429688 C179.51968233 23.53356726 181.81644534 23.65768375 184.11328125 23.78125 C187.11208723 23.94600895 190.11074956 24.11324092 193.109375 24.28125 C193.85197571 24.32213745 194.59457642 24.3630249 195.35968018 24.40515137 C199.54969496 24.64097665 203.72526787 24.94538937 207.90625 25.3125 C218.40647762 26.15324072 228.96252273 26.14637564 239.49023438 26.33349609 C242.34122598 26.38546233 245.192083 26.44255934 248.04296875 26.5 C248.90663055 26.51357544 249.77029236 26.52715088 250.66012573 26.5411377 C257.27380163 26.67623524 263.53244941 27.33090272 269.9140625 29.16796875 C275.53939122 30.75042193 281.19168435 32.18741914 286.86328125 33.59375 C287.8797876 33.84801758 288.89629395 34.10228516 289.94360352 34.36425781 C295.46852687 35.74474759 300.99802473 37.10288585 306.53515625 38.43359375 C307.63706299 38.70131592 308.73896973 38.96903809 309.87426758 39.24487305 C312.00527939 39.76224616 314.13790755 40.27301398 316.2722168 40.77661133 C317.229104 41.01017334 318.18599121 41.24373535 319.171875 41.484375 C320.01935303 41.68708008 320.86683105 41.88978516 321.73999023 42.09863281 C323.67578125 42.78125 323.67578125 42.78125 324.67578125 44.78125 C323.49432557 46.96813639 322.27411955 49.01352259 320.92578125 51.09375 C320.20164203 52.23556238 319.47768115 53.37748789 318.75390625 54.51953125 C317.72523438 56.13408203 317.72523438 56.13408203 316.67578125 57.78125 C315.66956813 59.44417301 314.6670029 61.10934766 313.67578125 62.78125 C317.30578125 63.11125 320.93578125 63.44125 324.67578125 63.78125 C324.88217078 100.24551652 324.88217078 100.24551652 323.67578125 117.78125 C320.70578125 117.78125 317.73578125 117.78125 314.67578125 117.78125 C314.67578125 130.98125 314.67578125 144.18125 314.67578125 157.78125 C311.04578125 157.78125 307.41578125 157.78125 303.67578125 157.78125 C303.67578125 159.76125 303.67578125 161.74125 303.67578125 163.78125 C310.27578125 163.78125 316.87578125 163.78125 323.67578125 163.78125 C324.00578125 176.65125 324.33578125 189.52125 324.67578125 202.78125 C325.35640625 199.749375 326.03703125 196.7175 326.73828125 193.59375 C329.6403987 180.76074979 332.74773955 167.97860969 335.85009766 155.19287109 C337.6281943 147.8459987 339.37483793 140.49164931 341.1171875 133.13623047 C341.67628699 130.77911785 342.23837041 128.4227307 342.80078125 126.06640625 C344.86806435 117.42112598 344.86806435 117.42112598 346.67578125 108.71875 C347.46565538 104.5892326 348.49693715 100.53692753 349.55078125 96.46875 C351.18804187 90.11443769 352.49023795 83.73425156 353.67578125 77.28125 C355.32365808 68.334015 357.37713708 59.58252253 359.67578125 50.78125 C361.16078125 44.84125 361.16078125 44.84125 362.67578125 38.78125 C381.15578125 38.78125 399.63578125 38.78125 418.67578125 38.78125 C417.35578125 45.05125 416.03578125 51.32125 414.67578125 57.78125 C414.02609375 61.37 414.02609375 61.37 413.36328125 65.03125 C411.27591882 76.36426669 408.59941211 87.57607308 406.03582764 98.8087616 C404.54185783 105.35768987 403.07162045 111.91179346 401.61328125 118.46875 C401.37134033 119.55559082 401.12939941 120.64243164 400.88012695 121.76220703 C399.05646579 129.98784987 397.2996787 138.22693987 395.55078125 146.46875 C393.71353137 155.12414614 391.78802056 163.73213051 389.53515625 172.2890625 C388.65617736 175.8609131 387.93761943 179.44121001 387.22949219 183.04980469 C386.2253933 188.003005 385.06965163 192.92128949 383.92578125 197.84375 C383.66410156 198.97353271 383.40242187 200.10331543 383.1328125 201.26733398 C380.6200486 212.08258843 378.03199534 222.87931131 375.42578125 233.67236328 C374.42180566 237.83402511 373.42289335 241.99689354 372.42456055 246.15991211 C371.92924346 248.22467536 371.4333221 250.28929375 370.93676758 252.35375977 C369.61327071 257.85823425 368.30014714 263.3649599 367 268.875 C366.72607422 270.03064453 366.45214844 271.18628906 366.16992188 272.37695312 C365.64096346 274.60933694 365.11482214 276.84239054 364.59179688 279.07617188 C364.35525391 280.07197266 364.11871094 281.06777344 363.875 282.09375 C363.66705811 282.97675781 363.45911621 283.85976563 363.24487305 284.76953125 C362.67578125 286.78125 362.67578125 286.78125 361.67578125 287.78125 C360.04505607 287.87991871 358.41007406 287.90923822 356.77636719 287.91064453 C355.20903839 287.91537277 355.20903839 287.91537277 353.61004639 287.92019653 C351.90235077 287.91716019 351.90235077 287.91716019 350.16015625 287.9140625 C348.41548065 287.91549759 348.41548065 287.91549759 346.63555908 287.91696167 C344.16735785 287.91764392 341.69915484 287.91578656 339.23095703 287.91162109 C335.4560134 287.90629267 331.6811898 287.91155466 327.90625 287.91796875 C325.51171849 287.9173076 323.11718705 287.91602567 320.72265625 287.9140625 C319.02710602 287.91709885 319.02710602 287.91709885 317.29730225 287.92019653 C316.23980774 287.91704437 315.18231323 287.91389221 314.09277344 287.91064453 C313.16535339 287.90984894 312.23793335 287.90905334 311.28240967 287.90823364 C308.6557318 287.78027328 306.23674888 287.36409016 303.67578125 286.78125 C306.58760421 273.34206709 310.15854658 260.07167032 313.67578125 246.78125 C313.01578125 246.78125 312.35578125 246.78125 311.67578125 246.78125 C311.67578125 247.44125 311.67578125 248.10125 311.67578125 248.78125 C310.35578125 248.78125 309.03578125 248.78125 307.67578125 248.78125 C307.67578125 249.44125 307.67578125 250.10125 307.67578125 250.78125 C305.69578125 251.44125 303.71578125 252.10125 301.67578125 252.78125 C301.67578125 253.44125 301.67578125 254.10125 301.67578125 254.78125 C301.14210938 255.07257813 300.6084375 255.36390625 300.05859375 255.6640625 C299.31351562 256.07398438 298.5684375 256.48390625 297.80078125 256.90625 C296.98222656 257.35355469 296.16367187 257.80085938 295.3203125 258.26171875 C293.53264031 259.2889041 291.77917693 260.377646 290.0625 261.51953125 C283.48591665 265.86067504 283.48591665 265.86067504 279.48828125 265.46875 C276.67578125 263.78125 276.67578125 263.78125 273.47265625 261.41796875 C269.85886083 258.82251641 266.11576397 256.83030097 262.11328125 254.90625 C260.70701017 254.21618879 259.3007606 253.52608374 257.89453125 252.8359375 C257.19199219 252.49401367 256.48945313 252.15208984 255.765625 251.79980469 C252.53958021 250.22748472 249.32573163 248.6311126 246.11328125 247.03125 C245.03949219 246.50015625 243.96570313 245.9690625 242.859375 245.421875 C239.39967241 243.63896078 236.0421015 241.73397045 232.67578125 239.78125 C232.62043213 240.39121826 232.56508301 241.00118652 232.50805664 241.62963867 C232.25422809 244.40960273 231.9962935 247.18917124 231.73828125 249.96875 C231.65126953 250.92845703 231.56425781 251.88816406 231.47460938 252.87695312 C231.38759766 253.80830078 231.30058594 254.73964844 231.2109375 255.69921875 C231.13238525 256.55281982 231.05383301 257.4064209 230.97290039 258.28588867 C230.67096581 260.8216926 230.2094675 263.28484947 229.67578125 265.78125 C223.75705791 265.54077408 217.83874763 265.29213303 211.9206543 265.03662109 C209.91651207 264.95116138 207.91228102 264.86775433 205.90795898 264.78662109 C192.76080271 264.25269296 179.74288947 263.33765383 166.67578125 261.78125 C166.66032479 259.49369405 166.6449222 257.20613805 166.62991333 254.9185791 C166.61764502 253.15761451 166.60247117 251.39666959 166.58569336 249.63574219 C166.58194702 248.49347168 166.58194702 248.49347168 166.578125 247.328125 C166.57026978 246.16555176 166.57026978 246.16555176 166.56225586 244.97949219 C166.67541127 242.78841402 167.07025677 240.88487139 167.67578125 238.78125 C166.70382812 239.21695313 165.731875 239.65265625 164.73046875 240.1015625 C145.59147562 248.4556976 123.77600248 255.2816505 102.67578125 254.78125 C102.30453125 253.9975 101.93328125 253.21375 101.55078125 252.40625 C98.13196191 245.56861133 93.98881796 239.08491904 89.67578125 232.78125 C88.48882572 236.34211658 88.32482707 239.75456024 88.11328125 243.46875 C88.07009766 244.17064453 88.02691406 244.87253906 87.98242188 245.59570312 C87.87660765 247.32400206 87.77571544 249.0526011 87.67578125 250.78125 C80.12865312 250.95021556 72.79956261 250.28848944 65.30078125 249.46875 C64.03943359 249.33412354 62.77808594 249.19949707 61.47851562 249.06079102 C57.54374177 248.63903306 53.60977678 248.21019948 49.67578125 247.78125 C47.19403267 247.51541716 44.71226245 247.2497863 42.23046875 246.984375 C39.87884459 246.72973545 37.52727949 246.47454972 35.17578125 246.21875 C34.11053223 246.10426514 33.0452832 245.98978027 31.94775391 245.87182617 C25.48541728 245.15733338 19.07571458 244.24783827 12.65380859 243.23413086 C8.85721532 242.65676731 5.05819864 242.22935242 1.23828125 241.84375 C-8.37763773 240.82089037 -17.9463423 239.50416257 -27.52294922 238.16796875 C-30.25894559 237.79026104 -32.9962215 237.42420854 -35.734375 237.0625 C-46.68212056 235.61019749 -57.58586238 233.96832153 -68.48608398 232.19384766 C-75.19166543 231.1067394 -81.89409098 230.13988118 -88.6328125 229.28125 C-93.97997285 228.55697855 -99.30448384 227.69943022 -104.63037109 226.83374023 C-109.51912284 226.04403488 -114.40687347 225.36864619 -119.32421875 224.78125 C-119.65421875 225.44125 -119.98421875 226.10125 -120.32421875 226.78125 C-121.31421875 226.78125 -122.30421875 226.78125 -123.32421875 226.78125 C-123.65421875 227.77125 -123.98421875 228.76125 -124.32421875 229.78125 C-126.1015625 231.38671875 -126.1015625 231.38671875 -128.26171875 232.96875 C-128.97199219 233.49855469 -129.68226563 234.02835938 -130.4140625 234.57421875 C-132.32421875 235.78125 -132.32421875 235.78125 -134.32421875 235.78125 C-134.32421875 234.79125 -134.32421875 233.80125 -134.32421875 232.78125 C-134.98421875 232.78125 -135.64421875 232.78125 -136.32421875 232.78125 C-140.32421875 227.48713235 -140.32421875 227.48713235 -140.32421875 223.78125 C-140.98421875 223.78125 -141.64421875 223.78125 -142.32421875 223.78125 C-143.4375 222.171875 -143.4375 222.171875 -144.63671875 220.03125 C-146.78330638 216.43887247 -148.94592068 214.29331779 -152.32421875 211.78125 C-153.65755208 210.11458333 -154.99088542 208.44791667 -156.32421875 206.78125 C-157.23171875 206.059375 -158.13921875 205.3375 -159.07421875 204.59375 C-159.81671875 203.995625 -160.55921875 203.3975 -161.32421875 202.78125 C-161.32421875 202.12125 -161.32421875 201.46125 -161.32421875 200.78125 C-162.39736328 200.41 -162.39736328 200.41 -163.4921875 200.03125 C-166.63831581 198.64261405 -168.96232838 196.93661054 -171.63671875 194.78125 C-172.51972656 194.08 -173.40273437 193.37875 -174.3125 192.65625 C-175.30830078 191.728125 -175.30830078 191.728125 -176.32421875 190.78125 C-176.32421875 188.78125 -176.32421875 188.78125 -175.01171875 187.15625 C-173.32421875 185.78125 -173.32421875 185.78125 -170.32421875 185.78125 C-169.99421875 184.79125 -169.66421875 183.80125 -169.32421875 182.78125 C-167.50390625 181.203125 -167.50390625 181.203125 -165.19921875 179.53125 C-140.60586395 160.86212646 -136.22809862 128.62521944 -131.40234375 99.9765625 C-130.6498586 95.52469583 -129.76809702 91.13276336 -128.75292969 86.734375 C-128.13402713 83.91477337 -127.72480981 81.07653799 -127.32421875 78.21875 C-126.58553449 73.29611191 -125.78917986 68.54237362 -124.32421875 63.78125 C-123.66421875 63.45125 -123.00421875 63.12125 -122.32421875 62.78125 C-123.97421875 60.80125 -125.62421875 58.82125 -127.32421875 56.78125 C-125.01421875 56.78125 -122.70421875 56.78125 -120.32421875 56.78125 C-120.20304687 55.80285156 -120.081875 54.82445312 -119.95703125 53.81640625 C-119.15680702 47.50334692 -118.3091469 41.26524711 -116.82421875 35.0703125 C-115.46093995 28.82905172 -114.71477581 22.44673069 -113.7890625 16.12890625 C-113.61503906 14.96230469 -113.44101563 13.79570313 -113.26171875 12.59375 C-113.02775391 10.99466797 -113.02775391 10.99466797 -112.7890625 9.36328125 C-112.32421875 6.78125 -112.32421875 6.78125 -111.32421875 4.78125 C-106.54056294 4.57769018 -102.51463231 5.10070614 -97.87109375 6.21484375 C-93.99268921 7.07737237 -90.0767336 7.62517974 -86.1484375 8.2109375 C-81.51629053 8.90173776 -76.88869155 9.61921832 -72.26171875 10.34375 C-71.44010254 10.47064209 -70.61848633 10.59753418 -69.77197266 10.72827148 C-68.9938623 10.85016846 -68.21575195 10.97206543 -67.4140625 11.09765625 C-66.72175537 11.20537354 -66.02944824 11.31309082 -65.31616211 11.42407227 C-63.94705702 11.66956813 -62.58658902 11.9670816 -61.23779297 12.30688477 C-51.43748589 14.73633063 -42.46736319 11.86077853 -33.33935547 8.49121094 C-29.11307452 7.00223287 -24.78700321 5.83058001 -20.47875977 4.60473633 C-15.12573575 3.06462221 -9.92553583 1.2345205 -4.7421875 -0.8125 C-2.32421875 -1.21875 -2.32421875 -1.21875 0 0 Z M84.67578125 85.78125 C87.03531219 88.14078094 88.45473742 88.27266413 91.67578125 88.78125 C92.00578125 88.12125 92.33578125 87.46125 92.67578125 86.78125 C90.03578125 86.45125 87.39578125 86.12125 84.67578125 85.78125 Z M97.67578125 105.78125 C96.46585773 108.20109705 96.39023149 110.06266145 96.17578125 112.76171875 C96.09328125 113.76138672 96.01078125 114.76105469 95.92578125 115.79101562 C95.84328125 116.83966797 95.76078125 117.88832031 95.67578125 118.96875 C94.79535705 129.95341751 94.79535705 129.95341751 94.1171875 134.6484375 C93.68428451 137.7208994 93.57501783 140.61941282 93.61328125 143.71875 C93.63390625 145.389375 93.65453125 147.06 93.67578125 148.78125 C89.71578125 148.12125 85.75578125 147.46125 81.67578125 146.78125 C79.91039258 160.10493805 78.24873521 173.34646758 77.67578125 186.78125 C73.71578125 186.28625 73.71578125 186.28625 69.67578125 185.78125 C69.67578125 188.75125 69.67578125 191.72125 69.67578125 194.78125 C73.63578125 194.78125 77.59578125 194.78125 81.67578125 194.78125 C83.9207985 180.18863786 84.75341313 165.50503306 85.67578125 150.78125 C86.78312622 151.02572876 86.78312622 151.02572876 87.9128418 151.27514648 C90.32665085 151.71729778 92.44029076 151.89755145 94.8828125 151.87890625 C95.63369141 151.87568359 96.38457031 151.87246094 97.15820312 151.86914062 C97.92712891 151.86076172 98.69605469 151.85238281 99.48828125 151.84375 C100.27654297 151.83923828 101.06480469 151.83472656 101.87695312 151.83007812 C103.80992886 151.81836312 105.74286518 151.80042998 107.67578125 151.78125 C107.67578125 150.13125 107.67578125 148.48125 107.67578125 146.78125 C104.04578125 146.45125 100.41578125 146.12125 96.67578125 145.78125 C96.80855469 144.48574219 96.94132812 143.19023437 97.078125 141.85546875 C98.28161719 129.83760959 99.15176302 117.84745924 99.67578125 105.78125 C99.01578125 105.78125 98.35578125 105.78125 97.67578125 105.78125 Z M312.67578125 218.78125 C314.99435042 220.32696278 317.18216554 221.57743552 319.67578125 222.78125 C320.00578125 221.46125 320.33578125 220.14125 320.67578125 218.78125 C318.03578125 218.78125 315.39578125 218.78125 312.67578125 218.78125 Z " fill="#050505" transform="translate(202.32421875,40.21875)"/>
<path d="M0 0 C-0.40467539 3.94558507 -1.41314146 7.14477979 -3.046875 10.72265625 C-3.41135742 11.52582275 -3.77583984 12.32898926 -4.15136719 13.15649414 C-4.43141602 13.76485107 -4.71146484 14.37320801 -5 15 C-4.30551758 14.85377197 -3.61103516 14.70754395 -2.89550781 14.55688477 C0.31815751 13.88466022 3.53401681 13.22354298 6.75 12.5625 C7.84183594 12.33240234 8.93367188 12.10230469 10.05859375 11.86523438 C17.36608983 10.37346742 24.55507892 9.4436311 32 9 C33.66256218 12.76722071 34.50944643 16.28499021 35.1484375 20.34765625 C35.44633179 22.19967651 35.44633179 22.19967651 35.75024414 24.08911133 C35.85209015 24.73731842 35.95393616 25.38552551 36.05886841 26.05337524 C36.59483745 29.45964245 37.14997599 32.86275114 37.70703125 36.265625 C37.81718063 36.93938675 37.92733002 37.6131485 38.04081726 38.30732727 C38.92623843 43.6700236 39.94912619 48.99317123 41.0625 54.3125 C42.83686733 62.83106893 44.22523738 71.39143844 45.56835938 79.98754883 C46.68081096 87.08602326 47.91748406 94.14379068 49.2734375 101.19921875 C50.10805019 105.5652303 50.90591444 109.93673149 51.6875 114.3125 C51.81906494 115.03695312 51.95062988 115.76140625 52.08618164 116.5078125 C52.59740806 119.38470738 53 122.07118957 53 125 C55.97 124.67 58.94 124.34 62 124 C63.81548138 128.06918241 64.72877644 132.1365396 65.5 136.5 C65.69444702 137.56710205 65.69444702 137.56710205 65.89282227 138.65576172 C66.82322901 143.82597466 67.62397292 149.01070197 68.39453125 154.20703125 C69.77119219 162.83114589 71.41136245 171.41280125 73 180 C62.38836919 182.40553046 51.74074198 184.28294261 41 186 C41.30341309 187.00772461 41.60682617 188.01544922 41.91943359 189.05371094 C42.9644058 192.71703338 43.6660223 196.38018641 44.2890625 200.140625 C44.39721283 200.78948669 44.50536316 201.43834839 44.61679077 202.10687256 C44.84217283 203.464482 45.06559294 204.82241853 45.28710938 206.18066406 C45.62652192 208.25932068 45.97294744 210.33672156 46.3203125 212.4140625 C48 222.57253038 48 222.57253038 48 226 C47.18660156 226.10957031 46.37320312 226.21914063 45.53515625 226.33203125 C38.91453109 227.24804575 32.32836545 228.25931957 25.75 229.4375 C25.04544678 229.56342529 24.34089355 229.68935059 23.61499023 229.8190918 C22.15901579 230.07942075 20.7030425 230.33975612 19.24707031 230.60009766 C-1.82362565 234.34996728 -1.82362565 234.34996728 -12 235 C-14.31422571 221.70551189 -16.24238272 208.37899024 -18 195 C-18.75933838 195.19118408 -19.51867676 195.38236816 -20.30102539 195.5793457 C-28.96257557 197.67885787 -37.60188766 199.05721012 -46.4375 200.1875 C-47.77285081 200.36605585 -49.10813767 200.54509062 -50.44335938 200.72460938 C-56.00740719 201.45279956 -61.3802845 202.10468879 -67 202 C-66.80664062 202.81339844 -66.61328125 203.62679687 -66.4140625 204.46484375 C-64.25948207 213.94713088 -63.00233425 223.33940701 -62 233 C-61.87496094 234.07765625 -61.74992187 235.1553125 -61.62109375 236.265625 C-61.51925781 237.16796875 -61.41742187 238.0703125 -61.3125 239 C-61.22613281 239.763125 -61.13976562 240.52625 -61.05078125 241.3125 C-61.03402344 241.869375 -61.01726562 242.42625 -61 243 C-63.03364541 245.03364541 -67.00749395 244.64328948 -69.8125 244.9375 C-74.75585783 245.48506095 -79.66500337 246.05771019 -84.5625 246.9375 C-90.78780571 248.02432013 -97.04496598 248.8266149 -103.3125 249.625 C-104.35156494 249.760271 -105.39062988 249.89554199 -106.46118164 250.03491211 C-111.684867 250.68918934 -116.73558493 251.16335279 -122 251 C-122.66 252.32 -123.32 253.64 -124 255 C-128.66808148 254.12831894 -133.31058763 253.18298928 -137.921875 252.046875 C-146.30758838 249.98451118 -154.53628377 248.36862952 -163.12109375 247.39453125 C-166 247 -166 247 -168 246 C-168 248.97 -168 251.94 -168 255 C-183.28164768 257.30204308 -198.66457676 258.37056066 -214.06640625 259.53515625 C-215.21512207 259.62345703 -216.36383789 259.71175781 -217.54736328 259.80273438 C-219.77848398 259.97369163 -222.00992933 260.14047181 -224.24169922 260.30273438 C-225.24346191 260.37943359 -226.24522461 260.45613281 -227.27734375 260.53515625 C-228.16671631 260.600979 -229.05608887 260.66680176 -229.97241211 260.73461914 C-231.99271736 260.78959742 -231.99271736 260.78959742 -233 262 C-241.22504457 263.15060733 -249.52679498 263.51723502 -257.8125 264 C-259.31290783 264.08844445 -260.81331473 264.17690488 -262.3137207 264.26538086 C-265.25102937 264.43782595 -268.18844696 264.60821713 -271.12597656 264.77685547 C-274.17541272 264.95250361 -277.22444217 265.13336725 -280.2734375 265.31640625 C-288.25847537 265.773337 -296.24318901 266.04363132 -304.23828125 266.24609375 C-305.49266243 266.27794518 -305.49266243 266.27794518 -306.77238464 266.31044006 C-310.99876512 266.41634266 -315.22518303 266.51636989 -319.4519043 266.60766602 C-333.65076144 266.02309888 -333.65076144 266.02309888 -347 269 C-348.93971378 269.12005547 -350.88343616 269.17733344 -352.82666016 269.20532227 C-354.04777496 269.22526749 -355.26888977 269.24521271 -356.52700806 269.26576233 C-357.86435823 269.28274656 -359.20170975 269.29962537 -360.5390625 269.31640625 C-361.90384553 269.33697603 -363.26862218 269.35797251 -364.63339233 269.37937927 C-368.22707973 269.43459759 -371.8208246 269.48400787 -375.41461182 269.53222656 C-379.08114746 269.58244337 -382.74759956 269.63812849 -386.4140625 269.69335938 C-393.60930426 269.800938 -400.80461546 269.90238357 -408 270 C-408.00808685 269.36173279 -408.01617371 268.72346558 -408.02450562 268.06585693 C-408.13281858 259.62711501 -408.25062209 251.1885191 -408.375 242.75 C-408.39024782 241.71491365 -408.39024782 241.71491365 -408.40580368 240.65891647 C-408.76073309 216.78710177 -409.3375206 192.92584064 -410.0625 169.0625 C-410.08555962 168.30329758 -410.10861923 167.54409515 -410.13237762 166.7618866 C-410.41413412 157.50767975 -410.70591039 148.25382925 -411 139 C-400.77 139 -390.54 139 -380 139 C-380.33 135.37 -380.66 131.74 -381 128 C-381.12708287 124.68716578 -381.22757748 121.38760374 -381.28125 118.07421875 C-381.30838829 116.72136024 -381.30838829 116.72136024 -381.33607483 115.34117126 C-381.37420915 113.43485498 -381.41077027 111.52850663 -381.4458313 109.62213135 C-381.53712383 104.67628799 -381.64032012 99.73070887 -381.74609375 94.78515625 C-381.76655258 93.82780579 -381.78701141 92.87045532 -381.80809021 91.88409424 C-381.95912335 85.12509392 -382.20097489 78.37627131 -382.5625 71.625 C-383.12649621 61.08406905 -383.1002571 50.55321629 -383 40 C-380.09646636 39.03215545 -378.0693623 38.82759955 -375.0390625 38.73461914 C-374.02529541 38.70110855 -373.01152832 38.66759796 -371.96704102 38.6330719 C-370.86416748 38.60075974 -369.76129395 38.56844757 -368.625 38.53515625 C-366.2513011 38.45640976 -363.87760322 38.37763261 -361.50390625 38.29882812 C-357.79285573 38.18102852 -354.0817566 38.0650243 -350.37060547 37.95043945 C-335.94235162 37.49851494 -321.56477485 36.86532541 -307.17443848 35.70118713 C-300.1390996 35.13282391 -293.11612211 34.75063973 -286.0625 34.5 C-278.09774587 34.19596797 -270.22489445 33.59788665 -262.30200195 32.73266602 C-255.68882173 32.02418227 -249.08508865 31.61713581 -242.44042969 31.34179688 C-238.29090566 31.16178211 -234.25777493 30.77075382 -230.13769531 30.20727539 C-226.10103159 29.81587207 -222.05079073 29.92529279 -218 30 C-215.6799312 49.89281696 -213.55419082 69.7500993 -212.2265625 89.73828125 C-211.98593005 93.20255873 -211.71561973 96.66353682 -211.4375 100.125 C-211.34355957 101.29788574 -211.24961914 102.47077148 -211.15283203 103.67919922 C-210.97378997 105.89976127 -210.79263716 108.12015464 -210.60888672 110.34033203 C-210.13939001 116.25029972 -209.91371962 122.07130509 -210 128 C-209.30438965 127.93941406 -208.6087793 127.87882812 -207.89208984 127.81640625 C-204.71994937 127.5416248 -201.54748468 127.27077724 -198.375 127 C-197.28058594 126.90460938 -196.18617188 126.80921875 -195.05859375 126.7109375 C-193.99511719 126.62070313 -192.93164062 126.53046875 -191.8359375 126.4375 C-190.86188965 126.35371094 -189.8878418 126.26992187 -188.88427734 126.18359375 C-185.91484768 125.99457977 -182.97460517 125.9691351 -180 126 C-178.28024948 137.58087316 -177.21590216 149.18213662 -176.25878906 160.84765625 C-175.98607813 164.16958412 -175.70836287 167.49106741 -175.4296875 170.8125 C-174.9495376 176.54137187 -174.47333126 182.27056097 -174 188 C-173.67699144 169.45433913 -173.77242959 151.05230575 -175.375 132.5625 C-175.43821442 131.82076538 -175.50142883 131.07903076 -175.56655884 130.31481934 C-176.27735614 122.12681696 -177.24178494 114.01934609 -178.55371094 105.90258789 C-179.19068561 101.75981333 -179.58061164 97.6121941 -179.9375 93.4375 C-180.69090569 85.11561786 -181.53667001 76.8072041 -182.4375 68.5 C-184.00672352 54.00485237 -185.51037079 39.50352809 -187 25 C-173.38624453 22.45060759 -159.80784718 21.02847966 -146 20 C-146.185625 19.030625 -146.37125 18.06125 -146.5625 17.0625 C-146.706875 16.051875 -146.85125 15.04125 -147 14 C-145.0545899 12.0545899 -141.41995977 12.44606207 -138.75 12.1875 C-128.80095071 11.1669248 -118.91212647 9.76515002 -109.01660156 8.32104492 C-103.2968914 7.50565081 -97.78063041 6.74308309 -92 7 C-91.49599549 9.91602609 -90.99665334 12.83272092 -90.5 15.75 C-90.35691406 16.575 -90.21382812 17.4 -90.06640625 18.25 C-89.93105469 19.04921875 -89.79570313 19.8484375 -89.65625 20.671875 C-89.53056641 21.4050293 -89.40488281 22.13818359 -89.27539062 22.89355469 C-89 25 -89 25 -89 29 C-80.41748633 28.04187799 -80.41748633 28.04187799 -73.8125 23.25 C-73.2789224 21.3525118 -73.2789224 21.3525118 -73 19 C-72.72349609 17.15728516 -72.72349609 17.15728516 -72.44140625 15.27734375 C-72.0580594 12.59617264 -71.73276405 9.92359634 -71.4296875 7.23046875 C-71 4 -71 4 -70 2 C-57.64750946 1.15479139 -45.30893194 0.74461033 -32.9309082 0.49731445 C-29.91024328 0.43695535 -26.88969714 0.37218307 -23.86914062 0.30664062 C-21.9218803 0.26537422 -19.97461483 0.22434974 -18.02734375 0.18359375 C-16.69279396 0.15548866 -16.69279396 0.15548866 -15.33128357 0.1268158 C-10.2196322 0.02528481 -5.11266104 -0.01739126 0 0 Z M-233 253 C-233 254.98 -233 256.96 -233 259 C-232.67 259 -232.34 259 -232 259 C-232 257.02 -232 255.04 -232 253 C-232.33 253 -232.66 253 -233 253 Z " fill="#040404" transform="translate(1022,38)"/>
<path d="M0 0 C0.22437744 0.55985596 0.44875488 1.11971191 0.67993164 1.6965332 C5.01508717 12.9009732 5.01508717 12.9009732 13.37109375 20.859375 C16.58474794 21.48204212 19.65654733 21.84393781 22.92871094 21.92578125 C25.05537733 22.00198429 27.11676773 22.22552372 29.2265625 22.5 C35.58713161 23.32598315 41.96922048 23.90738838 48.35546875 24.49609375 C50.17448879 24.66395825 51.99349922 24.83192687 53.8125 25 C54.70396729 25.08185547 55.59543457 25.16371094 56.51391602 25.24804688 C61.3934751 25.70883617 66.2214985 26.28075933 71.0625 27.0625 C77.00285217 28.00045034 83.0068286 28.50056905 89 29 C88.34 37.25 87.68 45.5 87 54 C80.61009002 54 75.39383431 53.93324065 69.25 53 C64.77228957 52.32553316 60.53025638 51.88882806 56 52 C58.97 54.31 61.94 56.62 65 59 C62.1352332 60.4323834 59.88977808 61.42566995 56.890625 62.2890625 C56.13652344 62.50820312 55.38242188 62.72734375 54.60546875 62.953125 C53.82816406 63.17484375 53.05085937 63.3965625 52.25 63.625 C51.45722656 63.85445312 50.66445312 64.08390625 49.84765625 64.3203125 C47.89943077 64.88365481 45.94984612 65.44229292 44 66 C44.7520874 66.29245605 45.5041748 66.58491211 46.27905273 66.88623047 C49.66804198 68.2086733 53.05277636 69.54167967 56.4375 70.875 C57.62150391 71.33519531 58.80550781 71.79539062 60.02539062 72.26953125 C61.15009766 72.71425781 62.27480469 73.15898438 63.43359375 73.6171875 C64.47572021 74.02565918 65.51784668 74.43413086 66.59155273 74.85498047 C69 76 69 76 70 78 C66.04 80.64 62.08 83.28 58 86 C68.30513581 87.87366106 78.58163798 88.9581638 89 90 C88.34 98.58 87.68 107.16 87 116 C69.41128222 114.57705953 51.90155566 112.70124557 34.37792969 110.65087891 C30.64459729 110.21409105 26.91062403 109.78308762 23.17643833 109.3536644 C-24.69583039 103.84131007 -24.69583039 103.84131007 -46.515625 99.7890625 C-53.79530245 98.46768029 -61.12741235 97.4370615 -68.44604492 96.35742188 C-70.06410034 96.11475586 -70.06410034 96.11475586 -71.71484375 95.8671875 C-72.68542725 95.72394043 -73.65601074 95.58069336 -74.65600586 95.43310547 C-77 95 -77 95 -79 94 C-79.01417969 94.55042969 -79.02835937 95.10085937 -79.04296875 95.66796875 C-79.68430524 106.84802385 -82.45971666 118.37914999 -86 129 C-76.637259 122.34359874 -76.637259 122.34359874 -69 114 C-68.34 114 -67.68 114 -67 114 C-66.7525 113.443125 -66.505 112.88625 -66.25 112.3125 C-65 110 -65 110 -63.0625 107.625 C-60.91075519 104.8864157 -59.46512401 102.15001662 -58 99 C-53.02809708 99.56777904 -48.95164278 101.19864131 -44.5 103.375 C-43.86191406 103.67921875 -43.22382813 103.9834375 -42.56640625 104.296875 C-38.68832719 106.15264289 -34.84058946 108.0678516 -31 110 C-31.50603992 112.16874252 -31.99983813 113.99967627 -33 116 C-26.73 116.66 -20.46 117.32 -14 118 C-14 115.69 -14 113.38 -14 111 C-13.67 110.01 -13.34 109.02 -13 108 C-1.87985348 108.58847491 9.01250447 110.25821357 20 112 C19.67 115.63 19.34 119.26 19 123 C20.13840332 123.11069824 21.27680664 123.22139648 22.44970703 123.33544922 C26.74038395 123.75352045 31.0306443 124.17574544 35.32080078 124.59912109 C37.16509353 124.78056379 39.00949226 124.96093296 40.85400391 125.14013672 C51.6166967 126.18659083 62.30716432 127.37187276 73 129 C72.34 137.25 71.68 145.5 71 154 C59.17879566 153.21312565 47.44977301 151.83151124 35.6875 150.4375 C33.67515803 150.2009351 31.66278842 149.96460516 29.65039062 149.72851562 C24.76660443 149.15505055 19.88320262 148.57841237 15 148 C15 149.98 15 151.96 15 154 C15.93199219 154.04898438 16.86398438 154.09796875 17.82421875 154.1484375 C25.09963388 154.57510492 32.17510106 155.25920018 39.37109375 156.45703125 C46.87863171 157.58033348 54.44748766 158.2503314 62 159 C62.14063433 164.99453826 61.76613118 170.20664329 60.5 176.0625 C60.35691406 176.73732422 60.21382812 177.41214844 60.06640625 178.10742188 C59.71904346 179.74002698 59.36072517 181.37029522 59 183 C43.19942505 182.00577042 27.61124447 180.67011023 12 178 C11.67 180.31 11.34 182.62 11 185 C12.12817139 184.9788916 13.25634277 184.9577832 14.41870117 184.93603516 C19.10210221 184.93873256 23.65907295 185.43829034 28.30078125 186.0234375 C29.61456001 186.18279282 29.61456001 186.18279282 30.95487976 186.34536743 C33.74132317 186.68409353 36.52692711 187.02919472 39.3125 187.375 C42.9541536 187.8225667 46.59616816 188.26712742 50.23828125 188.7109375 C51.12975861 188.8204071 52.02123596 188.92987671 52.93972778 189.04266357 C60.00770033 189.90252985 67.08405095 190.65813386 74.17195129 191.33456421 C79.78509275 191.89254638 79.78509275 191.89254638 82 193 C81.85756403 195.66688629 81.71113422 198.33345767 81.5625 201 C81.52318359 201.74378906 81.48386719 202.48757813 81.44335938 203.25390625 C81.16338273 208.20733918 80.66489429 213.08313469 80 218 C68.40754911 217.315712 56.86602377 216.28559579 45.3125 215.125 C44.42948212 215.03696106 43.54646423 214.94892212 42.63668823 214.85821533 C31.58619822 213.7512007 20.58425042 212.56039977 9.62890625 210.7109375 C5.68058828 210.06584731 1.72084103 209.60914401 -2.25390625 209.15625 C-13.75677989 207.83961149 -25.22099983 206.23553023 -36.68945312 204.65087891 C-40.46440836 204.12991186 -44.23998501 203.61363415 -48.015625 203.09765625 C-63.71287062 200.94028412 -79.36695361 198.58209037 -95 196 C-94.52282582 187.04213918 -93.2607194 178.68741858 -91 170 C-76.48543399 171.64761048 -62.078291 173.72010703 -47.68310547 176.19799805 C-39.47118729 177.60975241 -31.2546225 178.86433922 -23 180 C-22.67 177.69 -22.34 175.38 -22 173 C-22.8521106 172.92483154 -22.8521106 172.92483154 -23.72143555 172.84814453 C-34.54500215 171.88318085 -45.27872607 170.8030603 -56 169 C-58.43701897 168.62188654 -60.87451766 168.24685123 -63.3125 167.875 C-64.40175781 167.70742187 -65.49101562 167.53984375 -66.61328125 167.3671875 C-67.40089844 167.24601563 -68.18851562 167.12484375 -69 167 C-68.67 163.7 -68.34 160.4 -68 157 C-68.77085937 157.5053125 -69.54171875 158.010625 -70.3359375 158.53125 C-71.33882813 159.1809375 -72.34171875 159.830625 -73.375 160.5 C-74.37273437 161.1496875 -75.37046875 161.799375 -76.3984375 162.46875 C-79 164 -79 164 -81 164 C-81.17015625 163.20078125 -81.3403125 162.4015625 -81.515625 161.578125 C-83.21806515 153.86281114 -85.35750777 146.44458471 -88 139 C-88.21914062 139.71542969 -88.43828125 140.43085938 -88.6640625 141.16796875 C-91.18809231 149.09916811 -94.38423205 156.51090254 -98 164 C-98.31582031 164.70640625 -98.63164063 165.4128125 -98.95703125 166.140625 C-104.33471338 177.82910306 -112.9794788 187.9794788 -122 197 C-122.99 197 -123.98 197 -125 197 C-126.8046875 195.05078125 -126.8046875 195.05078125 -128.875 192.3125 C-134.38205867 185.32172139 -140.62690289 179.19579302 -147 173 C-146.61328125 172.55269531 -146.2265625 172.10539063 -145.828125 171.64453125 C-145.30734375 171.03996094 -144.7865625 170.43539062 -144.25 169.8125 C-143.43015625 168.86117187 -143.43015625 168.86117187 -142.59375 167.890625 C-141.26789342 166.31779514 -140.00087924 164.69559234 -138.75 163.0625 C-138.1725 162.381875 -137.595 161.70125 -137 161 C-136.34 161 -135.68 161 -135 161 C-134.73574219 160.46503906 -134.47148437 159.93007812 -134.19921875 159.37890625 C-133.32625108 157.64718862 -132.4297778 155.92726009 -131.51953125 154.21484375 C-119.17133458 130.50743642 -114.44778994 105.4317907 -109.96655273 79.32397461 C-109.84297897 78.60464249 -109.71940521 77.88531036 -109.59208679 77.1441803 C-109.2544261 75.17181146 -108.91960378 73.19895732 -108.58496094 71.22607422 C-108.14107138 68.77801217 -107.65060139 66.39881089 -107 64 C-96.9437213 65.05032244 -86.95058292 66.16597099 -77 68 C-79.26182997 64.05171785 -81.73732971 61.17681055 -85 58 C-85.33 57.34 -85.66 56.68 -86 56 C-71.48 55.67 -56.96 55.34 -42 55 C-54.20246507 50.38124391 -54.20246507 50.38124391 -66.5 46.125 C-67.7478125 45.71507812 -68.995625 45.30515625 -70.28125 44.8828125 C-71.1784375 44.59148437 -72.075625 44.30015625 -73 44 C-73 43.34 -73 42.68 -73 42 C-68.71 40.02 -64.42 38.04 -60 36 C-60.9787207 35.823479 -61.95744141 35.64695801 -62.96582031 35.46508789 C-66.60392287 34.80855863 -70.24170526 34.15027008 -73.87939453 33.49145508 C-75.45255015 33.20679654 -77.02579168 32.92261239 -78.59912109 32.63891602 C-80.86318461 32.23058365 -83.12693162 31.82053497 -85.390625 31.41015625 C-86.09181458 31.28407486 -86.79300415 31.15799347 -87.51544189 31.02809143 C-90.70574039 30.44813667 -93.86846986 29.84607485 -97 29 C-97.46112386 20.39235455 -95.72848437 12.38520694 -94 4 C-86.68763778 4.80945303 -79.48591213 6.12013383 -72.25 7.4375 C-58.7217771 9.88858125 -45.21903451 12.1615538 -31.5859375 13.94335938 C-30.66039062 14.06646484 -29.73484375 14.18957031 -28.78125 14.31640625 C-27.5447168 14.47798218 -27.5447168 14.47798218 -26.28320312 14.64282227 C-24.14313636 14.97760816 -22.09062832 15.43803863 -20 16 C-20.495 15.0925 -20.99 14.185 -21.5 13.25 C-23 10 -23 10 -23 6 C-20.29559485 4.98810676 -17.58729099 3.99034309 -14.875 3 C-14.11445313 2.71382812 -13.35390625 2.42765625 -12.5703125 2.1328125 C-8.22283843 0.55872706 -4.69810742 -0.36023827 0 0 Z " fill="#FCFCFC" transform="translate(197,54)"/>
<path d="M0 0 C1.51273682 2.41797297 2.73967134 4.68196361 3.9375 7.25 C4.45473633 8.32241943 4.45473633 8.32241943 4.98242188 9.41650391 C13 26.30212288 13 26.30212288 13 31 C11.02 31.33 9.04 31.66 7 32 C7 32.66 7 33.32 7 34 C10.63 33.67 14.26 33.34 18 33 C18.66 22.11 19.32 11.22 20 0 C29.9 0.66 39.8 1.32 50 2 C50.020625 6.125 50.04125 10.25 50.0625 14.5 C50.071604 15.78455078 50.08070801 17.06910156 50.09008789 18.39257812 C50.10448121 24.36162518 49.92725075 30.10064089 49 36 C54.445 36.495 54.445 36.495 60 37 C59.98839844 36.13761719 59.97679687 35.27523437 59.96484375 34.38671875 C59.88727855 23.8932556 60.36869258 13.47293914 61 3 C63.54174513 2.97230544 66.08317147 2.95283862 68.625 2.9375 C69.66527344 2.92493164 69.66527344 2.92493164 70.7265625 2.91210938 C77.90231943 2.88007475 84.76541579 3.48324398 92 4 C91.67 15.55 91.34 27.1 91 39 C95.455 38.505 95.455 38.505 100 38 C99.67 37.01 99.34 36.02 99 35 C100.12415785 32.43347031 101.30510525 30.02523045 102.625 27.5625 C106.1249469 20.82663729 109.21579978 14.06758516 112 7 C119.36767829 7.35084182 125.8572448 8.96824241 132.84545898 11.18432617 C137.24034857 12.561905 141.42142549 13.47193374 146 14 C144.62921252 17.84371564 142.84470218 20.83833983 140.4375 24.125 C138.45648138 26.83500053 137.06538377 28.8038487 136 32 C135.34 32 134.68 32 134 32 C133.71125 32.763125 133.4225 33.52625 133.125 34.3125 C132 37 132 37 130 40 C138.25 40 146.5 40 155 40 C155.0309375 43.96 155.0309375 43.96 155.0625 48 C155.071604 48.8146875 155.08070801 49.629375 155.09008789 50.46875 C155.09383423 51.47421875 155.09383423 51.47421875 155.09765625 52.5 C155.10289307 53.1703125 155.10812988 53.840625 155.11352539 54.53125 C154.95232216 58.03681363 154.43527114 61.51783087 154 65 C136.18 65 118.36 65 100 65 C103.96 65.99 103.96 65.99 108 67 C109.83757602 67.52709417 111.67176346 68.06637217 113.5 68.625 C114.3559375 68.88539063 115.211875 69.14578125 116.09375 69.4140625 C116.7228125 69.60742188 117.351875 69.80078125 118 70 C116.33333333 71.66666667 114.66666667 73.33333333 113 75 C112.278125 75.763125 111.55625 76.52625 110.8125 77.3125 C109 79 109 79 107 79 C107 79.66 107 80.32 107 81 C119.54 81 132.08 81 145 81 C145 100 145 100 144 105 C117.92713822 105.2899959 92.0270335 104.55706676 66 103 C66 104.98 66 106.96 66 109 C66.6084375 108.98952637 67.216875 108.97905273 67.84375 108.96826172 C89.61999206 108.65202585 111.26540599 109.78103429 133 111 C133 118.59 133 126.18 133 134 C87.0679377 134.33284103 87.0679377 134.33284103 65 131 C64.505 133.97 64.505 133.97 64 137 C81.85920216 137.8436005 99.71769058 138.27308118 117.5925293 138.60717773 C129.41561767 138.83814481 141.19364448 139.31820854 153 140 C153 148.58 153 157.16 153 166 C122.90326464 166.50947452 93.02958475 164.9398238 63 163 C63.01160156 163.87470947 63.02320313 164.74941895 63.03515625 165.65063477 C63.10947372 175.78368947 62.64534523 185.8274524 62 195.9375 C61.90322718 197.5071357 61.80687099 199.07679715 61.7109375 200.64648438 C61.47873665 204.43130213 61.24098313 208.2157317 61 212 C52.71128381 212.05999674 44.46544336 211.91985456 36.1875 211.5 C35.19685547 211.45230469 34.20621094 211.40460938 33.18554688 211.35546875 C30.79021444 211.23975221 28.39505745 211.1212524 26 211 C25.78976135 199.56924691 26.40465523 188.37492264 27.5 177 C27.64520006 175.43495774 27.78973418 173.86985355 27.93359375 172.3046875 C28.28143406 168.53570426 28.63811985 164.76766001 29 161 C28.26676514 161.01667725 27.53353027 161.03335449 26.77807617 161.05053711 C17.21319938 161.16904001 7.82518293 160.42838391 -1.6875 159.5625 C-4.73274956 159.28920421 -7.7783043 159.01968926 -10.82421875 158.75390625 C-11.57755493 158.68800797 -12.33089111 158.62210968 -13.10705566 158.55421448 C-19.29763517 158.02758245 -25.49092201 157.67205867 -31.69508362 157.3508606 C-37.68908246 157.03495264 -43.65350698 156.54822088 -49.625 155.9375 C-50.54539062 155.84662109 -51.46578125 155.75574219 -52.4140625 155.66210938 C-54.60971662 155.4448311 -56.80491678 155.22297196 -59 155 C-59.1176081 148.69653261 -58.87565875 142.61677125 -58 136.375 C-57.82339844 135.07256348 -57.64679688 133.77012695 -57.46484375 132.42822266 C-57.31144531 131.29690918 -57.15804688 130.1655957 -57 129 C-45.02563882 129.57962167 -33.07491662 130.31610308 -21.12255859 131.2437439 C-16.80343059 131.57881408 -12.48373637 131.90642915 -8.1640625 132.234375 C-7.30548645 132.29968918 -6.4469104 132.36500336 -5.56231689 132.43229675 C6.62040164 133.3553418 18.8098051 134.18232917 31 135 C31 133.35 31 131.7 31 130 C18.86134783 128.95366951 6.73919432 127.96127154 -5.4375 127.5 C-15.02476021 127.13313168 -24.48502479 126.20992895 -34 125 C-34.02714434 122.2915983 -34.04690846 119.58347279 -34.0625 116.875 C-34.07087891 116.11445313 -34.07925781 115.35390625 -34.08789062 114.5703125 C-34.09272461 113.44882813 -34.09272461 113.44882813 -34.09765625 112.3046875 C-34.10551147 111.2835083 -34.10551147 111.2835083 -34.11352539 110.24169922 C-33.97193034 107.44572993 -33.49779439 104.75251015 -33 102 C-18.23784758 102.68654036 -3.49530676 103.58204436 11.25 104.5625 C13.37499049 104.70261818 15.49999046 104.84259285 17.625 104.98242188 C22.75011014 105.31996808 27.87509003 105.65942865 33 106 C32.67 104.35 32.34 102.7 32 101 C30.83879639 100.91959473 29.67759277 100.83918945 28.48120117 100.75634766 C15.32032049 99.84439376 2.1599484 98.92530887 -11 98 C-11.78632813 97.94481201 -12.57265625 97.88962402 -13.3828125 97.83276367 C-17.85972684 97.51829015 -22.33622958 97.19853968 -26.8125 96.875 C-27.88153564 96.79975098 -28.95057129 96.72450195 -30.05200195 96.64697266 C-31.52092896 96.5394165 -31.52092896 96.5394165 -33.01953125 96.4296875 C-33.84557861 96.37022949 -34.67162598 96.31077148 -35.52270508 96.24951172 C-38.36462204 95.96327548 -41.18256761 95.46957206 -44 95 C-43.34 87.08 -42.68 79.16 -42 71 C-28.5 71 -28.5 71 -23.140625 71.65625 C-22.00625 71.79160156 -20.871875 71.92695313 -19.703125 72.06640625 C-18.56359375 72.20949219 -17.4240625 72.35257812 -16.25 72.5 C-15.0640625 72.64308594 -13.878125 72.78617187 -12.65625 72.93359375 C-9.76999852 73.28273707 -6.88469878 73.63829033 -4 74 C-4.54140625 72.73542969 -4.54140625 72.73542969 -5.09375 71.4453125 C-5.5578125 70.34960938 -6.021875 69.25390625 -6.5 68.125 C-6.9640625 67.03445312 -7.428125 65.94390625 -7.90625 64.8203125 C-9 62 -9 62 -9 60 C-4.05 59.505 -4.05 59.505 1 59 C-10.935401 57.53342785 -22.87203687 56.50625968 -34.87036133 55.69775391 C-35.9817749 55.62089355 -37.09318848 55.5440332 -38.23828125 55.46484375 C-39.22868408 55.399021 -40.21908691 55.33319824 -41.23950195 55.26538086 C-43.8833568 55.01121351 -46.40780653 54.57048958 -49 54 C-48.85756403 51.33311371 -48.71113422 48.66654233 -48.5625 46 C-48.50352539 44.88431641 -48.50352539 44.88431641 -48.44335938 43.74609375 C-48.16338273 38.79266082 -47.66489429 33.91686531 -47 29 C-28.65957447 29.80851064 -28.65957447 29.80851064 -20 32 C-22.33084862 24.65587363 -24.93750997 17.54835842 -28.046875 10.49609375 C-29 8 -29 8 -29 5 C-24.9203558 3.96402033 -20.83581059 2.94886146 -16.75 1.9375 C-15.01169922 1.49567383 -15.01169922 1.49567383 -13.23828125 1.04492188 C-12.12324219 0.77099609 -11.00820313 0.49707031 -9.859375 0.21484375 C-8.83295898 -0.04176025 -7.80654297 -0.29836426 -6.74902344 -0.56274414 C-4.01645244 -0.9973831 -2.52013033 -1.10787661 0 0 Z " fill="#FCFCFC" transform="translate(358,75)"/>
<path d="M0 0 C-2.64 6.27 -5.28 12.54 -8 19 C-3.42125 18.13375 -3.42125 18.13375 1.25 17.25 C2.27085693 17.05728516 3.29171387 16.86457031 4.34350586 16.66601562 C9.0931203 15.76387836 13.8347659 14.83615397 18.56640625 13.84375 C19.44844727 13.66038086 20.33048828 13.47701172 21.23925781 13.28808594 C22.91058037 12.93859875 24.58060677 12.58283288 26.24902344 12.21972656 C31.27187327 11.17478878 35.86844296 10.83616466 41 11 C43.40573676 21.96657661 45.55313891 32.94462162 47.42651367 44.01464844 C48.67394767 51.30920183 50.08550739 58.56120643 51.5625 65.8125 C53.06751545 73.23556171 54.53658264 80.65872421 55.8125 88.125 C55.93633057 88.82858643 56.06016113 89.53217285 56.18774414 90.25708008 C56.89997354 94.55194388 57.03995274 98.65457147 57 103 C54.79298436 103.40242938 52.58594865 103.80474869 50.37890625 104.20703125 C49.34822525 104.39489952 49.34822525 104.39489952 48.29672241 104.58656311 C44.5250246 105.27375609 40.75308684 105.95959426 36.98071289 106.64306641 C35.8537072 106.84727203 35.8537072 106.84727203 34.70393372 107.05560303 C33.2006751 107.32797922 31.69740974 107.60031821 30.19413757 107.87261963 C26.22867649 108.5919563 22.26539856 109.32125552 18.3046875 110.06640625 C17.5408374 110.20780029 16.7769873 110.34919434 15.98999023 110.49487305 C14.10580383 110.84382966 12.22276297 111.19895683 10.33984375 111.5546875 C6.49790218 112.06694638 2.87287344 112.07635457 -1 112 C-1.12955078 112.99193359 -1.12955078 112.99193359 -1.26171875 114.00390625 C-2.23690626 117.96141324 -3.96260961 121.32165255 -5.8125 124.9375 C-6.15603516 125.62779297 -6.49957031 126.31808594 -6.85351562 127.02929688 C-9.0082005 131.29419846 -11.30740725 134.96111087 -14 139 C-6.08 138.01 1.84 137.02 10 136 C9.690625 134.205625 9.38125 132.41125 9.0625 130.5625 C8.17077527 125.39049659 7.544546 120.2175276 7 115 C10.89470563 114.32663096 14.79092933 113.66248416 18.6875 113 C19.79029297 112.80921875 20.89308594 112.6184375 22.02929688 112.421875 C23.09599609 112.24140625 24.16269531 112.0609375 25.26171875 111.875 C26.24100342 111.70742187 27.22028809 111.53984375 28.22924805 111.3671875 C30.85911357 111.01867065 33.35123122 110.93235387 36 111 C38.28584898 117.55276707 38.60594368 124.10401439 39 131 C40.13695312 130.73445312 41.27390625 130.46890625 42.4453125 130.1953125 C51.93473132 128.01322054 61.32660011 126.18195883 71 125 C71.84191873 128.72728171 72.6720168 132.45710003 73.5 136.1875 C73.73847656 137.24259766 73.97695312 138.29769531 74.22265625 139.38476562 C74.56103516 140.91713867 74.56103516 140.91713867 74.90625 142.48046875 C75.11572266 143.41785889 75.32519531 144.35524902 75.54101562 145.32104492 C75.98967088 147.93971199 76.08407959 150.34939083 76 153 C55.02913164 158.07359718 55.02913164 158.07359718 45 158 C45.18175781 158.99854004 45.36351562 159.99708008 45.55078125 161.02587891 C46.22696407 164.74856919 46.89623412 168.47247515 47.56347656 172.19677734 C47.85262171 173.80518764 48.14361338 175.41326717 48.43652344 177.02099609 C48.85843905 179.33866177 49.2735895 181.65745552 49.6875 183.9765625 C49.81874268 184.68930328 49.94998535 185.40204407 50.08520508 186.13638306 C50.7923771 190.14102328 51.13346238 193.9349584 51 198 C41.04100997 200.78075696 31.42501742 203.07838359 21 203 C19.21688767 201.21688767 19.40436207 198.5489577 19.0625 196.12890625 C18.88976562 194.91396484 18.71703125 193.69902344 18.5390625 192.44726562 C18.36117187 191.16529297 18.18328125 189.88332031 18 188.5625 C17.82210937 187.31533203 17.64421875 186.06816406 17.4609375 184.78320312 C16.48658747 177.86459079 15.66633076 170.95438953 15 164 C13.83355957 164.19634033 12.66711914 164.39268066 11.46533203 164.5949707 C-45.50491034 174.1566421 -45.50491034 174.1566421 -59 174 C-59.5067183 170.45926096 -60.00417029 166.91727889 -60.5 163.375 C-60.64308594 162.37597656 -60.78617188 161.37695312 -60.93359375 160.34765625 C-61.60352182 155.53055443 -62.19978289 150.87803213 -62 146 C-60.86820313 145.86722656 -59.73640625 145.73445312 -58.5703125 145.59765625 C-57.08851821 145.4194658 -55.60674864 145.24106971 -54.125 145.0625 C-53.37863281 144.97548828 -52.63226562 144.88847656 -51.86328125 144.79882812 C-47.8046769 144.36673937 -47.8046769 144.36673937 -44 143 C-46.97 141.68 -49.94 140.36 -53 139 C-53 138.34 -53 137.68 -53 137 C-52.0925 136.401875 -51.185 135.80375 -50.25 135.1875 C-47.07771001 133.05230482 -45.31937493 130.98205348 -43 128 C-42.34 128 -41.68 128 -41 128 C-40.7525 127.46375 -40.505 126.9275 -40.25 126.375 C-38.70346419 123.43658196 -36.85472526 120.75192975 -35 118 C-36.2065625 118.2165625 -37.413125 118.433125 -38.65625 118.65625 C-40.27077186 118.93785265 -41.88535873 119.21908279 -43.5 119.5 C-44.29148437 119.64308594 -45.08296875 119.78617187 -45.8984375 119.93359375 C-51.0123918 120.81386457 -55.81112402 121.1428131 -61 121 C-63.74074469 103.1421538 -66.18916279 85.25692017 -68.51766968 67.34153748 C-68.62011993 66.55336136 -68.72257019 65.76518524 -68.828125 64.953125 C-68.92888336 64.17747696 -69.02964172 63.40182892 -69.13345337 62.60267639 C-70.1018703 55.17125839 -71.12070151 47.74678231 -72.18774414 40.32885742 C-72.72146412 36.52605347 -73.14692673 32.84329387 -73 29 C-62.9578044 26.22311461 -53.36717202 25.36005747 -43 25 C-40.7541103 17.05178041 -38.80653874 9.05895649 -37 1 C-33.08350386 0.82916444 -29.1667827 0.6641234 -25.25 0.5 C-24.15816406 0.45230469 -23.06632813 0.40460937 -21.94140625 0.35546875 C-14.62055441 0.0522382 -7.32715082 -0.04427281 0 0 Z " fill="#FDFDFD" transform="translate(1001,50)"/>
<path d="M0 0 C0.13462646 1.20716675 0.13462646 1.20716675 0.27197266 2.4387207 C0.71708524 6.39734023 1.16872388 10.35515302 1.625 14.3125 C1.71003784 15.0502063 1.79507568 15.7879126 1.88269043 16.54797363 C3.68053534 32.03729026 5.83205809 47.47214081 8.06884766 62.90356445 C8.19689789 63.79749405 8.32494812 64.69142365 8.45687866 65.61244202 C8.69676033 67.2864177 8.94003359 68.95991246 9.18740845 70.63279724 C9.29475311 71.38464798 9.40209778 72.13649872 9.51269531 72.91113281 C9.60721985 73.55914856 9.70174438 74.20716431 9.7991333 74.87481689 C10.05406561 77.57201778 10 80.29077814 10 83 C-8.81 84.98 -8.81 84.98 -28 87 C-27.505 97.395 -27.505 97.395 -27 108 C-24.68742188 107.71125 -22.37484375 107.4225 -19.9921875 107.125 C-17.7383879 106.84613135 -15.48443739 106.56851428 -13.23046875 106.29101562 C-11.67073638 106.09831237 -10.11116274 105.90431967 -8.55175781 105.70898438 C-6.30314532 105.42754884 -4.05399241 105.15084014 -1.8046875 104.875 C-1.1138205 104.78750488 -0.42295349 104.70000977 0.28884888 104.60986328 C4.21728542 104.13336231 8.04376972 103.91387798 12 104 C13.29115475 110.20930254 14.43616046 116.40640576 15.3125 122.6875 C15.49208252 123.95400391 15.49208252 123.95400391 15.67529297 125.24609375 C17.32457046 137.06759799 18.79739958 148.91401146 20.28637695 160.7565918 C20.39201462 161.59163742 20.49765228 162.42668304 20.60649109 163.28703308 C20.80617751 164.86579112 21.0044323 166.44473113 21.20100403 168.02388 C21.66961952 171.71966305 22.25410739 175.35149265 23 179 C23.18823845 180.51309722 23.35476565 182.02904632 23.5 183.546875 C23.5825 184.3925 23.665 185.238125 23.75 186.109375 C23.8325 186.98078125 23.915 187.8521875 24 188.75 C24.16616929 190.47400635 24.33283298 192.19796511 24.5 193.921875 C24.58121094 194.76041016 24.66242188 195.59894531 24.74609375 196.46289062 C25.13134396 200.31242926 25.56422884 204.15587581 26 208 C3.84610638 211.47995989 3.84610638 211.47995989 -6 211 C-7.90387371 198.40202717 -9.51032187 185.79949586 -10.86767578 173.13085938 C-11.77900232 164.72120047 -12.85580559 156.34577389 -14.0859375 147.97680664 C-14.71402365 143.60679596 -15.15178029 139.43053907 -15 135 C-18.3 135 -21.6 135 -25 135 C-24.97905273 136.42449463 -24.95810547 137.84898926 -24.93652344 139.31665039 C-24.86284795 144.71970122 -24.81774769 150.12271019 -24.78027344 155.52612305 C-24.760443 157.8426058 -24.7333703 160.15904052 -24.69824219 162.4753418 C-24.15499757 199.2801649 -24.15499757 199.2801649 -31 214 C-43.43188558 212.19382188 -43.43188558 212.19382188 -48.75 210.9375 C-53.14480452 209.90198947 -57.50708556 209.42789661 -62 209 C-61.59849435 205.65411958 -61.19387515 202.54486733 -60.0612793 199.36181641 C-55.11770432 183.70204474 -55.54733884 166.38044435 -55.66381836 150.14794922 C-55.68761751 146.60751829 -55.68432247 143.06783575 -55.67773438 139.52734375 C-55.69139122 128.71107373 -55.92145993 118.13222727 -57.4987793 107.42480469 C-58.2816373 102.07559278 -58.65825518 96.70125923 -59.0625 91.3125 C-59.21730904 89.26671766 -59.37476247 87.22113331 -59.53515625 85.17578125 C-59.63389038 83.85960815 -59.63389038 83.85960815 -59.73461914 82.5168457 C-60.00386839 79.96331254 -60.49135843 77.51539149 -61 75 C-61.17934792 73.42315724 -61.33367429 71.84329813 -61.46484375 70.26171875 C-61.54154297 69.36783447 -61.61824219 68.4739502 -61.69726562 67.55297852 C-61.77654297 66.60737061 -61.85582031 65.6617627 -61.9375 64.6875 C-62.50786355 58.12563885 -63.13437662 51.59216297 -64 45.0625 C-65.35575614 34.74368936 -66.15212368 24.37080879 -67 14 C-64.4176184 13.65731429 -61.83452293 13.3258172 -59.25 13 C-58.53972656 12.90460938 -57.82945312 12.80921875 -57.09765625 12.7109375 C-50.72288802 11.92114321 -44.41725527 11.90190183 -38 12 C-35.50277004 27.97027632 -33.31256735 43.88650876 -32 60 C-26.06 59.505 -26.06 59.505 -20 59 C-20.30341309 57.72423096 -20.60682617 56.44846191 -20.91943359 55.1340332 C-22.04294526 50.06784958 -22.71010975 45.00850142 -23.2890625 39.85546875 C-23.39721283 38.92326004 -23.50536316 37.99105133 -23.61679077 37.03059387 C-23.84246634 35.07704941 -24.06587756 33.12324214 -24.28710938 31.16918945 C-24.62608801 28.17789892 -24.97263278 25.18755608 -25.3203125 22.19726562 C-25.53950431 20.29171744 -25.75826945 18.38612011 -25.9765625 16.48046875 C-26.13120468 15.14292793 -26.13120468 15.14292793 -26.28897095 13.77836609 C-26.38261932 12.9468251 -26.4762677 12.11528412 -26.57275391 11.25854492 C-26.65554596 10.53068283 -26.73833801 9.80282074 -26.82363892 9.05290222 C-26.99640737 7.04181937 -27 5.01849032 -27 3 C-23.62601911 2.49295891 -20.25067379 1.99563464 -16.875 1.5 C-15.44800781 1.28537109 -15.44800781 1.28537109 -13.9921875 1.06640625 C-13.0640625 0.93105469 -12.1359375 0.79570313 -11.1796875 0.65625 C-9.90714111 0.46772461 -9.90714111 0.46772461 -8.60888672 0.27539062 C-5.72308145 -0.02923116 -2.89973079 -0.04444032 0 0 Z " fill="#FCFCFC" transform="translate(918,58)"/>
<path d="M0 0 C1.09070633 11.89457327 2.17541721 23.7896668 3.24841309 35.68585205 C3.62422168 39.85142556 4.00027513 44.01694842 4.38574219 48.18164062 C5.49213146 60.16254072 6.31867099 71.96131802 6 84 C1.55840573 84.81856988 -2.79697845 85.24139408 -7.3046875 85.5 C-7.98749786 85.54060547 -8.67030823 85.58121094 -9.37380981 85.62304688 C-11.54070864 85.75172148 -13.70781198 85.87629874 -15.875 86 C-18.03503239 86.12390058 -20.19498106 86.24882163 -22.35476685 86.37695312 C-24.31953039 86.49346747 -26.28451592 86.60622052 -28.24951172 86.71875 C-30.85378797 86.91404529 -33.38720447 87.16085965 -35.97021484 87.50219727 C-39.98661568 88.02698398 -44.0021993 88.27787981 -48.046875 88.46484375 C-48.80363022 88.50244308 -49.56038544 88.54004242 -50.34007263 88.57878113 C-52.80992348 88.70107147 -55.27994817 88.81934472 -57.75 88.9375 C-61.26179759 89.10909472 -64.77349026 89.28276575 -68.28515625 89.45703125 C-69.17628616 89.50104065 -70.06741608 89.54505005 -70.98554993 89.59039307 C-76.94934578 89.8880922 -82.91045042 90.21924313 -88.87109375 90.57421875 C-89.66119843 90.62068039 -90.4513031 90.66714203 -91.26535034 90.7150116 C-95.79837715 90.98133836 -95.79837715 90.98133836 -100.33068848 91.25949097 C-111.89642182 91.9844198 -123.4128688 92.09419824 -135 92 C-135.29336171 84.8592128 -135.57688059 77.71807676 -135.85449219 70.57666016 C-135.94938938 68.16251387 -136.04629888 65.7484456 -136.14550781 63.33447266 C-136.90209375 44.87531975 -137.12768444 26.47127355 -137 8 C-135.66198334 7.9348243 -135.66198334 7.9348243 -134.29693604 7.86833191 C-82.87868841 5.43891468 -82.87868841 5.43891468 -31.5 2.3125 C-30.61751587 2.25210541 -29.73503174 2.19171082 -28.82580566 2.12948608 C-19.62027987 1.54708177 -19.62027987 1.54708177 -10.46679688 0.46166992 C-6.9359968 -0.00852324 -3.55744093 -0.07260084 0 0 Z " fill="#FDFDFD" transform="translate(791,80)"/>
<path d="M0 0 C0.11069824 1.20309814 0.22139648 2.40619629 0.33544922 3.64575195 C0.75543033 8.20657678 1.1770555 12.7672485 1.59912109 17.32788086 C1.77989237 19.28357008 1.96024626 21.23929793 2.14013672 23.19506836 C3.56577046 38.68987535 5.11646119 54.16560967 6.8515625 69.62890625 C6.98046875 70.78583984 7.109375 71.94277344 7.2421875 73.13476562 C7.50137034 75.45550997 7.76450781 77.77581549 8.03125 80.09570312 C8.76680027 86.76444205 9.18910173 93.29070869 9 100 C-14.58238484 102.38776806 -14.58238484 102.38776806 -26 102 C-26.495 98.04 -26.495 98.04 -27 94 C-28.39798828 94.10828125 -28.39798828 94.10828125 -29.82421875 94.21875 C-38.23542592 94.83109269 -46.56060208 95.1280853 -55 95 C-55 98.63 -55 102.26 -55 106 C-58.04086131 106.34263226 -61.08232836 106.67415673 -64.125 107 C-64.96160156 107.09539062 -65.79820312 107.19078125 -66.66015625 107.2890625 C-74.11505391 108.07378857 -81.50911683 108.09825899 -89 108 C-89.0501123 107.05084717 -89.10022461 106.10169434 -89.15185547 105.1237793 C-90.37501928 81.89286143 -90.37501928 81.89286143 -92 58.6875 C-93.38237689 41.1489374 -94.15337064 23.57096215 -95 6 C-93.89325928 5.94054199 -93.89325928 5.94054199 -92.76416016 5.87988281 C-89.05072636 5.67636078 -85.33775041 5.46557321 -81.625 5.25 C-80.56788315 5.18863861 -80.56788315 5.18863861 -79.4894104 5.1260376 C-69.3487337 4.52855783 -59.22245161 3.80060706 -49.09765625 2.9765625 C-47.99105652 2.88652954 -46.88445679 2.79649658 -45.74432373 2.70373535 C-40.21697482 2.25157708 -34.69045589 1.79074833 -29.16455078 1.32128906 C-9.30281363 -0.34215498 -9.30281363 -0.34215498 0 0 Z " fill="#FCFCFC" transform="translate(829,177)"/>
<path d="M0 0 C0.69562042 0.00082832 1.39124084 0.00165665 2.10794067 0.00251007 C3.81382369 0.00466096 5.5197052 0.00795336 7.22558594 0.01147461 C7.29742348 1.44395035 7.29742348 1.44395035 7.37071228 2.90536499 C7.82402119 11.93809604 8.2799448 20.97069189 8.73837948 30.00316429 C8.97393968 34.6460068 9.20860244 39.28889092 9.44116211 43.93188477 C9.66594153 48.4188696 9.89314641 52.90572584 10.12198067 57.39250565 C10.20854306 59.09792409 10.29425511 60.80338593 10.37907219 62.50889206 C10.86069988 72.93429805 10.86069988 72.93429805 11.78637695 83.32641602 C12.33677296 89.19751075 12.22558594 95.1146374 12.22558594 101.01147461 C-5.09941406 101.50647461 -5.09941406 101.50647461 -22.77441406 102.01147461 C-22.77441406 99.04147461 -22.77441406 96.07147461 -22.77441406 93.01147461 C-32.01441406 93.01147461 -41.25441406 93.01147461 -50.77441406 93.01147461 C-50.27941406 98.45647461 -50.27941406 98.45647461 -49.77441406 104.01147461 C-60.79330945 104.71829951 -71.7312922 105.15806472 -82.77441406 105.01147461 C-84.00094791 96.08560646 -84.1294608 87.13033392 -84.33691406 78.13647461 C-84.35809296 77.27039581 -84.37927185 76.40431702 -84.40109253 75.51199341 C-84.97239057 51.682133 -84.87101783 27.84631818 -84.77441406 4.01147461 C-71.18442267 2.71410803 -57.6732468 1.71178136 -44.02441406 1.44897461 C-41.00348608 1.37981268 -37.98269905 1.3053469 -34.96191406 1.23022461 C-34.24158997 1.21285751 -33.52126587 1.19549042 -32.77911377 1.17759705 C-25.89623719 1.00492179 -19.03446013 0.64700396 -12.16503906 0.19506836 C-8.11099826 -0.02720684 -4.05872869 -0.00920015 0 0 Z " fill="#FDFDFD" transform="translate(711.7744140625,184.988525390625)"/>
<path d="M0 0 C8.25 0 16.5 0 25 0 C24.35388343 5.8150491 23.65177559 11.46182064 22.5625 17.1875 C22.44068359 17.85974609 22.31886719 18.53199219 22.19335938 19.22460938 C21.63705705 22.1848295 20.99516968 25.01418182 20.0234375 27.8671875 C18.62235782 32.15598866 17.86897423 36.50389194 17.0625 40.9375 C16.71004221 42.82559682 16.35717555 44.71361735 16.00390625 46.6015625 C15.83262207 47.52356445 15.66133789 48.44556641 15.48486328 49.39550781 C13.6278018 59.3709015 11.51968141 69.23158591 8.96484375 79.05078125 C8.22249825 81.97810828 7.60759519 84.91451612 7.03125 87.87890625 C6.05893629 92.8473017 4.83575759 97.72661707 3.5625 102.625 C2.05233313 108.5397294 0.67462448 114.42008762 -0.375 120.4375 C-3.1181945 135.84641536 -7.2264481 151.02058891 -11.0625 166.1875 C-12.79383462 173.03884981 -14.36566935 179.92297933 -15.9375 186.8125 C-18.40234249 197.60940299 -21.11480009 208.30778856 -24 219 C-33.24 219 -42.48 219 -52 219 C-51.39044535 214.73311743 -50.80307127 210.82677487 -49.80078125 206.69140625 C-49.56415771 205.70930176 -49.32753418 204.72719727 -49.08374023 203.71533203 C-48.82923096 202.67489746 -48.57472168 201.63446289 -48.3125 200.5625 C-48.04703369 199.4679248 -47.78156738 198.37334961 -47.50805664 197.24560547 C-43.9230865 182.50633829 -40.29128699 167.78003064 -36.375 153.125 C-34.42104705 145.78887828 -32.71093492 138.42146361 -31.09765625 131.00390625 C-27.39779019 114.02211275 -23.37878024 97.11518372 -19.04296875 80.28515625 C-16.77126332 71.37029629 -14.74413825 62.42020661 -12.83813477 53.41967773 C-11.82527124 48.66527547 -10.74662859 43.94337089 -9.5390625 39.234375 C-7.59304193 31.55961275 -6.0810415 23.7990292 -4.54956055 16.03271484 C-4.17215177 14.12498123 -3.78734778 12.21871531 -3.40234375 10.3125 C-3.18054443 9.19488281 -2.95874512 8.07726562 -2.73022461 6.92578125 C-2 4 -2 4 0 0 Z " fill="#FCFCFC" transform="translate(577,91)"/>
<path d="M0 0 C4.63481046 1.7819092 9.12477576 3.84481893 13.625 5.9375 C14.388125 6.28490234 15.15125 6.63230469 15.9375 6.99023438 C16.67226563 7.33248047 17.40703125 7.67472656 18.1640625 8.02734375 C18.82873535 8.33406006 19.4934082 8.64077637 20.17822266 8.95678711 C22.13229285 10.07575547 23.48517378 11.34519468 25 13 C6.87716648 26.20578566 -17.01464304 33.45246894 -39 37 C-40.04027344 37.185625 -41.08054687 37.37125 -42.15234375 37.5625 C-45.46807952 36.90753985 -45.80591121 36.40244217 -47.74609375 33.78125 C-48.66264345 32.3665573 -49.55893426 30.93858995 -50.4375 29.5 C-51.38665184 28.02737949 -52.33975461 26.55729765 -53.296875 25.08984375 C-53.75513672 24.3819873 -54.21339844 23.67413086 -54.68554688 22.94482422 C-56.80693152 19.80608906 -59.26858786 17.04166868 -61.85546875 14.28515625 C-63 13 -63 13 -63 12 C-62.00484375 11.96261719 -61.0096875 11.92523438 -59.984375 11.88671875 C-28.09197372 11.21392332 -28.09197372 11.21392332 0 0 Z " fill="#FAFAFA" transform="translate(359,239)"/>
<path d="M0 0 C1.80017578 0.01353516 1.80017578 0.01353516 3.63671875 0.02734375 C4.51972656 0.03894531 5.40273438 0.05054687 6.3125 0.0625 C7.02026992 7.41825165 7.45965692 14.6719524 7.3125 22.0625 C-4.17039239 23.45723811 -15.58488809 24.34765656 -27.1484375 24.72045898 C-31.86701514 24.87750514 -36.53960142 25.11627715 -41.23828125 25.5859375 C-46.63052394 26.10896479 -51.96160206 26.17720739 -57.375 26.125 C-61.9846875 26.0940625 -61.9846875 26.0940625 -66.6875 26.0625 C-66.6875 18.8025 -66.6875 11.5425 -66.6875 4.0625 C-63.65865314 3.30528828 -61.40998021 2.9058094 -58.36889648 2.78125 C-57.10123695 2.72614258 -57.10123695 2.72614258 -55.80796814 2.66992188 C-54.90067459 2.63447266 -53.99338104 2.59902344 -53.05859375 2.5625 C-51.64127708 2.5015918 -51.64127708 2.5015918 -50.19532776 2.43945312 C-47.17203472 2.30991256 -44.14855501 2.18576301 -41.125 2.0625 C-38.12646572 1.93873946 -35.12800325 1.81371372 -32.12965393 1.68554688 C-30.26643442 1.60603983 -28.40310543 1.52904073 -26.53965759 1.45507812 C-21.04811137 1.22242521 -15.59629601 0.81645125 -10.12652588 0.27320862 C-6.73441485 -0.01983748 -3.40486271 -0.03371151 0 0 Z " fill="#030303" transform="translate(753.6875,113.9375)"/>
<path d="M0 0 C1.43346578 0.63960979 2.86706323 1.27892456 4.30078125 1.91796875 C5.39447021 2.40789307 5.39447021 2.40789307 6.51025391 2.90771484 C8.57704859 3.82592975 10.65108272 4.72400649 12.73046875 5.61328125 C22.23610209 9.68695698 31.47599668 14.17733755 40.6875 18.875 C42.68659666 19.87680465 44.68626999 20.87746381 46.6875 21.875 C43.03524508 26.01422224 39.09980321 28.57827924 34.31640625 31.30859375 C30.96925722 33.30295743 27.88513702 35.6017619 24.79296875 37.96875 C22.6875 38.875 22.6875 38.875 20.50390625 38.3515625 C16.44073333 36.22135534 12.43414517 34.00220471 8.4375 31.75 C0.69919813 27.43896243 -7.12171393 23.4973203 -15.16796875 19.80078125 C-21.96939811 16.67104958 -28.63309245 13.25515779 -35.3125 9.875 C-31.68595984 6.99782145 -27.78205611 4.67496397 -23.8125 2.3125 C-23.14863281 1.91353516 -22.48476563 1.51457031 -21.80078125 1.10351562 C-20.52636996 0.34166696 -19.24788724 -0.41342507 -17.96484375 -1.16064453 C-16.68334128 -1.90856633 -15.4165502 -2.68172243 -14.15625 -3.46484375 C-9.34417398 -5.18781165 -4.36005554 -1.97385212 0 0 Z " fill="#FBFBFB" transform="translate(462.3125,247.125)"/>
<path d="M0 0 C0.66 9.24 1.32 18.48 2 28 C-5.25434228 29.20905705 -11.99135474 30.30883396 -19.25 30.625 C-20.00667969 30.66367188 -20.76335938 30.70234375 -21.54296875 30.7421875 C-23.36167824 30.83427406 -25.18080364 30.91809305 -27 31 C-27.33747251 27.12534889 -27.66924222 23.25022962 -28 19.375 C-28.09539063 18.28058594 -28.19078125 17.18617188 -28.2890625 16.05859375 C-28.42441406 14.46337891 -28.42441406 14.46337891 -28.5625 12.8359375 C-28.64628906 11.86188965 -28.73007812 10.8878418 -28.81640625 9.88427734 C-29.00542023 6.91484768 -29.0308649 3.97460517 -29 1 C-23.42148696 0.11045333 -17.88921674 -0.32865785 -12.25 -0.625 C-11.40050781 -0.6765625 -10.55101562 -0.728125 -9.67578125 -0.78125 C-8.85980469 -0.82507813 -8.04382813 -0.86890625 -7.203125 -0.9140625 C-6.46739258 -0.9548291 -5.73166016 -0.9955957 -4.97363281 -1.03759766 C-3 -1 -3 -1 0 0 Z " fill="#050505" transform="translate(798,211)"/>
<path d="M0 0 C8.58 0 17.16 0 26 0 C26.6000474 7.20056884 27.14709076 14.07930658 27.0625 21.25 C27.05798828 22.00667969 27.05347656 22.76335937 27.04882812 23.54296875 C27.03731517 25.36201555 27.0193967 27.18102018 27 29 C17.92791029 29.94606522 9.18621148 30 0 30 C0 20.1 0 10.2 0 0 Z " fill="#020202" transform="translate(660,218)"/>
<path d="M0 0 C18.34948177 0.74575434 36.67217752 1.85305028 55 3 C53.33499759 6.48549143 51.32196537 9.25049406 48.875 12.25 C48.15054688 13.14203125 47.42609375 14.0340625 46.6796875 14.953125 C46.12539063 15.62859375 45.57109375 16.3040625 45 17 C46.65 17.33 48.3 17.66 50 18 C50 18.33 50 18.66 50 19 C31.26343714 18.57764185 12.65408865 17.93882052 -6 16 C-2.36383344 14.0210244 0.88425629 13.4748935 5 13 C4.45859375 11.84371094 4.45859375 11.84371094 3.90625 10.6640625 C3.4421875 9.66117188 2.978125 8.65828125 2.5 7.625 C2.0359375 6.62726563 1.571875 5.62953125 1.09375 4.6015625 C0 2 0 2 0 0 Z " fill="#050505" transform="translate(384,135)"/>
<path d="M0 0 C1.43996434 0.64224067 2.88006808 1.28416891 4.3203125 1.92578125 C4.9999707 2.23854004 5.67962891 2.55129883 6.37988281 2.87353516 C9.01082121 4.06669696 11.68613992 5.13252232 14.375 6.1875 C15.14972656 6.49558594 15.92445313 6.80367187 16.72265625 7.12109375 C17.24730469 7.32863281 17.77195312 7.53617188 18.3125 7.75 C18.3125 8.08 18.3125 8.41 18.3125 8.75 C16.39535907 8.63249781 14.47880327 8.50545257 12.5625 8.375 C11.49515625 8.30539063 10.4278125 8.23578125 9.328125 8.1640625 C6.0788562 7.88276085 2.90020981 7.35911015 -0.3125 6.80078125 C-6.83021772 5.68096134 -13.36079073 4.98286108 -19.9375 4.3125 C-29.97538119 3.24989267 -39.81895888 1.88087948 -49.6875 -0.25 C-49.6875 -0.58 -49.6875 -0.91 -49.6875 -1.25 C-45.2922513 -1.59134328 -40.89623015 -1.92155878 -36.5 -2.25 C-34.66018555 -2.39308594 -34.66018555 -2.39308594 -32.78320312 -2.5390625 C-8.95336728 -4.29957808 -8.95336728 -4.29957808 0 0 Z " fill="#0F0F0F" transform="translate(209.6875,129.25)"/>
<path d="M0 0 C7.1768045 -0.28144331 13.93513785 0.80229141 21 2 C22.15628906 2.19078125 23.31257813 2.3815625 24.50390625 2.578125 C27.33693496 3.04639421 30.16885589 3.52049091 33 4 C33 5.98 33 7.96 33 10 C25.1379334 10.2713982 17.69473066 9.2207019 9.9375 8 C8.69033203 7.80921875 7.44316406 7.6184375 6.15820312 7.421875 C3.10449776 6.95387418 0.05187356 6.47977609 -3 6 C-2 4 -1 2 0 0 Z " fill="#090909" transform="translate(146,193)"/>
<path d="M0 0 C10.93045246 0.85553965 21.80472043 2.25197002 32.6875 3.5625 C34.66079021 3.79897067 36.63409737 4.0353 38.60742188 4.27148438 C43.40514494 4.84602579 48.2026342 5.42248332 53 6 C50.66918022 8.33081978 49.78808183 8.3906879 46.60546875 8.8515625 C45.73212891 8.98046875 44.85878906 9.109375 43.95898438 9.2421875 C43.04439453 9.36851563 42.12980469 9.49484375 41.1875 9.625 C39.83301758 9.82609375 39.83301758 9.82609375 38.45117188 10.03125 C26.97260276 11.6842989 26.97260276 11.6842989 21.6875 9.375 C16.95698291 7.37942527 12.18572965 5.54080514 7.375 3.75 C6.65143311 3.47978027 5.92786621 3.20956055 5.18237305 2.93115234 C3.45529197 2.28642516 1.72770075 1.64306479 0 1 C0 0.67 0 0.34 0 0 Z " fill="#0E0E0E" transform="translate(175,95)"/>
<path d="M0 0 C0.02689216 1.47906892 0.04634621 2.95827483 0.0625 4.4375 C0.07410156 5.26121094 0.08570313 6.08492187 0.09765625 6.93359375 C0 9 0 9 -1 10 C-3.52195967 10.39943176 -6.02963656 10.75079848 -8.5625 11.0625 C-9.62887695 11.19881836 -9.62887695 11.19881836 -10.71679688 11.33789062 C-12.47738403 11.56239503 -14.23863478 11.78168397 -16 12 C-15.67 8.37 -15.34 4.74 -15 1 C-13.0641649 0.63684334 -11.12624752 0.28477269 -9.1875 -0.0625 C-8.10855469 -0.25972656 -7.02960937 -0.45695312 -5.91796875 -0.66015625 C-3 -1 -3 -1 0 0 Z " fill="#0C0C0C" transform="translate(1022,124)"/>
<path d="M0 0 C0.90105469 0.00902344 1.80210937 0.01804687 2.73046875 0.02734375 C3.41753906 0.03894531 4.10460937 0.05054687 4.8125 0.0625 C6.41975635 3.27701269 5.86998185 6.49862536 5.8125 10.0625 C-0.6225 10.5575 -0.6225 10.5575 -7.1875 11.0625 C-7.5175 7.7625 -7.8475 4.4625 -8.1875 1.0625 C-5.17259443 0.05753148 -3.14568308 -0.04085303 0 0 Z " fill="#070707" transform="translate(969.1875,97.9375)"/>
<path d="M0 0 C0.33 3.3 0.66 6.6 1 10 C-5.435 10.495 -5.435 10.495 -12 11 C-13.60725635 7.78548731 -13.05748185 4.56387464 -13 1 C-11.58366664 0.83052421 -10.16691467 0.66454493 -8.75 0.5 C-7.56664062 0.36078125 -7.56664062 0.36078125 -6.359375 0.21875 C-4 0 -4 0 0 0 Z " fill="#0D0D0D" transform="translate(1016,91)"/>
<path d="M0 0 C1.423125 0.020625 2.84625 0.04125 4.3125 0.0625 C4.3125 3.3625 4.3125 6.6625 4.3125 10.0625 C0.6825 10.3925 -2.9475 10.7225 -6.6875 11.0625 C-7.8452506 7.58924819 -7.75616652 4.70182552 -7.6875 1.0625 C-4.80538698 0.10179566 -2.98899956 -0.04331883 0 0 Z " fill="#0A0A0A" transform="translate(973.6875,130.9375)"/>
<path d="M0 0 C4.62 0 9.24 0 14 0 C13.67 0.99 13.34 1.98 13 3 C11.58249437 2.88490339 10.16598831 2.75746342 8.75 2.625 C7.96109375 2.55539063 7.1721875 2.48578125 6.359375 2.4140625 C4 2 4 2 0 0 Z " fill="#484848" transform="translate(160,128)"/>
<path d="M0 0 C5.28 0.66 10.56 1.32 16 2 C16 2.33 16 2.66 16 3 C14.02 3 12.04 3 10 3 C10 3.66 10 4.32 10 5 C8.51800098 4.55090939 7.03944764 4.09043436 5.5625 3.625 C4.73878906 3.36976563 3.91507813 3.11453125 3.06640625 2.8515625 C1 2 1 2 0 0 Z " fill="#404040" transform="translate(138,151)"/>
</svg>
