<?xml version="1.0" encoding="UTF-8"?>
<svg version="1.1" xmlns="http://www.w3.org/2000/svg" width="230" height="880">
<path d="M0 0 C15.51 0 31.02 0 47 0 C47 1.65 47 3.3 47 5 C49.97 4.01 52.94 3.02 56 2 C77.25591691 33.95266474 77.25591691 33.95266474 75.625 47 C75.41875 47.66 75.2125 48.32 75 49 C73.68 49.33 72.36 49.66 71 50 C71 61.55 71 73.1 71 85 C63.41 85 55.82 85 48 85 C48.14836846 89.10889803 48.34246028 93.20731455 48.5625 97.3125 C48.61760742 99.03436523 48.61760742 99.03436523 48.67382812 100.79101562 C49.13515495 108.54569995 50.85236374 113.47664113 55.42163086 119.78198242 C57 122 57 122 58 125 C59.84971696 126.05021103 59.84971696 126.05021103 62 127 C64.25 128.5 64.25 128.5 66 130 C66 130.66 66 131.32 66 132 C66.721875 132.2475 67.44375 132.495 68.1875 132.75 C71.48462423 134.21538855 73.57207409 135.29459684 76 138 C76.98336984 144.34985471 75.46196598 150.69015856 73.875 156.8125 C73.65054199 157.68616211 73.42608398 158.55982422 73.19482422 159.45996094 C69.91961323 171.61988516 64.71470405 182.83515508 53.9375 190 C47.14623127 193.40722356 39.31451329 193.27794008 32.125 191.1484375 C23.63324651 187.34268213 19.01041882 181.16061468 15 173 C9.8621953 174.20562622 4.72511278 175.41427194 -0.41137695 176.62548828 C-2.15175062 177.03545935 -3.89230501 177.44466411 -5.63305664 177.85302734 C-15.40206794 180.14532345 -25.12986997 182.50377649 -34.79101562 185.21875 C-39.4908474 186.36295737 -44.17586878 186.79941242 -49 187 C-49.99 184.525 -49.99 184.525 -51 182 C-52.19238281 182.5053125 -53.38476562 183.010625 -54.61328125 183.53125 C-56.17957077 184.18777854 -57.74598347 184.84401329 -59.3125 185.5 C-60.09818359 185.83386719 -60.88386719 186.16773438 -61.69335938 186.51171875 C-62.8293457 186.98544922 -62.8293457 186.98544922 -63.98828125 187.46875 C-64.68477783 187.76201172 -65.38127441 188.05527344 -66.09887695 188.35742188 C-68 189 -68 189 -71 189 C-71.66 185.04 -72.32 181.08 -73 177 C-76.35731442 180.35731442 -79.02431555 184.03304779 -81.77148438 187.88085938 C-82.80134949 189.28897211 -83.89620698 190.64905788 -85 192 C-85.66 192 -86.32 192 -87 192 C-87.268125 192.61875 -87.53625 193.2375 -87.8125 193.875 C-89 196 -89 196 -92 198 C-92.66 197.67 -93.32 197.34 -94 197 C-94 196.34 -94 195.68 -94 195 C-94.59941406 194.72414063 -95.19882813 194.44828125 -95.81640625 194.1640625 C-98 193 -98 193 -100.9375 190.375 C-109.44125832 182.92512626 -119.8557375 177.82537892 -130 173 C-130 169 -130 169 -127.55078125 166.265625 C-126.480914 165.25024788 -125.40101527 164.2453598 -124.3125 163.25 C-117.6716712 157.1497976 -112.82208835 152.01243164 -112.39872742 142.60913086 C-112.38430355 140.0610513 -112.39736702 137.51272367 -112.43237305 134.96484375 C-112.4337854 133.55481517 -112.43298789 132.14478292 -112.43016052 130.73475647 C-112.42873222 126.92717386 -112.45802554 123.12038681 -112.49303031 119.31298828 C-112.5243925 115.32653898 -112.52723228 111.34006927 -112.53315735 107.35351562 C-112.54866697 99.81354766 -112.589656 92.27394434 -112.6399048 84.73413658 C-112.70636651 74.539199 -112.7332561 64.34416095 -112.76241589 54.1490612 C-112.80936035 38.09910128 -112.90899118 22.04991064 -113 6 C-87.59 6 -62.18 6 -36 6 C-36 7.32 -36 8.64 -36 10 C-24.12 10 -12.24 10 0 10 C0 6.7 0 3.4 0 0 Z " fill="#060606" transform="translate(144,448)"/>
<path d="M0 0 C5.88789851 0.68184111 11.42303652 2.09190131 17.125 3.6875 C18.55187134 4.08026123 18.55187134 4.08026123 20.00756836 4.48095703 C24.99422297 5.85972905 29.9685087 7.27596666 34.93359375 8.73046875 C35.87895996 9.00608643 36.82432617 9.2817041 37.79833984 9.56567383 C39.60391724 10.09433388 41.40773031 10.62906803 43.20947266 11.1706543 C47.31535494 12.37463178 50.69625209 13.08260553 55 13 C55.99 13.99 55.99 13.99 57 15 C57.33 11.04 57.66 7.08 58 3 C74.17 3 90.34 3 107 3 C107 9.27 107 15.54 107 22 C120.53 22 134.06 22 148 22 C148 32.89 148 43.78 148 55 C149.32 55 150.64 55 152 55 C153.31540771 64.89354525 154.40792385 74.78683947 155.30224609 84.72729492 C155.73793402 89.51209831 156.27179934 94.25058507 157 99 C154.09399739 100.25664978 152.20395416 101 149 101 C149 113.21 149 125.42 149 138 C152.63 138.66 156.26 139.32 160 140 C160.14893081 145.56256593 159.61725388 150.82025732 158.75 156.3125 C158.61795166 157.15047119 158.48590332 157.98844238 158.34985352 158.85180664 C157.32273665 164.94414114 155.7976249 170.46138229 153 176 C152.63003906 176.74378906 152.26007813 177.48757813 151.87890625 178.25390625 C151.58886719 178.83011719 151.29882812 179.40632812 151 180 C150.34 180 149.68 180 149 180 C148.7525 180.61875 148.505 181.2375 148.25 181.875 C146.79371361 184.35068687 145.62187494 184.95125002 143 186 C143 186.66 143 187.32 143 188 C135.42101123 191.23080991 128.99287844 192.59205284 120.77734375 192.49609375 C119.75121475 192.49754898 118.72508575 192.49900421 117.66786194 192.50050354 C115.51576881 192.49885593 113.36366248 192.48742387 111.21166992 192.46655273 C107.94203019 192.4375402 104.67401092 192.44598109 101.40429688 192.45898438 C99.29947139 192.45274692 97.19465096 192.44435593 95.08984375 192.43359375 C94.1260228 192.43652939 93.16220184 192.43946503 92.16917419 192.44248962 C84.15141872 192.33251382 75.81489277 191.25813242 69.5625 185.8125 C66.75583655 183.29038134 66.75583655 183.29038134 63 183 C62.443125 183.5775 61.88625 184.155 61.3125 184.75 C50.41561823 195.35237145 32.54893585 193.22443395 18.5390625 193.0703125 C17.02602045 193.04828738 15.51298885 193.02541853 14 193 C13.80083984 191.95199219 13.80083984 191.95199219 13.59765625 190.8828125 C13.42105469 189.97273437 13.24445313 189.06265625 13.0625 188.125 C12.88847656 187.22007812 12.71445313 186.31515625 12.53515625 185.3828125 C12.10036299 183.00043683 12.10036299 183.00043683 11 181 C10.5875 181.66644531 10.175 182.33289063 9.75 183.01953125 C5.44112996 189.89641089 0.84638394 196.49199871 -4 203 C-4.66 202.67 -5.32 202.34 -6 202 C-6 201.34 -6 200.68 -6 200 C-6.66 200 -7.32 200 -8 200 C-9.5078125 198.1015625 -9.5078125 198.1015625 -11.125 195.625 C-11.66382812 194.81289063 -12.20265625 194.00078125 -12.7578125 193.1640625 C-14 191 -14 191 -14 189 C-14.66 189 -15.32 189 -16 189 C-17.4453125 187.4609375 -17.4453125 187.4609375 -19.125 185.375 C-24.72953967 178.79575777 -31.64544177 174.42055894 -39 170 C-37.68130056 166.44771395 -36.09128929 163.38297218 -34.0625 160.1875 C-27.54837379 149.45741863 -25.68117958 138.54412039 -25.734375 126.0859375 C-25.73150482 124.56596664 -25.73150482 124.56596664 -25.72857666 123.01528931 C-25.7272238 120.8824234 -25.73085695 118.74954901 -25.73925781 116.61669922 C-25.74990249 113.40442716 -25.73936621 110.19272292 -25.7265625 106.98046875 C-25.71328545 88.68186547 -26.14537527 70.36390908 -35.05078125 53.85546875 C-36.67339277 50.68369726 -37.80294267 47.35176052 -39 44 C-37.824375 43.566875 -36.64875 43.13375 -35.4375 42.6875 C-34.70660156 42.40777344 -33.97570312 42.12804687 -33.22265625 41.83984375 C-31.28631843 41.1081871 -29.33188225 40.42478698 -27.375 39.75 C-23.73608073 37.86315297 -21.9290511 36.00082375 -19.45703125 32.81640625 C-18 31 -18 31 -16.06640625 29.14453125 C-8.39028955 21.1782022 -4.01059149 10.13282017 0 0 Z " fill="#060606" transform="translate(58,659)"/>
<path d="M0 0 C16.17 0 32.34 0 49 0 C49 7.59 49 15.18 49 23 C59.23 23 69.46 23 80 23 C80 15.41 80 7.82 80 0 C96.17 0 112.34 0 129 0 C129 7.59 129 15.18 129 23 C141.87 23 154.74 23 168 23 C168 38.84 168 54.68 168 71 C165.03 71.495 165.03 71.495 162 72 C164.64 72.99 167.28 73.98 170 75 C169.09830851 82.64883123 167.30990032 89.87987518 165.125 97.25 C164.88056152 98.08885742 164.63612305 98.92771484 164.38427734 99.79199219 C162.74637379 105.18355776 160.63624367 110.03020208 158 115 C157.42378906 116.175625 156.84757813 117.35125 156.25390625 118.5625 C149.97814208 131.31693989 149.97814208 131.31693989 146 137 C145.34 137 144.68 137 144 137 C144 137.99 144 138.98 144 140 C144.73178467 140.13881592 145.46356934 140.27763184 146.2175293 140.4206543 C148.69883034 140.93729266 151.08907603 141.55610109 153.51953125 142.26953125 C154.3700708 142.51687012 155.22061035 142.76420898 156.09692383 143.01904297 C156.99306396 143.28088379 157.8892041 143.54272461 158.8125 143.8125 C167.82751025 146.42150742 176.87580989 148.80606461 186 151 C184.76448756 154.70653731 183.03334922 155.64915435 180 158 C179.67 158.66 179.34 159.32 179 160 C178.34 160 177.68 160 177 160 C176.67 160.99 176.34 161.98 176 163 C175.34 163 174.68 163 174 163 C174 163.66 174 164.32 174 165 C172.84566182 166.15433818 171.68714544 167.30480365 170.5078125 168.43359375 C167.23438754 171.83422435 164.11505287 175.76989427 162 180 C161.34 180 160.68 180 160 180 C159.62875 180.9590625 159.62875 180.9590625 159.25 181.9375 C157.59188428 185.99988351 155.7964416 189.99724906 154 194 C147.80689548 193.46916247 142.31094667 192.44896334 136.4375 190.4375 C135.66881592 190.17791504 134.90013184 189.91833008 134.1081543 189.65087891 C125.49793235 186.6339913 116.81934562 182.81347589 109.16552734 177.79785156 C107.15508972 176.45318006 107.15508972 176.45318006 104 175 C101.32386701 175.45156309 101.32386701 175.45156309 99 177 C98.15824219 177.42796875 97.31648438 177.8559375 96.44921875 178.296875 C95.53785156 178.77640625 94.62648438 179.2559375 93.6875 179.75 C83.42643179 184.90562229 72.67851058 188.6067661 61.6875 191.875 C60.96409424 192.090354 60.24068848 192.30570801 59.49536133 192.52758789 C56.56471987 193.37205742 54.06622534 194 51 194 C50.18710947 191.72930578 49.37467262 189.45845099 48.5625 187.1875 C48.33240234 186.54490234 48.10230469 185.90230469 47.86523438 185.24023438 C46.88582149 182.50071717 45.92004638 179.76013914 45 177 C44.34773438 177.54269531 43.69546875 178.08539063 43.0234375 178.64453125 C26.3859534 192.26371072 9.52315761 191.17652577 -11 191 C-11.14248169 190.14003418 -11.14248169 190.14003418 -11.2878418 189.26269531 C-13.13591661 178.32560212 -14.9593771 167.99042376 -20 158 C-20.46019531 157.08734375 -20.92039062 156.1746875 -21.39453125 155.234375 C-22.24109989 153.56563451 -23.10207379 151.90403287 -23.984375 150.25390625 C-25 148 -25 148 -26 143 C-17.42 143 -8.84 143 0 143 C0 140.69 0 138.38 0 136 C-1.051875 136.33 -2.10375 136.66 -3.1875 137 C-6.38873357 137.83966782 -8.7411008 138.19750904 -12 138 C-13.84955442 133.80167514 -14.88555189 129.52256569 -15.875 125.0625 C-17.92780831 116.06711343 -20.37201396 107.22549366 -23.1171875 98.4140625 C-23.89473842 95.40707355 -24.18637755 93.07522961 -24 90 C-15.9901375 87.74190046 -8.3124321 86.42741229 0 86 C0 84.02 0 82.04 0 80 C-6.27 80 -12.54 80 -19 80 C-19 64.16 -19 48.32 -19 32 C-12.73 32 -6.46 32 0 32 C0 21.44 0 10.88 0 0 Z M49 124 C49 130.27 49 136.54 49 143 C50.876875 142.566875 52.75375 142.13375 54.6875 141.6875 C56.27111328 141.32205078 56.27111328 141.32205078 57.88671875 140.94921875 C60.97575628 140.00739175 63.31817964 138.77627063 66 137 C62.31309835 128.97825636 62.31309835 128.97825636 57 122 C54.26213521 121.89459074 54.26213521 121.89459074 49 124 Z " fill="#070707" transform="translate(44,235)"/>
<path d="M0 0 C1.25 2.5625 1.25 2.5625 2 5 C2.66 5 3.32 5 4 5 C5.5078125 7.1171875 5.5078125 7.1171875 7.125 9.875 C7.66382812 10.77992187 8.20265625 11.68484375 8.7578125 12.6171875 C10 15 10 15 10 17 C10.66 17 11.32 17 12 17 C12.495 17.99 12.495 17.99 13 19 C13.598125 18.690625 14.19625 18.38125 14.8125 18.0625 C17 17 17 17 20 16 C20 15.34 20 14.68 20 14 C21.61457079 12.56418526 23.29219075 11.19855217 25 9.875 C25.928125 9.15054687 26.85625 8.42609375 27.8125 7.6796875 C28.534375 7.12539063 29.25625 6.57109375 30 6 C32.5 7.375 32.5 7.375 35 9 C35 9.66 35 10.32 35 11 C35.721875 11.2475 36.44375 11.495 37.1875 11.75 C40.86397353 13.38398823 44.16101709 15.32203419 46 19 C46.33 12.73 46.66 6.46 47 0 C63.17 0 79.34 0 96 0 C96 32.01 96 64.02 96 97 C99.3 96.34 102.6 95.68 106 95 C107.65 95.33 109.3 95.66 111 96 C112.015625 102.09375 113.03125 108.1875 114.046875 114.28125 C114.15678772 114.94032349 114.26670044 115.59939697 114.37994385 116.27844238 C114.60064588 117.6034685 114.82081987 118.92858267 115.04046631 120.25378418 C115.55153225 123.33358609 116.07198309 126.41116738 116.61035156 129.48632812 C116.79307617 130.53755859 116.97580078 131.58878906 117.1640625 132.671875 C117.32600098 133.58549805 117.48793945 134.49912109 117.65478516 135.44042969 C117.99919119 137.9940031 118.06204063 140.42676349 118 143 C115.64741656 143.50866669 113.29338596 144.0070625 110.9375 144.5 C110.28072266 144.64308594 109.62394531 144.78617188 108.94726562 144.93359375 C108.29306641 145.06894531 107.63886719 145.20429688 106.96484375 145.34375 C106.3730835 145.46943359 105.78132324 145.59511719 105.17163086 145.72460938 C102.13734335 146.10939592 99.05858814 146 96 146 C96 161.51 96 177.02 96 193 C79.83 193 63.66 193 47 193 C47 180.79 47 168.58 47 156 C30.64499293 158.90039534 14.30946469 161.85460324 -2 165 C-2.33 174.24 -2.66 183.48 -3 193 C-19.17 193 -35.34 193 -52 193 C-52 185.74 -52 178.48 -52 171 C-52.66 171 -53.32 171 -54 171 C-54.28875 171.5775 -54.5775 172.155 -54.875 172.75 C-55.91666667 174.83333333 -56.95833333 176.91666667 -58 179 C-58.99 178.67 -59.98 178.34 -61 178 C-61.87207031 176.01318359 -61.87207031 176.01318359 -62.578125 173.3984375 C-62.84826416 172.44026123 -63.11840332 171.48208496 -63.39672852 170.49487305 C-63.67830811 169.46531494 -63.9598877 168.43575684 -64.25 167.375 C-67.9282331 154.63630491 -72.46472045 143.15078914 -80.03125 132.1484375 C-81.30667824 129.3198668 -80.96753174 127.91194337 -80 125 C-78.55089581 122.67234484 -76.91436441 121.00774804 -75 119 C-74.34 119 -73.68 119 -73 119 C-72.73058594 118.27683594 -72.46117187 117.55367188 -72.18359375 116.80859375 C-71.01418373 114.03365709 -69.64916133 111.61811482 -68.0625 109.0625 C-65.80461513 105.41870114 -63.93504631 101.87009262 -62 98 C-66.95 98 -71.9 98 -77 98 C-77 82.16 -77 66.32 -77 50 C-74.36 50 -71.72 50 -69 50 C-71.9499261 40.71498669 -75.12016588 32.26314512 -79.8125 23.6875 C-81 21 -81 21 -80 18 C-74.56557892 16.97755971 -69.13438506 15.99659541 -63.66015625 15.2109375 C-52.31471019 13.54537465 -41.34167656 11.22044873 -30.3125 8.0625 C-29.18013916 7.73878418 -28.04777832 7.41506836 -26.88110352 7.08154297 C-19.99620239 5.04751676 -13.38155254 2.64560228 -6.76635742 -0.14672852 C-3.92029561 -1.02458449 -2.68120972 -1.25036263 0 0 Z M1.875 48 C1.15054688 48.185625 0.42609375 48.37125 -0.3203125 48.5625 C-0.87460938 48.706875 -1.42890625 48.85125 -2 49 C-2 49.33 -2 49.66 -2 50 C2.29 50 6.58 50 11 50 C10.01 49.01 9.02 48.02 8 47 C5.78970467 47 4.01332407 47.44817443 1.875 48 Z " fill="#060606" transform="translate(100,21)"/>
<path d="M0 0 C17.49 0 34.98 0 53 0 C53 38.61 53 77.22 53 117 C49.535 117.495 49.535 117.495 46 118 C46.5053125 118.91523437 47.010625 119.83046875 47.53125 120.7734375 C48.18771927 121.97383845 48.8439573 123.17436587 49.5 124.375 C49.83386719 124.97828125 50.16773438 125.5815625 50.51171875 126.203125 C53 130.7734375 53 130.7734375 53 133 C54.98 132.67 56.96 132.34 59 132 C59.33 110.88 59.66 89.76 60 68 C66.27 68 72.54 68 79 68 C79 87.8 79 107.6 79 128 C80.65 128 82.3 128 84 128 C84 104.24 84 80.48 84 56 C90.27 56 96.54 56 103 56 C103 64.25 103 72.5 103 81 C106.63 81 110.26 81 114 81 C114 87.27 114 93.54 114 100 C110.37 100 106.74 100 103 100 C103 107.92 103 115.84 103 124 C107.62 123.01 112.24 122.02 117 121 C117.68026044 127.7175718 118.11065041 134.25032497 118 141 C111.62766515 143.22784646 105.21901437 145.06206773 98.671875 146.69921875 C97.71984192 146.9391304 96.76780884 147.17904205 95.78692627 147.42622375 C93.79069577 147.92796443 91.79400442 148.42787483 89.796875 148.92602539 C86.74301618 149.6892454 83.6918128 150.4625081 80.640625 151.23632812 C78.69286149 151.72456973 76.74494982 152.21222074 74.796875 152.69921875 C73.88846863 152.93041916 72.98006226 153.16161957 72.04412842 153.39982605 C71.19264221 153.61037125 70.34115601 153.82091644 69.46386719 154.0378418 C68.72046082 154.224207 67.97705444 154.4105722 67.21112061 154.60258484 C64.76865645 155.04158047 62.47649514 155.06705232 60 155 C59.01 153.02 58.02 151.04 57 149 C50.89262558 150.76463072 44.92566493 152.69557475 39 155 C38.78085938 154.21238281 38.56171875 153.42476562 38.3359375 152.61328125 C35.91681607 144.30369747 32.81083219 136.76139489 29 129 C27.47845288 131.28232067 26.37096718 133.22911878 25.265625 135.6953125 C16.28010235 155.45049492 16.28010235 155.45049492 8 163 C7.3709375 162.55269531 6.741875 162.10539063 6.09375 161.64453125 C0.82295773 157.92163731 -4.4938159 154.36489028 -10 151 C-8.69379729 147.35671891 -7.10389221 144.62149956 -4.75 141.5625 C0.21911904 134.64939506 4.22828288 126.36415291 6 118 C4.02 117.67 2.04 117.34 0 117 C0 78.39 0 39.78 0 0 Z " fill="#FCFCFC" transform="translate(42,467)"/>
<path d="M0 0 C8.58 0 17.16 0 26 0 C26 7.92 26 15.84 26 24 C38.54 24 51.08 24 64 24 C64 31.92 64 39.84 64 48 C51.46 48 38.92 48 26 48 C26 53.94 26 59.88 26 66 C28.24683594 65.78730469 28.24683594 65.78730469 30.5390625 65.5703125 C53.22846535 63.77685562 53.22846535 63.77685562 63 71 C64.5419052 73.76309412 63.94463418 75.2482811 63.25 78.36328125 C62.84760318 79.68411936 62.4299712 81.00037909 62 82.3125 C61.7736084 83.01528076 61.5472168 83.71806152 61.31396484 84.44213867 C56.16552913 99.8788133 48.2277777 113.36717556 38 126 C37.195625 127.010625 36.39125 128.02125 35.5625 129.0625 C35.046875 129.701875 34.53125 130.34125 34 131 C44.78422908 139.38773373 56.98780946 142.63601235 70 146 C70 149.6253347 69.42923686 149.91608227 67 152.4375 C62.35021329 157.52468996 58.71371087 163.21239864 55 169 C41.32898002 166.45116577 25.41112887 160.6407638 14.91015625 151.1015625 C12.9496755 149.68868637 12.9496755 149.68868637 10.21875 150.578125 C6.58075895 152.18519872 3.02926279 153.92010793 -0.5 155.75 C-24.43935871 167.93963857 -24.43935871 167.93963857 -31.65625 168.03515625 C-35.13941697 166.49675751 -36.0629932 163.7618674 -37.5 160.4375 C-39.9825488 154.99814189 -42.73270158 150.01024106 -46 145 C-45.33581055 144.78907715 -44.67162109 144.5781543 -43.98730469 144.36083984 C-27.55174807 139.24571358 -27.55174807 139.24571358 -11.9765625 132.03125 C-10 131 -10 131 -8 131 C-8.97868179 129.45802548 -9.95799116 127.91644929 -10.9375 126.375 C-11.57300781 125.37210937 -12.20851562 124.36921875 -12.86328125 123.3359375 C-14.32320322 121.05664433 -15.79493606 118.79274 -17.29296875 116.5390625 C-29 98.83885452 -29 98.83885452 -29 91 C-30.65 90.67 -32.3 90.34 -34 90 C-34 82.08 -34 74.16 -34 66 C-22.78 66 -11.56 66 0 66 C0 60.06 0 54.12 0 48 C-11.88 48 -23.76 48 -36 48 C-36 40.08 -36 32.16 -36 24 C-24.12 24 -12.24 24 0 24 C0 16.08 0 8.16 0 0 Z " fill="#FCFCFC" transform="translate(135,247)"/>
<path d="M0 0 C1.62750146 2.16101023 3.03985878 4.25954192 4.4375 6.5625 C4.81970703 7.17158203 5.20191406 7.78066406 5.59570312 8.40820312 C8.17351021 12.54407358 10.60291784 16.75732839 13 21 C5.88107622 24.62384492 -1.19321643 26.35646662 -9 28 C-9 34.6 -9 41.2 -9 48 C1.89 48.495 1.89 48.495 13 49 C13.495 58.405 13.495 58.405 14 68 C15.5675 66.576875 17.135 65.15375 18.75 63.6875 C20.48696319 62.11052026 22.23641236 60.54714734 24 59 C24.68578125 58.38769531 25.3715625 57.77539062 26.078125 57.14453125 C28 56 28 56 29.92407227 56.27807617 C33.41838417 57.49325673 35.95395458 60.08588342 38.6875 62.5 C39.3052832 63.03882813 39.92306641 63.57765625 40.55957031 64.1328125 C54.57783712 76.4636277 54.57783712 76.4636277 57 82 C55.31891439 83.73580449 53.63056999 85.46344572 51.9375 87.1875 C51.47150391 87.67025391 51.00550781 88.15300781 50.52539062 88.65039062 C46.9629008 92.2613497 43.18969001 95.13887586 39 98 C38.28457031 97.12859375 37.56914062 96.2571875 36.83203125 95.359375 C29.77134278 86.87936848 22.2781543 79.29011653 14 72 C13.67 72.33 13.34 72.66 13 73 C11.44051458 73.15686249 9.87457332 73.25076639 8.30859375 73.31640625 C7.36435547 73.35830078 6.42011719 73.40019531 5.44726562 73.44335938 C4.45404297 73.48267578 3.46082031 73.52199219 2.4375 73.5625 C1.44041016 73.60568359 0.44332031 73.64886719 -0.58398438 73.69335938 C-3.0558415 73.79980298 -5.5278031 73.90181928 -8 74 C-7.57702637 74.4125 -7.15405273 74.825 -6.71826172 75.25 C-4.76500439 77.16113139 -2.82001465 79.08048179 -0.875 81 C-0.20984375 81.64839844 0.4553125 82.29679687 1.140625 82.96484375 C5.56695367 87.34777704 9.41037462 91.90919701 13 97 C11.25431175 99.41988509 9.50367249 101.83591141 7.75 104.25 C7.25886719 104.93191406 6.76773438 105.61382812 6.26171875 106.31640625 C5.77832031 106.98027344 5.29492188 107.64414063 4.796875 108.328125 C4.35698242 108.9355957 3.91708984 109.54306641 3.46386719 110.16894531 C1.800578 112.24944379 -0.11651854 114.11651854 -2 116 C-4.97 111.05 -4.97 111.05 -8 106 C-8.33 126.46 -8.66 146.92 -9 168 C-17.58 168 -26.16 168 -35 168 C-35.33 151.5 -35.66 135 -36 118 C-38.64 122.95 -41.28 127.9 -44 133 C-46.875 137.4375 -46.875 137.4375 -49 140 C-49.66 140 -50.32 140 -51 140 C-51.29132812 139.26136719 -51.58265625 138.52273437 -51.8828125 137.76171875 C-54.49716122 131.29161673 -57.38951133 125.31626117 -61.05859375 119.375 C-62 117 -62 117 -61.44921875 115.10546875 C-60.97097656 114.41066406 -60.49273437 113.71585937 -60 113 C-58.95972656 111.47826172 -58.95972656 111.47826172 -57.8984375 109.92578125 C-57.29237671 109.06049805 -57.29237671 109.06049805 -56.67407227 108.17773438 C-49.20233478 97.44966176 -44.13274001 85.97639336 -39 74 C-45.93 73.67 -52.86 73.34 -60 73 C-60 64.75 -60 56.5 -60 48 C-51.75 48 -43.5 48 -35 48 C-35 43.05 -35 38.1 -35 33 C-37.97 33.495 -37.97 33.495 -41 34 C-42.95740193 34.06388388 -44.91670147 34.08638169 -46.875 34.0625 C-47.84179688 34.05347656 -48.80859375 34.04445312 -49.8046875 34.03515625 C-50.52914062 34.02355469 -51.25359375 34.01195312 -52 34 C-53.00577013 31.23113877 -54.00480147 28.46015896 -55 25.6875 C-55.28617188 24.90181641 -55.57234375 24.11613281 -55.8671875 23.30664062 C-56.13789062 22.54931641 -56.40859375 21.79199219 -56.6875 21.01171875 C-56.93886719 20.31522217 -57.19023438 19.61872559 -57.44921875 18.90112305 C-58 17 -58 17 -58 14 C-57.37883301 13.88519287 -56.75766602 13.77038574 -56.11767578 13.65209961 C-43.52230029 11.29665163 -31.06312516 8.64763204 -18.6875 5.3125 C-17.02581787 4.86668579 -17.02581787 4.86668579 -15.33056641 4.41186523 C-9.96236634 3.01728216 -9.96236634 3.01728216 -4.86254883 0.90307617 C-3 0 -3 0 0 0 Z " fill="#FAFAFA" transform="translate(94,35)"/>
<path d="M0 0 C9.22377877 1.61050105 18.05554976 4.28138519 27 7 C25.35 9.97 23.7 12.94 22 16 C21.34 16 20.68 16 20 16 C19.61328125 16.84884766 19.61328125 16.84884766 19.21875 17.71484375 C17.87145886 20.24101463 16.28581825 22.32644367 14.5 24.5625 C12.55613602 27.00468505 10.73348485 29.39977272 9 32 C14.94 32 20.88 32 27 32 C25.02 28.04 23.04 24.08 21 20 C24.90208376 17.07343718 27.96796379 15.95116519 32.5625 14.8125 C33.23474609 14.63525391 33.90699219 14.45800781 34.59960938 14.27539062 C37.48097081 13.53430561 40.01293447 13 43 13 C44.88042153 16.5596626 46.75327513 20.12325796 48.625 23.6875 C49.14707031 24.67556641 49.66914062 25.66363281 50.20703125 26.68164062 C54.06413816 34.03871492 57.50844862 41.43497202 61 49 C61.33 32.83 61.66 16.66 62 0 C70.58 0 79.16 0 88 0 C88 5.94 88 11.88 88 18 C101.86 18 115.72 18 130 18 C130 25.26 130 32.52 130 40 C116.14 40 102.28 40 88 40 C87.93665831 50.92898075 87.93665831 50.92898075 91 55 C92.97255135 55.43636428 92.97255135 55.43636428 95.26611328 55.34057617 C96.58725632 55.34023628 96.58725632 55.34023628 97.93508911 55.33988953 C98.88721283 55.32440567 99.83933655 55.30892181 100.8203125 55.29296875 C101.79410858 55.28872391 102.76790466 55.28447906 103.77120972 55.28010559 C106.88941805 55.26327786 110.00698617 55.22561811 113.125 55.1875 C115.23566777 55.17245846 117.34634564 55.15876914 119.45703125 55.14648438 C124.63824023 55.11336109 129.81907439 55.06312151 135 55 C135.16803054 56.87997196 135.33273719 58.76024114 135.49609375 60.640625 C135.58818115 61.68766602 135.68026855 62.73470703 135.77514648 63.81347656 C136.08568147 68.21423941 136.08778355 72.59131481 136 77 C133.06398552 77.97867149 131.106905 78.14301449 128.04467773 78.17700195 C127.03610214 78.18983719 126.02752655 78.20267242 124.98838806 78.21589661 C123.89780594 78.22328354 122.80722382 78.23067047 121.68359375 78.23828125 C120.55736099 78.246353 119.43112823 78.25442474 118.27076721 78.26274109 C115.88259418 78.27658231 113.49440137 78.28730429 111.10620117 78.29516602 C107.47601036 78.31231805 103.84674469 78.35619824 100.21679688 78.40039062 C97.89323585 78.41052317 95.56966709 78.41903751 93.24609375 78.42578125 C92.16968124 78.44328934 91.09326874 78.46079742 89.98423767 78.47883606 C81.98554272 78.45613103 75.05466781 77.03454438 68.546875 72.1640625 C66.55207441 69.37335662 65.42723923 66.59424061 64.25 63.375 C63.82203125 62.22773437 63.3940625 61.08046875 62.953125 59.8984375 C62 57 62 57 62 55 C56.29539751 56.81885876 50.7637247 58.86487199 45.26171875 61.23046875 C43 62 43 62 39 62 C38.01 58.7 37.02 55.4 36 52 C30.73795939 52.65080288 25.47680769 53.3082875 20.21630859 53.97143555 C18.4343005 54.1951876 16.65207933 54.41725055 14.86962891 54.63745117 C4.52643515 55.91651091 -5.70761568 57.38496736 -15.92773438 59.43823242 C-19 60 -19 60 -22 60 C-22.25523438 59.09121094 -22.25523438 59.09121094 -22.515625 58.1640625 C-24.10802395 52.65842782 -25.97250276 47.39749356 -28.23046875 42.12890625 C-29 40 -29 40 -29 37 C-27.4609375 35.640625 -27.4609375 35.640625 -25.375 34.25 C-14.22392924 26.21810987 -5.45160455 12.45261251 0 0 Z " fill="#FBFBFB" transform="translate(64,674)"/>
<path d="M0 0 C23.43 0 46.86 0 71 0 C71.12032643 22.4698463 71.12032643 22.4698463 71.14648438 32.0546875 C71.16441134 38.5925223 71.18560954 45.13023094 71.22631836 51.66796875 C71.25893635 56.93938453 71.27685827 62.210665 71.28463173 67.48217392 C71.29017083 69.49240117 71.30098734 71.5026211 71.31719017 73.51279068 C71.3389967 76.33046673 71.34196555 79.14758505 71.34057617 81.96533203 C71.351362 82.79467758 71.36214783 83.62402313 71.3732605 84.47850037 C71.34130257 90.47593735 70.17635242 94.69174743 65.9375 99.1875 C56.83735157 104.8024852 47.31230928 104.34544957 37 104 C36.7525 102.865625 36.505 101.73125 36.25 100.5625 C35.23144254 96.42184249 33.63784022 92.72306673 31.8046875 88.8828125 C31 87 31 87 31 85 C35.95 84.67 40.9 84.34 46 84 C46 79.71 46 75.42 46 71 C43.93702698 72.58272015 41.87461051 74.16615676 39.8125 75.75 C39.23435547 76.1934375 38.65621094 76.636875 38.06054688 77.09375 C37.49013672 77.53203125 36.91972656 77.9703125 36.33203125 78.421875 C35.76693848 78.85435547 35.2018457 79.28683594 34.61962891 79.73242188 C33.1365607 80.89312283 31.69650714 82.10824785 30.26171875 83.328125 C28 85 28 85 25 85 C24.01 81.7 23.02 78.4 22 75 C21.32904297 77.1346875 21.32904297 77.1346875 20.64453125 79.3125 C20.03442657 81.20851762 19.42371724 83.10434074 18.8125 85 C18.52052734 85.93457031 18.22855469 86.86914062 17.92773438 87.83203125 C16.080289 93.5134224 14.11852714 99.51786093 10 104 C7 104 7 104 4.22265625 101.48046875 C3.16165106 100.39017609 2.10854483 99.29215392 1.0625 98.1875 C-3.65457611 93.24222312 -3.65457611 93.24222312 -9 89 C-7.95937912 84.21782089 -6.02049066 79.74233862 -4.25390625 75.19140625 C-0.93162511 65.17591563 -0.6860566 54.49405388 -0.5859375 44.04296875 C-0.56829346 42.91588501 -0.55064941 41.78880127 -0.5324707 40.62756348 C-0.47015856 36.48101161 -0.42345419 32.33423695 -0.375 28.1875 C-0.25125 18.885625 -0.1275 9.58375 0 0 Z " fill="#FCFCFC" transform="translate(44,737)"/>
<path d="M0 0 C7.59 0 15.18 0 23 0 C23.495 5.445 23.495 5.445 24 11 C24.83144531 10.6390625 25.66289062 10.278125 26.51953125 9.90625 C27.60621094 9.4421875 28.69289063 8.978125 29.8125 8.5 C30.89144531 8.0359375 31.97039062 7.571875 33.08203125 7.09375 C36 6 36 6 39 6 C44.36487841 12.72398094 49.40214064 22.26117452 49 31 C46.37690901 32.17112946 43.75171858 33.33705964 41.125 34.5 C40.37863281 34.83386719 39.63226563 35.16773438 38.86328125 35.51171875 C38.14785156 35.82753906 37.43242187 36.14335937 36.6953125 36.46875 C36.03547363 36.76201172 35.37563477 37.05527344 34.69580078 37.35742188 C33 38 33 38 31 38 C30.59007812 36.90300781 30.18015625 35.80601562 29.7578125 34.67578125 C29.21357114 33.22134314 28.66929867 31.76691667 28.125 30.3125 C27.85558594 29.59126953 27.58617187 28.87003906 27.30859375 28.12695312 C27.04433594 27.42119141 26.78007812 26.71542969 26.5078125 25.98828125 C26.14647217 25.02208862 26.14647217 25.02208862 25.77783203 24.03637695 C24.87805824 21.68075447 23.93650489 19.34126221 23 17 C22.67 24.92 22.34 32.84 22 41 C30.25 41 38.5 41 47 41 C47 47.93 47 54.86 47 62 C39.08 62 31.16 62 23 62 C23.3632451 69.18246338 23.73268992 76.36410856 24.11694336 83.54541016 C24.24541473 85.97914866 24.37051919 88.41306769 24.49194336 90.84716797 C25.09133545 102.82021008 25.74166457 114.73914208 27.48046875 126.609375 C27.60013504 127.43963196 27.71980133 128.26988892 27.84309387 129.12530518 C28.45546682 133.51168138 28.45546682 133.51168138 31 137 C31.99 131.06 32.98 125.12 34 119 C40.25 123.4921875 40.25 123.4921875 42 125 C42 125.66 42 126.32 42 127 C42.5775 127.268125 43.155 127.53625 43.75 127.8125 C46.15766178 129.08321038 48.03046925 130.10479117 50 132 C51.30271908 142.04118304 47.2326822 153.00612924 42.0625 161.5 C36.21767397 168.58463761 36.21767397 168.58463761 31.6015625 169.44921875 C27.49500588 169.62803278 24.55357209 169.23420358 20.75 167.625 C12.42903706 159.68226265 8.88989817 148.89841685 6.9375 137.875 C6.77701172 137.01390625 6.61652344 136.1528125 6.45117188 135.265625 C5.94584543 132.51372676 5.46764577 129.75854774 5 127 C4.82629883 125.9805127 4.65259766 124.96102539 4.47363281 123.91064453 C3.18628563 115.99837382 2.41216925 108.12089644 1.875 100.125 C1.78863281 98.99320313 1.70226562 97.86140625 1.61328125 96.6953125 C0.80991527 85.06563359 1 73.75077353 1 62 C-18.47 62 -37.94 62 -58 62 C-58 55.07 -58 48.14 -58 41 C-38.86 41 -19.72 41 0 41 C0 27.47 0 13.94 0 0 Z " fill="#FCFCFC" transform="translate(156,460)"/>
<path d="M0 0 C8.58 0 17.16 0 26 0 C26 32.67 26 65.34 26 99 C30.455 98.01 30.455 98.01 35 97 C37.33222958 96.92823909 39.66877637 96.90079899 42 97 C43.72168056 104.9490358 44.90863407 112.94246854 46 121 C39.17843586 122.6774338 33.13913564 123.35098767 26 124 C26 138.85 26 153.7 26 169 C17.42 169 8.84 169 0 169 C0 156.13 0 143.26 0 130 C-5.548125 130.94875 -11.09625 131.8975 -16.8125 132.875 C-18.53960205 133.17003418 -20.2667041 133.46506836 -22.04614258 133.76904297 C-23.45394829 134.0100357 -24.86174491 134.25108163 -26.26953125 134.4921875 C-27.40005669 134.68516922 -27.40005669 134.68516922 -28.55342102 134.88204956 C-33.62921149 135.75228225 -38.69197911 136.67656351 -43.74487305 137.67236328 C-46.19082978 138.02772476 -48.53175411 138.05622677 -51 138 C-51.67272347 134.58449704 -52.33711799 131.16742548 -53 127.75 C-53.19078125 126.78191406 -53.3815625 125.81382812 -53.578125 124.81640625 C-53.75859375 123.88183594 -53.9390625 122.94726562 -54.125 121.984375 C-54.29257813 121.12553711 -54.46015625 120.26669922 -54.6328125 119.38183594 C-55 117 -55 117 -55 113 C-50.54325331 112.19560777 -46.0856112 111.39640453 -41.62719727 110.60131836 C-40.12142887 110.33211918 -38.61588185 110.06167774 -37.1105957 109.78979492 C-24.76720491 107.56176102 -12.43027887 105.77575412 0 104 C0 69.68 0 35.36 0 0 Z " fill="#FAFAFA" transform="translate(158,34)"/>
<path d="M0 0 C8.25 0 16.5 0 25 0 C25 10.89 25 21.78 25 33 C30.61 33 36.22 33 42 33 C42 40.59 42 48.18 42 56 C34.08 56.495 34.08 56.495 26 57 C25.67 63.93 25.34 70.86 25 78 C26.918125 77.505 28.83625 77.01 30.8125 76.5 C34.01998611 75.67226165 36.68455701 75 40 75 C41.88849677 82.95735532 42.55348122 90.84515697 43 99 C40.75194998 99.67321284 38.50147776 100.33834123 36.25 101 C34.99703125 101.37125 33.7440625 101.7425 32.453125 102.125 C29 103 29 103 25 103 C25.00666183 103.59833145 25.01332367 104.1966629 25.02018738 104.81312561 C25.08672566 111.05887461 25.13187727 117.30452235 25.16479492 123.55053711 C25.17985089 125.87935478 25.20030004 128.20814424 25.22631836 130.53686523 C25.26284133 133.89053321 25.27975871 137.24382518 25.29296875 140.59765625 C25.30845261 141.63334244 25.32393646 142.66902863 25.33988953 143.73609924 C25.34138912 150.22499066 24.93492815 155.5798304 20.53515625 160.70703125 C10.20948355 168.45813304 -0.50365661 168.29991224 -13 168 C-13.27263672 166.60587891 -13.27263672 166.60587891 -13.55078125 165.18359375 C-14.85781223 158.75568242 -16.2293035 152.93720679 -19 147 C-19 146.01 -19 145.02 -19 144 C-13.06 143.67 -7.12 143.34 -1 143 C-0.67 132.11 -0.34 121.22 0 110 C-4.29 110.99 -8.58 111.98 -13 113 C-13.99 113 -14.98 113 -16 113 C-16.84573694 109.96164506 -17.67431926 106.91886087 -18.5 103.875 C-18.73847656 103.0190625 -18.97695313 102.163125 -19.22265625 101.28125 C-20.44460283 96.74259129 -21.31133062 92.74779188 -21 88 C-17.87569239 87.33006007 -14.75044614 86.66460636 -11.625 86 C-10.73554687 85.80921875 -9.84609375 85.6184375 -8.9296875 85.421875 C-8.07890625 85.24140625 -7.228125 85.0609375 -6.3515625 84.875 C-5.56604004 84.70742188 -4.78051758 84.53984375 -3.97119141 84.3671875 C-2 84 -2 84 0 84 C0 74.76 0 65.52 0 56 C-6.27 56 -12.54 56 -19 56 C-19 48.41 -19 40.82 -19 33 C-12.73 33 -6.46 33 0 33 C0 22.11 0 11.22 0 0 Z " fill="#FDFDFD" transform="translate(55,247)"/>
<path d="M0 0 C8.58 0 17.16 0 26 0 C26 5.61 26 11.22 26 17 C39.86 17 53.72 17 68 17 C68 24.26 68 31.52 68 39 C54.14 39 40.28 39 26 39 C26.33 46.26 26.66 53.52 27 61 C30.93790783 61.0807316 34.87417069 61.14037469 38.8125 61.1875 C39.93205078 61.21263672 41.05160156 61.23777344 42.20507812 61.26367188 C43.81479492 61.27817383 43.81479492 61.27817383 45.45703125 61.29296875 C46.44678955 61.3086792 47.43654785 61.32438965 48.45629883 61.34057617 C51.02428496 61.20374363 51.02428496 61.20374363 52.80078125 59.67773438 C54.66388815 57.07120534 54.78294078 54.45561392 55.1875 51.3125 C55.34605469 50.13300781 55.50460938 48.95351563 55.66796875 47.73828125 C55.77753906 46.83464844 55.88710937 45.93101562 56 45 C58.48128074 45.98898022 60.95958859 46.98336765 63.4296875 48 C68.23939128 49.96690762 72.97134764 51.68817765 78 53 C78.53181913 62.57274437 76.14503865 71.47972607 70 79 C63.72289247 84.18543666 56.9714854 85.31178688 49.01171875 85.265625 C48.26847855 85.26753845 47.52523834 85.2694519 46.75947571 85.27142334 C45.19552266 85.27277655 43.63155804 85.26914087 42.06762695 85.26074219 C39.70432585 85.25007594 37.34179273 85.26064308 34.97851562 85.2734375 C13.52871051 85.29493029 13.52871051 85.29493029 6.46875 79.68359375 C0.81599166 73.20396916 -0.1303453 63.86919688 -0.11352539 55.62744141 C-0.11344986 54.38660797 -0.11337433 53.14577454 -0.11329651 51.86734009 C-0.10819113 50.52874714 -0.10297515 49.19015461 -0.09765625 47.8515625 C-0.09578906 46.47008312 -0.09436658 45.08860308 -0.09336853 43.7071228 C-0.08956702 40.08711897 -0.07975716 36.46715583 -0.06866455 32.84716797 C-0.05839935 29.14681549 -0.05386 25.44645639 -0.04882812 21.74609375 C-0.03813257 14.49737521 -0.02055516 7.24869851 0 0 Z " fill="#FBFBFB" transform="translate(126,756)"/>
<path d="M0 0 C0.33 0 0.66 0 1 0 C1 18.15 1 36.3 1 55 C21.13 55 41.26 55 62 55 C62 60.61 62 66.22 62 72 C61.67 72 61.34 72 61 72 C61 66.72 61 61.44 61 56 C57.7 56 54.4 56 51 56 C51 63.92 51 71.84 51 80 C54.3 80 57.6 80 61 80 C61 80.33 61 80.66 61 81 C57.37 81 53.74 81 50 81 C50 72.75 50 64.5 50 56 C43.73 56 37.46 56 31 56 C31 79.76 31 103.52 31 128 C29.35 128 27.7 128 26 128 C26 108.2 26 88.4 26 68 C19.73 68 13.46 68 7 68 C7.00523682 69.93351318 7.01047363 71.86702637 7.01586914 73.85913086 C7.03196655 80.23337702 7.04347217 86.60761838 7.05181217 92.98187923 C7.05704026 96.84820118 7.06413654 100.71450121 7.07543945 104.58081055 C7.086271 108.30903401 7.0922774 112.03723634 7.09487724 115.76547432 C7.09673101 117.19089656 7.10035071 118.61631759 7.10573006 120.04173088 C7.11294393 122.03163408 7.11340808 124.02155834 7.11352539 126.01147461 C7.115746 127.14620712 7.11796661 128.28093964 7.12025452 129.45005798 C7 132 7 132 6 133 C4.02 133 2.04 133 0 133 C-2.64 127.72 -5.28 122.44 -8 117 C-5.36 117 -2.72 117 0 117 C0 78.39 0 39.78 0 0 Z " fill="#0C0C0C" transform="translate(95,467)"/>
<path d="M0 0 C15.51 0 31.02 0 47 0 C47 6.6 47 13.2 47 20 C31.49 20 15.98 20 0 20 C0 13.4 0 6.8 0 0 Z " fill="#FCFCFC" transform="translate(104,471)"/>
<path d="M0 0 C2.32488881 0.2818047 3.90892835 0.95446418 6 2 C6 2.66 6 3.32 6 4 C6.58265625 4.268125 7.1653125 4.53625 7.765625 4.8125 C10.02786601 6.01480991 11.80576318 7.33825913 13.75 9 C14.67039063 9.7734375 14.67039063 9.7734375 15.609375 10.5625 C17 12 17 12 17 14 C17.99 14.33 18.98 14.66 20 15 C21.7890625 16.70703125 21.7890625 16.70703125 23.625 18.8125 C24.23601562 19.49957031 24.84703125 20.18664062 25.4765625 20.89453125 C26.99653007 22.99520438 27.57890154 24.46771872 28 27 C22.23168342 32.37194039 16.57365823 37.61756118 10 42 C8.66081194 40.37982158 7.3288031 38.75370657 6 37.125 C5.2575 36.22007813 4.515 35.31515625 3.75 34.3828125 C2 32 2 32 2 30 C1.01 29.67 0.02 29.34 -1 29 C-2.578125 27.36328125 -2.578125 27.36328125 -4.25 25.3125 C-7.54432023 21.41410399 -11.04956162 18.22484765 -15 15 C-13.70602116 11.11806349 -11.82046071 10.01611079 -8.625 7.5 C-4.8013559 4.51710784 -4.8013559 4.51710784 -1.27734375 1.203125 C-0.85582031 0.80609375 -0.43429688 0.4090625 0 0 Z " fill="#FBFBFB" transform="translate(128,44)"/>
<path d="M0 0 C11.55 0 23.1 0 35 0 C33.01957061 7.92171754 27.55635618 16.00850749 22 22 C21.34 22 20.68 22 20 22 C19.34 23.32 18.68 24.64 18 26 C10.10749271 23.0112274 4.68024314 11.89660124 0.77734375 4.83984375 C0 3 0 3 0 0 Z " fill="#0A0A0A" transform="translate(131,336)"/>
<path d="M0 0 C3.3 0 6.6 0 10 0 C10.33 8.25 10.66 16.5 11 25 C7.37 24.67 3.74 24.34 0 24 C0 16.08 0 8.16 0 0 Z " fill="#000000" transform="translate(146,523)"/>
<path d="M0 0 C7.875 6.75 7.875 6.75 10.4375 9.875 C10.93121094 10.47054687 11.42492187 11.06609375 11.93359375 11.6796875 C12.28550781 12.11539063 12.63742188 12.55109375 13 13 C16.60513403 10.93992341 19.80331012 8.6486859 23 6 C23 7.65 23 9.3 23 11 C19.3782427 12.83979221 15.75208102 14.67072866 12.125 16.5 C11.09246094 17.02464844 10.05992188 17.54929687 8.99609375 18.08984375 C8.00996094 18.58613281 7.02382812 19.08242188 6.0078125 19.59375 C5.09660645 20.05458984 4.18540039 20.51542969 3.24658203 20.99023438 C1 22 1 22 -1 22 C-0.67 14.74 -0.34 7.48 0 0 Z " fill="#070707" transform="translate(68,776)"/>
<path d="M0 0 C3.23999185 3.23999185 4.56924966 6.27000593 6.1875 10.4375 C6.46013672 11.10587891 6.73277344 11.77425781 7.01367188 12.46289062 C8.37313084 15.90072044 9 18.25115115 9 22 C11.9615696 23.4807848 14.83506295 23.35314037 18.125 23.5625 C19.40632813 23.64628906 20.68765625 23.73007812 22.0078125 23.81640625 C23.48894531 23.90728516 23.48894531 23.90728516 25 24 C25 24.33 25 24.66 25 25 C16.75 25 8.5 25 0 25 C0 16.75 0 8.5 0 0 Z " fill="#232323" transform="translate(178,476)"/>
<path d="M0 0 C1.32 0.33 2.64 0.66 4 1 C4 1.99 4 2.98 4 4 C4.86490647 6.01755281 4.86490647 6.01755281 6 8.0625 C8 11.79166667 8 11.79166667 8 14 C1.65758005 15.15316726 -4.56688704 15.09507063 -11 15 C-8.88060821 11.28939292 -6.5076108 8.00116082 -3.8125 4.6875 C-2.73935547 3.36298828 -2.73935547 3.36298828 -1.64453125 2.01171875 C-1.10183594 1.34785156 -0.55914062 0.68398438 0 0 Z " fill="#0F0F0F" transform="translate(83,692)"/>
<path d="M0 0 C7.59 0 15.18 0 23 0 C23 4.29 23 8.58 23 13 C19.47654762 10.81881519 16.74343334 8.8010791 14 5.6875 C12.59359128 4.11253154 12.59359128 4.11253154 11 3 C7.69815072 2.96406842 7.69815072 2.96406842 5 4 C5 4.66 5 5.32 5 6 C2.5 7.625 2.5 7.625 0 9 C0 6.03 0 3.06 0 0 Z " fill="#070707" transform="translate(68,759)"/>
<path d="M0 0 C3.3 0 6.6 0 10 0 C10 4.29 10 8.58 10 13 C6.7 13 3.4 13 0 13 C0 8.71 0 4.42 0 0 Z " fill="#040404" transform="translate(63,551)"/>
<path d="M0 0 C3.3 0 6.6 0 10 0 C10 4.29 10 8.58 10 13 C6.7 13 3.4 13 0 13 C0 8.71 0 4.42 0 0 Z " fill="#040404" transform="translate(63,487)"/>
<path d="M0 0 C3.3 0 6.6 0 10 0 C10 3.96 10 7.92 10 12 C6.7 12 3.4 12 0 12 C0 8.04 0 4.08 0 0 Z " fill="#020202" transform="translate(63,519)"/>
<path d="M0 0 C10.23 0 20.46 0 31 0 C26.89934057 4.10065943 23.76036605 4.87108721 18 5 C11.90399908 4.14861816 5.94427732 2.56700993 0 1 C0 0.67 0 0.34 0 0 Z " fill="#0F0F0F" transform="translate(53,584)"/>
<path d="M0 0 C0 1.65 0 3.3 0 5 C-2.97 6.32 -5.94 7.64 -9 9 C-9 7 -9 7 -7.28515625 5.2734375 C-6.55167969 4.64695312 -5.81820312 4.02046875 -5.0625 3.375 C-4.33160156 2.74335937 -3.60070312 2.11171875 -2.84765625 1.4609375 C-1 0 -1 0 0 0 Z " fill="#1C1C1C" transform="translate(91,782)"/>
</svg>
