<?xml version="1.0" encoding="UTF-8"?>
<svg version="1.1" xmlns="http://www.w3.org/2000/svg" width="269" height="1788">
<path d="M0 0 C14.19 0 28.38 0 43 0 C43 4.95 43 9.9 43 15 C44.32 15 45.64 15 47 15 C47 13.35 47 11.7 47 10 C56.9 10 66.8 10 77 10 C77 6.7 77 3.4 77 0 C91.19 0 105.38 0 120 0 C120 3.3 120 6.6 120 10 C130.56 10 141.12 10 152 10 C152 23.2 152 36.4 152 50 C151.01 50 150.02 50 149 50 C149.0195265 55.94141487 149.07156697 61.88137048 149.15258789 67.82226562 C149.17565695 69.83943717 149.19013733 71.85672727 149.19555664 73.87402344 C148.81421531 88.09536872 148.81421531 88.09536872 153.7578125 101.08984375 C155.91718614 104.41039 156.87906115 108.22708386 158 112 C157.01 112.66 156.02 113.32 155 114 C154.48779459 117.10213725 154.48779459 117.10213725 154.48828125 120.7578125 C154.47033005 121.42086395 154.45237885 122.08391541 154.43388367 122.76705933 C154.37967076 124.88630803 154.34585229 127.00533025 154.3125 129.125 C154.27933633 130.56122952 154.24484755 131.9974291 154.20898438 133.43359375 C154.12143911 136.95576363 154.06147421 140.47689189 154 144 C148.06 144 142.12 144 136 144 C136.061875 145.794375 136.12375 147.58875 136.1875 149.4375 C136.17783415 157.64380443 134.36850397 164.61583312 129 171 C118.11716969 179.55418976 105.1881087 179.15302028 92 179.0625 C90.74832031 179.05798828 89.49664062 179.05347656 88.20703125 179.04882812 C85.13797059 179.03711415 82.06901093 179.02071073 79 179 C78.01 174.545 78.01 174.545 77 170 C75.02 170.99 73.04 171.98 71 173 C63 157.28571429 63 157.28571429 63 154 C56.4 154 49.8 154 43 154 C43 161.92 43 169.84 43 178 C28.81 178 14.62 178 0 178 C0 170.08 0 162.16 0 154 C-8.25 154 -16.5 154 -25 154 C-25 139.81 -25 125.62 -25 111 C-23.35 111 -21.7 111 -20 111 C-20 93.18 -20 75.36 -20 57 C-20.99 57 -21.98 57 -23 57 C-23 43.14 -23 29.28 -23 15 C-15.41 15 -7.82 15 0 15 C0 10.05 0 5.1 0 0 Z " fill="#0A0A0A" transform="translate(38,1384)"/>
<path d="M0 0 C14.52 0 29.04 0 44 0 C44 1.65 44 3.3 44 5 C44.94875 4.505 45.8975 4.01 46.875 3.5 C50 2 50 2 52 2 C61.36570454 13.70713068 70.59239421 30.71167243 70 46 C69.01 46.33 68.02 46.66 67 47 C66.67 57.56 66.34 68.12 66 79 C58.74 79 51.48 79 44 79 C44.33 80.98 44.66 82.96 45 85 C45.09099123 86.43581338 45.15224645 87.87399884 45.17578125 89.3125 C45.19962891 90.07820313 45.22347656 90.84390625 45.24804688 91.6328125 C45.29100813 93.21066212 45.32226329 94.788874 45.34179688 96.3671875 C45.53606161 101.73431541 46.65514486 104.62030944 50 109 C50 109.66 50 110.32 50 111 C50.66 111 51.32 111 52 111 C52.24492187 111.59554687 52.48984375 112.19109375 52.7421875 112.8046875 C54.2116964 115.36948254 55.69926066 116.46436841 58.125 118.125 C60.3203125 119.6328125 60.3203125 119.6328125 62 121 C62 121.66 62 122.32 62 123 C62.7425 123.268125 63.485 123.53625 64.25 123.8125 C66.87667906 124.94674778 68.75921617 126.25238013 71 128 C69.45133971 143.87954654 66.90295337 162.98559391 53.8125 173.80859375 C46.82998135 178.33952957 40.20161471 178.69883581 32 178 C23.1679916 175.41639182 18.43769249 168.61017052 14 161 C1.80514242 163.36029502 -10.32782198 166.03683971 -22.375 169.0625 C-23.02839355 169.2262915 -23.68178711 169.39008301 -24.35498047 169.55883789 C-27.41841118 170.3318495 -30.47356884 171.1281051 -33.5234375 171.953125 C-34.58820313 172.23671875 -35.65296875 172.5203125 -36.75 172.8125 C-37.67296875 173.06644531 -38.5959375 173.32039062 -39.546875 173.58203125 C-42.16731488 174.02850747 -43.58323327 174.10856039 -46 173 C-47.25 170.9375 -47.25 170.9375 -48 169 C-49.04800781 169.42152344 -50.09601563 169.84304688 -51.17578125 170.27734375 C-52.55466913 170.83077494 -53.93357639 171.38415784 -55.3125 171.9375 C-56.00279297 172.21529297 -56.69308594 172.49308594 -57.40429688 172.77929688 C-60.25267773 173.92140128 -63.08790694 175.02930231 -66 176 C-66.99 172.04 -67.98 168.08 -69 164 C-69.51949219 164.80824219 -70.03898437 165.61648438 -70.57421875 166.44921875 C-71.27160156 167.51785156 -71.96898437 168.58648438 -72.6875 169.6875 C-73.37199219 170.74324219 -74.05648437 171.79898438 -74.76171875 172.88671875 C-76.95297933 175.93459777 -79.27937264 178.42375088 -82 181 C-82.66 181.66 -83.32 182.32 -84 183 C-87.33893847 182.66196697 -89.26773852 181.23182681 -91.75 179.0625 C-92.36359375 178.53785156 -92.9771875 178.01320313 -93.609375 177.47265625 C-95 176 -95 176 -95 174 C-96.98 173.34 -98.96 172.68 -101 172 C-101 171.34 -101 170.68 -101 170 C-101.81726563 169.75507812 -102.63453125 169.51015625 -103.4765625 169.2578125 C-107.63161324 167.77452388 -111.45321289 165.88199051 -115.375 163.875 C-116.11105469 163.50246094 -116.84710938 163.12992188 -117.60546875 162.74609375 C-119.40550358 161.8343878 -121.20301402 160.91770068 -123 160 C-119.18044514 155.52832602 -115.32774713 151.09232515 -111.41796875 146.69921875 C-109.92618088 145.04377778 -109.92618088 145.04377778 -109 143 C-108.34 143 -107.68 143 -107 143 C-105.97286777 139.91860331 -105.8629308 137.78186119 -105.84178162 134.55207825 C-105.8319928 133.42045761 -105.82220398 132.28883698 -105.81211853 131.1229248 C-105.80636307 129.88071167 -105.8006076 128.63849854 -105.79467773 127.35864258 C-105.77982834 125.39751778 -105.77982834 125.39751778 -105.76467896 123.39677429 C-105.73763347 119.81030904 -105.71662199 116.22383063 -105.69667697 112.6373198 C-105.67481522 108.88967378 -105.64742745 105.14206828 -105.62062073 101.39445496 C-105.5706964 94.29721719 -105.5257566 87.19995692 -105.48259836 80.10267514 C-105.42399392 70.51253655 -105.35770844 60.92245126 -105.29184818 51.33236027 C-105.18827755 36.22160942 -105.09498572 21.11081289 -105 6 C-81.57 6 -58.14 6 -34 6 C-34 7.32 -34 8.64 -34 10 C-22.78 10 -11.56 10 0 10 C0 6.7 0 3.4 0 0 Z " fill="#0A0A0A" transform="translate(126,397)"/>
<path d="M0 0 C7.74281613 1.82749698 15.41581832 3.80867201 23.05078125 6.046875 C24.90558105 6.58924805 24.90558105 6.58924805 26.79785156 7.14257812 C29.28006758 7.87275529 31.75996646 8.61086286 34.23730469 9.35742188 C41.10683376 11.49365884 41.10683376 11.49365884 48.21484375 12.046875 C49.59349609 12.02367187 49.59349609 12.02367187 51 12 C51.99 13.485 51.99 13.485 53 15 C53.33 11.04 53.66 7.08 54 3 C68.85 3 83.7 3 99 3 C99 8.94 99 14.88 99 21 C111.87 21 124.74 21 138 21 C138 31.23 138 41.46 138 52 C138.99 52 139.98 52 141 52 C141.79574965 54.89909835 142.23171844 57.68306453 142.5 60.67578125 C142.5820166 61.57989746 142.6640332 62.48401367 142.74853516 63.41552734 C142.87301025 64.84952881 142.87301025 64.84952881 143 66.3125 C143.13027588 67.77743896 143.13027588 67.77743896 143.26318359 69.27197266 C143.95474644 77.17499192 144.53125613 85.08069571 145 93 C140.25 96 140.25 96 138 96 C138 107.22 138 118.44 138 130 C141.63 130.33 145.26 130.66 149 131 C145.86103063 164.23614628 145.86103063 164.23614628 135.0625 173.9375 C127.15072405 179.2658389 119.62729487 180.15469697 110.3828125 180.16796875 C109.56682587 180.17129715 108.75083923 180.17462555 107.91012573 180.17805481 C106.1905778 180.18309774 104.47102016 180.18546395 102.75146484 180.18530273 C100.14013319 180.18748734 97.52922573 180.20566583 94.91796875 180.22460938 C93.23958476 180.22754435 91.56119879 180.22952845 89.8828125 180.23046875 C89.1117215 180.23765427 88.34063049 180.24483978 87.5461731 180.25224304 C80.56907412 180.22326704 74.36103456 178.85673495 68 175.875 C67.236875 175.52179688 66.47375 175.16859375 65.6875 174.8046875 C65.130625 174.53914062 64.57375 174.27359375 64 174 C64 173.34 64 172.68 64 172 C61.75124253 171.13149826 61.75124253 171.13149826 59 171 C56.57183314 172.72462308 56.57183314 172.72462308 54 175 C47.2948676 179.00638617 41.33150622 180.13491193 33.5078125 180.09765625 C32.30898437 180.09443359 31.11015625 180.09121094 29.875 180.08789062 C28.6375 180.07951172 27.4 180.07113281 26.125 180.0625 C24.86429688 180.05798828 23.60359375 180.05347656 22.3046875 180.04882812 C19.20307614 180.0370796 16.10156275 180.02065167 13 180 C12.34 176.7 11.68 173.4 11 170 C8.77888644 172.69706646 6.76417959 175.36760241 4.875 178.3125 C4.25625 179.199375 3.6375 180.08625 3 181 C2.34 181 1.68 181 1 181 C0.7525 181.763125 0.505 182.52625 0.25 183.3125 C-1.10995558 186.2364045 -2.31585826 187.30004356 -5 189 C-5.33 188.01 -5.66 187.02 -6 186 C-6.66 186 -7.32 186 -8 186 C-9.26921613 184.37921697 -10.46502621 182.7006787 -11.625 181 C-17.67943597 172.31234527 -17.67943597 172.31234527 -26 166 C-26 165.34 -26 164.68 -26 164 C-26.9075 163.731875 -27.815 163.46375 -28.75 163.1875 C-31.71471963 162.10423706 -33.6169754 161.01640543 -36 159 C-35.61211152 154.73322677 -33.85738116 152.43371449 -31.3359375 149.07421875 C-28.75178311 145.06197903 -27.30243201 140.56704326 -26 136 C-25.81904785 135.36860107 -25.6380957 134.73720215 -25.45166016 134.08666992 C-23.47664379 125.99436953 -23.69839572 117.79220448 -23.73925781 109.5168457 C-23.74987563 106.96736288 -23.73937262 104.4186006 -23.7265625 101.86914062 C-23.71119917 87.37080849 -24.14602329 72.9849568 -29.4375 59.3125 C-29.88706055 58.07209961 -29.88706055 58.07209961 -30.34570312 56.80664062 C-31.97724126 52.37919116 -33.88079988 48.21895804 -36 44 C-36 43.34 -36 42.68 -36 42 C-35.154375 41.81566406 -34.30875 41.63132812 -33.4375 41.44140625 C-20.78003899 38.2051236 -16.24643589 31.40796734 -9.8125 20.6875 C-5.92242345 14.00765972 -2.66101437 7.26877084 0 0 Z " fill="#080808" transform="translate(46,592)"/>
<path d="M0 0 C4.05382529 0.65054244 8.10646184 1.30803424 12.15820312 1.97143555 C13.5309545 2.19526067 14.90399438 2.41732497 16.27734375 2.63745117 C24.96452565 4.03133745 33.50263704 5.69537575 42 8 C41.71573032 10.6884654 41.42281156 13.37552857 41.125 16.0625 C41.04636719 16.81466797 40.96773437 17.56683594 40.88671875 18.34179688 C40.80292969 19.08623047 40.71914062 19.83066406 40.6328125 20.59765625 C40.55949707 21.27320557 40.48618164 21.94875488 40.41064453 22.64477539 C39.85751914 25.81718957 38.88467708 28.90363021 38 32 C49.88 32 61.76 32 74 32 C74 45.86 74 59.72 74 74 C70.04 74 66.08 74 62 74 C62.04125 75.0725 62.0825 76.145 62.125 77.25 C62.07589592 91.26921361 57.53272499 105.41871508 52.63671875 118.4140625 C51.921295 121.31964852 52.20111126 123.14461702 53 126 C53.66 126 54.32 126 55 126 C55.804375 127.299375 55.804375 127.299375 56.625 128.625 C60.98766929 135.49216462 70.35543842 141.45181281 78 144 C78 144.66 78 145.32 78 146 C78.598125 146.144375 79.19625 146.28875 79.8125 146.4375 C81.56150404 146.8872439 83.28677023 147.42892341 85 148 C85 148.66 85 149.32 85 150 C83.00715862 151.3440093 81.00580329 152.67541292 79 154 C78.13375 154.86625 77.2675 155.7325 76.375 156.625 C74 159 74 159 71.8125 160.0625 C69.42994899 161.29485397 69.16436262 162.61521286 68 165 C67.12956273 166.18573498 66.23168837 167.35164412 65.3125 168.5 C61.34016271 173.67875083 58.19817806 179.32276084 55 185 C43.29581929 179.95113773 33.62437872 171.22607956 25 162 C23.89326166 162.76713644 22.78972306 163.53889003 21.6875 164.3125 C21.07261719 164.74175781 20.45773438 165.17101563 19.82421875 165.61328125 C17.96541587 166.95691238 17.96541587 166.95691238 16.40625 168.625 C14.69241717 170.30074765 13.32938285 170.59838227 11 171 C11 171.66 11 172.32 11 173 C7.23105858 174.9827851 3.45953347 176.96060441 -0.3125 178.9375 C-1.9202832 179.78344727 -1.9202832 179.78344727 -3.56054688 180.64648438 C-4.58857422 181.18466797 -5.61660156 181.72285156 -6.67578125 182.27734375 C-8.0975769 183.02359009 -8.0975769 183.02359009 -9.5480957 183.78491211 C-12 185 -12 185 -15 186 C-15.66 183.36 -16.32 180.72 -17 178 C-18.32 177.67 -19.64 177.34 -21 177 C-22.190122 176.39039694 -23.35852252 175.73687671 -24.50390625 175.046875 C-31.91230678 170.57096135 -31.91230678 170.57096135 -40.21484375 169.03515625 C-42.98508633 169.80833756 -45.39707896 170.77988076 -48 172 C-53.32440616 174.18840893 -58.62687931 175.78714512 -64.25 177 C-65.00780762 177.16661133 -65.76561523 177.33322266 -66.54638672 177.50488281 C-75.62711983 179.43821211 -84.80670752 180.73328329 -94 182 C-94.36351563 181.0821875 -94.72703125 180.164375 -95.1015625 179.21875 C-97.70433672 172.80963683 -100.20219128 166.99632112 -104.703125 161.6484375 C-106.10698506 159.86401297 -107.04843347 158.05574279 -108 156 C-108.66 156 -109.32 156 -110 156 C-111.7265625 154.03125 -111.7265625 154.03125 -113.625 151.5 C-114.25664063 150.6646875 -114.88828125 149.829375 -115.5390625 148.96875 C-116.02117187 148.3190625 -116.50328125 147.669375 -117 147 C-114.17248703 145.11499136 -112.72347946 144.57682343 -109.5 143.9375 C-106.89917232 143.41299975 -104.52610575 142.84203525 -102 142 C-102 129.13 -102 116.26 -102 103 C-99.69 103 -97.38 103 -95 103 C-95 91.12 -95 79.24 -95 67 C-97.97 67 -100.94 67 -104 67 C-104 54.46 -104 41.92 -104 29 C-100.37 29 -96.74 29 -93 29 C-93 23.39 -93 17.78 -93 12 C-84.42 12 -75.84 12 -67 12 C-67 9.03 -67 6.06 -67 3 C-53.8 3 -40.6 3 -27 3 C-27 5.97 -27 8.94 -27 12 C-18.42 12 -9.84 12 -1 12 C-0.67 8.04 -0.34 4.08 0 0 Z " fill="#FCFCFC" transform="translate(118,987)"/>
<path d="M0 0 C14.85 0 29.7 0 45 0 C45.08021762 21.39136498 45.08021762 21.39136498 45.09765625 30.53515625 C45.10959493 36.76549705 45.12369323 42.99577886 45.15087891 49.22607422 C45.17266733 54.2511052 45.18458129 59.27607288 45.18975449 64.30114746 C45.19343948 66.21481319 45.20063529 68.1284756 45.21146011 70.04211426 C45.22605477 72.72997426 45.22797461 75.41757527 45.22705078 78.10546875 C45.23424133 78.89022079 45.24143188 79.67497284 45.24884033 80.48350525 C45.22440508 87.08733483 44.15276605 93.29455935 41.125 99.25 C40.66480469 100.18585938 40.66480469 100.18585938 40.1953125 101.140625 C39 103 39 103 36.9140625 104.59375 C33.87329747 108.41642603 34.32316869 112.50068666 34.25 117.25 C34.22035156 118.18585938 34.19070312 119.12171875 34.16015625 120.0859375 C34.08961871 122.39016382 34.04252608 124.69508655 34 127 C39.28 127 44.56 127 50 127 C50 141.52 50 156.04 50 171 C-6.43 171 -62.86 171 -121 171 C-121 156.48 -121 141.96 -121 127 C-115.72 127 -110.44 127 -105 127 C-105.144375 125.1025 -105.28875 123.205 -105.4375 121.25 C-105.55931641 119.64898438 -105.55931641 119.64898438 -105.68359375 118.015625 C-105.94090773 115.56320038 -106.31812218 113.36078709 -107 111 C-107.66 111 -108.32 111 -109 111 C-110.296875 109.42578125 -110.296875 109.42578125 -111.75 107.3125 C-113.75718416 104.51925111 -115.67362206 102.25665605 -118.375 100.125 C-119.674375 99.073125 -119.674375 99.073125 -121 98 C-121 97.34 -121 96.68 -121 96 C-122.65 95.34 -124.3 94.68 -126 94 C-126 93.34 -126 92.68 -126 92 C-127.11375 91.5978125 -127.11375 91.5978125 -128.25 91.1875 C-130.86636554 90.05770579 -132.80187111 88.79106798 -135 87 C-134 84 -134 84 -131.56640625 82.61328125 C-130.07947266 81.96939453 -130.07947266 81.96939453 -128.5625 81.3125 C-127.57378906 80.87550781 -126.58507812 80.43851563 -125.56640625 79.98828125 C-123 79 -123 79 -121 79 C-121 65.47 -121 51.94 -121 38 C-119.02 38 -117.04 38 -115 38 C-115 26.45 -115 14.9 -115 3 C-82.66 3 -50.32 3 -17 3 C-17 4.32 -17 5.64 -17 7 C-11.39 7 -5.78 7 0 7 C0 4.69 0 2.38 0 0 Z " fill="#050505" transform="translate(138,1584)"/>
<path d="M0 0 C15.18 0 30.36 0 46 0 C46 7.26 46 14.52 46 22 C55.57 22 65.14 22 75 22 C75 14.74 75 7.48 75 0 C89.85 0 104.7 0 120 0 C120 7.26 120 14.52 120 22 C131.88 22 143.76 22 156 22 C156 36.52 156 51.04 156 66 C154.68 66.33 153.36 66.66 152 67 C153.98 67.99 155.96 68.98 158 70 C155.80751848 81.65884293 153.18621755 92.28721937 148 103 C147.34901597 104.49777184 146.70292022 105.99768091 146.0625 107.5 C142.84891116 114.7338275 139.31605627 122.07055262 134 128 C142.21416165 132.18457291 150.86874821 134.19952728 159.75927734 136.43164062 C162.74543183 137.18907881 165.71708691 137.99573272 168.6875 138.8125 C169.53699219 139.04582031 170.38648438 139.27914062 171.26171875 139.51953125 C171.83535156 139.67808594 172.40898437 139.83664062 173 140 C171.29748026 143.51144697 169.25195822 145.77253914 166.3125 148.25 C156.93798628 156.17963454 149.13312836 165.70851392 144.2734375 176.99609375 C143 179 143 179 141.265625 179.890625 C127.32317144 180.56370896 108.7353859 169.9344947 97.00708008 162.78515625 C95.05167338 161.78346905 95.05167338 161.78346905 93.19165039 162.53564453 C92.58313232 162.89770996 91.97461426 163.25977539 91.34765625 163.6328125 C90.31608398 164.2213501 90.31608398 164.2213501 89.26367188 164.82177734 C88.53728516 165.25184082 87.81089844 165.6819043 87.0625 166.125 C79.88191646 170.16215871 72.97464841 172.86471163 65 175 C63.41245079 175.52918307 61.82862452 176.06975965 60.25 176.625 C55.90437403 178.10041661 51.49554958 179.09663897 47 180 C46.81824219 179.34773437 46.63648437 178.69546875 46.44921875 178.0234375 C45.02533404 173.07269989 43.50592766 168.53453577 41 164 C40.21625 164.825 39.4325 165.65 38.625 166.5 C36 169 36 169 34 169 C34 169.66 34 170.32 34 171 C19.16523083 177.39145063 5.87544501 177.13994026 -10 177 C-11.41765871 172.30250378 -12.43343455 167.72204878 -13.25 162.875 C-14.42193691 156.52311777 -16.47252447 151.08229165 -19.40234375 145.29296875 C-21.50100413 140.96736802 -23.21441801 136.46395498 -25 132 C-16.75 132.33 -8.5 132.66 0 133 C0 130.69 0 128.38 0 126 C-1.5778125 126.495 -1.5778125 126.495 -3.1875 127 C-6.4309443 127.85073949 -8.71476009 128.09078383 -12 128 C-12.19110352 127.23034912 -12.38220703 126.46069824 -12.57910156 125.66772461 C-17.31174663 106.53753605 -17.31174663 106.53753605 -22.37109375 87.4921875 C-23 85 -23 85 -23 83 C-19.54223673 82.33035334 -16.08370019 81.66478913 -12.625 81 C-11.64015625 80.80921875 -10.6553125 80.6184375 -9.640625 80.421875 C-8.69960938 80.24140625 -7.75859375 80.0609375 -6.7890625 79.875 C-5.91975098 79.70742188 -5.05043945 79.53984375 -4.15478516 79.3671875 C-2 79 -2 79 0 79 C0 77.35 0 75.7 0 74 C-5.94 74 -11.88 74 -18 74 C-18 59.48 -18 44.96 -18 30 C-12.06 30 -6.12 30 0 30 C0 20.1 0 10.2 0 0 Z M46 115 C46 120.61 46 126.22 46 132 C52.36266085 131.12454205 52.36266085 131.12454205 57.9375 128.9375 C59.278125 128.298125 60.61875 127.65875 62 127 C58.04 120.07 58.04 120.07 54 113 C50.56671088 112.81430466 50.56671088 112.81430466 46 115 Z " fill="#070707" transform="translate(33,200)"/>
<path d="M0 0 C1.74482924 2.12326075 3.25088855 4.15465113 4.75 6.4375 C5.16121094 7.03626953 5.57242188 7.63503906 5.99609375 8.25195312 C9 12.70791373 9 12.70791373 9 15 C9.66 15 10.32 15 11 15 C11.99 16.485 11.99 16.485 13 18 C13.99 17.67 14.98 17.34 16 17 C16.495 15.515 16.495 15.515 17 14 C19.1796875 11.95703125 19.1796875 11.95703125 21.875 9.8125 C22.75929688 9.09707031 23.64359375 8.38164062 24.5546875 7.64453125 C27 6 27 6 30 6 C31.35735142 7.30887458 32.68505488 8.64852862 34 10 C35.84220717 11.33004181 37.71279308 12.60045594 39.609375 13.8515625 C40.29773438 14.42003906 40.29773438 14.42003906 41 15 C41 15.66 41 16.32 41 17 C41.66 17 42.32 17 43 17 C43.33 11.39 43.66 5.78 44 0 C59.18 0 74.36 0 90 0 C90 29.7 90 59.4 90 90 C92.64 89.34 95.28 88.68 98 88 C101 87.875 101 87.875 103 88 C103.10546143 88.63800537 103.21092285 89.27601074 103.31958008 89.93334961 C103.81628798 92.93488833 104.31419557 95.93622591 104.8125 98.9375 C104.99264648 100.02313232 105.17279297 101.10876465 105.35839844 102.22729492 C106.56408444 109.4640784 107.80693377 116.69274194 109.13598633 123.90795898 C109.63420644 126.65951657 110 129.19537856 110 132 C103.08931856 133.9934658 97.4857418 134.37618818 90 135 C90 149.19 90 163.38 90 178 C74.82 178 59.64 178 44 178 C43.67 167.11 43.34 156.22 43 145 C24.37682094 147.87297828 24.37682094 147.87297828 5.890625 151.484375 C3 152 3 152 -2 152 C-2.33 160.58 -2.66 169.16 -3 178 C-17.85 178 -32.7 178 -48 178 C-48.495 168.1 -48.495 168.1 -49 158 C-50.65 160.31 -52.3 162.62 -54 165 C-54.99 164.67 -55.98 164.34 -57 164 C-57.7644043 162.30444336 -57.7644043 162.30444336 -58.32421875 160.08984375 C-58.5444873 159.27185303 -58.76475586 158.4538623 -58.99169922 157.61108398 C-59.22131348 156.72880127 -59.45092773 155.84651855 -59.6875 154.9375 C-61.85171771 147.10928377 -64.5860932 140.07529027 -68.4597168 132.93920898 C-71 128.24702531 -71 128.24702531 -71 125 C-71.66 125 -72.32 125 -73 125 C-73.99 122.69 -74.98 120.38 -76 118 C-75.50628906 117.37351562 -75.01257813 116.74703125 -74.50390625 116.1015625 C-73.86324219 115.28429687 -73.22257812 114.46703125 -72.5625 113.625 C-71.92441406 112.81289062 -71.28632812 112.00078125 -70.62890625 111.1640625 C-68.97776453 109.10601894 -68.97776453 109.10601894 -68 107 C-67.34 107 -66.68 107 -66 107 C-65.7525 106.34 -65.505 105.68 -65.25 105 C-63.68182955 101.23639093 -61.85494954 97.6288576 -60 94 C-59.34 94 -58.68 94 -58 94 C-57.67 92.68 -57.34 91.36 -57 90 C-61.62 90 -66.24 90 -71 90 C-71 75.48 -71 60.96 -71 46 C-68.69 46 -66.38 46 -64 46 C-68.51863086 33.73642431 -68.51863086 33.73642431 -74.11328125 21.94140625 C-75 20 -75 20 -75 17 C-67.78737223 15.5036042 -60.60619899 14.04448602 -53.3125 13 C-47.08320208 12.07742344 -41.07518091 10.64127871 -35 9 C-34.0615625 8.75121094 -33.123125 8.50242187 -32.15625 8.24609375 C-29.43215038 7.51533107 -26.71502936 6.76372696 -24 6 C-23.15566406 5.76410156 -22.31132813 5.52820313 -21.44140625 5.28515625 C-16.18210513 3.76726123 -11.2214885 1.91715118 -6.2265625 -0.328125 C-3.50183147 -1.15032454 -2.55571316 -1.28780099 0 0 Z M0 46 C3.3 46 6.6 46 10 46 C9.34 45.34 8.68 44.68 8 44 C3.8509288 43.7018576 3.8509288 43.7018576 0 46 Z " fill="#070707" transform="translate(85,2)"/>
<path d="M0 0 C4.19916856 9.75636611 8.41903493 19.67613971 11 30 C27.335 30.495 27.335 30.495 44 31 C44 45.85 44 60.7 44 76 C42.35 76 40.7 76 39 76 C38.94066284 77.06009277 38.94066284 77.06009277 38.88012695 78.14160156 C38.33101498 86.20049215 36.94864805 93.8752297 35.1875 101.75 C34.92050293 102.96977539 34.65350586 104.18955078 34.37841797 105.44628906 C32.41463694 114.34293744 30.29248302 123.1827576 28 132 C35.26 132 42.52 132 50 132 C50 146.85 50 161.7 50 177 C13.7 177 -22.6 177 -60 177 C-60 178.98 -60 180.96 -60 183 C-75.51 183 -91.02 183 -107 183 C-106.979375 178.76800781 -106.95875 174.53601562 -106.9375 170.17578125 C-106.94347854 166.73628897 -106.95748735 163.29703095 -106.97679138 159.85759735 C-106.99482465 156.26246136 -106.99971828 152.66856607 -106.96923828 149.07348633 C-106.83052689 131.34180169 -107.98621156 116.19901329 -116 100 C-116.65854471 98.59154285 -117.31427622 97.18176593 -117.96679688 95.77050781 C-120.8038011 89.7473039 -123.94557429 84.22827802 -128.03125 78.96484375 C-129 77 -129 77 -128.87109375 74.48046875 C-127.87530394 71.64492378 -126.77060584 70.38570761 -124.5625 68.375 C-122.28515887 66.2735704 -120.74495147 64.6174272 -119 62 C-118.34 62 -117.68 62 -117 62 C-116.34 60.35 -115.68 58.7 -115 57 C-114.34 57 -113.68 57 -113 57 C-112.61714844 55.94232422 -112.61714844 55.94232422 -112.2265625 54.86328125 C-110.88304385 51.72697817 -109.22302596 49.05525344 -107.375 46.1875 C-100.79131881 35.7359821 -95.24093742 24.60577962 -91 13 C-90.62875 11.99324219 -90.2575 10.98648437 -89.875 9.94921875 C-88.90660799 7.3029531 -87.94839407 4.65348555 -87 2 C-86.47535156 2.15855469 -85.95070312 2.31710937 -85.41015625 2.48046875 C-81.23365269 3.7382843 -77.0547134 4.98638756 -72.8671875 6.20703125 C-59.38863379 10.13896287 -59.38863379 10.13896287 -52.87109375 12.375 C-49.94180287 13.35346877 -46.97623032 14.17678736 -44 15 C-44 13.35 -44 11.7 -44 10 C-34.27418492 7.20932046 -24.52276523 4.56706931 -14.6875 2.1875 C-13.79909424 1.96876221 -12.91068848 1.75002441 -11.99536133 1.5246582 C-7.93287316 0.55665714 -4.21027722 -0.30383444 0 0 Z M-43 17 C-44.65 21.62 -46.3 26.24 -48 31 C-44.7 31 -41.4 31 -38 31 C-39.48131675 23.84207314 -39.48131675 23.84207314 -42 17 C-42.33 17 -42.66 17 -43 17 Z M-17 76 C-16.38919833 79.64836196 -15.75900344 83.29310432 -15.125 86.9375 C-14.95097656 87.97841797 -14.77695313 89.01933594 -14.59765625 90.09179688 C-14.33662109 91.57583008 -14.33662109 91.57583008 -14.0703125 93.08984375 C-13.91320801 94.00628662 -13.75610352 94.92272949 -13.59423828 95.86694336 C-13.39813965 96.57085205 -13.20204102 97.27476074 -13 98 C-12.34 98.33 -11.68 98.66 -11 99 C-9.44876534 91.34925042 -8.51648735 83.78808563 -8 76 C-10.97 76 -13.94 76 -17 76 Z M-60 93 C-60 105.87 -60 118.74 -60 132 C-58.35 132 -56.7 132 -55 132 C-54.36661159 121.9830796 -56.11033649 112.23111373 -57.63623047 102.36914062 C-58.11525754 99.24935626 -58.56020524 96.1255317 -59 93 C-59.33 93 -59.66 93 -60 93 Z " fill="#0A0A0A" transform="translate(140,1182)"/>
<path d="M0 0 C8.26565816 1.25889784 16.05964735 3.39950295 24 6 C22.65879558 10.97519405 20.3801195 14.54096374 17.1875 18.5 C16.76146484 19.04269531 16.33542969 19.58539062 15.89648438 20.14453125 C12.99643547 23.82114393 9.99959791 27.40048251 7 31 C12.28 30.34 17.56 29.68 23 29 C22.34 27.741875 21.68 26.48375 21 25.1875 C19.54671542 22.41717626 19 21.19610552 19 18 C19.80824219 17.73445312 20.61648437 17.46890625 21.44921875 17.1953125 C22.51785156 16.84210937 23.58648437 16.48890625 24.6875 16.125 C26.27111328 15.60292969 26.27111328 15.60292969 27.88671875 15.0703125 C30.95742476 14.06873785 30.95742476 14.06873785 33.64453125 12.8046875 C36 12 36 12 38.078125 11.9375 C41.24789974 13.68989579 42.29269876 16.83247748 43.75 20 C44.04648438 20.61617187 44.34296875 21.23234375 44.6484375 21.8671875 C45.78252195 24.23677859 46.88947882 26.61927486 48 29 C50.64 34.61 53.28 40.22 56 46 C56.33 30.82 56.66 15.64 57 0 C64.92 0 72.84 0 81 0 C81 5.94 81 11.88 81 18 C93.87 18 106.74 18 120 18 C120 24.6 120 31.2 120 38 C107.13 38 94.26 38 81 38 C81.1754832 45.67118346 81.1754832 45.67118346 84 52 C86.95705321 52.08868299 89.89065056 52.11520296 92.84765625 52.09765625 C93.7340831 52.0962413 94.62050995 52.09482635 95.53379822 52.09336853 C98.37673254 52.08775215 101.21958931 52.07519691 104.0625 52.0625 C105.98502491 52.05748711 107.90755104 52.05292384 109.83007812 52.04882812 C114.55341549 52.03777741 119.27669458 52.02050183 124 52 C124.33228413 54.07767008 124.66102993 56.15590626 124.98828125 58.234375 C125.17173096 59.39163086 125.35518066 60.54888672 125.54418945 61.74121094 C126.03705059 65.26489089 126.24154758 68.45730217 126 72 C124.36386418 73.63613582 122.49729726 73.15224064 120.23999023 73.17700195 C118.71721718 73.19625481 118.71721718 73.19625481 117.16368103 73.21589661 C116.05650223 73.22328354 114.94932343 73.23067047 113.80859375 73.23828125 C112.67478775 73.246353 111.54098175 73.25442474 110.37281799 73.26274109 C107.96429992 73.27660626 105.55576199 73.28731746 103.1472168 73.29516602 C99.47731632 73.31231395 95.8083316 73.3561719 92.13867188 73.40039062 C89.7994858 73.41052279 87.46029205 73.41903725 85.12109375 73.42578125 C84.02808456 73.44328934 82.93507538 73.46079742 81.8089447 73.47883606 C73.98229927 73.45676092 68.95193689 72.09746405 62.6875 67.1875 C58.84999597 62.21295774 57.78068416 57.10684712 57 51 C55.42798828 51.63228516 55.42798828 51.63228516 53.82421875 52.27734375 C52.44533087 52.83077494 51.06642361 53.38415784 49.6875 53.9375 C48.65206055 54.35418945 48.65206055 54.35418945 47.59570312 54.77929688 C44.74732227 55.92140128 41.91209306 57.02930231 39 58 C41.64 58.33 44.28 58.66 47 59 C47.04640063 69.57055835 47.08190848 80.14109235 47.10362434 90.71173191 C47.1140484 95.62043933 47.12818247 100.52907691 47.15087891 105.43774414 C47.17265638 110.1774813 47.18457899 114.9171514 47.18975449 119.65693474 C47.19344144 121.4625752 47.20064111 123.26821212 47.21146011 125.07382393 C47.22604022 127.60862195 47.22797522 130.14314511 47.22705078 132.67797852 C47.23424133 133.41957214 47.24143188 134.16116577 47.24884033 134.92523193 C47.22435472 141.15574385 46.7080714 146.21248342 42.3125 150.8125 C36.29909867 154.78361409 30.54286257 155.29104705 23.5625 155.125 C22.83095703 155.11597656 22.09941406 155.10695313 21.34570312 155.09765625 C19.56365702 155.07436153 17.78178241 155.0385019 16 155 C14.82887054 152.37690901 13.66294036 149.75171858 12.5 147.125 C12.16613281 146.37863281 11.83226562 145.63226562 11.48828125 144.86328125 C11.01455078 143.79013672 11.01455078 143.79013672 10.53125 142.6953125 C10.23798828 142.03547363 9.94472656 141.37563477 9.64257812 140.69580078 C9 139 9 139 9 137 C13.95 137 18.9 137 24 137 C24 133.04 24 129.08 24 125 C18.66986646 128.47894944 13.65041321 132.28450723 8.609375 136.171875 C6 138 6 138 4 138 C3.01 134.7 2.02 131.4 1 128 C0.62488281 129.26714844 0.24976562 130.53429687 -0.13671875 131.83984375 C-5.15267398 148.44387415 -5.15267398 148.44387415 -10 156 C-13.81991909 154.43489426 -16.15816482 152.01263683 -19 149.0625 C-21.86344434 146.09866051 -24.62194442 143.36933065 -28 141 C-27.72285156 140.32582031 -27.44570313 139.65164063 -27.16015625 138.95703125 C-25.82859211 135.56311188 -24.61312318 132.13762264 -23.4375 128.6875 C-23.21642578 128.06166016 -22.99535156 127.43582031 -22.76757812 126.79101562 C-22.55423828 126.16259766 -22.34089844 125.53417969 -22.12109375 124.88671875 C-21.83383423 124.05466919 -21.83383423 124.05466919 -21.54077148 123.20581055 C-19.70708735 115.72620055 -19.79567872 108.05981726 -19.68359375 100.40625 C-19.66494263 99.35276367 -19.6462915 98.29927734 -19.6270752 97.21386719 C-19.55919819 93.30932343 -19.49878225 89.40465283 -19.4375 85.5 C-19.293125 76.755 -19.14875 68.01 -19 59 C-0.85 59 17.3 59 36 59 C35.01 56.69 34.02 54.38 33 52 C33 51.01 33 50.02 33 49 C32.36908447 49.12697266 31.73816895 49.25394531 31.08813477 49.38476562 C22.20491872 51.09464663 13.2918373 51.97748558 4.29492188 52.85546875 C-1.83379416 53.47736792 -7.80834649 54.22671589 -13.81420898 55.61523438 C-16.24516944 56.04315727 -18.53655819 56.06278353 -21 56 C-21.98143209 53.25078962 -22.9602233 50.50068729 -23.9375 47.75 C-24.21529297 46.97269531 -24.49308594 46.19539062 -24.77929688 45.39453125 C-25.04677734 44.64042969 -25.31425781 43.88632812 -25.58984375 43.109375 C-25.83597412 42.41811523 -26.08210449 41.72685547 -26.33569336 41.01464844 C-26.99141247 39.02604347 -27.51867386 37.03714797 -28 35 C-23.25 32 -23.25 32 -21 32 C-20.75765625 31.44570313 -20.5153125 30.89140625 -20.265625 30.3203125 C-18.73244743 27.50948695 -16.83357962 25.30584289 -14.75 22.875 C-10.57246015 17.84585892 -7.17805724 12.69925159 -4 7 C-3.20883822 5.62470943 -2.417232 4.24967435 -1.625 2.875 C-1.08875 1.92625 -0.5525 0.9775 0 0 Z " fill="#FBFBFB" transform="translate(53,606)"/>
<path d="M0 0 C25.08 0 50.16 0 76 0 C76 6.93 76 13.86 76 21 C72.7 21 69.4 21 66 21 C66 25.62 66 30.24 66 35 C70.62 35 75.24 35 80 35 C80 41.93 80 48.86 80 56 C75.38 56 70.76 56 66 56 C66.33 64.91 66.66 73.82 67 83 C71.29 83.33 75.58 83.66 80 84 C80 86.97 80 89.94 80 93 C95.51 93 111.02 93 127 93 C127 100.26 127 107.52 127 115 C111.49 115 95.98 115 80 115 C80 117.97 80 120.94 80 124 C100.79 124 121.58 124 143 124 C143 131.26 143 138.52 143 146 C93.83 146 44.66 146 -6 146 C-6 138.74 -6 131.48 -6 124 C14.46 124 34.92 124 56 124 C56 121.03 56 118.06 56 115 C40.82 115 25.64 115 10 115 C10 107.74 10 100.48 10 93 C25.18 93 40.36 93 56 93 C56 90.69 56 88.38 56 86 C52.04 86 48.08 86 44 86 C44 76.1 44 66.2 44 56 C40.04 56 36.08 56 32 56 C31.79375 57.0725 31.5875 58.145 31.375 59.25 C28.76586552 69.70517459 23.28034136 78.91414858 14.5625 85.25 C13.63566406 85.93578125 12.70882812 86.6215625 11.75390625 87.328125 C9.05737647 88.96516719 7.10323183 89.61702402 4 90 C3.57589844 89.41992188 3.15179688 88.83984375 2.71484375 88.2421875 C-0.2494846 84.29409304 -3.11258477 80.70829763 -6.9375 77.5625 C-7.948125 76.716875 -8.95875 75.87125 -10 75 C-10 74.34 -10 73.68 -10 73 C-9.443125 72.74347656 -8.88625 72.48695312 -8.3125 72.22265625 C-1.35097525 68.73013454 5.45249556 63.64251332 8 56 C3.38 56 -1.24 56 -6 56 C-6 49.07 -6 42.14 -6 35 C-0.06 35 5.88 35 12 35 C12 30.38 12 25.76 12 21 C8.04 21 4.08 21 0 21 C0 14.07 0 7.14 0 0 Z " fill="#FCFCFC" transform="translate(34,1598)"/>
<path d="M0 0 C6.93 0 13.86 0 21 0 C21 4.95 21 9.9 21 15 C28.26 15 35.52 15 43 15 C43 21.6 43 28.2 43 35 C35.74 35 28.48 35 21 35 C21 37.31 21 39.62 21 42 C27.93 42 34.86 42 42 42 C42 62.13 42 82.26 42 103 C32.1 103.495 32.1 103.495 22 104 C21.67 106.31 21.34 108.62 21 111 C29.25 111 37.5 111 46 111 C46 109.02 46 107.04 46 105 C61.18 105 76.36 105 92 105 C92 103.35 92 101.7 92 100 C98.93 100 105.86 100 113 100 C113.33 101.32 113.66 102.64 114 104 C119.94 104.33 125.88 104.66 132 105 C132 110.61 132 116.22 132 122 C126.06 122 120.12 122 114 122 C114.03480469 123.423125 114.06960937 124.84625 114.10546875 126.3125 C114.13362451 128.20832145 114.16092274 130.10415577 114.1875 132 C114.21263672 132.93457031 114.23777344 133.86914062 114.26367188 134.83203125 C114.33303689 141.44482963 114.09286129 147.83317899 109.203125 152.83984375 C108.55859375 153.20207031 107.9140625 153.56429688 107.25 153.9375 C106.29867187 154.50791016 106.29867187 154.50791016 105.328125 155.08984375 C99.33583663 157.43246655 92.89350766 157.12881998 86.5625 157.0625 C85.73556641 157.05798828 84.90863281 157.05347656 84.05664062 157.04882812 C82.03772854 157.03715811 80.01885426 157.01922718 78 157 C76.35 152.38 74.7 147.76 73 143 C68.92273927 144.3134761 68.92273927 144.3134761 65 146 C64.48050781 145.05898437 63.96101563 144.11796875 63.42578125 143.1484375 C62.72167971 141.89044274 62.01723415 140.63264048 61.3125 139.375 C60.97283203 138.75753906 60.63316406 138.14007812 60.28320312 137.50390625 C57.8931743 133.25992984 55.21558646 129.66047496 52 126 C53.98 124.515 53.98 124.515 56 123 C52.7 122.67 49.4 122.34 46 122 C46 125.3 46 128.6 46 132 C37.75 132 29.5 132 21 132 C21 139.92 21 147.84 21 156 C14.07 156 7.14 156 0 156 C0 148.08 0 140.16 0 132 C-8.25 132 -16.5 132 -25 132 C-25 125.07 -25 118.14 -25 111 C-16.75 111 -8.5 111 0 111 C0 108.69 0 106.38 0 104 C-6.6 104 -13.2 104 -20 104 C-20 83.54 -20 63.08 -20 42 C-13.4 42 -6.8 42 0 42 C0 39.69 0 37.38 0 35 C-7.59 35 -15.18 35 -23 35 C-23 28.4 -23 21.8 -23 15 C-15.41 15 -7.82 15 0 15 C0 10.05 0 5.1 0 0 Z " fill="#FCFCFC" transform="translate(49,1395)"/>
<path d="M0 0 C16.17 0 32.34 0 49 0 C49 35.64 49 71.28 49 108 C46.69 108 44.38 108 42 108 C42.5053125 108.90363281 43.010625 109.80726563 43.53125 110.73828125 C44.1878303 111.92950551 44.84406218 113.12092185 45.5 114.3125 C45.83386719 114.90740234 46.16773438 115.50230469 46.51171875 116.11523438 C48.06825114 118.95828844 49 120.70660988 49 124 C51.31 123.67 53.62 123.34 56 123 C56 103.2 56 83.4 56 63 C61.61 63 67.22 63 73 63 C73 81.48 73 99.96 73 119 C74.32 118.67 75.64 118.34 77 118 C77.33 96.22 77.66 74.44 78 52 C83.94 52 89.88 52 96 52 C96 59.59 96 67.18 96 75 C99.3 75 102.6 75 106 75 C106 80.94 106 86.88 106 93 C102.7 93 99.4 93 96 93 C96 100.26 96 107.52 96 115 C99.96 114.01 99.96 114.01 104 113 C105.32 113 106.64 113 108 113 C108.33808686 115.06172613 108.67027361 117.1244203 109 119.1875 C109.185625 120.33605469 109.37125 121.48460937 109.5625 122.66796875 C109.93489477 125.50415393 110.08596021 128.14719564 110 131 C97.77307167 134.62844915 85.56529797 137.94733376 73.078125 140.54882812 C70.99952906 141.00010224 68.9384345 141.49976637 66.875 142.015625 C65.616875 142.31984375 64.35875 142.6240625 63.0625 142.9375 C61.96035156 143.21464844 60.85820313 143.49179687 59.72265625 143.77734375 C57 144 57 144 55.18359375 142.81640625 C53.91485427 140.86933082 53.39308562 139.2798966 53 137 C52.02417969 137.433125 51.04835937 137.86625 50.04296875 138.3125 C48.7579382 138.8752871 47.47277498 139.43777134 46.1875 140 C45.54490234 140.28617188 44.90230469 140.57234375 44.24023438 140.8671875 C41.32243531 142.13711041 39.21734286 143 36 143 C35.7054895 142.16807129 35.7054895 142.16807129 35.4050293 141.31933594 C34.5063425 138.79361143 33.5970439 136.27183399 32.6875 133.75 C32.37876953 132.87730469 32.07003906 132.00460937 31.75195312 131.10546875 C31.29272461 129.83896484 31.29272461 129.83896484 30.82421875 128.546875 C30.54666748 127.77182617 30.26911621 126.99677734 29.9831543 126.19824219 C28.9286061 123.84036983 27.61876845 122.00399941 26 120 C25.731875 120.62003906 25.46375 121.24007812 25.1875 121.87890625 C22.63296736 127.6518139 19.88212184 133.29329042 16.9375 138.875 C16.44540039 139.8196814 16.44540039 139.8196814 15.94335938 140.78344727 C13.95128119 144.51660577 11.74624701 147.78279304 9 151 C6.01076046 149.58653605 3.34556222 147.93825606 0.625 146.0625 C-2.82477976 143.73033484 -6.22260697 141.74341217 -10 140 C-10 139.34 -10 138.68 -10 138 C-9.34 138 -8.68 138 -8 138 C-7.59201172 137.14728516 -7.59201172 137.14728516 -7.17578125 136.27734375 C-5.96894304 133.93984649 -4.60385949 131.7785981 -3.1875 129.5625 C0.91944934 122.79811285 3.50615072 115.48154783 6 108 C4.02 108 2.04 108 0 108 C0 72.36 0 36.72 0 0 Z " fill="#FDFDFD" transform="translate(32,414)"/>
<path d="M0 0 C7.59 0 15.18 0 23 0 C23 7.26 23 14.52 23 22 C34.88 22 46.76 22 59 22 C59 29.26 59 36.52 59 44 C47.45 44 35.9 44 24 44 C24 49.28 24 54.56 24 60 C25.35351562 59.94199219 26.70703125 59.88398438 28.1015625 59.82421875 C39.52954255 59.48825608 48.56884105 60.09121932 59 65 C55.86352582 86.72421062 43.89893351 105.55827759 30 122 C30.72960937 122.28359375 31.45921875 122.5671875 32.2109375 122.859375 C34.7450072 123.89571723 37.16638428 125.04872196 39.625 126.25 C47.77649536 130.00619112 56.42394572 132.41385306 65 135 C62.2704079 139.82649729 58.93565769 144.0331246 55.49609375 148.359375 C53.5033333 150.90206637 52.03033791 152.90898626 51 156 C39.60973327 154.40671864 25.28344111 148.7181939 16.11303711 141.51855469 C14.08562258 139.9798093 12.40647706 138.84045516 10 138 C6.63159209 138.67999808 4.05400703 140.40938167 1.1875 142.25 C-0.47101786 143.21918658 -2.13527623 144.17860622 -3.8046875 145.12890625 C-4.65514648 145.61504395 -5.50560547 146.10118164 -6.38183594 146.60205078 C-10.59199944 148.85003625 -14.96061299 150.55070463 -19.4375 152.1875 C-20.63499878 152.64141113 -20.63499878 152.64141113 -21.85668945 153.10449219 C-28.25503578 155.40306792 -28.25503578 155.40306792 -32 154 C-33.5625 151.9609375 -33.5625 151.9609375 -35 149.375 C-35.76376953 148.02148438 -35.76376953 148.02148438 -36.54296875 146.640625 C-37.26419922 145.33351563 -37.26419922 145.33351563 -38 144 C-38.76996652 142.70781644 -39.54066548 141.41606866 -40.3125 140.125 C-41.69126227 137.57173654 -42.39578361 135.76384131 -43 133 C-41.74509766 132.67128906 -41.74509766 132.67128906 -40.46484375 132.3359375 C-32.5170803 130.17076606 -24.98049284 127.53067913 -17.375 124.3671875 C-14.28021077 123.11351131 -11.17905143 122.01768415 -8 121 C-9.93955774 117.68756253 -11.999254 114.54542263 -14.25 111.4375 C-20.32677102 102.79126978 -25.44738537 93.97380007 -29 84 C-28.01 83.505 -28.01 83.505 -27 83 C-28.65 82.67 -30.3 82.34 -32 82 C-32 74.74 -32 67.48 -32 60 C-21.77 60 -11.54 60 -1 60 C-1 54.72 -1 49.44 -1 44 C-12.22 44 -23.44 44 -35 44 C-35 36.74 -35 29.48 -35 22 C-23.45 22 -11.9 22 0 22 C0 14.74 0 7.48 0 0 Z " fill="#FBFBFB" transform="translate(119,211)"/>
<path d="M0 0 C4.05382529 0.65054244 8.10646184 1.30803424 12.15820312 1.97143555 C13.5309545 2.19526067 14.90399438 2.41732497 16.27734375 2.63745117 C24.96452565 4.03133745 33.50263704 5.69537575 42 8 C41.71573032 10.6884654 41.42281156 13.37552857 41.125 16.0625 C41.04636719 16.81466797 40.96773437 17.56683594 40.88671875 18.34179688 C40.80292969 19.08623047 40.71914062 19.83066406 40.6328125 20.59765625 C40.55949707 21.27320557 40.48618164 21.94875488 40.41064453 22.64477539 C39.85751914 25.81718957 38.88467708 28.90363021 38 32 C49.88 32 61.76 32 74 32 C74 45.86 74 59.72 74 74 C70.04 74 66.08 74 62 74 C62.04125 75.0725 62.0825 76.145 62.125 77.25 C62.07589592 91.26921361 57.53272499 105.41871508 52.63671875 118.4140625 C51.921295 121.31964852 52.20111126 123.14461702 53 126 C53.66 126 54.32 126 55 126 C55.804375 127.299375 55.804375 127.299375 56.625 128.625 C60.98766929 135.49216462 70.35543842 141.45181281 78 144 C78 144.66 78 145.32 78 146 C78.598125 146.144375 79.19625 146.28875 79.8125 146.4375 C81.56150404 146.8872439 83.28677023 147.42892341 85 148 C85 148.66 85 149.32 85 150 C83.00715862 151.3440093 81.00580329 152.67541292 79 154 C78.13375 154.86625 77.2675 155.7325 76.375 156.625 C74 159 74 159 71.8125 160.0625 C69.42994899 161.29485397 69.16436262 162.61521286 68 165 C67.12956273 166.18573498 66.23168837 167.35164412 65.3125 168.5 C61.34016271 173.67875083 58.19817806 179.32276084 55 185 C43.29581929 179.95113773 33.62437872 171.22607956 25 162 C23.89326166 162.76713644 22.78972306 163.53889003 21.6875 164.3125 C21.07261719 164.74175781 20.45773438 165.17101563 19.82421875 165.61328125 C17.96541587 166.95691238 17.96541587 166.95691238 16.40625 168.625 C14.69241717 170.30074765 13.32938285 170.59838227 11 171 C11 171.66 11 172.32 11 173 C7.23105858 174.9827851 3.45953347 176.96060441 -0.3125 178.9375 C-1.9202832 179.78344727 -1.9202832 179.78344727 -3.56054688 180.64648438 C-4.58857422 181.18466797 -5.61660156 181.72285156 -6.67578125 182.27734375 C-8.0975769 183.02359009 -8.0975769 183.02359009 -9.5480957 183.78491211 C-12 185 -12 185 -15 186 C-15.66 183.36 -16.32 180.72 -17 178 C-18.32 177.67 -19.64 177.34 -21 177 C-22.190122 176.39039694 -23.35852252 175.73687671 -24.50390625 175.046875 C-31.91230678 170.57096135 -31.91230678 170.57096135 -40.21484375 169.03515625 C-42.98508633 169.80833756 -45.39707896 170.77988076 -48 172 C-53.32440616 174.18840893 -58.62687931 175.78714512 -64.25 177 C-65.00780762 177.16661133 -65.76561523 177.33322266 -66.54638672 177.50488281 C-75.62711983 179.43821211 -84.80670752 180.73328329 -94 182 C-94.36351563 181.0821875 -94.72703125 180.164375 -95.1015625 179.21875 C-97.70433672 172.80963683 -100.20219128 166.99632112 -104.703125 161.6484375 C-106.10698506 159.86401297 -107.04843347 158.05574279 -108 156 C-108.66 156 -109.32 156 -110 156 C-111.7265625 154.03125 -111.7265625 154.03125 -113.625 151.5 C-114.25664063 150.6646875 -114.88828125 149.829375 -115.5390625 148.96875 C-116.02117187 148.3190625 -116.50328125 147.669375 -117 147 C-114.17248703 145.11499136 -112.72347946 144.57682343 -109.5 143.9375 C-106.89917232 143.41299975 -104.52610575 142.84203525 -102 142 C-102 129.13 -102 116.26 -102 103 C-99.69 103 -97.38 103 -95 103 C-95 91.12 -95 79.24 -95 67 C-97.97 67 -100.94 67 -104 67 C-104 54.46 -104 41.92 -104 29 C-100.37 29 -96.74 29 -93 29 C-93 23.39 -93 17.78 -93 12 C-84.42 12 -75.84 12 -67 12 C-67 9.03 -67 6.06 -67 3 C-53.8 3 -40.6 3 -27 3 C-27 5.97 -27 8.94 -27 12 C-18.42 12 -9.84 12 -1 12 C-0.67 8.04 -0.34 4.08 0 0 Z M-56 13 C-56 16.3 -56 19.6 -56 23 C-64.58 23 -73.16 23 -82 23 C-82 28.61 -82 34.22 -82 40 C-85.96 40 -89.92 40 -94 40 C-94 45.61 -94 51.22 -94 57 C-90.04 57 -86.08 57 -82 57 C-82 62.61 -82 68.22 -82 74 C-73.42 74 -64.84 74 -56 74 C-56 75.32 -56 76.64 -56 78 C-65.24 78 -74.48 78 -84 78 C-84 87.9 -84 97.8 -84 108 C-77.07 108 -70.14 108 -63 108 C-63.66 109.65 -64.32 111.3 -65 113 C-73.58 113.33 -82.16 113.66 -91 114 C-91 118.95 -91 123.9 -91 129 C-86.05 129 -81.1 129 -76 129 C-78.66666667 133 -81.33333333 137 -84 141 C-80.59669264 142.93160688 -77.24855039 143.7343878 -73.4375 144.5625 C-70.21962664 145.26743707 -67.12553894 145.95815369 -64 147 C-74.26274804 149.90482954 -84.49437904 152.17773723 -95 154 C-93.75825646 157.30939092 -92.35868427 160.22256786 -90.4375 163.1875 C-89.19933497 165.10904395 -88.0224869 166.95502619 -87 169 C-73.22896606 168.65256566 -53.93432811 165.02869508 -42.0625 157.82421875 C-39.03632695 156.61489581 -37.12905496 157.18876353 -34 158 C-30.60720563 159.49089539 -27.32989012 161.14781782 -24.0234375 162.8203125 C-20.87362153 164.04931046 -20.02964935 164.21441641 -17 163 C-15.68 162.67 -14.36 162.34 -13 162 C-11.68 164.64 -10.36 167.28 -9 170 C-4.26175453 169.47053696 -0.86200377 167.30468023 3 164.6875 C3.97380615 164.03285767 3.97380615 164.03285767 4.96728516 163.36499023 C9.72974287 160.07409145 14.11526519 156.47907615 18.375 152.5625 C18.92800781 152.05485107 19.48101562 151.54720215 20.05078125 151.02416992 C22.48756807 148.71023002 23.92123439 147.23629684 25 144 C25.66 144 26.32 144 27 144 C27.25523437 144.56203125 27.51046875 145.1240625 27.7734375 145.703125 C32.35470485 154.28205876 40.67819898 163.82383977 49 169 C52.85846831 167.7138439 53.59332453 166.07041488 55.875 162.75 C60.22547762 156.56140545 60.22547762 156.56140545 63 153.9375 C63.66 153.298125 64.32 152.65875 65 152 C65 151.34 65 150.68 65 150 C63.56473708 148.91830916 62.07361804 147.91041161 60.5625 146.9375 C52.46960396 141.40868983 44.06509825 134.14647107 40 125 C39.84495789 120.11617363 40.97207104 116.95778983 42.875 112.53125 C45.25982533 106.63185993 46.73299312 100.63592221 48.125 94.4375 C48.38361816 93.30521973 48.64223633 92.17293945 48.90869141 91.00634766 C50.89658945 82.0461802 52.26138268 73.143573 53 64 C56.3 64 59.6 64 63 64 C63 57.07 63 50.14 63 43 C50.46 43 37.92 43 25 43 C27 32.8125 27 32.8125 27.6328125 29.62817383 C27.79523438 28.78794678 27.95765625 27.94771973 28.125 27.08203125 C28.29257813 26.22843018 28.46015625 25.3748291 28.6328125 24.49536133 C29.00595229 21.95954897 29.06412996 19.55918603 29 17 C26.96040523 16.49161436 24.91820862 15.99366114 22.875 15.5 C21.73804688 15.2215625 20.60109375 14.943125 19.4296875 14.65625 C16.18533302 14.03546235 13.29185543 13.87993232 10 14 C8.58540353 17.63753379 7.76996264 21.16129382 7.1875 25 C4.31772758 42.95276235 0.02623797 61.18364847 -7 78 C-7.33 77.67 -7.66 77.34 -8 77 C-10.21855264 76.91216458 -12.43988496 76.89305391 -14.66015625 76.90234375 C-15.32462265 76.9037587 -15.98908905 76.90517365 -16.6736908 76.90663147 C-18.80333899 76.91224482 -20.93288339 76.92479946 -23.0625 76.9375 C-24.50325369 76.94251329 -25.94400903 76.94707649 -27.38476562 76.95117188 C-30.92321102 76.96221855 -34.46159539 76.97949208 -38 77 C-38 76.01 -38 75.02 -38 74 C-28.76 74 -19.52 74 -10 74 C-10 68.39 -10 62.78 -10 57 C-7.36 57 -4.72 57 -2 57 C-2 51.39 -2 45.78 -2 40 C-4.64 40 -7.28 40 -10 40 C-10 34.39 -10 28.78 -10 23 C-19.24 23 -28.48 23 -38 23 C-38 19.7 -38 16.4 -38 13 C-43.94 13 -49.88 13 -56 13 Z " fill="#080808" transform="translate(118,987)"/>
<path d="M0 0 C13.86 0 27.72 0 42 0 C40.82660999 6.45364503 39.6565575 12.82824278 38.1875 19.20703125 C37.83584743 20.75488084 37.48420398 22.3027325 37.13256836 23.85058594 C36.94854462 24.65653198 36.76452087 25.46247803 36.57492065 26.29284668 C32.93214666 42.25770638 29.40154429 58.24549513 25.9375 74.25 C22.84537708 88.52823992 19.73379318 102.80161406 16.5625 117.0625 C16.40087372 117.7901355 16.23924744 118.517771 16.07272339 119.26745605 C14.55089746 126.11532932 13.01497788 132.959456 11.4296875 139.79296875 C9.87476432 146.50170573 8.42135686 153.23043424 6.98242188 159.96484375 C5.10534569 168.67593519 3.04248928 177.31942056 1 186 C-12.86 186 -26.72 186 -41 186 C-38.74960692 171.37244497 -38.74960692 171.37244497 -37.6328125 166.23828125 C-37.38893799 165.10849854 -37.14506348 163.97871582 -36.89379883 162.81469727 C-36.64009521 161.65897217 -36.3863916 160.50324707 -36.125 159.3125 C-35.86033936 158.09296631 -35.59567871 156.87343262 -35.32299805 155.61694336 C-34.55324913 152.07694038 -33.77781151 148.53823916 -33 145 C-32.79552246 144.06736328 -32.59104492 143.13472656 -32.38037109 142.17382812 C-30.57710704 133.96018993 -28.72201272 125.75947265 -26.81884766 117.56835938 C-25.91608139 113.63430102 -25.03995568 109.69487325 -24.16796875 105.75390625 C-22.7762801 99.47774002 -21.37377045 93.20415248 -19.95703125 86.93359375 C-19.69890404 85.79054527 -19.69890404 85.79054527 -19.43556213 84.62440491 C-19.07899544 83.04548793 -18.72241255 81.46657462 -18.36581421 79.88766479 C-15.72720028 68.20345562 -13.10253796 56.51689011 -10.5546875 44.8125 C-10.35520004 43.89735123 -10.15571259 42.98220245 -9.95018005 42.0393219 C-8.99374995 37.6495267 -8.04116904 33.25895516 -7.0949707 28.86694336 C-6.74442752 27.25371651 -6.39376593 25.64051539 -6.04296875 24.02734375 C-5.89532074 23.33491577 -5.74767273 22.64248779 -5.59555054 21.92907715 C-3.98048921 14.53493455 -1.95780638 7.34177393 0 0 Z " fill="#080808" transform="translate(101,799)"/>
<path d="M0 0 C1.55078125 2.16015625 1.55078125 2.16015625 3.3125 5.0625 C5.42157775 8.48644213 7.54207802 11.83210236 9.9375 15.0625 C12 18 12 18 12 20 C10.17016859 20.65568959 8.3359079 21.29902213 6.5 21.9375 C5.4790625 22.29714844 4.458125 22.65679687 3.40625 23.02734375 C0 24 0 24 -8 25 C-8 31.6 -8 38.2 -8 45 C-1.4 45 5.2 45 12 45 C12.495 53.91 12.495 53.91 13 63 C14.175625 61.948125 15.35125 60.89625 16.5625 59.8125 C20.22199532 56.60310303 23.99096299 53.75621295 28 51 C29.83913695 52.4510074 31.6711753 53.91101659 33.5 55.375 C34.5209375 56.18710938 35.541875 56.99921875 36.59375 57.8359375 C37.3878125 58.55007812 38.181875 59.26421875 39 60 C39 60.66 39 61.32 39 62 C39.56332031 62.23847656 40.12664062 62.47695312 40.70703125 62.72265625 C43.49889204 64.27791771 45.43692408 66.17204424 47.6875 68.4375 C48.86892578 69.61119141 48.86892578 69.61119141 50.07421875 70.80859375 C52 73 52 73 53 76 C48.05 80.95 43.1 85.9 38 91 C34.38866128 89.79622043 33.74204623 88.6365621 31.5 85.625 C26.22090459 78.82779738 20.19263811 71.79509207 13 67 C12.67 67.33 12.34 67.66 12 68 C10.58672053 68.15620555 9.1664541 68.25056173 7.74609375 68.31640625 C6.89208984 68.35830078 6.03808594 68.40019531 5.15820312 68.44335938 C4.26037109 68.48267578 3.36253906 68.52199219 2.4375 68.5625 C1.08495117 68.62727539 1.08495117 68.62727539 -0.29492188 68.69335938 C-2.52978485 68.79978142 -4.76476308 68.90179988 -7 69 C-6.24323975 69.73319458 -6.24323975 69.73319458 -5.47119141 70.48120117 C-3.18121649 72.70866468 -0.90308046 74.94787588 1.375 77.1875 C2.1690625 77.95642578 2.963125 78.72535156 3.78125 79.51757812 C4.54179688 80.26845703 5.30234375 81.01933594 6.0859375 81.79296875 C7.1385376 82.82200317 7.1385376 82.82200317 8.21240234 83.87182617 C10.12708296 86.15129502 11.05267073 88.19444793 12 91 C11.48050781 91.64066406 10.96101563 92.28132813 10.42578125 92.94140625 C6.45769688 97.86300442 2.61035498 102.81011471 -1 108 C-3 107 -3 107 -8 96 C-8.33 115.8 -8.66 135.6 -9 156 C-16.59 156 -24.18 156 -32 156 C-32.33 140.16 -32.66 124.32 -33 108 C-35.31 112.62 -37.62 117.24 -40 122 C-43.8671875 127.484375 -43.8671875 127.484375 -46 130 C-48.3430431 126.48543535 -50.17468839 122.8347461 -52.0625 119.0625 C-52.42666016 118.34642578 -52.79082031 117.63035156 -53.16601562 116.89257812 C-53.51470703 116.19712891 -53.86339844 115.50167969 -54.22265625 114.78515625 C-54.53984619 114.15488525 -54.85703613 113.52461426 -55.18383789 112.87524414 C-56.0475808 110.8906766 -56.6779202 109.14378473 -57 107 C-55.79521109 104.78718419 -54.57254439 102.85598978 -53.125 100.8125 C-49.47091719 95.40167448 -46.17540673 89.89857409 -43.125 84.125 C-42.75648926 83.43639893 -42.38797852 82.74779785 -42.00830078 82.03833008 C-39.57639543 77.3929105 -37.88262161 73.0203243 -36 68 C-42.6 68 -49.2 68 -56 68 C-56 60.41 -56 52.82 -56 45 C-48.08 45 -40.16 45 -32 45 C-32 40.05 -32 35.1 -32 30 C-33.52625 30.33 -35.0525 30.66 -36.625 31 C-40.49041548 31.83576551 -44.04462943 32.09279462 -48 32 C-48.81436587 29.58394775 -49.62655397 27.16720002 -50.4375 24.75 C-50.66759766 24.06808594 -50.89769531 23.38617188 -51.13476562 22.68359375 C-52.20925541 19.4756967 -53.20955632 16.28875364 -54 13 C-53.35562988 12.89453857 -52.71125977 12.78907715 -52.04736328 12.68041992 C-49.07208719 12.18951268 -46.09858192 11.68856313 -43.125 11.1875 C-42.11179687 11.02185547 -41.09859375 10.85621094 -40.0546875 10.68554688 C-33.51625273 9.57485122 -27.30227562 8.05409848 -21 6 C-19.31253328 5.46473882 -17.62503316 4.92958293 -15.9375 4.39453125 C-13.43779635 3.59486302 -10.93893004 2.79278046 -8.44140625 1.98632812 C-7.23291016 1.60057617 -7.23291016 1.60057617 -6 1.20703125 C-5.278125 0.9747583 -4.55625 0.74248535 -3.8125 0.50317383 C-2 0 -2 0 0 0 Z " fill="#FAFAFA" transform="translate(80,14)"/>
<path d="M0 0 C6.93 0 13.86 0 21 0 C21 3.63 21 7.26 21 11 C31.23 11 41.46 11 52 11 C52 16.61 52 22.22 52 28 C41.77 28 31.54 28 21 28 C21 29.32 21 30.64 21 32 C30.57 32 40.14 32 50 32 C50 46.85 50 61.7 50 77 C48.68 77 47.36 77 46 77 C46.55429688 77.86882812 47.10859375 78.73765625 47.6796875 79.6328125 C48.41178941 80.79666681 49.14354169 81.9607411 49.875 83.125 C50.42220703 83.97964844 50.42220703 83.97964844 50.98046875 84.8515625 C53.2386966 88.46472705 54.8186679 91.90886041 56 96 C53.54379149 97.17133058 51.08525083 98.33721722 48.625 99.5 C47.92632812 99.83386719 47.22765625 100.16773438 46.5078125 100.51171875 C41.2265625 103 41.2265625 103 39 103 C38.34 101.68 37.68 100.36 37 99 C14.89 99 -7.22 99 -30 99 C-30.66 93.72 -31.32 88.44 -32 83 C-21.44 83 -10.88 83 0 83 C0 81.02 0 79.04 0 77 C-9.24 77 -18.48 77 -28 77 C-28 62.15 -28 47.3 -28 32 C-18.76 32 -9.52 32 0 32 C0 30.68 0 29.36 0 28 C-9.9 28 -19.8 28 -30 28 C-30 22.39 -30 16.78 -30 11 C-20.1 11 -10.2 11 0 11 C0 7.37 0 3.74 0 0 Z " fill="#FCFCFC" transform="translate(126,1395)"/>
<path d="M0 0 C21.78 0 43.56 0 66 0 C66.08021762 19.93407824 66.08021762 19.93407824 66.09765625 28.45117188 C66.10959762 34.25581533 66.12370315 40.0603955 66.15087891 45.86499023 C66.17265813 50.54637278 66.18457936 55.22768743 66.18975449 59.90911674 C66.19344112 61.69242865 66.20064019 63.47573696 66.21146011 65.25901985 C66.22604257 67.76268583 66.22797513 70.26607357 66.22705078 72.76977539 C66.23424133 73.50201828 66.24143188 74.23426117 66.24884033 74.98869324 C66.22415027 81.19566528 65.68977933 86.23162628 61.3125 90.8125 C55.29909867 94.78361409 49.54286257 95.29104705 42.5625 95.125 C41.83095703 95.11597656 41.09941406 95.10695313 40.34570312 95.09765625 C38.56365702 95.07436153 36.78178241 95.0385019 35 95 C33.82887054 92.37690901 32.66294036 89.75171858 31.5 87.125 C31.16613281 86.37863281 30.83226562 85.63226562 30.48828125 84.86328125 C30.17246094 84.14785156 29.85664062 83.43242188 29.53125 82.6953125 C29.23798828 82.03547363 28.94472656 81.37563477 28.64257812 80.69580078 C28 79 28 79 28 77 C32.95 77 37.9 77 43 77 C43 73.04 43 69.08 43 65 C37.66986646 68.47894944 32.65041321 72.28450723 27.609375 76.171875 C25 78 25 78 23 78 C21.515 73.05 21.515 73.05 20 68 C19.62488281 69.26714844 19.24976562 70.53429687 18.86328125 71.83984375 C13.84732602 88.44387415 13.84732602 88.44387415 9 96 C5.18008091 94.43489426 2.84183518 92.01263683 0 89.0625 C-2.86344434 86.09866051 -5.62194442 83.36933065 -9 81 C-8.72285156 80.32582031 -8.44570313 79.65164063 -8.16015625 78.95703125 C-6.82859211 75.56311188 -5.61312318 72.13762264 -4.4375 68.6875 C-4.21642578 68.06166016 -3.99535156 67.43582031 -3.76757812 66.79101562 C-3.55423828 66.16259766 -3.34089844 65.53417969 -3.12109375 64.88671875 C-2.9295874 64.33201904 -2.73808105 63.77731934 -2.54077148 63.20581055 C-0.72439194 55.7967861 -0.79679809 48.20664638 -0.68359375 40.625 C-0.66494263 39.59117187 -0.6462915 38.55734375 -0.6270752 37.4921875 C-0.55921268 33.66153823 -0.49878758 29.8307601 -0.4375 26 C-0.293125 17.42 -0.14875 8.84 0 0 Z " fill="#FDFDFD" transform="translate(34,666)"/>
<path d="M0 0 C7.26 0 14.52 0 22 0 C22 3.3 22 6.6 22 10 C22.91523438 9.6390625 23.83046875 9.278125 24.7734375 8.90625 C25.96195312 8.4421875 27.15046875 7.978125 28.375 7.5 C29.55835938 7.0359375 30.74171875 6.571875 31.9609375 6.09375 C35 5 35 5 37 5 C38.3290876 7.32514641 39.63787394 9.65845151 40.9375 12 C41.31068359 12.64839844 41.68386719 13.29679687 42.06835938 13.96484375 C44.67684926 18.71182535 45.61984581 22.59336261 46 28 C43.54379149 29.17133058 41.08525083 30.33721722 38.625 31.5 C37.92632812 31.83386719 37.22765625 32.16773438 36.5078125 32.51171875 C31.2265625 35 31.2265625 35 29 35 C28.74605469 34.13117188 28.49210937 33.26234375 28.23046875 32.3671875 C27.71419922 30.63855469 27.71419922 30.63855469 27.1875 28.875 C26.85105469 27.73804688 26.51460938 26.60109375 26.16796875 25.4296875 C24.90963369 21.48175332 24.90963369 21.48175332 22 16 C21.67 23.26 21.34 30.52 21 38 C28.59 38 36.18 38 44 38 C44 44.27 44 50.54 44 57 C36.74 57 29.48 57 22 57 C22.38508663 63.86481095 22.77390368 70.72921303 23.171875 77.59326172 C23.30584307 79.92256715 23.43772573 82.25199359 23.56738281 84.58154297 C24.5707115 102.86466739 24.5707115 102.86466739 27 121 C27.33338047 122.99999214 27.66672665 124.99999 28 127 C28.66 126.67 29.32 126.34 30 126 C31.15570704 122.53287889 31.32835293 119.4585044 31.5625 115.8125 C31.68818359 113.90404297 31.68818359 113.90404297 31.81640625 111.95703125 C31.87699219 110.98121094 31.93757813 110.00539063 32 109 C33.61468187 110.40855227 35.22872361 111.81784391 36.83984375 113.23046875 C39.00168769 115.05936015 39.00168769 115.05936015 41.50390625 116.67578125 C43.91608392 118.31787403 46.01444209 119.85960501 48 122 C48.23058935 125.45884025 48.01367308 126.84819682 47 130 C46.81566406 130.84691406 46.63132812 131.69382812 46.44140625 132.56640625 C44.54697142 140.83837946 41.40162122 148.74956195 35.1875 154.6875 C30.33949957 156.68373547 26.06870005 157.12893233 21.078125 155.29296875 C13.36046803 150.73408731 10.43863603 141.28335216 8.31469727 133.05615234 C7.44548105 129.38913323 6.71488624 125.69967861 6 122 C5.85965332 121.32243652 5.71930664 120.64487305 5.57470703 119.94677734 C3.2139456 108.39322759 2.47614641 96.74840102 1.8125 85 C1.76961853 84.24197083 1.72673706 83.48394165 1.68255615 82.70294189 C1.20877645 74.11751464 1 65.61031651 1 57 C-16.82 57 -34.64 57 -53 57 C-53 50.73 -53 44.46 -53 38 C-35.18 38 -17.36 38 1 38 C0.505 34.04 0.505 34.04 0 30 C-0.07585569 27.55304239 -0.10820845 25.10436035 -0.09765625 22.65625 C-0.0962413 22.00168823 -0.09482635 21.34712646 -0.09336853 20.67272949 C-0.08784307 18.61510326 -0.07530559 16.55759244 -0.0625 14.5 C-0.05747533 13.09114742 -0.05291413 11.68229311 -0.04882812 10.2734375 C-0.03710039 6.84893974 -0.01916678 3.42446421 0 0 Z " fill="#FCFCFC" transform="translate(137,408)"/>
<path d="M0 0 C7.92 0 15.84 0 24 0 C24 10.23 24 20.46 24 31 C28.95 31 33.9 31 39 31 C39 38.26 39 45.52 39 53 C33.72 53 28.44 53 23 53 C23 59.6 23 66.2 23 73 C25.97 72.01 28.94 71.02 32 70 C35.0625 69.8125 35.0625 69.8125 37 70 C38.66594452 77.31074682 39.51172287 84.52165033 40 92 C37.91891315 92.67364661 35.8350329 93.33866798 33.75 94 C32.58984375 94.37125 31.4296875 94.7425 30.234375 95.125 C27 96 27 96 23 96 C23.01332367 96.57105469 23.02664734 97.14210938 23.04037476 97.73046875 C23.17362275 103.70045332 23.26381916 109.67001227 23.32958984 115.64111328 C23.35967201 117.86622286 23.40054898 120.09121474 23.45263672 122.31591797 C23.52582777 125.52340803 23.55954294 128.72932417 23.5859375 131.9375 C23.61690521 132.92427734 23.64787292 133.91105469 23.67977905 134.92773438 C23.68276407 141.12170681 22.57688367 144.6617533 18.60928345 149.45581055 C11.52461188 156.25391385 -0.54011277 156.2322902 -9.7265625 156.0703125 C-10.47679687 156.04710937 -11.22703125 156.02390625 -12 156 C-12.09796875 155.41734375 -12.1959375 154.8346875 -12.296875 154.234375 C-13.57429061 147.23061357 -15.65548689 140.72093757 -18 134 C-12.39 134 -6.78 134 -1 134 C-0.67 123.44 -0.34 112.88 0 102 C-3.96 102.99 -7.92 103.98 -12 105 C-12.99 105 -13.98 105 -15 105 C-15.83698495 101.54253984 -16.66896676 98.08389511 -17.5 94.625 C-17.73847656 93.64015625 -17.97695313 92.6553125 -18.22265625 91.640625 C-18.44824219 90.69960938 -18.67382812 89.75859375 -18.90625 88.7890625 C-19.22045898 87.48509521 -19.22045898 87.48509521 -19.54101562 86.15478516 C-20 84 -20 84 -20 82 C-13.73 80.68 -7.46 79.36 -1 78 C-0.67 69.75 -0.34 61.5 0 53 C-5.94 53 -11.88 53 -18 53 C-18 45.74 -18 38.48 -18 31 C-12.06 31 -6.12 31 0 31 C0 20.77 0 10.54 0 0 Z " fill="#FCFCFC" transform="translate(44,210)"/>
<path d="M0 0 C7.92 0 15.84 0 24 0 C24 30.36 24 60.72 24 92 C28.455 91.01 28.455 91.01 33 90 C36.5625 89.875 36.5625 89.875 39 90 C39.50509639 93.08252089 40.00317999 96.16613525 40.5 99.25 C40.64308594 100.12269531 40.78617187 100.99539062 40.93359375 101.89453125 C41.06894531 102.73886719 41.20429688 103.58320312 41.34375 104.453125 C41.53227539 105.61569824 41.53227539 105.61569824 41.72460938 106.80175781 C42 109 42 109 42 113 C39.93827387 113.33808686 37.8755797 113.67027361 35.8125 114 C34.66394531 114.185625 33.51539063 114.37125 32.33203125 114.5625 C29 115 29 115 24 115 C24 128.53 24 142.06 24 156 C16.08 156 8.16 156 0 156 C0 144.12 0 132.24 0 120 C-4.29 120.99 -8.58 121.98 -13 123 C-16.14840491 123.50374479 -19.29718421 124.00678992 -22.453125 124.4609375 C-27.38075723 125.20985077 -32.27893353 126.11228223 -37.17675781 127.03515625 C-40.83085648 127.70298022 -44.28333407 128.15970049 -48 128 C-48.5100219 125.66847132 -49.00811112 123.33536433 -49.5 121 C-49.64308594 120.35160156 -49.78617187 119.70320313 -49.93359375 119.03515625 C-50.92392887 114.2721159 -51.13030242 109.86462378 -51 105 C-40.01401242 102.91517598 -29.0143083 100.92951386 -18 99 C-9.585 97.515 -9.585 97.515 -1 96 C-0.67 64.32 -0.34 32.64 0 0 Z " fill="#FCFCFC" transform="translate(140,13)"/>
<path d="M0 0 C7.78121942 2.02189166 15.39772708 4.38630407 23 7 C22.17910429 9.33830898 21.34339604 11.66979237 20.5 14 C20.17128906 14.94359375 20.17128906 14.94359375 19.8359375 15.90625 C18.51292388 19.52712939 17.15055397 22.76156304 15.08068848 26.03967285 C7.20771944 38.74300383 7.88112174 51.61400187 8 66.15625 C7.9924689 68.75656341 7.98142389 71.35686878 7.96704102 73.95715332 C7.94165788 80.05914097 7.95123005 86.16011936 7.97846508 92.26206827 C8.00751615 99.22009423 7.99080847 106.17778926 7.97065353 113.13581944 C7.93026986 127.42415599 7.95209731 141.71169295 8 156 C0.08 156 -7.84 156 -16 156 C-16.33 130.59 -16.66 105.18 -17 79 C-18.65 80.98 -20.3 82.96 -22 85 C-24.74859776 82.6009349 -25.95761957 80.21392973 -27.375 76.875 C-29.34274419 72.34558884 -31.56580932 68.15955692 -34.1796875 63.97265625 C-35.20124209 61.51606069 -34.9390255 60.45161793 -34 58 C-32.5625 55.75 -32.5625 55.75 -31 54 C-30.34 54 -29.68 54 -29 54 C-28.72236816 53.41839111 -28.44473633 52.83678223 -28.15869141 52.23754883 C-27.0499927 50.09654089 -25.83193449 48.18013171 -24.4609375 46.19921875 C-14.68371596 31.90869788 -4.97893771 16.74733594 0 0 Z " fill="#FCFCFC" transform="translate(60,1198)"/>
<path d="M0 0 C8.78607656 0.49389188 17.35001785 1.36822681 26 3 C25.34527148 9.79106705 24.24143858 16.38068591 22.875 23.0625 C22.66125732 24.11727539 22.44751465 25.17205078 22.22729492 26.25878906 C20.4637732 34.88542722 18.63764153 43.49895317 16.77618408 52.10494995 C16.46872139 53.52730386 16.16251432 54.9499298 15.85760498 56.37283325 C15.42658386 58.37979194 14.98957111 60.38535232 14.55078125 62.390625 C14.17433472 64.1236084 14.17433472 64.1236084 13.7902832 65.89160156 C13 69 13 69 11 74 C19.25 74 27.5 74 36 74 C36 81.92 36 89.84 36 98 C1.35 98 -33.3 98 -69 98 C-69 90.08 -69 82.16 -69 74 C-49.86 74 -30.72 74 -11 74 C-10.67 71.03 -10.34 68.06 -10 65 C-9.67908926 63.36380303 -9.3249347 61.73314179 -8.9140625 60.1171875 C-8.7068457 59.27075684 -8.49962891 58.42432617 -8.28613281 57.55224609 C-8.06795898 56.66875488 -7.84978516 55.78526367 -7.625 54.875 C-5.04809725 44.07097265 -3.52766971 33.24785972 -2.30957031 22.21630859 C-2 20 -2 20 -1.48364258 17.95263672 C-0.65644646 14.61295245 -0.62203488 11.1744834 -0.4375 7.75 C-0.37272461 6.63238281 -0.37272461 6.63238281 -0.30664062 5.4921875 C-0.20103275 3.661651 -0.10005799 1.83084824 0 0 Z " fill="#F8F8F8" transform="translate(143,1250)"/>
<path d="M0 0 C7.92 0 15.84 0 24 0 C24 4.95 24 9.9 24 15 C37.2 15 50.4 15 64 15 C64 21.93 64 28.86 64 36 C50.8 36 37.6 36 24 36 C23.68767526 46.34850678 23.68767526 46.34850678 26 56 C29.62484999 56.08681476 33.24943443 56.14032721 36.875 56.1875 C37.90753906 56.21263672 38.94007813 56.23777344 40.00390625 56.26367188 C40.99003906 56.27333984 41.97617188 56.28300781 42.9921875 56.29296875 C43.90339355 56.3086792 44.81459961 56.32438965 45.75341797 56.34057617 C46.49479004 56.22818604 47.23616211 56.1157959 48 56 C50.26954631 52.59568053 50.36549949 50.83475798 50.625 46.8125 C50.69976562 45.72582031 50.77453125 44.63914062 50.8515625 43.51953125 C50.90054688 42.68808594 50.94953125 41.85664062 51 41 C51.68835938 41.27714844 52.37671875 41.55429687 53.0859375 41.83984375 C56.25750108 43.10251719 59.43933826 44.33583714 62.625 45.5625 C63.75164062 45.99691406 64.87828125 46.43132813 66.0390625 46.87890625 C68.01144005 47.62570355 69.99920479 48.33306826 72 49 C72.56013174 57.54200903 70.90165385 65.46231695 65.75 72.5 C60.10340323 77.63326979 53.79959766 78.45880456 46.4765625 78.3984375 C45.69034515 78.40130768 44.90412781 78.40417786 44.09408569 78.40713501 C42.44194818 78.40916303 40.78978596 78.40372219 39.13769531 78.39111328 C36.63811266 78.37508409 34.14015726 78.39098203 31.640625 78.41015625 C12.0486428 78.43788237 12.0486428 78.43788237 6.37353516 73.61889648 C-1.11228294 65.1364773 -0.14240014 55.31405217 -0.09765625 44.62890625 C-0.0962413 43.35144028 -0.09482635 42.0739743 -0.09336853 40.75779724 C-0.08873516 37.38275254 -0.07977023 34.00777703 -0.06866455 30.63275146 C-0.05838426 27.18030389 -0.05385681 23.72784913 -0.04882812 20.27539062 C-0.03782466 13.51690569 -0.02057322 6.7584623 0 0 Z " fill="#FBFBFB" transform="translate(110,683)"/>
<path d="M0 0 C1.18613892 0.00785522 1.18613892 0.00785522 2.39624023 0.01586914 C3.67724609 0.02070312 3.67724609 0.02070312 4.98413086 0.02563477 C5.88196289 0.03401367 6.77979492 0.04239258 7.70483398 0.05102539 C8.6065332 0.05553711 9.50823242 0.06004883 10.43725586 0.06469727 C12.67234712 0.07652315 14.90730835 0.09300319 17.14233398 0.11352539 C14.77602936 12.44614833 12.14788827 24.69464875 9.24926758 36.91381836 C7.89213603 42.6764766 6.66463065 48.42811357 5.67407227 54.265625 C5.08566835 57.41701698 4.39399988 60.53631298 3.69061279 63.66374207 C3.14305747 66.11029276 2.61106473 68.55970409 2.08398438 71.01074219 C-1.29093709 86.6784276 -4.8405275 102.30401044 -8.42016602 117.92602539 C-9.54719764 122.84903579 -10.67347336 127.77221847 -11.79907227 132.69555664 C-12.06563629 133.86128204 -12.33220032 135.02700745 -12.60684204 136.22805786 C-14.72759792 145.51520371 -16.80443295 154.81122499 -18.85766602 164.11352539 C-25.45766602 164.11352539 -32.05766602 164.11352539 -38.85766602 164.11352539 C-37.89752253 159.72099731 -36.93728256 155.32849053 -35.97680664 150.93603516 C-35.65090528 149.44548729 -35.32505772 147.95492765 -34.99926758 146.46435547 C-34.52773369 144.30701562 -34.05599856 142.14971986 -33.58422852 139.99243164 C-33.44143463 139.33892227 -33.29864075 138.6854129 -33.15151978 138.01210022 C-32.23714393 133.8320259 -31.31251831 129.65431243 -30.38311768 125.47755432 C-29.64703613 122.16589277 -28.91535426 118.85326324 -28.18336487 115.54069519 C-27.32315736 111.64942124 -26.46115868 107.75854466 -25.59912109 103.86767578 C-25.14770161 101.82874009 -24.69685212 99.78967811 -24.24658203 97.75048828 C-22.10070372 88.03405793 -19.95472546 78.33046689 -17.48632812 68.68994141 C-16.35978213 64.07307155 -15.49846486 59.405478 -14.60766602 54.73852539 C-12.4273373 43.55543838 -9.90800335 32.47287111 -7.26879883 21.39135742 C-5.80769493 15.24758965 -4.41050903 9.11766982 -3.27636719 2.90429688 C-2.71227528 0.49169388 -2.49832804 0.15267743 0 0 Z " fill="#FBFBFB" transform="translate(111.857666015625,809.886474609375)"/>
<path d="M0 0 C8 18.40316206 8 18.40316206 8 25 C3.05 26.485 3.05 26.485 -2 28 C11.86 28.33 25.72 28.66 40 29 C40 36.59 40 44.18 40 52 C9.31 52 -21.38 52 -53 52 C-53 44.41 -53 36.82 -53 29 C-40.79 29 -28.58 29 -16 29 C-17.92659452 22.97133774 -17.92659452 22.97133774 -19.85913086 16.94458008 C-20.10026611 16.18556396 -20.34140137 15.42654785 -20.58984375 14.64453125 C-20.83597412 13.87471924 -21.08210449 13.10490723 -21.33569336 12.31176758 C-22.031111 9.89173463 -22.53879898 7.47441045 -23 5 C-15.51939302 1.9523453 -8.13953622 -0.18794666 0 0 Z " fill="#FDFDFD" transform="translate(133,1195)"/>
<path d="M0 0 C7.59 0 15.18 0 23 0 C23.04528019 9.5102323 23.08193304 19.02039237 23.10362434 28.53070831 C23.11403785 32.94727094 23.1281524 37.36375565 23.15087891 41.78027344 C23.17269433 46.04669454 23.18458691 50.31304095 23.18975449 54.57951355 C23.19343467 56.20290807 23.200621 57.82629875 23.21146011 59.44966125 C23.22609092 61.73280505 23.22797315 64.0156446 23.22705078 66.29882812 C23.231492 67.59566528 23.23593323 68.89250244 23.24050903 70.2286377 C22.86408656 76.13122489 22.0068373 82.21036758 17.76953125 86.6796875 C8.61081104 93.51334629 -3.2120422 92.43151831 -14 92 C-14.09796875 91.40574219 -14.1959375 90.81148437 -14.296875 90.19921875 C-15.51143127 83.46680769 -17.54449769 77.38430602 -20 71 C-13.73 70.67 -7.46 70.34 -1 70 C-0.67 46.9 -0.34 23.8 0 0 Z " fill="#FDFDFD" transform="translate(149,1595)"/>
<path d="M0 0 C5.62766561 15.59581799 7.57326984 32.20221187 9.75 48.5625 C9.87769775 49.51946777 10.00539551 50.47643555 10.13696289 51.46240234 C10.71549527 56.00691041 11.15283384 60.40734298 11 65 C5.76458121 67.42650884 0.68896245 68.94842472 -4.9375 70.1875 C-6.10635742 70.45336914 -6.10635742 70.45336914 -7.29882812 70.72460938 C-9.19787954 71.1556824 -11.09875878 71.57869008 -13 72 C-13.04487549 71.36723145 -13.08975098 70.73446289 -13.13598633 70.08251953 C-14.06701667 57.26143168 -15.34274118 44.67565609 -17.64746094 32.02978516 C-18.41458227 27.61299376 -18.97791159 23.16566307 -19.5703125 18.72265625 C-19.93688852 15.91521502 -19.93688852 15.91521502 -21 13 C-21.06740865 11.43881572 -21.08514456 9.8749748 -21.0625 8.3125 C-21.05347656 7.50425781 -21.04445313 6.69601562 -21.03515625 5.86328125 C-21.02355469 5.24839844 -21.01195313 4.63351562 -21 4 C-18.25124318 3.32781493 -15.50119274 2.66207565 -12.75 2 C-11.97269531 1.80921875 -11.19539063 1.6184375 -10.39453125 1.421875 C-9.64042969 1.24140625 -8.88632813 1.0609375 -8.109375 0.875 C-7.41811523 0.70742187 -6.72685547 0.53984375 -6.01464844 0.3671875 C-4 0 -4 0 0 0 Z " fill="#FAFAFA" transform="translate(110,1250)"/>
<path d="M0 0 C18.48 0 36.96 0 56 0 C57.125 12.375 57.125 12.375 57.0625 18.1875 C57.05347656 19.29480469 57.04445313 20.40210938 57.03515625 21.54296875 C57.02355469 22.35378906 57.01195312 23.16460937 57 24 C53.37 24 49.74 24 46 24 C46 16.41 46 8.82 46 1 C40.06 1 34.12 1 28 1 C28 22.78 28 44.56 28 67 C25.525 67.495 25.525 67.495 23 68 C23 49.52 23 31.04 23 12 C17.39 12 11.78 12 6 12 C6 31.8 6 51.6 6 72 C2.535 72.495 2.535 72.495 -1 73 C-2.17154293 70.71070947 -3.33738074 68.41881638 -4.5 66.125 C-4.83386719 65.47402344 -5.16773437 64.82304688 -5.51171875 64.15234375 C-8 59.2265625 -8 59.2265625 -8 57 C-5.36 57 -2.72 57 0 57 C0 38.19 0 19.38 0 0 Z " fill="#080808" transform="translate(82,465)"/>
<path d="M0 0 C7.26 0 14.52 0 22 0 C22 18.81 22 37.62 22 57 C14.74 57 7.48 57 0 57 C0 38.19 0 19.38 0 0 Z " fill="#F9F9F9" transform="translate(119,1602)"/>
<path d="M0 0 C1.051875 0.9075 2.10375 1.815 3.1875 2.75 C6.07778118 5.22906231 9.00859479 7.64313529 12 10 C12.19335938 9.36191406 12.38671875 8.72382812 12.5859375 8.06640625 C12.84632812 7.24011719 13.10671875 6.41382813 13.375 5.5625 C13.75785156 4.32693359 13.75785156 4.32693359 14.1484375 3.06640625 C15 1 15 1 17 0 C18.20578901 4.05729894 19.38638684 8.12150878 20.5625 12.1875 C21.07586914 13.91323242 21.07586914 13.91323242 21.59960938 15.67382812 C21.91865234 16.78564453 22.23769531 17.89746094 22.56640625 19.04296875 C23.01415405 20.57473755 23.01415405 20.57473755 23.47094727 22.13745117 C24.25335242 26.37081545 23.49923724 29.02323149 21.5625 32.8125 C21.046875 33.534375 20.53125 34.25625 20 35 C19.34 35 18.68 35 18 35 C17.79375 35.53625 17.5875 36.0725 17.375 36.625 C15.46749574 39.91978009 12.95180616 42.59363628 10 45 C9.34 45 8.68 45 8 45 C8 45.66 8 46.32 8 47 C4.11352846 50.48107995 0.59240504 52.97301008 -4.6875 53.0625 C-8.01263254 51.99594805 -10.95621698 50.70748804 -14 49 C-12.16455841 44.25844256 -10.07730653 39.63931791 -8 35 C-3.38 35 1.24 35 6 35 C6 29.39 6 23.78 6 18 C2.04 18 -1.92 18 -6 18 C-6 17.01 -6 16.02 -6 15 C-12.27 15 -18.54 15 -25 15 C-25 15.99 -25 16.98 -25 18 C-28.3 18 -31.6 18 -35 18 C-34.67 16.35 -34.34 14.7 -34 13 C-22.78 13 -11.56 13 0 13 C0 8.71 0 4.42 0 0 Z " fill="#040404" transform="translate(110,1082)"/>
<path d="M0 0 C14.19 0 28.38 0 43 0 C43 5.94 43 11.88 43 18 C28.81 18 14.62 18 0 18 C0 12.06 0 6.12 0 0 Z " fill="#FEFEFE" transform="translate(90,418)"/>
<path d="M0 0 C9.34291439 6.64784293 18.88328412 14.16956377 25 24 C20.42863598 30.28562552 14.71581557 35.14570585 8 39 C7.32195312 38.17757812 6.64390625 37.35515625 5.9453125 36.5078125 C-3.31937129 24.29314025 -3.31937129 24.29314025 -15 15 C-15 14.01 -15 13.02 -15 12 C-12.98828125 10.09765625 -12.98828125 10.09765625 -10.3125 8.0625 C-9.44238281 7.39347656 -8.57226562 6.72445313 -7.67578125 6.03515625 C-6.79277344 5.36355469 -5.90976563 4.69195312 -5 4 C-3.32996769 2.67088463 -1.6622746 1.33880495 0 0 Z " fill="#FAFAFA" transform="translate(113,22)"/>
<path d="M0 0 C10.89 0 21.78 0 33 0 C29.81833422 9.54499733 23.7472659 16.6579903 17 24 C15.2925002 22.71937515 13.62626404 21.38232443 12 20 C12 19.34 12 18.68 12 18 C11.01 17.67 10.02 17.34 9 17 C7.83325195 15.54125977 7.83325195 15.54125977 6.73828125 13.69140625 C6.34189453 13.02689453 5.94550781 12.36238281 5.53710938 11.67773438 C5.13298828 10.97970703 4.72886719 10.28167969 4.3125 9.5625 C3.89677734 8.86833984 3.48105469 8.17417969 3.05273438 7.45898438 C0 2.28086515 0 2.28086515 0 0 Z " fill="#080808" transform="translate(114,293)"/>
<path d="M0 0 C3.3 0 6.6 0 10 0 C10.8574904 8.03897252 11.11564317 15.9178273 11 24 C7.37 24 3.74 24 0 24 C0 16.08 0 8.16 0 0 Z " fill="#020202" transform="translate(128,465)"/>
<path d="M0 0 C3.96 0 7.92 0 12 0 C11.54759635 3.66748557 11.08827574 7.33388525 10.625 11 C10.49867188 12.02996094 10.37234375 13.05992188 10.2421875 14.12109375 C9.50805239 19.88405434 8.5482886 25.39923428 7 31 C6.34 31 5.68 31 5 31 C4.15262055 27.33643608 3.3246849 23.66873339 2.5 20 C2.26152344 18.97003906 2.02304688 17.94007812 1.77734375 16.87890625 C0.49131454 11.11014667 -0.28411906 5.90967641 0 0 Z " fill="#090909" transform="translate(139,1051)"/>
<path d="M0 0 C5.94 0 11.88 0 18 0 C18.020625 2.454375 18.04125 4.90875 18.0625 7.4375 C18.071604 8.21150146 18.08070801 8.98550293 18.09008789 9.78295898 C18.09724913 11.52221717 18.05024702 13.26145304 18 15 C17 16 17 16 14.27734375 16.09765625 C13.17519531 16.08605469 12.07304687 16.07445312 10.9375 16.0625 C9.28041016 16.04896484 9.28041016 16.04896484 7.58984375 16.03515625 C6.73519531 16.02355469 5.88054687 16.01195312 5 16 C5.66 15.34 6.32 14.68 7 14 C6.6843006 10.00337989 5.2103492 7.42751907 2.9375 4.1875 C1.968125 2.805625 0.99875 1.42375 0 0 Z " fill="#060606" transform="translate(123,1517)"/>
<path d="M0 0 C1.485 0.99 1.485 0.99 3 2 C3 2.66 3 3.32 3 4 C3.556875 4.20625 4.11375 4.4125 4.6875 4.625 C7.87043946 6.5175586 9.71639626 9.11544791 12 12 C12.66 12.66 13.32 13.32 14 14 C9.05 16.31 4.1 18.62 -1 21 C-1.08185457 13.87865236 -0.94096236 7.05721772 0 0 Z " fill="#0E0E0E" transform="translate(56,701)"/>
<path d="M0 0 C3.3 0 6.6 0 10 0 C10 4.62 10 9.24 10 14 C6.7 14 3.4 14 0 14 C0 9.38 0 4.76 0 0 Z " fill="#000000" transform="translate(68,1619)"/>
<path d="M0 0 C6.93 0 13.86 0 21 0 C21 3.96 21 7.92 21 12 C17.50646162 10.25323081 15.86054237 9.08594785 13.25 6.375 C12.32960938 5.42753906 12.32960938 5.42753906 11.390625 4.4609375 C10.93171875 3.97882812 10.4728125 3.49671875 10 3 C6.00499382 4.3697164 3.19990508 6.25722422 0 9 C0 6.03 0 3.06 0 0 Z " fill="#060606" transform="translate(56,685)"/>
<path d="M0 0 C3.3 0 6.6 0 10 0 C10 3.96 10 7.92 10 12 C6.7 12 3.4 12 0 12 C0 8.04 0 4.08 0 0 Z " fill="#070707" transform="translate(51,492)"/>
<path d="M0 0 C3.3 0 6.6 0 10 0 C10 3.96 10 7.92 10 12 C6.7 12 3.4 12 0 12 C0 8.04 0 4.08 0 0 Z " fill="#000000" transform="translate(51,462)"/>
<path d="M0 0 C3.3 0 6.6 0 10 0 C10 3.96 10 7.92 10 12 C6.7 12 3.4 12 0 12 C0 8.04 0 4.08 0 0 Z " fill="#050505" transform="translate(51,433)"/>
<path d="M0 0 C5.94 0 11.88 0 18 0 C16 5 16 5 14 7 C8.8578067 6.58862454 3.97283686 5.30864128 -1 4 C-0.67 2.68 -0.34 1.36 0 0 Z " fill="#212121" transform="translate(64,1116)"/>
<path d="M0 0 C11.22 0 22.44 0 34 0 C34 0.33 34 0.66 34 1 C28.67132017 2.10941367 23.53718145 2.11548069 18.125 2.0625 C17.24585937 2.05798828 16.36671875 2.05347656 15.4609375 2.04882812 C13.30726197 2.03712337 11.15362183 2.01919069 9 2 C9 2.99 9 3.98 9 5 C5.7 5 2.4 5 -1 5 C-0.67 3.35 -0.34 1.7 0 0 Z " fill="#404040" transform="translate(76,1095)"/>
<path d="M0 0 C9.9 0 19.8 0 30 0 C28.72981216 2.54037569 27.86633553 2.737841 25.25 3.75 C17.01651552 6.36735369 7.99064373 3.60160494 0 1 C0 0.67 0 0.34 0 0 Z " fill="#282828" transform="translate(42,522)"/>
<path d="M0 0 C4.43715855 -0.14483042 8.87371277 -0.23391752 13.3125 -0.3125 C14.57513672 -0.35439453 15.83777344 -0.39628906 17.13867188 -0.43945312 C18.34716797 -0.45556641 19.55566406 -0.47167969 20.80078125 -0.48828125 C21.91622314 -0.51446533 23.03166504 -0.54064941 24.1809082 -0.56762695 C27 0 27 0 28.6640625 2.48632812 C29.10492188 3.31583984 29.54578125 4.14535156 30 5 C32.75320725 5.54462351 34.9314081 5.78933956 37.6875 5.8125 C38.38939453 5.83763672 39.09128906 5.86277344 39.81445312 5.88867188 C41.54236781 5.94744448 43.2712443 5.9766097 45 6 C45 6.33 45 6.66 45 7 C39.06 7 33.12 7 27 7 C26.67 5.35 26.34 3.7 26 2 C25.39003174 2.00523682 24.78006348 2.01047363 24.15161133 2.01586914 C21.37191815 2.03673335 18.59224149 2.04969013 15.8125 2.0625 C14.85279297 2.07087891 13.89308594 2.07925781 12.90429688 2.08789062 C11.97294922 2.09111328 11.04160156 2.09433594 10.08203125 2.09765625 C9.22843018 2.10289307 8.3748291 2.10812988 7.49536133 2.11352539 C4.90753253 1.99579323 2.52338047 1.57107044 0 1 C0 0.67 0 0.34 0 0 Z " fill="#878787" transform="translate(136,1493)"/>
<path d="M0 0 C3.44607038 0.7869427 6.89724998 0.77847917 10.41601562 0.85742188 C11.18721741 0.87820297 11.95841919 0.89898407 12.75299072 0.9203949 C15.20828634 0.98560134 17.66368584 1.04464046 20.11914062 1.10351562 C21.78711997 1.14672836 23.45508894 1.19034353 25.12304688 1.234375 C29.20497259 1.34125298 33.28700244 1.44260129 37.36914062 1.54101562 C37.36914062 1.87101562 37.36914062 2.20101563 37.36914062 2.54101562 C21.85914063 2.54101562 6.34914062 2.54101562 -9.63085938 2.54101562 C-9.63085938 2.21101563 -9.63085938 1.88101562 -9.63085938 1.54101562 C-2.1030276 -0.59187004 -2.1030276 -0.59187004 0 0 Z " fill="#232323" transform="translate(135.630859375,1221.458984375)"/>
<path d="M0 0 C3.3 0 6.6 0 10 0 C10 1.65 10 3.3 10 5 C6.7 5 3.4 5 0 5 C0 3.35 0 1.7 0 0 Z " fill="#2D2D2D" transform="translate(147,1455)"/>
<path d="M0 0 C3.3 0 6.6 0 10 0 C10 1.65 10 3.3 10 5 C6.7 5 3.4 5 0 5 C0 3.35 0 1.7 0 0 Z " fill="#2A2A2A" transform="translate(116,1455)"/>
<path d="M0 0 C2.31 0 4.62 0 7 0 C7 2.31 7 4.62 7 7 C4.69 7 2.38 7 0 7 C0 4.69 0 2.38 0 0 Z " fill="#232323" transform="translate(67,1475)"/>
<path d="M0 0 C2.97 0 5.94 0 9 0 C9 1.65 9 3.3 9 5 C6.03 5 3.06 5 0 5 C0 3.35 0 1.7 0 0 Z " fill="#161616" transform="translate(80,1077)"/>
<path d="M0 0 C1.98 0 3.96 0 6 0 C6 2.31 6 4.62 6 7 C4.02 7 2.04 7 0 7 C0 4.69 0 2.38 0 0 Z " fill="#202020" transform="translate(46,1475)"/>
<path d="M0 0 C3.3 0 6.6 0 10 0 C10 1.32 10 2.64 10 4 C6.7 4 3.4 4 0 4 C0 2.68 0 1.36 0 0 Z " fill="#1B1B1B" transform="translate(116,1440)"/>
<path d="M0 0 C2.97 0 5.94 0 9 0 C9 1.32 9 2.64 9 4 C5.7 4 2.4 4 -1 4 C-0.67 2.68 -0.34 1.36 0 0 Z " fill="#040404" transform="translate(76,1096)"/>
<path d="M0 0 C1.98 0 3.96 0 6 0 C6 1.98 6 3.96 6 6 C4.02 6 2.04 6 0 6 C0 4.02 0 2.04 0 0 Z " fill="#050505" transform="translate(68,1454)"/>
<path d="M0 0 C1.98 0 3.96 0 6 0 C6 1.98 6 3.96 6 6 C4.02 6 2.04 6 0 6 C0 4.02 0 2.04 0 0 Z " fill="#0F0F0F" transform="translate(46,1454)"/>
<path d="M0 0 C2.97 0 5.94 0 9 0 C9 1.32 9 2.64 9 4 C6.03 4 3.06 4 0 4 C0 2.68 0 1.36 0 0 Z " fill="#101010" transform="translate(147,1440)"/>
<path d="M0 0 C2.97 0 5.94 0 9 0 C9 1.32 9 2.64 9 4 C6.03 4 3.06 4 0 4 C0 2.68 0 1.36 0 0 Z " fill="#131313" transform="translate(80,1043)"/>
<path d="M0 0 C2.97 0 5.94 0 9 0 C9 1.32 9 2.64 9 4 C6.03 4 3.06 4 0 4 C0 2.68 0 1.36 0 0 Z " fill="#131313" transform="translate(80,1024)"/>
<path d="M0 0 C2.64 0 5.28 0 8 0 C8 1.32 8 2.64 8 4 C5.36 4 2.72 4 0 4 C0 2.68 0 1.36 0 0 Z " fill="#000000" transform="translate(54,1078)"/>
<path d="M0 0 C2.64 0 5.28 0 8 0 C8 1.32 8 2.64 8 4 C5.36 4 2.72 4 0 4 C0 2.68 0 1.36 0 0 Z " fill="#101010" transform="translate(54,1043)"/>
<path d="M0 0 C2.64 0 5.28 0 8 0 C8 1.32 8 2.64 8 4 C5.36 4 2.72 4 0 4 C0 2.68 0 1.36 0 0 Z " fill="#101010" transform="translate(54,1024)"/>
<path d="M0 0 C1.98 0 3.96 0 6 0 C6 1.65 6 3.3 6 5 C4.02 5 2.04 5 0 5 C0 3.35 0 1.7 0 0 Z " fill="#1E1E1E" transform="translate(147,1472)"/>
<path d="M0 0 C0.33644531 0.48082031 0.67289063 0.96164062 1.01953125 1.45703125 C3.97048742 3.75609967 7.08708942 3.56983952 10.6875 3.6875 C11.7403418 3.73874023 11.7403418 3.73874023 12.81445312 3.79101562 C14.54241387 3.87329947 16.27118072 3.9383324 18 4 C18 4.33 18 4.66 18 5 C12.06 5 6.12 5 0 5 C0 3.35 0 1.7 0 0 Z " fill="#606060" transform="translate(163,1495)"/>
<path d="M0 0 C0.33 1.32 0.66 2.64 1 4 C-1.375 5.5625 -1.375 5.5625 -4 7 C-4.66 6.67 -5.32 6.34 -6 6 C-4.02 4.02 -2.04 2.04 0 0 Z " fill="#191919" transform="translate(76,707)"/>
</svg>
