<?xml version="1.0" encoding="UTF-8"?>
<svg version="1.1" xmlns="http://www.w3.org/2000/svg" width="259" height="1100">
<path d="M0 0 C9.03406517 1.0962389 17.74633707 4.38010034 26.109375 7.85546875 C30.78441823 9.70653317 35.53866839 11.33291474 40.28808594 12.98193359 C45.80963464 14.90481732 45.80963464 14.90481732 48 16 C49.67125722 15.00769103 51.33639922 14.00509214 53 13 C55.35044492 11.99736265 57.72273756 11.07292653 60.109375 10.16015625 C62.86232017 9.11563424 62.86232017 9.11563424 64.82792664 8.0254364 C71.28829009 4.72371064 76.86979848 4.47100789 84.03515625 4.609375 C85.15442001 4.61503479 86.27368378 4.62069458 87.42686462 4.62652588 C90.97252687 4.64876749 94.51714748 4.69894269 98.0625 4.75 C100.47850095 4.77008071 102.89451786 4.78832871 105.31054688 4.8046875 C111.20738165 4.84859216 117.10361637 4.91538151 123 5 C123 5.66 123 6.32 123 7 C124.69962891 7.32097656 124.69962891 7.32097656 126.43359375 7.6484375 C134.15036406 9.36327535 141.58576667 12.09040578 149.0625 14.625 C150.61118679 15.14625345 152.16001384 15.66709036 153.70898438 16.1875 C157.47429156 17.45353377 161.2376523 18.72519962 165 20 C164.60835017 25.70006047 163.80948071 30.21069368 161.1875 35.375 C158.37142325 41.13608231 156.06667489 46.93370135 154 53 C154.33 53.33 154.66 53.66 155 54 C155.10238775 55.54843163 155.13519445 57.10151613 155.14044189 58.65332031 C155.14615204 59.65980118 155.15186218 60.66628204 155.15774536 61.70326233 C155.15942215 63.37381935 155.15942215 63.37381935 155.16113281 65.078125 C155.16609772 66.24399643 155.17106262 67.40986786 155.17617798 68.61106873 C155.18831536 71.82019504 155.19575349 75.02928486 155.20018864 78.23843002 C155.20311786 80.24510734 155.20722261 82.25177893 155.21169281 84.25845337 C155.22538146 90.54129288 155.23503867 96.8241193 155.2388947 103.10697269 C155.24336442 110.34988004 155.2608557 117.59259763 155.2898953 124.83544731 C155.31157124 130.43726419 155.32160229 136.03902796 155.32293582 141.64088631 C155.32398061 144.98413282 155.33127728 148.32706023 155.34775543 151.67028809 C155.36486075 155.4092429 155.36292377 159.14774039 155.35644531 162.88671875 C155.3656601 163.98422958 155.37487488 165.08174042 155.3843689 166.21250916 C155.33579837 175.18712205 153.68492795 183.01121828 148.00390625 190.14453125 C133.17546254 203.87457172 110.54118334 201.15445046 92 201 C90.8033772 198.6067544 90.82585229 196.92217562 90.6875 194.25 C90.08377056 186.77761101 88.37204437 178.74408874 85 172 C84.8040625 172.825 84.608125 173.65 84.40625 174.5 C81.07651621 187.35966154 75.36579439 198.95130842 68 210 C63.71089124 209.52453298 61.89874632 207.07082309 59.0625 204 C51.92501956 196.55601698 42.46276588 187.83038716 32 186 C28.21095122 186.30174122 24.66357993 187.20172747 21 188.1875 C19.58074219 188.54038086 19.58074219 188.54038086 18.1328125 188.90039062 C15.41606794 189.57957676 12.70796063 190.286724 10 191 C3.68351187 192.61171179 -2.65314967 194.13772717 -9 195.625 C-9.94617188 195.85445312 -10.89234375 196.08390625 -11.8671875 196.3203125 C-17.39379177 197.60628136 -22.32659682 198.25423269 -28 198 C-30.5015005 188.47300875 -32.67428967 178.92775844 -34.56054688 169.25976562 C-35.88978782 162.46527906 -37.39616922 155.73608926 -39 149 C-35.37 148.67 -31.74 148.34 -28 148 C-29.30571789 142.22318752 -30.61776369 136.45168347 -32.08984375 130.71484375 C-32.27192383 130.00328125 -32.45400391 129.29171875 -32.64160156 128.55859375 C-33.00011153 127.16559975 -33.36261855 125.77362716 -33.72949219 124.3828125 C-34.57386125 121.09750908 -35 118.42545958 -35 115 C-34.34 115 -33.68 115 -33 115 C-33 103.45 -33 91.9 -33 80 C-32.01 80 -31.02 80 -30 80 C-32.9531784 73.24427772 -36.13725778 66.81782583 -39.9609375 60.5078125 C-41.22269951 57.46250721 -41.10784403 56.07847903 -40 53 C-38.20646183 50.88226543 -36.29135785 49.63668418 -34 48 C-33.34 48 -32.68 48 -32 48 C-32 47.34 -32 46.68 -32 46 C-30.50390625 44.5625 -30.50390625 44.5625 -28.5625 43 C-25.84811762 40.85474956 -25.84811762 40.85474956 -24 38 C-23.34 38 -22.68 38 -22 38 C-21.7525 37.46375 -21.505 36.9275 -21.25 36.375 C-19.69347463 33.4176018 -17.96564327 30.70275949 -16 28 C-15.34 28 -14.68 28 -14 28 C-13.773125 27.34 -13.54625 26.68 -13.3125 26 C-12.25062929 23.57286695 -11.20368929 21.73602258 -9.75 19.5625 C-6.56741145 14.63706533 -4.45697146 9.28073218 -2.234375 3.87890625 C-1 1 -1 1 0 0 Z " fill="#FAFAFA" transform="translate(67,234)"/>
<path d="M0 0 C45.79591837 5.89795918 45.79591837 5.89795918 52 9 C52.5330499 17.70648174 50.75145912 26.74562263 48 35 C62.19 35 76.38 35 91 35 C91 51.5 91 68 91 85 C86.71 85 82.42 85 78 85 C78.04898438 85.94746094 78.09796875 86.89492188 78.1484375 87.87109375 C78.1459619 92.79134761 76.87514486 97.33231707 75.625 102.0625 C75.40328125 102.93455078 75.1815625 103.80660156 74.953125 104.70507812 C72.89487806 112.70197286 70.14002757 120.17570942 66.92578125 127.78125 C65.87876941 131.42149371 65.88277977 133.39510272 67 137 C75.31950567 147.62150481 89.91196566 153.77701953 102 159 C101.68405796 162.04265916 101.01896781 162.98224639 98.7421875 165.11328125 C97.79601562 165.83902344 96.84984375 166.56476563 95.875 167.3125 C89.52579076 172.33414731 84.06340731 176.94250309 80 184 C79.34 184 78.68 184 78 184 C77.74347656 184.70898438 77.48695313 185.41796875 77.22265625 186.1484375 C75.90302751 189.22616588 74.28052186 191.83160987 72.4375 194.625 C70.56250053 197.47063329 69.0790587 199.76282389 68 203 C62.20343299 202.56252324 58.45675337 200.13941397 53.75 197 C53.00218262 196.50959229 52.25436523 196.01918457 51.48388672 195.51391602 C46.19857182 191.97836846 41.46643204 188.1932699 36.8828125 183.77734375 C34.92207573 181.82686832 34.92207573 181.82686832 32 180 C30.824375 180.99 30.824375 180.99 29.625 182 C27 184 27 184 25 184 C25 184.66 25 185.32 25 186 C22.59004706 187.64220655 20.19685209 189.15026599 17.6875 190.625 C16.99720703 191.04523438 16.30691406 191.46546875 15.59570312 191.8984375 C10.38447392 195 10.38447392 195 7 195 C7 195.66 7 196.32 7 197 C5.29347935 197.79556657 3.5846883 198.5862638 1.875 199.375 C0.92367187 199.81585937 -0.02765625 200.25671875 -1.0078125 200.7109375 C-3.96482762 201.98484741 -6.93261118 203.02608129 -10 204 C-10.36351563 203.18917969 -10.72703125 202.37835937 -11.1015625 201.54296875 C-14.44613672 194.17632963 -18.01796683 187.04622182 -22 180 C-22.66 180 -23.32 180 -24 180 C-24.433125 180.928125 -24.86625 181.85625 -25.3125 182.8125 C-26.71854217 185.46835744 -27.67030696 187.17676197 -30 189 C-30.66 189 -31.32 189 -32 189 C-32 189.66 -32 190.32 -32 191 C-48.59259356 198.59572061 -63.99162777 198.14877278 -82 198 C-82.10223877 197.23252441 -82.20447754 196.46504883 -82.30981445 195.67431641 C-83.74040198 185.30787418 -87.03862227 175.66502807 -91 166 C-91.99 166.33 -92.98 166.66 -94 167 C-95.72795352 167.06802967 -97.45835365 167.08495645 -99.1875 167.0625 C-100.08855469 167.05347656 -100.98960938 167.04445313 -101.91796875 167.03515625 C-102.94857422 167.01775391 -102.94857422 167.01775391 -104 167 C-106.22796905 151.06346846 -107.54538053 135.02121969 -109 119 C-104.545 118.01 -104.545 118.01 -100 117 C-101.26767077 115.70522938 -102.53926224 114.41429661 -103.8125 113.125 C-104.52019531 112.40570312 -105.22789063 111.68640625 -105.95703125 110.9453125 C-108.04399194 108.84641063 -108.04399194 108.84641063 -111 107 C-111 106.34 -111 105.68 -111 105 C-111.5775 104.731875 -112.155 104.46375 -112.75 104.1875 C-115.0325868 102.98280141 -116.9737942 101.59201885 -119 100 C-118.67 99.01 -118.34 98.02 -118 97 C-114.7 95.68 -111.4 94.36 -108 93 C-107.67 78.15 -107.34 63.3 -107 48 C-104.69 48 -102.38 48 -100 48 C-100 38.1 -100 28.2 -100 18 C-94.06 18 -88.12 18 -82 18 C-82 12.72 -82 7.44 -82 2 C-65.5 2 -49 2 -32 2 C-31.505 7.94 -31.505 7.94 -31 14 C-29.68 11.03 -28.36 8.06 -27 5 C-21.23352917 4.54624492 -16.51213964 6.19887801 -11.125 8 C-10.24585937 8.28617188 -9.36671875 8.57234375 -8.4609375 8.8671875 C-6.30460124 9.57034063 -4.15123899 10.28143394 -2 11 C-0.85185003 8.70370006 -0.69230191 6.92301914 -0.4375 4.375 C-0.31181641 3.14910156 -0.31181641 3.14910156 -0.18359375 1.8984375 C-0.12300781 1.27195312 -0.06242187 0.64546875 0 0 Z " fill="#FAFAFA" transform="translate(138,670)"/>
<path d="M0 0 C6.0190628 0.97329526 11.4244662 2.42141697 17.03515625 4.796875 C20.81328569 6.33002898 24.64914888 7.66232269 28.5 9 C35.51401211 11.44712282 42.50278448 13.94955179 49.26737976 17.03378296 C52.27313384 18.09657638 54.6181434 18.27651632 57.80004883 18.31884766 C59.51125664 18.34865219 59.51125664 18.34865219 61.2570343 18.37905884 C63.08853279 18.39638565 63.08853279 18.39638565 64.95703125 18.4140625 C66.21513107 18.43342865 67.4732309 18.4527948 68.76945496 18.4727478 C72.10174319 18.52233077 75.43392331 18.56363098 78.76635742 18.60089111 C82.17181199 18.64101623 85.57710372 18.6919646 88.98242188 18.7421875 C95.65488512 18.83980354 102.32722207 18.91942626 109 19 C109 34.84 109 50.68 109 67 C104.545 67.495 104.545 67.495 100 68 C100 68.66 100 69.32 100 70 C100.66 70 101.32 70 102 70 C105 73.46153846 105 73.46153846 105 76 C105.66 76 106.32 76 107 76 C107.33 77.32 107.66 78.64 108 80 C108.66 80 109.32 80 110 80 C109.84301758 81.83415222 109.84301758 81.83415222 109 84 C107.20460175 84.95169682 105.36782376 85.82648773 103.51171875 86.65356445 C99.62343329 89.03447878 98.23702258 90.14597767 97.00244141 94.59432983 C96.53353125 99.2405254 96.68579581 103.88239916 96.8125 108.54296875 C96.81820503 110.27540673 96.81860423 112.00786951 96.81396484 113.74031067 C96.81396484 118.29570725 96.87693134 122.84795913 96.95599365 127.40258789 C97.07085797 134.67169919 97.08597126 141.94179922 97.10848999 149.2116642 C97.12461915 151.73342311 97.16507801 154.25380554 97.21020508 156.77519226 C97.35769398 168.00920308 97.2797396 179.29662902 89.66015625 188.3203125 C79.23887481 198.86419726 64.38440973 200.03753802 50.21916199 200.18882751 C45.52068717 200.19981208 40.82325341 200.16729785 36.125 200.125 C34.16536919 200.11494396 32.20573335 200.10582278 30.24609375 200.09765625 C25.49716633 200.07758471 20.74895396 200.03840124 16 200 C14.68 192.74 13.36 185.48 12 178 C5.69834246 178.90023679 -0.46155823 180.01854243 -6.6875 181.3125 C-7.71939453 181.51294922 -8.75128906 181.71339844 -9.81445312 181.91992188 C-11.30428711 182.23219727 -11.30428711 182.23219727 -12.82421875 182.55078125 C-13.72229248 182.73294189 -14.62036621 182.91510254 -15.5456543 183.1027832 C-20.18204903 184.79767534 -22.40880765 188.33743653 -24.625 192.5625 C-25.99792032 195.15530812 -27.36759306 197.55138959 -29 200 C-29.66 200 -30.32 200 -31 200 C-31.226875 200.70125 -31.45375 201.4025 -31.6875 202.125 C-33.31656867 205.69343613 -35.40640731 208.06514511 -38 211 C-39.9375 210.6875 -39.9375 210.6875 -42 210 C-42.33 209.01 -42.66 208.02 -43 207 C-43.66 207 -44.32 207 -45 207 C-46.515625 205.390625 -46.515625 205.390625 -48.25 203.25 C-50.48076025 200.60301824 -52.49456498 198.45647025 -55.4375 196.625 C-56.7059375 195.820625 -56.7059375 195.820625 -58 195 C-58 194.34 -58 193.68 -58 193 C-58.9590625 192.62875 -58.9590625 192.62875 -59.9375 192.25 C-63.18392013 190.92493056 -66.38239124 189.51658852 -69.578125 188.07421875 C-71.22384169 187.34426376 -72.88082177 186.63929538 -74.546875 185.95703125 C-75.35640625 185.62058594 -76.1659375 185.28414062 -77 184.9375 C-77.7425 184.63714844 -78.485 184.33679687 -79.25 184.02734375 C-81 183 -81 183 -82 180 C-80.85546875 177.95703125 -80.85546875 177.95703125 -79.1875 175.8125 C-78.64480469 175.09707031 -78.10210937 174.38164063 -77.54296875 173.64453125 C-77.03378906 173.10183594 -76.52460937 172.55914063 -76 172 C-75.34 172 -74.68 172 -74 172 C-73.505 170.02 -73.505 170.02 -73 168 C-72.34 168 -71.68 168 -71 168 C-70.7525 167.319375 -70.505 166.63875 -70.25 165.9375 C-69 163 -69 163 -67.0625 159.875 C-58.9575917 145.83452689 -59.50910454 126.64633028 -59.4375 110.875 C-59.42857224 109.59538391 -59.42857224 109.59538391 -59.41946411 108.28991699 C-59.38158155 94.42002291 -61.11351553 82.70464273 -67 70 C-67.33 69.01 -67.66 68.02 -68 67 C-71.3 67 -74.6 67 -78 67 C-78 51.16 -78 35.32 -78 19 C-73.51019531 18.99742187 -69.02039063 18.99484375 -64.39453125 18.9921875 C-60.80921319 18.97336744 -57.22404751 18.94856096 -53.63880157 18.91970825 C-49.85693319 18.89091368 -46.07568682 18.87261173 -42.29370117 18.87988281 C-38.64925858 18.88648189 -35.0060416 18.8639616 -31.36185265 18.82144547 C-29.9732773 18.81032399 -28.58457751 18.80960572 -27.19599342 18.81957626 C-19.78705663 19.16350425 -19.78705663 19.16350425 -13.08016968 16.68121338 C-11.53120746 14.92701241 -11.53120746 14.92701241 -10 12 C-9.319375 11.34 -8.63875 10.68 -7.9375 10 C-5.80367496 7.92360747 -5.80367496 7.92360747 -3.875 4.75 C-3.25625 3.8425 -2.6375 2.935 -2 2 C-1.34 2 -0.68 2 0 2 C0 1.34 0 0.68 0 0 Z " fill="#FAFAFA" transform="translate(114,884)"/>
<path d="M0 0 C6.60337875 0.25895603 11.47550103 2.39944929 17.36328125 5.33203125 C26.14390323 9.47133396 33.79363073 11.59450016 43.5300293 11.54589844 C44.62403549 11.55623611 45.71804169 11.56657379 46.84519958 11.57722473 C50.42169294 11.60646332 53.99761571 11.60814793 57.57421875 11.609375 C60.06957567 11.62436937 62.56492272 11.64109914 65.06025696 11.65948486 C71.59826128 11.70302891 78.13613173 11.72312893 84.67425537 11.73822021 C92.53479983 11.75877915 100.39522139 11.81370759 108.25563812 11.86116028 C120.17046355 11.92982594 132.08486854 11.96139598 144 12 C144 28.5 144 45 144 62 C145.65 62.33 147.3 62.66 149 63 C149 79.5 149 96 149 113 C141.08 113 133.16 113 125 113 C125.03480469 116.93808594 125.06960937 120.87617188 125.10546875 124.93359375 C125.12889436 128.76618729 125.14709391 132.59877273 125.16479492 136.43139648 C125.1781397 139.08619776 125.20028011 141.74050853 125.22631836 144.39526367 C125.26288673 148.22060252 125.27976928 152.04561142 125.29296875 155.87109375 C125.30845261 157.04957382 125.32393646 158.22805389 125.33988953 159.44224548 C125.34126086 166.22339281 124.63548734 171.74400987 122 178 C121.72024826 178.72146713 121.44049652 179.44293427 121.15226746 180.18626404 C118.24769735 187.43112484 112.19439438 191.37478181 105.4375 194.8125 C89.00649904 200.48866397 71.16970346 199.13978341 54 199 C52.54130358 194.19742746 51.5431036 189.52956551 50.75 184.5625 C48.599455 172.32203971 43.91685379 161.20248893 38.1015625 150.2578125 C37 148 37 148 37 146 C54.82 146.495 54.82 146.495 73 147 C73 135.78 73 124.56 73 113 C59.14 113 45.28 113 31 113 C31 141.38 31 169.76 31 199 C14.17 199 -2.66 199 -20 199 C-20 182.83 -20 166.66 -20 150 C-21.32 149.67 -22.64 149.34 -24 149 C-25.47631836 147.34521484 -25.47631836 147.34521484 -26.83984375 145.2109375 C-27.34580078 144.43363281 -27.85175781 143.65632812 -28.37304688 142.85546875 C-28.88931641 142.03691406 -29.40558594 141.21835938 -29.9375 140.375 C-30.9663863 138.77796139 -31.99632166 137.18159811 -33.02734375 135.5859375 C-33.52218262 134.81217773 -34.01702148 134.03841797 -34.52685547 133.24121094 C-35.91869687 131.12369286 -37.37731359 129.07962062 -38.87890625 127.0390625 C-41 124 -41 124 -41 122 C-42.32 121.34 -43.64 120.68 -45 120 C-45 119.34 -45 118.68 -45 118 C-45.9590625 117.5978125 -45.9590625 117.5978125 -46.9375 117.1875 C-49 116 -49 116 -50 113 C-50.639375 112.71125 -51.27875 112.4225 -51.9375 112.125 C-54.71680854 110.60901352 -55.07115981 108.94132727 -56 106 C-51.51841379 102.6099176 -47.00172839 99.27817509 -42.4375 96 C-38.09469754 92.85479487 -34.00656206 89.5613885 -30 86 C-37.53929426 71.44508295 -37.53929426 71.44508295 -48 59 C-48 58.34 -48 57.68 -48 57 C-48.66 57 -49.32 57 -50 57 C-52.1875 54.6875 -52.1875 54.6875 -54 52 C-53.67 51.01 -53.34 50.02 -53 49 C-52.34 49 -51.68 49 -51 49 C-51 48.34 -51 47.68 -51 47 C-50.01 47 -49.02 47 -48 47 C-48 46.34 -48 45.68 -48 45 C-45.525 44.505 -45.525 44.505 -43 44 C-43 43.34 -43 42.68 -43 42 C-42.01 42 -41.02 42 -40 42 C-40 41.34 -40 40.68 -40 40 C-35.61538462 37 -35.61538462 37 -33 37 C-33 36.34 -33 35.68 -33 35 C-31.171875 33.34375 -31.171875 33.34375 -28.75 31.5 C-27.96109375 30.8915625 -27.1721875 30.283125 -26.359375 29.65625 C-24.28862321 28.20260967 -22.2941068 27.05234257 -20 26 C-20 25.34 -20 24.68 -20 24 C-19.34 24 -18.68 24 -18 24 C-17.505 22.515 -17.505 22.515 -17 21 C-16.34 21 -15.68 21 -15 21 C-14.62294922 20.15888672 -14.62294922 20.15888672 -14.23828125 19.30078125 C-12.81178021 16.65027931 -11.1007898 14.51051917 -9.1875 12.1875 C-5.96081817 8.22026824 -2.91965097 4.19699827 0 0 Z " fill="#070707" transform="translate(78,19)"/>
<path d="M0 0 C9.03406517 1.0962389 17.74633707 4.38010034 26.109375 7.85546875 C30.78441823 9.70653317 35.53866839 11.33291474 40.28808594 12.98193359 C45.80963464 14.90481732 45.80963464 14.90481732 48 16 C49.67125722 15.00769103 51.33639922 14.00509214 53 13 C55.35044492 11.99736265 57.72273756 11.07292653 60.109375 10.16015625 C62.86232017 9.11563424 62.86232017 9.11563424 64.82792664 8.0254364 C71.28829009 4.72371064 76.86979848 4.47100789 84.03515625 4.609375 C85.15442001 4.61503479 86.27368378 4.62069458 87.42686462 4.62652588 C90.97252687 4.64876749 94.51714748 4.69894269 98.0625 4.75 C100.47850095 4.77008071 102.89451786 4.78832871 105.31054688 4.8046875 C111.20738165 4.84859216 117.10361637 4.91538151 123 5 C123 5.66 123 6.32 123 7 C124.69962891 7.32097656 124.69962891 7.32097656 126.43359375 7.6484375 C134.15036406 9.36327535 141.58576667 12.09040578 149.0625 14.625 C150.61118679 15.14625345 152.16001384 15.66709036 153.70898438 16.1875 C157.47429156 17.45353377 161.2376523 18.72519962 165 20 C164.60835017 25.70006047 163.80948071 30.21069368 161.1875 35.375 C158.37142325 41.13608231 156.06667489 46.93370135 154 53 C154.33 53.33 154.66 53.66 155 54 C155.10238775 55.54843163 155.13519445 57.10151613 155.14044189 58.65332031 C155.14615204 59.65980118 155.15186218 60.66628204 155.15774536 61.70326233 C155.15942215 63.37381935 155.15942215 63.37381935 155.16113281 65.078125 C155.16609772 66.24399643 155.17106262 67.40986786 155.17617798 68.61106873 C155.18831536 71.82019504 155.19575349 75.02928486 155.20018864 78.23843002 C155.20311786 80.24510734 155.20722261 82.25177893 155.21169281 84.25845337 C155.22538146 90.54129288 155.23503867 96.8241193 155.2388947 103.10697269 C155.24336442 110.34988004 155.2608557 117.59259763 155.2898953 124.83544731 C155.31157124 130.43726419 155.32160229 136.03902796 155.32293582 141.64088631 C155.32398061 144.98413282 155.33127728 148.32706023 155.34775543 151.67028809 C155.36486075 155.4092429 155.36292377 159.14774039 155.35644531 162.88671875 C155.3656601 163.98422958 155.37487488 165.08174042 155.3843689 166.21250916 C155.33579837 175.18712205 153.68492795 183.01121828 148.00390625 190.14453125 C133.17546254 203.87457172 110.54118334 201.15445046 92 201 C90.8033772 198.6067544 90.82585229 196.92217562 90.6875 194.25 C90.08377056 186.77761101 88.37204437 178.74408874 85 172 C84.8040625 172.825 84.608125 173.65 84.40625 174.5 C81.07651621 187.35966154 75.36579439 198.95130842 68 210 C63.71089124 209.52453298 61.89874632 207.07082309 59.0625 204 C51.92501956 196.55601698 42.46276588 187.83038716 32 186 C28.21095122 186.30174122 24.66357993 187.20172747 21 188.1875 C19.58074219 188.54038086 19.58074219 188.54038086 18.1328125 188.90039062 C15.41606794 189.57957676 12.70796063 190.286724 10 191 C3.68351187 192.61171179 -2.65314967 194.13772717 -9 195.625 C-9.94617188 195.85445312 -10.89234375 196.08390625 -11.8671875 196.3203125 C-17.39379177 197.60628136 -22.32659682 198.25423269 -28 198 C-30.5015005 188.47300875 -32.67428967 178.92775844 -34.56054688 169.25976562 C-35.88978782 162.46527906 -37.39616922 155.73608926 -39 149 C-35.37 148.67 -31.74 148.34 -28 148 C-29.30571789 142.22318752 -30.61776369 136.45168347 -32.08984375 130.71484375 C-32.27192383 130.00328125 -32.45400391 129.29171875 -32.64160156 128.55859375 C-33.00011153 127.16559975 -33.36261855 125.77362716 -33.72949219 124.3828125 C-34.57386125 121.09750908 -35 118.42545958 -35 115 C-34.34 115 -33.68 115 -33 115 C-33 103.45 -33 91.9 -33 80 C-32.01 80 -31.02 80 -30 80 C-32.9531784 73.24427772 -36.13725778 66.81782583 -39.9609375 60.5078125 C-41.22269951 57.46250721 -41.10784403 56.07847903 -40 53 C-38.20646183 50.88226543 -36.29135785 49.63668418 -34 48 C-33.34 48 -32.68 48 -32 48 C-32 47.34 -32 46.68 -32 46 C-30.50390625 44.5625 -30.50390625 44.5625 -28.5625 43 C-25.84811762 40.85474956 -25.84811762 40.85474956 -24 38 C-23.34 38 -22.68 38 -22 38 C-21.7525 37.46375 -21.505 36.9275 -21.25 36.375 C-19.69347463 33.4176018 -17.96564327 30.70275949 -16 28 C-15.34 28 -14.68 28 -14 28 C-13.773125 27.34 -13.54625 26.68 -13.3125 26 C-12.25062929 23.57286695 -11.20368929 21.73602258 -9.75 19.5625 C-6.56741145 14.63706533 -4.45697146 9.28073218 -2.234375 3.87890625 C-1 1 -1 1 0 0 Z M7 15 C6.47212891 15.99966797 6.47212891 15.99966797 5.93359375 17.01953125 C0.7007846 26.78835251 -4.81703774 35.85795023 -12 44.3125 C-12.72920654 45.17452026 -12.72920654 45.17452026 -13.47314453 46.05395508 C-16.99959893 50.11014196 -20.83826556 53.60396929 -25 57 C-24.12617144 60.77163574 -22.70294293 64.08444148 -21.125 67.625 C-18.62898427 73.30779971 -16.57728418 78.99525147 -15 85 C-14.2575 84.835 -13.515 84.67 -12.75 84.5 C-7.49590599 83.79945413 -2.29248251 83.92292501 3 84 C3 86.97 3 89.94 3 93 C-4.59 93 -12.18 93 -20 93 C-20 100.59 -20 108.18 -20 116 C-12.41 116 -4.82 116 3 116 C2.67 122.93 2.34 129.86 2 137 C-0.0883233 130.73503009 -1.42521361 126.32265026 -2 120 C-8.05609309 120.55055392 -13.29259607 121.93775591 -19 124 C-18.33951685 130.77864289 -17.25308378 137.38230956 -15.9375 144.0625 C-15.75123047 145.02349609 -15.56496094 145.98449219 -15.37304688 146.97460938 C-14.91854438 149.31704531 -14.46081098 151.65879844 -14 154 C-10.0348504 153.34698575 -6.0779527 152.6606011 -2.125 151.9375 C-0.67480469 151.67259766 -0.67480469 151.67259766 0.8046875 151.40234375 C1.52914062 151.26957031 2.25359375 151.13679687 3 151 C2.67 152.65 2.34 154.3 2 156 C-6.415 156.99 -6.415 156.99 -15 158 C-15 158.66 -15 159.32 -15 160 C-17.31 160 -19.62 160 -22 160 C-21.48400816 167.8822202 -19.9078547 175.34458305 -18 183 C-10.77601281 182.35878981 -3.90611675 180.97043224 3.1484375 179.3125 C4.84995468 178.91865112 4.84995468 178.91865112 6.58584595 178.5168457 C8.9681055 177.96446862 11.34980217 177.40965893 13.73095703 176.85253906 C17.38325418 175.9980689 21.03714865 175.15073024 24.69140625 174.3046875 C27.01051201 173.76603531 29.32952575 173.2269868 31.6484375 172.6875 C32.74215668 172.43331299 33.83587585 172.17912598 34.96273804 171.91723633 C35.97454132 171.68029053 36.9863446 171.44334473 38.02880859 171.19921875 C39.3637587 170.88730591 39.3637587 170.88730591 40.72567749 170.5690918 C43.14059411 169.99562729 43.14059411 169.99562729 46 169 C45.34 171.31 44.68 173.62 44 176 C46.74288667 177.98917433 49.4954456 179.96452242 52.25 181.9375 C53.02730469 182.50146484 53.80460937 183.06542969 54.60546875 183.64648438 C55.73662109 184.45375977 55.73662109 184.45375977 56.890625 185.27734375 C57.58188477 185.77484131 58.27314453 186.27233887 58.98535156 186.78491211 C61.0398776 188.02405124 62.63029963 188.66089625 65 189 C68.18206298 187.40896851 68.33293929 184.73741813 69.4375 181.4375 C73.34388312 169.48168759 75.64644313 157.64155451 75 145 C75.66 145 76.32 145 77 145 C77.99 149.455 77.99 149.455 79 154 C80.33224609 153.65388672 80.33224609 153.65388672 81.69140625 153.30078125 C93.72959106 150.22746061 105.84998652 147.59143644 118 145 C118 151.27 118 157.54 118 164 C111.07 164 104.14 164 97 164 C97.99 166.97 98.98 169.94 100 173 C100.58282971 175.49072526 101.12857989 177.99062361 101.625 180.5 C102.12451923 184.56973083 102.12451923 184.56973083 104 188 C114.43456424 188.88673174 127.80404448 188.77527147 136.484375 182.359375 C140.66191408 178.61251005 142.79988733 175.4672962 143.12304783 169.86798477 C143.12166514 168.71205637 143.12166514 168.71205637 143.12025452 167.53277588 C143.12162918 166.64379105 143.12300385 165.75480621 143.12442017 164.83888245 C143.12082489 163.871436 143.11722961 162.90398956 143.11352539 161.90722656 C143.11374443 160.37016304 143.11374443 160.37016304 143.1139679 158.80204773 C143.11327121 155.41488529 143.10549015 152.02777783 143.09765625 148.640625 C143.09579121 146.29221629 143.09436771 143.94380719 143.09336853 141.59539795 C143.08955016 135.41403123 143.07972564 129.232688 143.06866455 123.05133057 C143.05843584 116.74385903 143.05386778 110.43638369 143.04882812 104.12890625 C143.0381028 91.75259218 143.02051146 79.37630172 143 67 C132.11 67 121.22 67 110 67 C110 50.5 110 34 110 17 C101.75 17 93.5 17 85 17 C85 33.5 85 50 85 67 C74.11 67 63.22 67 52 67 C52 85.48 52 103.96 52 123 C50.02 123 48.04 123 46 123 C46 122.34 46 121.68 46 121 C44.43883181 120.66048381 42.87598662 120.32867456 41.3125 120 C40.00732422 119.7215625 40.00732422 119.7215625 38.67578125 119.4375 C36.06287036 119.01027953 33.64186962 118.92383799 31 119 C30.94392578 119.96486328 30.94392578 119.96486328 30.88671875 120.94921875 C30.31965729 128.74353415 28.80759277 135.16709798 27 143 C26.67 133.76 26.34 124.52 26 115 C31.94 115 37.88 115 44 115 C44 107.74 44 100.48 44 93 C38.06 93 32.12 93 26 93 C26 90.03 26 87.06 26 84 C29.3 84 32.6 84 36 84 C36 79.05 36 74.1 36 69 C37.65 69.66 39.3 70.32 41 71 C41.60328125 70.19175781 42.2065625 69.38351562 42.828125 68.55078125 C43.6353731 67.47132158 44.44266722 66.39189633 45.25 65.3125 C46.03890625 64.25675781 46.8278125 63.20101562 47.640625 62.11328125 C50 59 50 59 52.359375 56.35546875 C54.16983754 54.20586057 54.16983754 54.20586057 54.08203125 52.01171875 C52.48762218 49.04738419 50.17893426 47.01023017 47.6875 44.8125 C46.89412231 44.09501587 46.89412231 44.09501587 46.0847168 43.36303711 C41.40781322 39.20218662 36.44008573 35.53884029 31.30078125 31.97265625 C28.92217506 29.93327404 28.29454838 29.06193316 28 26 C28.66 26 29.32 26 30 26 C29.8181045 24.04520452 29.8181045 24.04520452 29 22 C27.16909716 20.80654096 27.16909716 20.80654096 24.8515625 20.078125 C24.01109375 19.77519531 23.170625 19.47226563 22.3046875 19.16015625 C21.42039063 18.85980469 20.53609375 18.55945313 19.625 18.25 C18.31015625 17.77626953 18.31015625 17.77626953 16.96875 17.29296875 C12.10221767 15.53236663 12.10221767 15.53236663 7 15 Z " fill="#090909" transform="translate(67,234)"/>
<path d="M0 0 C45.79591837 5.89795918 45.79591837 5.89795918 52 9 C52.5330499 17.70648174 50.75145912 26.74562263 48 35 C62.19 35 76.38 35 91 35 C91 51.5 91 68 91 85 C86.71 85 82.42 85 78 85 C78.04898438 85.94746094 78.09796875 86.89492188 78.1484375 87.87109375 C78.1459619 92.79134761 76.87514486 97.33231707 75.625 102.0625 C75.40328125 102.93455078 75.1815625 103.80660156 74.953125 104.70507812 C72.89487806 112.70197286 70.14002757 120.17570942 66.92578125 127.78125 C65.87876941 131.42149371 65.88277977 133.39510272 67 137 C75.31950567 147.62150481 89.91196566 153.77701953 102 159 C101.68405796 162.04265916 101.01896781 162.98224639 98.7421875 165.11328125 C97.79601562 165.83902344 96.84984375 166.56476563 95.875 167.3125 C89.52579076 172.33414731 84.06340731 176.94250309 80 184 C79.34 184 78.68 184 78 184 C77.74347656 184.70898438 77.48695313 185.41796875 77.22265625 186.1484375 C75.90302751 189.22616588 74.28052186 191.83160987 72.4375 194.625 C70.56250053 197.47063329 69.0790587 199.76282389 68 203 C62.20343299 202.56252324 58.45675337 200.13941397 53.75 197 C53.00218262 196.50959229 52.25436523 196.01918457 51.48388672 195.51391602 C46.19857182 191.97836846 41.46643204 188.1932699 36.8828125 183.77734375 C34.92207573 181.82686832 34.92207573 181.82686832 32 180 C30.824375 180.99 30.824375 180.99 29.625 182 C27 184 27 184 25 184 C25 184.66 25 185.32 25 186 C22.59004706 187.64220655 20.19685209 189.15026599 17.6875 190.625 C16.99720703 191.04523438 16.30691406 191.46546875 15.59570312 191.8984375 C10.38447392 195 10.38447392 195 7 195 C7 195.66 7 196.32 7 197 C5.29347935 197.79556657 3.5846883 198.5862638 1.875 199.375 C0.92367187 199.81585937 -0.02765625 200.25671875 -1.0078125 200.7109375 C-3.96482762 201.98484741 -6.93261118 203.02608129 -10 204 C-10.36351563 203.18917969 -10.72703125 202.37835937 -11.1015625 201.54296875 C-14.44613672 194.17632963 -18.01796683 187.04622182 -22 180 C-22.66 180 -23.32 180 -24 180 C-24.433125 180.928125 -24.86625 181.85625 -25.3125 182.8125 C-26.71854217 185.46835744 -27.67030696 187.17676197 -30 189 C-30.66 189 -31.32 189 -32 189 C-32 189.66 -32 190.32 -32 191 C-48.59259356 198.59572061 -63.99162777 198.14877278 -82 198 C-82.10223877 197.23252441 -82.20447754 196.46504883 -82.30981445 195.67431641 C-83.74040198 185.30787418 -87.03862227 175.66502807 -91 166 C-91.99 166.33 -92.98 166.66 -94 167 C-95.72795352 167.06802967 -97.45835365 167.08495645 -99.1875 167.0625 C-100.08855469 167.05347656 -100.98960938 167.04445313 -101.91796875 167.03515625 C-102.94857422 167.01775391 -102.94857422 167.01775391 -104 167 C-106.22796905 151.06346846 -107.54538053 135.02121969 -109 119 C-104.545 118.01 -104.545 118.01 -100 117 C-101.26767077 115.70522938 -102.53926224 114.41429661 -103.8125 113.125 C-104.52019531 112.40570312 -105.22789063 111.68640625 -105.95703125 110.9453125 C-108.04399194 108.84641063 -108.04399194 108.84641063 -111 107 C-111 106.34 -111 105.68 -111 105 C-111.5775 104.731875 -112.155 104.46375 -112.75 104.1875 C-115.0325868 102.98280141 -116.9737942 101.59201885 -119 100 C-118.67 99.01 -118.34 98.02 -118 97 C-114.7 95.68 -111.4 94.36 -108 93 C-107.67 78.15 -107.34 63.3 -107 48 C-104.69 48 -102.38 48 -100 48 C-100 38.1 -100 28.2 -100 18 C-94.06 18 -88.12 18 -82 18 C-82 12.72 -82 7.44 -82 2 C-65.5 2 -49 2 -32 2 C-31.505 7.94 -31.505 7.94 -31 14 C-29.68 11.03 -28.36 8.06 -27 5 C-21.23352917 4.54624492 -16.51213964 6.19887801 -11.125 8 C-10.24585937 8.28617188 -9.36671875 8.57234375 -8.4609375 8.8671875 C-6.30460124 9.57034063 -4.15123899 10.28143394 -2 11 C-0.85185003 8.70370006 -0.69230191 6.92301914 -0.4375 4.375 C-0.31181641 3.14910156 -0.31181641 3.14910156 -0.18359375 1.8984375 C-0.12300781 1.27195312 -0.06242187 0.64546875 0 0 Z M-69 15 C-69 19.62 -69 24.24 -69 29 C-74.94 29 -80.88 29 -87 29 C-87 36.59 -87 44.18 -87 52 C-80.73 52 -74.46 52 -68 52 C-68 54.97 -68 57.94 -68 61 C-76.58 61 -85.16 61 -94 61 C-94 68.26 -94 75.52 -94 83 C-81.13 83.495 -81.13 83.495 -68 84 C-86.91891892 97.24324324 -86.91891892 97.24324324 -95 99 C-95 104.05429871 -93.75191288 104.76262422 -90.3125 108.3125 C-86.48773232 112.33626353 -83.08150007 116.3777499 -80 121 C-76.54330055 119.33412075 -73.24897759 117.43682456 -69.9375 115.5 C-68.89464844 114.8915625 -67.85179687 114.283125 -66.77734375 113.65625 C-64.81993948 112.48896532 -62.8962689 111.26417927 -61 110 C-57.86328125 109.5859375 -57.86328125 109.5859375 -54.3125 109.375 C-53.13300781 109.30023437 -51.95351562 109.22546875 -50.73828125 109.1484375 C-49.83464844 109.09945312 -48.93101563 109.05046875 -48 109 C-48 109.66 -48 110.32 -48 111 C-48.58265625 111.2784375 -49.1653125 111.556875 -49.765625 111.84375 C-53.40102447 113.72500567 -56.54851424 115.66381828 -59 119 C-59.58609402 122.4146347 -59.42672781 125.57263057 -59 129 C-60.38445312 128.98259766 -60.38445312 128.98259766 -61.796875 128.96484375 C-72.89470559 128.8880801 -83.92178423 129.36436467 -95 130 C-94.69401322 133.45894228 -94.37910772 136.917015 -94.0625 140.375 C-93.97548828 141.35984375 -93.88847656 142.3446875 -93.79882812 143.359375 C-93.66831055 144.77089844 -93.66831055 144.77089844 -93.53515625 146.2109375 C-93.456604 147.08024902 -93.37805176 147.94956055 -93.29711914 148.84521484 C-93.11122166 151.04492916 -93.11122166 151.04492916 -92 153 C-80.95687814 153.14659011 -70.01889539 152.7068249 -59 152 C-59 155.63 -59 159.26 -59 163 C-64.94 163 -70.88 163 -77 163 C-76.19918097 167.00409517 -75.22306788 170.68195742 -74 174.5625 C-72.91091071 178.02596412 -71.82985381 181.46447701 -71 185 C-58.20344429 185.54582465 -46.4047707 185.56767076 -36.20703125 176.66015625 C-33.73065733 173.25414034 -33.87733168 168.99493607 -33.90234375 164.91796875 C-33.90556641 163.98662109 -33.90878906 163.05527344 -33.91210938 162.09570312 C-33.92048828 161.13599609 -33.92886719 160.17628906 -33.9375 159.1875 C-33.94201172 158.20845703 -33.94652344 157.22941406 -33.95117188 156.22070312 C-33.96291316 153.81373889 -33.97933581 151.40690143 -34 149 C-33.06317383 148.96241577 -33.06317383 148.96241577 -32.10742188 148.92407227 C-29.23812877 148.80699619 -26.36907575 148.68478249 -23.5 148.5625 C-22.51773438 148.52318359 -21.53546875 148.48386719 -20.5234375 148.44335938 C-19.07324219 148.38051758 -19.07324219 148.38051758 -17.59375 148.31640625 C-16.27407227 148.26141968 -16.27407227 148.26141968 -14.92773438 148.20532227 C-11.27204425 147.9489484 -7.63636983 147.45454623 -4 147 C-4 139.41 -4 131.82 -4 124 C-14.24483801 123.78656587 -23.88343388 124.52849947 -34 126 C-32.22013972 122.81019016 -30.64096354 120.42326853 -27.75 118.1875 C-23.12876956 114.40472065 -19.44920872 109.87663295 -15.58984375 105.34375 C-14.3125 103.9375 -14.3125 103.9375 -12 102 C-7.91230714 102.2109777 -5.61931527 104.88195548 -2.75 107.5625 C-1.85796875 108.38878906 -0.9659375 109.21507812 -0.046875 110.06640625 C0.96632812 111.02353516 0.96632812 111.02353516 2 112 C5.76854223 110.74381926 6.07958456 109.33985294 8 106 C8.66 105.67 9.32 105.34 10 105 C10.1134375 105.97195313 10.226875 106.94390625 10.34375 107.9453125 C10.97875996 112.38367436 12.20705303 116.58980433 13.5 120.875 C13.72558594 121.64585937 13.95117188 122.41671875 14.18359375 123.2109375 C15.04078678 126.89829072 15.04078678 126.89829072 17 130 C17.3976529 133.59417042 17.35492423 135.44532372 15.3828125 138.52734375 C6.64992116 147.84947862 -4.71838098 156.90612699 -17 161 C-16.385185 165.19949907 -13.99253668 168.36416513 -11.6875 171.8125 C-8.61321798 176.45684368 -5.72046056 181.13803273 -3 186 C2.73344972 184.27996508 7.48247555 181.63548959 12.5 178.4375 C13.45350342 177.83723999 13.45350342 177.83723999 14.42626953 177.22485352 C15.98987559 176.20750863 17.50060457 175.10980532 19 174 C19 173.34 19 172.68 19 172 C20.65 171.34 22.3 170.68 24 170 C24 169.34 24 168.68 24 168 C24.5775 167.7525 25.155 167.505 25.75 167.25 C28.14236467 166.07669729 28.14236467 166.07669729 30 163.8125 C30.66 163.214375 31.32 162.61625 32 162 C34.56532055 162.22375007 35.735847 162.74805845 37.60546875 164.53125 C38.12753906 165.1809375 38.64960938 165.830625 39.1875 166.5 C41.8915076 169.7273639 44.67165722 172.81001674 47.625 175.8125 C48.33914062 176.54082031 49.05328125 177.26914062 49.7890625 178.01953125 C53.86445895 181.72268382 53.86445895 181.72268382 59 183 C59 183.66 59 184.32 59 185 C61.38657814 184.90835744 61.38657814 184.90835744 64 184 C65.98166818 181.63068818 65.98166818 181.63068818 67.5625 178.6875 C69.74618003 174.91018743 71.91067395 172.062286 75 169 C75 168.34 75 167.68 75 167 C75.9590625 166.5978125 75.9590625 166.5978125 76.9375 166.1875 C79.33131686 165.11332248 79.33131686 165.11332248 80 162 C79.48953125 161.76667969 78.9790625 161.53335938 78.453125 161.29296875 C68.20554771 156.15101064 56.54976382 146.174567 51 136 C51.29147857 131.70069105 52.62574965 129.58810769 54.9140625 125.9921875 C57.64136212 121.23636462 58.80170919 116.09516093 60.125 110.8125 C60.62375318 108.85968948 61.12621694 106.90782201 61.6328125 104.95703125 C61.84824707 104.10085205 62.06368164 103.24467285 62.28564453 102.36254883 C63 100 63 100 64.03222656 97.97924805 C65.12502582 95.74430265 65.49375305 93.83312589 65.8515625 91.375 C65.98046875 90.50359375 66.109375 89.6321875 66.2421875 88.734375 C66.36851562 87.83203125 66.49484375 86.9296875 66.625 86 C66.7590625 85.09765625 66.893125 84.1953125 67.03125 83.265625 C67.58607043 79.4384963 68 75.88053473 68 72 C71.63 72 75.26 72 79 72 C79 63.75 79 55.5 79 47 C63.82 47 48.64 47 33 47 C34.32 42.05 35.64 37.1 37 32 C37.76074007 25.49834083 37.76074007 25.49834083 38 19 C35.89436478 16.89436478 31.89026138 16.94468602 29 16.4375 C28.22922119 16.30110107 27.45844238 16.16470215 26.66430664 16.02416992 C21.36910773 15.12963901 16.3777303 14.70666926 11 15 C10.92652344 16.10408203 10.92652344 16.10408203 10.8515625 17.23046875 C10.77679688 18.20628906 10.70203125 19.18210937 10.625 20.1875 C10.55539063 21.15042969 10.48578125 22.11335937 10.4140625 23.10546875 C10 26 10 26 9.03320312 28.36132812 C8.0057932 30.9852049 7.49435872 33.3363967 7.0546875 36.11328125 C6.05882784 41.90305015 4.67104367 47.52263744 3.125 53.1875 C2.88136719 54.12013672 2.63773437 55.05277344 2.38671875 56.01367188 C0.82812073 61.7594879 -1.15844918 66.765888 -4 72 C-4.33 68.37 -4.66 64.74 -5 61 C-7.31 61 -9.62 61 -12 61 C-11.60167969 60.43152344 -11.20335938 59.86304688 -10.79296875 59.27734375 C-7.17279914 54.00123281 -3.8371726 48.97656985 -2.5 42.625 C-2.335 42.08875 -2.17 41.5525 -2 41 C-1.01 40.67 -0.02 40.34 1 40 C2.25036515 37.8176055 2.25036515 37.8176055 3.1875 35.1875 C3.70376953 33.87845703 3.70376953 33.87845703 4.23046875 32.54296875 C5.19309341 29.80471843 5.19309341 29.80471843 5 26 C3.65808594 25.61908203 3.65808594 25.61908203 2.2890625 25.23046875 C-4.82363759 23.20585156 -11.92472474 21.15192704 -19 19 C-19.50615298 20.26839526 -20.00469099 21.53983102 -20.5 22.8125 C-20.7784375 23.52019531 -21.056875 24.22789062 -21.34375 24.95703125 C-22.1529162 27.11841216 -22.1529162 27.11841216 -22 30 C-22.66 30 -23.32 30 -24 30 C-25.32 32.64 -26.64 35.28 -28 38 C-28.495 33.545 -28.495 33.545 -29 29 C-33.95 29 -38.9 29 -44 29 C-44 24.38 -44 19.76 -44 15 C-52.25 15 -60.5 15 -69 15 Z " fill="#090909" transform="translate(138,670)"/>
<path d="M0 0 C6.0190628 0.97329526 11.4244662 2.42141697 17.03515625 4.796875 C20.81328569 6.33002898 24.64914888 7.66232269 28.5 9 C35.51401211 11.44712282 42.50278448 13.94955179 49.26737976 17.03378296 C52.27313384 18.09657638 54.6181434 18.27651632 57.80004883 18.31884766 C59.51125664 18.34865219 59.51125664 18.34865219 61.2570343 18.37905884 C63.08853279 18.39638565 63.08853279 18.39638565 64.95703125 18.4140625 C66.21513107 18.43342865 67.4732309 18.4527948 68.76945496 18.4727478 C72.10174319 18.52233077 75.43392331 18.56363098 78.76635742 18.60089111 C82.17181199 18.64101623 85.57710372 18.6919646 88.98242188 18.7421875 C95.65488512 18.83980354 102.32722207 18.91942626 109 19 C109 34.84 109 50.68 109 67 C104.545 67.495 104.545 67.495 100 68 C100 68.66 100 69.32 100 70 C100.66 70 101.32 70 102 70 C105 73.46153846 105 73.46153846 105 76 C105.66 76 106.32 76 107 76 C107.33 77.32 107.66 78.64 108 80 C108.66 80 109.32 80 110 80 C109.84301758 81.83415222 109.84301758 81.83415222 109 84 C107.20460175 84.95169682 105.36782376 85.82648773 103.51171875 86.65356445 C99.62343329 89.03447878 98.23702258 90.14597767 97.00244141 94.59432983 C96.53353125 99.2405254 96.68579581 103.88239916 96.8125 108.54296875 C96.81820503 110.27540673 96.81860423 112.00786951 96.81396484 113.74031067 C96.81396484 118.29570725 96.87693134 122.84795913 96.95599365 127.40258789 C97.07085797 134.67169919 97.08597126 141.94179922 97.10848999 149.2116642 C97.12461915 151.73342311 97.16507801 154.25380554 97.21020508 156.77519226 C97.35769398 168.00920308 97.2797396 179.29662902 89.66015625 188.3203125 C79.23887481 198.86419726 64.38440973 200.03753802 50.21916199 200.18882751 C45.52068717 200.19981208 40.82325341 200.16729785 36.125 200.125 C34.16536919 200.11494396 32.20573335 200.10582278 30.24609375 200.09765625 C25.49716633 200.07758471 20.74895396 200.03840124 16 200 C14.68 192.74 13.36 185.48 12 178 C5.69834246 178.90023679 -0.46155823 180.01854243 -6.6875 181.3125 C-7.71939453 181.51294922 -8.75128906 181.71339844 -9.81445312 181.91992188 C-11.30428711 182.23219727 -11.30428711 182.23219727 -12.82421875 182.55078125 C-13.72229248 182.73294189 -14.62036621 182.91510254 -15.5456543 183.1027832 C-20.18204903 184.79767534 -22.40880765 188.33743653 -24.625 192.5625 C-25.99792032 195.15530812 -27.36759306 197.55138959 -29 200 C-29.66 200 -30.32 200 -31 200 C-31.226875 200.70125 -31.45375 201.4025 -31.6875 202.125 C-33.31656867 205.69343613 -35.40640731 208.06514511 -38 211 C-39.9375 210.6875 -39.9375 210.6875 -42 210 C-42.33 209.01 -42.66 208.02 -43 207 C-43.66 207 -44.32 207 -45 207 C-46.515625 205.390625 -46.515625 205.390625 -48.25 203.25 C-50.48076025 200.60301824 -52.49456498 198.45647025 -55.4375 196.625 C-56.7059375 195.820625 -56.7059375 195.820625 -58 195 C-58 194.34 -58 193.68 -58 193 C-58.9590625 192.62875 -58.9590625 192.62875 -59.9375 192.25 C-63.18392013 190.92493056 -66.38239124 189.51658852 -69.578125 188.07421875 C-71.22384169 187.34426376 -72.88082177 186.63929538 -74.546875 185.95703125 C-75.35640625 185.62058594 -76.1659375 185.28414062 -77 184.9375 C-77.7425 184.63714844 -78.485 184.33679687 -79.25 184.02734375 C-81 183 -81 183 -82 180 C-80.85546875 177.95703125 -80.85546875 177.95703125 -79.1875 175.8125 C-78.64480469 175.09707031 -78.10210937 174.38164063 -77.54296875 173.64453125 C-77.03378906 173.10183594 -76.52460937 172.55914063 -76 172 C-75.34 172 -74.68 172 -74 172 C-73.505 170.02 -73.505 170.02 -73 168 C-72.34 168 -71.68 168 -71 168 C-70.7525 167.319375 -70.505 166.63875 -70.25 165.9375 C-69 163 -69 163 -67.0625 159.875 C-58.9575917 145.83452689 -59.50910454 126.64633028 -59.4375 110.875 C-59.42857224 109.59538391 -59.42857224 109.59538391 -59.41946411 108.28991699 C-59.38158155 94.42002291 -61.11351553 82.70464273 -67 70 C-67.33 69.01 -67.66 68.02 -68 67 C-71.3 67 -74.6 67 -78 67 C-78 51.16 -78 35.32 -78 19 C-73.51019531 18.99742187 -69.02039063 18.99484375 -64.39453125 18.9921875 C-60.80921319 18.97336744 -57.22404751 18.94856096 -53.63880157 18.91970825 C-49.85693319 18.89091368 -46.07568682 18.87261173 -42.29370117 18.87988281 C-38.64925858 18.88648189 -35.0060416 18.8639616 -31.36185265 18.82144547 C-29.9732773 18.81032399 -28.58457751 18.80960572 -27.19599342 18.81957626 C-19.78705663 19.16350425 -19.78705663 19.16350425 -13.08016968 16.68121338 C-11.53120746 14.92701241 -11.53120746 14.92701241 -10 12 C-9.319375 11.34 -8.63875 10.68 -7.9375 10 C-5.80367496 7.92360747 -5.80367496 7.92360747 -3.875 4.75 C-3.25625 3.8425 -2.6375 2.935 -2 2 C-1.34 2 -0.68 2 0 2 C0 1.34 0 0.68 0 0 Z M2.2734375 17.51953125 C1.29602556 18.60716764 0.33021534 19.70531859 -0.625 20.8125 C-1.11484375 21.35970703 -1.6046875 21.90691406 -2.109375 22.47070312 C-4.26109637 24.89579893 -6.19947055 27.29920583 -8 30 C-10.44241333 30.39872742 -10.44241333 30.39872742 -13.55126953 30.43237305 C-14.71232208 30.45216721 -15.87337463 30.47196136 -17.0696106 30.49235535 C-18.32796722 30.49874527 -19.58632385 30.50513519 -20.8828125 30.51171875 C-22.16735321 30.52966995 -23.45189392 30.54762115 -24.77536011 30.56611633 C-28.19149661 30.61368892 -31.60756676 30.64345073 -35.02392578 30.66955566 C-38.50957349 30.69932502 -41.99499231 30.74586762 -45.48046875 30.79101562 C-52.32019775 30.877131 -59.15996796 30.9428893 -66 31 C-66 38.59 -66 46.18 -66 54 C-56.43 54.33 -46.86 54.66 -37 55 C-48 62 -48 62 -54 64 C-53.38550897 67.29683362 -52.61092094 70.4509494 -51.58984375 73.64453125 C-51.32236328 74.48564453 -51.05488281 75.32675781 -50.77929688 76.19335938 C-50.50150391 77.05767578 -50.22371094 77.92199219 -49.9375 78.8125 C-49.65583984 79.69615234 -49.37417969 80.57980469 -49.08398438 81.49023438 C-48.39170818 83.66093091 -47.69697845 85.83080965 -47 88 C-45.35173218 87.7668811 -45.35173218 87.7668811 -43.67016602 87.52905273 C-38.54729422 86.89156069 -33.43372147 86.7067336 -28.27734375 86.53515625 C-27.23837952 86.49755692 -26.19941528 86.45995758 -25.12896729 86.42121887 C-22.89367897 86.34058642 -20.65833494 86.26148679 -18.42294312 86.18377686 C-12.49523746 85.97752087 -6.56795123 85.75981273 -0.640625 85.54296875 C1.1743322 85.47695465 1.1743322 85.47695465 3.0259552 85.40960693 C15.62360657 84.94787594 28.21815352 84.41863997 40.8125 83.875 C41.84343781 83.83061798 42.87437561 83.78623596 43.93655396 83.74050903 C49.62444861 83.49547463 55.31226299 83.24866609 61 83 C61.4021875 83.86625 61.4021875 83.86625 61.8125 84.75 C63.13455136 87.39776842 63.13455136 87.39776842 66 91 C29.04 91 -7.92 91 -46 91 C-46.33 104.53 -46.66 118.06 -47 132 C-49.25 152.25 -49.25 152.25 -52 155 C-52.0825 155.99 -52.165 156.98 -52.25 158 C-52.91775633 163.98460858 -56.80851594 169.80851594 -61 174 C-61 174.99 -61 175.98 -61 177 C-58.8113545 178.68683742 -58.8113545 178.68683742 -56 180.25 C-51.377996 183.03390975 -47.55930203 185.99888523 -43.75390625 189.8125 C-42.06021638 191.22988517 -42.06021638 191.22988517 -39.8984375 190.8046875 C-33.69382977 188.17475089 -31.43309036 179.75913308 -29 174 C-28.70996094 173.35160156 -28.41992188 172.70320313 -28.12109375 172.03515625 C-25.96837346 166.88440665 -24.99903893 161.48370166 -24.00146484 156.01464844 C-23.09558544 151.09558544 -23.09558544 151.09558544 -22 150 C-21.47599609 151.80597656 -21.47599609 151.80597656 -20.94140625 153.6484375 C-20.48187083 155.2239875 -20.02222994 156.79950675 -19.5625 158.375 C-19.33240234 159.1690625 -19.10230469 159.963125 -18.86523438 160.78125 C-18.64287109 161.54179688 -18.42050781 162.30234375 -18.19140625 163.0859375 C-17.98717041 163.7876709 -17.78293457 164.4894043 -17.57250977 165.21240234 C-17.02623679 167.07510758 -17.02623679 167.07510758 -16 169 C-8.11926206 167.88727122 -0.35144666 166.50987447 7.41796875 164.78125 C10.04062744 164.20924156 12.65861812 163.67479243 15.29296875 163.1640625 C23.27538845 161.57920088 31.19481654 159.69974322 39.125 157.875 C40.76559584 157.4985708 42.40622061 157.12226769 44.046875 156.74609375 C48.03158512 155.83218261 52.01589975 154.91656599 56 154 C55.85950482 155.47968324 55.71245174 156.95874516 55.5625 158.4375 C55.44068359 159.67306641 55.44068359 159.67306641 55.31640625 160.93359375 C55 163 55 163 54 164 C51.62661361 164.15971977 49.27881728 164.2592433 46.90234375 164.31640625 C45.83905602 164.3475779 45.83905602 164.3475779 44.75428772 164.37937927 C42.48212695 164.44494598 40.20984736 164.5037923 37.9375 164.5625 C36.40037817 164.60567849 34.8632685 164.64929255 33.32617188 164.69335938 C29.5509041 164.80063449 25.7755164 164.90188137 22 165 C22.1539624 165.60682617 22.3079248 166.21365234 22.46655273 166.83886719 C23.07332766 169.29706933 23.57224025 171.76601726 24.0625 174.25 C24.32740234 175.58804687 24.32740234 175.58804687 24.59765625 176.953125 C24.73042969 177.62859375 24.86320312 178.3040625 25 179 C25.66 179 26.32 179 27 179 C27 181.64 27 184.28 27 187 C31.47994839 187.07512813 35.95954625 187.12905469 40.43994141 187.16479492 C41.95856121 187.17972112 43.47713917 187.20006959 44.99560547 187.22631836 C56.71221933 187.42352869 70.01747665 187.54235548 79.54824829 179.7310791 C86.16423301 172.71606665 84.74785244 163.26173409 84.5859375 154.28125 C84.57473429 152.45423786 84.56619942 150.62720758 84.56021118 148.8001709 C84.53740115 144.01246585 84.47854657 139.22586867 84.4119873 134.43859863 C84.35039493 129.54515567 84.3231601 124.65153211 84.29296875 119.7578125 C84.22879479 110.17139065 84.12651128 100.58578778 84 91 C81.03 91 78.06 91 75 91 C79.56158285 85.8682193 85.52387705 82.22616726 92 80 C90.4004785 76.06129389 87.81595745 73.58288775 84.8125 70.625 C84.31927246 70.13894287 83.82604492 69.65288574 83.31787109 69.15209961 C78.12298247 64.07184158 72.66993432 59.53594746 67 55 C76.9 54.67 86.8 54.34 97 54 C97 46.41 97 38.82 97 31 C74.23 30.67 51.46 30.34 28 30 C29.32 28.68 30.64 27.36 32 26 C32 25.34 32 24.68 32 24 C26.98039697 21.81499633 21.92940279 19.75836444 16.8125 17.8125 C15.76545898 17.40354492 15.76545898 17.40354492 14.69726562 16.98632812 C8.09679772 14.30482605 8.09679772 14.30482605 2.2734375 17.51953125 Z " fill="#080808" transform="translate(114,884)"/>
<path d="M0 0 C15.84 0 31.68 0 48 0 C48 12.54 48 25.08 48 38 C60.21 38 72.42 38 85 38 C85 53.84 85 69.68 85 86 C72.79 86 60.58 86 48 86 C48 98.54 48 111.08 48 124 C32.16 124 16.32 124 0 124 C0 111.46 0 98.92 0 86 C-12.21 86 -24.42 86 -37 86 C-37 70.16 -37 54.32 -37 38 C-24.79 38 -12.58 38 0 38 C0 25.46 0 12.92 0 0 Z " fill="#070707" transform="translate(106,492)"/>
<path d="M0 0 C4.74885023 0.78830914 9.20526494 2.26820976 13.75 3.8125 C14.52988281 4.06064453 15.30976562 4.30878906 16.11328125 4.56445312 C16.85449219 4.81775391 17.59570312 5.07105469 18.359375 5.33203125 C19.37209473 5.66811401 19.37209473 5.66811401 20.40527344 6.01098633 C22 7 22 7 22.72753906 9.10424805 C22.81745117 9.72984619 22.90736328 10.35544434 23 11 C22.34 11 21.68 11 21 11 C21.37189052 13.50082897 21.71869988 14.73196216 23.57421875 16.5 C24.27160156 16.995 24.96898437 17.49 25.6875 18 C30.09995101 21.26663712 34.2808754 24.73088138 38.4375 28.3125 C39.36018677 29.10430664 39.36018677 29.10430664 40.30151367 29.91210938 C42.5957046 31.88848617 44.85803859 33.85803859 47 36 C46.64462647 39.26486193 45.24346728 41.32431639 43.27734375 43.890625 C42.73916016 44.59960938 42.20097656 45.30859375 41.64648438 46.0390625 C41.08251953 46.76867187 40.51855469 47.49828125 39.9375 48.25 C39.36966797 48.99507813 38.80183594 49.74015625 38.21679688 50.5078125 C36.81687317 52.34300661 35.41116779 54.17344687 34 56 C32.35 55.34 30.7 54.68 29 54 C29 58.95 29 63.9 29 69 C25.7 69 22.4 69 19 69 C19 71.97 19 74.94 19 78 C24.94 78 30.88 78 37 78 C37 85.26 37 92.52 37 100 C31.06 100 25.12 100 19 100 C19.33 109.24 19.66 118.48 20 128 C21.91465377 119.70316701 23.51415907 112.35981459 24 104 C25.93784265 104.14120714 27.87526955 104.28812873 29.8125 104.4375 C31.43091797 104.55931641 31.43091797 104.55931641 33.08203125 104.68359375 C36 105 36 105 39 106 C39 106.66 39 107.32 39 108 C40.98 108 42.96 108 45 108 C45.43450922 119.58691254 45.05850772 130.6702732 43.125 142.125 C42.95129883 143.16140625 42.77759766 144.1978125 42.59863281 145.265625 C41.27946153 152.5808077 41.27946153 152.5808077 39 156 C39 155.34 39 154.68 39 154 C38.14172607 154.21092285 37.28345215 154.4218457 36.39916992 154.63916016 C21.18752312 158.3704525 5.97119167 162.07356141 -9.3125 165.5 C-10.43696533 165.75475098 -11.56143066 166.00950195 -12.7199707 166.27197266 C-13.75726318 166.50190918 -14.79455566 166.7318457 -15.86328125 166.96875 C-16.76344971 167.16919922 -17.66361816 167.36964844 -18.59106445 167.57617188 C-21 168 -21 168 -25 168 C-25.67511172 165.29352533 -26.34027341 162.58522815 -27 159.875 C-27.19078125 159.11445313 -27.3815625 158.35390625 -27.578125 157.5703125 C-28.6127252 153.28411166 -29.2272711 149.44599099 -29 145 C-26.69 145 -24.38 145 -22 145 C-22 144.34 -22 143.68 -22 143 C-13.585 142.01 -13.585 142.01 -5 141 C-4.67 139.35 -4.34 137.7 -4 136 C-4.89203125 136.2165625 -5.7840625 136.433125 -6.703125 136.65625 C-7.87359375 136.9346875 -9.0440625 137.213125 -10.25 137.5 C-11.99023438 137.91765625 -11.99023438 137.91765625 -13.765625 138.34375 C-17 139 -17 139 -21 139 C-21.84126612 134.93910105 -22.67161887 130.87604526 -23.5 126.8125 C-23.73847656 125.66201172 -23.97695313 124.51152344 -24.22265625 123.32617188 C-24.44824219 122.21435547 -24.67382812 121.10253906 -24.90625 119.95703125 C-25.11572266 118.93585205 -25.32519531 117.91467285 -25.54101562 116.86254883 C-25.97101791 114.18075268 -26.08705161 111.70948135 -26 109 C-24.10751181 108.32389577 -22.2108398 107.65949561 -20.3125 107 C-19.25675781 106.62875 -18.20101562 106.2575 -17.11328125 105.875 C-14.21637944 105.0608143 -11.98299377 104.82290204 -9 105 C-8.896875 106.134375 -8.79375 107.26875 -8.6875 108.4375 C-8.00758542 113.83394962 -8.00758542 113.83394962 -5 122 C-4.67 115.07 -4.34 108.14 -4 101 C-11.59 101 -19.18 101 -27 101 C-27 93.41 -27 85.82 -27 78 C-19.41 78 -11.82 78 -4 78 C-4 75.03 -4 72.06 -4 69 C-6.06242617 68.97282308 -8.12495703 68.9535242 -10.1875 68.9375 C-11.33605469 68.92589844 -12.48460938 68.91429687 -13.66796875 68.90234375 C-16.59300586 68.98807168 -19.16316291 69.32150977 -22 70 C-22.14695312 69.44054687 -22.29390625 68.88109375 -22.4453125 68.3046875 C-24.30989649 61.63933553 -26.88366244 55.41028976 -29.6953125 49.1015625 C-30.7060017 46.69890613 -31.48679903 44.54097066 -32 42 C-31.10861328 41.26910156 -31.10861328 41.26910156 -30.19921875 40.5234375 C-16.97471024 29.2116495 -8.13890053 15.21498931 0 0 Z " fill="#F9F9F9" transform="translate(74,249)"/>
<path d="M0 0 C33 0 66 0 100 0 C100 7.92 100 15.84 100 24 C92.41 24 84.82 24 77 24 C77.01047363 25.99297119 77.02094727 27.98594238 77.03173828 30.03930664 C77.064053 36.6410117 77.08699885 43.24269797 77.10362434 49.84446049 C77.11403956 53.84516398 77.12815722 57.84578151 77.15087891 61.84643555 C77.17268826 65.71085385 77.18458563 69.57518972 77.18975449 73.43966484 C77.19343576 74.91037734 77.20062426 76.38108558 77.21146011 77.85176277 C77.22608293 79.91958315 77.22797349 81.98706747 77.22705078 84.05493164 C77.231492 85.22963516 77.23593323 86.40433868 77.24050903 87.61463928 C76.83558718 93.31424451 75.60695734 98.29890711 71.65234375 102.5859375 C59.97922839 112.5756958 43.42491126 111.31434431 29 111 C28.74605469 109.92621094 28.49210937 108.85242188 28.23046875 107.74609375 C27.8831341 106.30981802 27.53545967 104.87362444 27.1875 103.4375 C27.02185547 102.73302734 26.85621094 102.02855469 26.68554688 101.30273438 C25.82681676 97.78680165 24.86204653 94.52240697 23.36328125 91.22265625 C22 88 22 88 22 84 C22.78238037 83.97494385 23.56476074 83.9498877 24.37084961 83.92407227 C27.89324949 83.80850212 31.4153556 83.68560051 34.9375 83.5625 C36.16919922 83.52318359 37.40089844 83.48386719 38.66992188 83.44335938 C39.83974609 83.40146484 41.00957031 83.35957031 42.21484375 83.31640625 C43.29886475 83.27974854 44.38288574 83.24309082 45.49975586 83.20532227 C47.939263 83.27635735 47.939263 83.27635735 49 82 C49.12322758 80.22096643 49.17789019 78.43713797 49.20532227 76.65405273 C49.22526749 75.5129454 49.24521271 74.37183807 49.26576233 73.19615173 C49.29083107 71.33368553 49.29083107 71.33368553 49.31640625 69.43359375 C49.33718735 68.16983414 49.35796844 66.90607452 49.37937927 65.60401917 C49.43383714 62.23881367 49.4840428 58.87359827 49.53222656 55.50830078 C49.58239758 52.0764411 49.63805282 48.64467076 49.69335938 45.21289062 C49.80153593 38.4753284 49.90051122 31.73771863 50 25 C33.5 25 17 25 0 25 C0 16.75 0 8.5 0 0 Z " fill="#FAFAFA" transform="translate(114,94)"/>
<path d="M0 0 C4.00129138 0.66811915 7.54360032 1.88549474 11.3125 3.375 C13.0140625 4.04208984 13.0140625 4.04208984 14.75 4.72265625 C15.8225 5.14417969 16.895 5.56570312 18 6 C20.66290316 7.01047664 23.33101423 8.00567197 26 9 C25.38377808 12.08795653 24.39580351 14.21770988 22.625 16.8125 C22.11544266 17.57658676 21.60588531 18.34067352 21.08088684 19.12791443 C19.54058477 21.25387306 18.04563594 23.0866917 16.28520203 25.00575256 C6.80255667 35.78746198 6.45620001 45.32621943 6.70703125 59.24609375 C6.70510534 61.35458842 6.69832177 63.46308366 6.68693542 65.57154846 C6.67007301 71.07145892 6.71837387 76.56885818 6.78112793 82.06835938 C6.8335661 87.69985133 6.82317128 93.33120811 6.81835938 98.96289062 C6.81806143 109.97623743 6.89255009 120.98717694 7 132 C-1.91 132 -10.82 132 -20 132 C-20 111.21 -20 90.42 -20 69 C-23.3 71.64 -26.6 74.28 -30 77 C-33.84794151 73.38526707 -37.02580673 69.48249114 -40.21875 65.28125 C-42.334297 62.57186524 -44.60003411 60.03025034 -46.93359375 57.5078125 C-48 56 -48 56 -48 53 C-46.03866107 51.32366814 -44.08548776 49.82028878 -42 48.3125 C-24.50890509 35.0924864 -11.03616803 18.83547114 0 0 Z " fill="#F9F9F9" transform="translate(90,73)"/>
<path d="M0 0 C7.92 0 15.84 0 24 0 C24 12.21 24 24.42 24 37 C36.21 37 48.42 37 61 37 C61.020625 40.774375 61.04125 44.54875 61.0625 48.4375 C61.071604 49.62915771 61.08070801 50.82081543 61.09008789 52.04858398 C61.09258545 52.98001221 61.09508301 53.91144043 61.09765625 54.87109375 C61.10289307 55.82943115 61.10812988 56.78776855 61.11352539 57.77514648 C61 60 61 60 60 61 C57.3339846 61.08854347 54.69330601 61.115319 52.02734375 61.09765625 C51.32065552 61.09664917 50.61396729 61.09564209 49.88586426 61.09460449 C47.23639309 61.08935745 44.58694498 61.07539629 41.9375 61.0625 C36.018125 61.041875 30.09875 61.02125 24 61 C24 73.21 24 85.42 24 98 C16.08 98 8.16 98 0 98 C0 85.79 0 73.58 0 61 C-11.88 61 -23.76 61 -36 61 C-36 53.41 -36 45.82 -36 38 C-24.12 38 -12.24 38 0 38 C0 25.46 0 12.92 0 0 Z " fill="#F6F6F6" transform="translate(118,505)"/>
<path d="M0 0 C0.81926971 0.00359528 1.63853943 0.00719055 2.4826355 0.01089478 C3.34109573 0.01074875 4.19955597 0.01060272 5.08403015 0.01045227 C7.93559249 0.0111517 10.78709036 0.01894547 13.63864136 0.02676392 C15.61019353 0.02862799 17.58174615 0.03005194 19.55329895 0.03105164 C24.75324778 0.03487765 29.95316886 0.04470865 35.15310669 0.05575562 C40.45492172 0.06596794 45.75674121 0.07054887 51.05856323 0.07559204 C61.4693847 0.08633084 71.88017826 0.10392831 82.29098511 0.12442017 C82.29098511 8.70442017 82.29098511 17.28442017 82.29098511 26.12442017 C52.92098511 26.12442017 23.55098511 26.12442017 -6.70901489 26.12442017 C-6.70901489 0.01243245 -6.70901489 0.01243245 0 0 Z " fill="#F4F4F4" transform="translate(127.70901489257813,42.875579833984375)"/>
<path d="M0 0 C0.33 0 0.66 0 1 0 C1 16.5 1 33 1 50 C-9.89 50 -20.78 50 -32 50 C-32 68.48 -32 86.96 -32 106 C-33.98 106 -35.96 106 -38 106 C-38 105.34 -38 104.68 -38 104 C-42.95 103.34 -47.9 102.68 -53 102 C-52.938125 103.546875 -52.87625 105.09375 -52.8125 106.6875 C-52.80388302 113.31395798 -53.90278417 119.70835251 -56 126 C-56.99 126.495 -56.99 126.495 -58 127 C-58 117.43 -58 107.86 -58 98 C-52.06 98 -46.12 98 -40 98 C-40 90.74 -40 83.48 -40 76 C-45.94 76 -51.88 76 -58 76 C-58 73.03 -58 70.06 -58 67 C-54.7 67 -51.4 67 -48 67 C-48 62.05 -48 57.1 -48 52 C-46.35 52.33 -44.7 52.66 -43 53 C-42.24074219 51.96359375 -41.48148438 50.9271875 -40.69921875 49.859375 C-39.6953241 48.48957483 -38.69141721 47.11978363 -37.6875 45.75 C-36.93823242 44.72712891 -36.93823242 44.72712891 -36.17382812 43.68359375 C-33.79870818 40.44336389 -31.42112201 37.20612744 -29 34 C-30.87306055 29.26805757 -33.03785642 25.19319153 -35.9140625 20.9921875 C-37.17214526 18.68419395 -37.59752456 16.58478671 -38 14 C-35.46317484 12.677356 -32.92122349 11.36682639 -30.375 10.0625 C-29.66214844 9.68931641 -28.94929688 9.31613281 -28.21484375 8.93164062 C-24.13081898 6.85216012 -20.6297779 5.46005679 -16 5 C-1.47493301 27.52491353 -1.47493301 27.52491353 -2 38 C-3.41478135 38.64995297 -4.83191487 39.29478722 -6.25 39.9375 C-7.03890625 40.29714844 -7.8278125 40.65679687 -8.640625 41.02734375 C-11 42 -11 42 -13.234375 42.44140625 C-13.81703125 42.62574219 -14.3996875 42.81007813 -15 43 C-15.33 43.99 -15.66 44.98 -16 46 C-17.32 46.66 -18.64 47.32 -20 48 C-13.4 48.33 -6.8 48.66 0 49 C0 32.83 0 16.66 0 0 Z " fill="#151515" transform="translate(151,251)"/>
<path d="M0 0 C3.19263277 1.12681157 6.04918109 2.49069815 9.02734375 4.0859375 C12.01381562 5.52246827 15.10728813 6.37205191 18.3046875 7.21875 C20.74706811 8.39433569 21.09299787 9.71430909 22.1875 12.125 C21.80005615 12.5375 21.4126123 12.95 21.01342773 13.375 C19.21589737 15.29037054 17.42019797 17.20744321 15.625 19.125 C14.65046875 20.16503174 14.65046875 20.16503174 13.65625 21.22607422 C13.01558594 21.9120166 12.37492187 22.59795898 11.71484375 23.3046875 C11.12437256 23.93616699 10.53390137 24.56764648 9.92553711 25.21826172 C8.12895575 27.1892268 6.40276821 29.20811217 4.6875 31.25 C-2.51734477 39.60688848 -11.15120701 47.17272304 -19.98046875 53.7578125 C-21.59733874 54.96443189 -23.14865812 56.25782971 -24.6875 57.5625 C-26.8125 59.125 -26.8125 59.125 -29.8125 59.125 C-31.42882844 56.73176231 -32.85596291 54.3931104 -34.25 51.875 C-37.19669281 46.50507654 -37.19669281 46.50507654 -41.16015625 41.890625 C-42.8125 40.125 -42.8125 40.125 -42.859375 38.09375 C-41.41322937 35.37413285 -39.63155512 34.31790337 -37.0625 32.625 C-25.46966328 24.53557567 -13.35752825 13.85628889 -5.0625 2.4375 C-2.8125 0.125 -2.8125 0.125 0 0 Z " fill="#F8F8F8" transform="translate(86.8125,33.875)"/>
<path d="M0 0 C5.15614639 -0.54275225 8.74922511 0.93271207 13.38671875 2.91015625 C17.18622405 4.4947033 21.08009038 5.75017375 25 7 C25.35167362 11.37194247 24.28537824 13.96845645 22.25 17.8125 C21.42628906 19.39417969 21.42628906 19.39417969 20.5859375 21.0078125 C20.06257813 21.99523437 19.53921875 22.98265625 19 24 C16.13854195 29.5866562 13.50479923 35.24429113 11 41 C6.17387969 41.28431827 2.82496419 40.40188801 -1.625 38.5625 C-6.71145256 36.46412285 -6.71145256 36.46412285 -12 35 C-12.3556508 30.73219044 -11.52167223 29.32624209 -9 26 C-8.27414237 24.42195405 -7.60716025 22.8158775 -6.9921875 21.19140625 C-6.64542969 20.27939453 -6.29867187 19.36738281 -5.94140625 18.42773438 C-5.58949219 17.48220703 -5.23757812 16.53667969 -4.875 15.5625 C-4.51535156 14.62083984 -4.15570313 13.67917969 -3.78515625 12.70898438 C-2.19023538 8.47676927 -0.79675711 4.46372975 0 0 Z " fill="#F7F7F7" transform="translate(191,255)"/>
<path d="M0 0 C4.1188328 1.59672813 5.25997438 4.72815448 7.22265625 8.53125 C7.61251709 9.26013428 8.00237793 9.98901855 8.40405273 10.73999023 C9.51000514 12.8271531 10.58887977 14.92612846 11.66015625 17.03125 C12.14484375 17.96066406 12.62953125 18.89007813 13.12890625 19.84765625 C15.37703934 24.46435813 16.09670359 27.90181872 15.66015625 33.03125 C15.12648437 33.26199219 14.5928125 33.49273437 14.04296875 33.73046875 C8.86747577 35.9958662 3.87517016 38.45585589 -1.078125 41.17578125 C-3.6609587 42.15270799 -4.79300492 41.98121505 -7.33984375 41.03125 C-7.68015625 39.3915625 -7.68015625 39.3915625 -8.02734375 37.71875 C-10.01255023 29.81986506 -13.68598448 22.54660477 -18.32421875 15.8828125 C-19.55441017 13.64007892 -19.94253189 11.54467936 -20.33984375 9.03125 C-2.33984375 0.03125 -2.33984375 0.03125 0 0 Z " fill="#F5F5F5" transform="translate(133.33984375,255.96875)"/>
<path d="M0 0 C1.55594895 -0.05710763 3.11193579 -0.11319802 4.66796875 -0.16796875 C5.91707031 -0.22855469 7.16617188 -0.28914062 8.453125 -0.3515625 C11.82517761 0.31281961 12.38733983 0.7017124 14.5390625 3.171875 C16.60546875 6.26953125 16.60546875 6.26953125 16.60546875 8.26953125 C-20.35453125 8.26953125 -57.31453125 8.26953125 -95.39453125 8.26953125 C-95.39453125 21.79953125 -95.39453125 35.32953125 -95.39453125 49.26953125 C-95.72453125 49.26953125 -96.05453125 49.26953125 -96.39453125 49.26953125 C-96.72453125 34.08953125 -97.05453125 18.90953125 -97.39453125 3.26953125 C-97.06453125 3.92953125 -96.73453125 4.58953125 -96.39453125 5.26953125 C-94.76475342 4.79302124 -94.76475342 4.79302124 -93.10205078 4.30688477 C-87.78423681 2.98445887 -82.53236562 2.83333177 -77.07421875 2.671875 C-75.98954315 2.63295639 -74.90486755 2.59403778 -73.787323 2.55393982 C-70.28161979 2.43011769 -66.7756518 2.31834899 -63.26953125 2.20703125 C-60.85707173 2.12457804 -58.4446367 2.04140508 -56.03222656 1.95751953 C-51.29278529 1.7940242 -46.55322608 1.63525271 -41.81347656 1.48095703 C-36.48322821 1.30699791 -31.15362546 1.11979065 -25.82421875 0.921875 C-19.97288793 0.70495126 -14.1212315 0.52193338 -8.26806641 0.36181641 C-5.50957932 0.27322608 -2.75621512 0.14133119 0 0 Z " fill="#141414" transform="translate(163.39453125,966.73046875)"/>
<path d="M0 0 C3.63 0 7.26 0 11 0 C9 5 9 5 7.4375 7.5625 C6.11220462 9.80973999 5.5568926 11.49133144 5 14 C5.85078125 14.15855469 6.7015625 14.31710937 7.578125 14.48046875 C39.97872698 20.71930807 39.97872698 20.71930807 50 25 C50.495 25.99 50.495 25.99 51 27 C28.07651764 31.010296 28.07651764 31.010296 17.0625 32.25 C16.37365723 32.32976074 15.68481445 32.40952148 14.97509766 32.49169922 C9.90823377 33.02667899 5.16366114 33 0 33 C0 22.11 0 11.22 0 0 Z " fill="#0E0E0E" transform="translate(93,996)"/>
<path d="M0 0 C0.103125 1.134375 0.20625 2.26875 0.3125 3.4375 C0.69239334 6.58125501 1.3901131 9.28849691 2.5 12.25 C4.46121396 17.71269839 4.71741223 23.24105623 5 29 C2.01693323 30.89359891 -0.61424139 32.38541997 -4.0625 33.1875 C-4.71347656 33.34605469 -5.36445312 33.50460937 -6.03515625 33.66796875 C-8 34 -8 34 -12 34 C-12.84126612 29.93910105 -13.67161887 25.87604526 -14.5 21.8125 C-14.73847656 20.66201172 -14.97695313 19.51152344 -15.22265625 18.32617188 C-15.44824219 17.21435547 -15.67382812 16.10253906 -15.90625 14.95703125 C-16.11572266 13.93585205 -16.32519531 12.91467285 -16.54101562 11.86254883 C-16.97101791 9.18075268 -17.08705161 6.70948135 -17 4 C-15.10751181 3.32389577 -13.2108398 2.65949561 -11.3125 2 C-10.25675781 1.62875 -9.20101562 1.2575 -8.11328125 0.875 C-5.21637944 0.0608143 -2.98299377 -0.17709796 0 0 Z " fill="#F8F8F8" transform="translate(65,354)"/>
<path d="M0 0 C0.66 0 1.32 0 2 0 C2.08078641 2.12438339 2.13909141 4.2496323 2.1875 6.375 C2.23970703 8.15003906 2.23970703 8.15003906 2.29296875 9.9609375 C2.19628906 10.96382813 2.09960938 11.96671875 2 13 C-1.45285321 15.30190214 -3.93985407 15.72307059 -8.01171875 16.47265625 C-9.04230156 16.6646183 -9.04230156 16.6646183 -10.09370422 16.86045837 C-11.54811696 17.13003367 -13.00315078 17.3962764 -14.45874023 17.65942383 C-16.6633257 18.05812802 -18.86592099 18.46657161 -21.06835938 18.87695312 C-27.70702865 20.10146456 -34.29367806 21.16170976 -41 22 C-41 15.4 -41 8.8 -41 2 C-31.01790962 3.68711387 -23.11704823 7.35903718 -14.1640625 11.94921875 C-11.90626053 13.10341866 -11.90626053 13.10341866 -9 14 C-8.7421875 13.44828125 -8.484375 12.8965625 -8.21875 12.328125 C-6.82036875 9.65685825 -5.21236695 7.23148091 -3.5 4.75 C-2.58734375 3.41195313 -2.58734375 3.41195313 -1.65625 2.046875 C-1.1096875 1.37140625 -0.563125 0.6959375 0 0 Z " fill="#070707" transform="translate(184,343)"/>
<path d="M0 0 C18.15 0 36.3 0 55 0 C55 7.59 55 15.18 55 23 C53 25 53 25 50.8359375 25.1953125 C50.02382812 25.17210937 49.21171875 25.14890625 48.375 25.125 C47.55773437 25.10695313 46.74046875 25.08890625 45.8984375 25.0703125 C45.27195313 25.04710937 44.64546875 25.02390625 44 25 C44.81568327 21.34130419 46.32477938 18.35044124 48 15 C48 14.34 48 13.68 48 13 C26.9893095 5.68342307 26.9893095 5.68342307 5.171875 2.2734375 C3 2 3 2 0 0 Z " fill="#151515" transform="translate(115,996)"/>
<path d="M0 0 C14.19 0 28.38 0 43 0 C43 5.61 43 11.22 43 17 C39 16 39 16 35.5 14.1875 C26.88392946 9.77556036 17.32847749 7.4239351 8 5 C7.72285156 5.58265625 7.44570312 6.1653125 7.16015625 6.765625 C6.05134726 8.90110897 4.83658929 10.79545138 3.4375 12.75 C2.78587891 13.67039062 2.78587891 13.67039062 2.12109375 14.609375 C1.56615234 15.29773438 1.56615234 15.29773438 1 16 C0.67 16 0.34 16 0 16 C0 10.72 0 5.44 0 0 Z " fill="#101010" transform="translate(143,323)"/>
<path d="M0 0 C0.81276398 0.00707474 1.62552795 0.01414948 2.46292114 0.0214386 C5.04134873 0.04927451 7.61754912 0.11198714 10.1953125 0.17578125 C11.95048932 0.20087834 13.70570041 0.22368904 15.4609375 0.24414062 C19.74824497 0.29906502 24.03390206 0.38525778 28.3203125 0.48828125 C26.9453125 1.98828125 26.9453125 1.98828125 25.3203125 3.48828125 C24.6603125 3.48828125 24.0003125 3.48828125 23.3203125 3.48828125 C23.3203125 4.14828125 23.3203125 4.80828125 23.3203125 5.48828125 C24.2484375 5.95234375 24.2484375 5.95234375 25.1953125 6.42578125 C26.5703125 7.11328125 27.9453125 7.80078125 29.3203125 8.48828125 C29.3203125 9.14828125 29.3203125 9.80828125 29.3203125 10.48828125 C13.1503125 10.48828125 -3.0196875 10.48828125 -19.6796875 10.48828125 C-18.0296875 8.83828125 -16.3796875 7.18828125 -14.6796875 5.48828125 C-13.76558105 4.57022705 -12.85147461 3.65217285 -11.90966797 2.70629883 C-7.72231375 -0.16914434 -4.94695436 -0.1640152 0 0 Z " fill="#111111" transform="translate(122.6796875,937.51171875)"/>
<path d="M0 0 C4.62 0 9.24 0 14 0 C13.56044337 6.41752685 12.81456483 12.68355667 11.625 19 C11.39039063 20.258125 11.15578125 21.51625 10.9140625 22.8125 C10.03575988 25.87529889 9.48877003 27.10909092 7 29 C2.55119955 19.42319292 0 10.60151916 0 0 Z " fill="#141414" transform="translate(165,742)"/>
<path d="M0 0 C0.05399736 1.45792884 0.09279177 2.91642712 0.125 4.375 C0.14820313 5.18710938 0.17140625 5.99921875 0.1953125 6.8359375 C0 9 0 9 -2 11 C-6.58650515 11.46347061 -11.20532288 11.32395494 -15.8125 11.3125 C-17.09705078 11.32861328 -18.38160156 11.34472656 -19.70507812 11.36132812 C-20.94322266 11.36197266 -22.18136719 11.36261719 -23.45703125 11.36328125 C-24.59116455 11.36626221 -25.72529785 11.36924316 -26.89379883 11.37231445 C-30.31070831 10.96275798 -32.21369602 9.96846765 -35 8 C-31.75923226 5.83948817 -29.50911605 5.29804662 -25.72265625 4.4921875 C-23.86930664 4.09580078 -23.86930664 4.09580078 -21.97851562 3.69140625 C-21.33567627 3.55750488 -20.69283691 3.42360352 -20.03051758 3.28564453 C-18.07138483 2.8768539 -16.11477573 2.4560298 -14.15820312 2.03515625 C-4.53883159 0 -4.53883159 0 0 0 Z " fill="#111111" transform="translate(170,1038)"/>
<path d="M0 0 C0.33 0.66 0.66 1.32 1 2 C3.88633681 3.00476914 6.58192507 3.12375354 9.61907959 3.12025452 C10.54172104 3.12162918 11.46436249 3.12300385 12.41496277 3.12442017 C13.92223686 3.11902725 13.92223686 3.11902725 15.45996094 3.11352539 C17.05554588 3.11374443 17.05554588 3.11374443 18.68336487 3.1139679 C22.20038897 3.11327106 25.71736015 3.10548933 29.234375 3.09765625 C31.67246471 3.09579126 34.1105548 3.09436774 36.54864502 3.09336853 C42.96674636 3.08954976 49.38482508 3.0797249 55.80291748 3.06866455 C62.35168146 3.0584367 68.90044909 3.05386796 75.44921875 3.04882812 C88.29948882 3.03810209 101.14974321 3.02122544 114 3 C114 3.66 114 4.32 114 5 C77.04 5 40.08 5 2 5 C2 18.53 2 32.06 2 46 C1.67 46 1.34 46 1 46 C0.67 30.82 0.34 15.64 0 0 Z " fill="#858585" transform="translate(66,970)"/>
<path d="M0 0 C0.33 0 0.66 0 1 0 C1 16.5 1 33 1 50 C-9.89 50 -20.78 50 -32 50 C-32 68.48 -32 86.96 -32 106 C-33.98 106 -35.96 106 -38 106 C-38 105.67 -38 105.34 -38 105 C-36.35 105 -34.7 105 -33 105 C-33 86.52 -33 68.04 -33 49 C-30.36 48.67 -27.72 48.34 -25 48 C-24.67 47.34 -24.34 46.68 -24 46 C-22.25 45.4375 -22.25 45.4375 -20 45 C-19.0925 44.814375 -18.185 44.62875 -17.25 44.4375 C-16.5075 44.293125 -15.765 44.14875 -15 44 C-16 46 -16 46 -20 48 C-13.4 48.33 -6.8 48.66 0 49 C0 32.83 0 16.66 0 0 Z " fill="#717171" transform="translate(151,251)"/>
<path d="M0 0 C0.89267578 0.00966797 1.78535156 0.01933594 2.70507812 0.02929688 C4.09823242 0.06700195 4.09823242 0.06700195 5.51953125 0.10546875 C6.45990234 0.11900391 7.40027344 0.13253906 8.36914062 0.14648438 C10.69068163 0.18183779 13.01106778 0.23118201 15.33203125 0.29296875 C13.75199439 4.68606188 11.78006101 7.11715187 8.33203125 10.29296875 C7.64753906 9.80183594 6.96304688 9.31070313 6.2578125 8.8046875 C2.74230016 6.98826123 0.44924983 6.98638637 -3.48046875 7.10546875 C-4.64191406 7.13253906 -5.80335937 7.15960937 -7 7.1875 C-7.88042969 7.22230469 -8.76085937 7.25710938 -9.66796875 7.29296875 C-7.43759624 2.31752238 -5.6727767 -0.10839701 0 0 Z " fill="#151515" transform="translate(112.66796875,752.70703125)"/>
<path d="M0 0 C0.33 0 0.66 0 1 0 C1.45284244 28.49075646 1.45284244 28.49075646 -1 37 C-1.66 37.66 -2.32 38.32 -3 39 C-3.84681133 33.91913204 -4.09038099 29.15171623 -4 24 C-4.99 24 -5.98 24 -7 24 C-5.40554307 15.73781407 -2.73981931 7.93711014 0 0 Z " fill="#1C1C1C" transform="translate(117,360)"/>
<path d="M0 0 C15.18 0 30.36 0 46 0 C46 8.25 46 16.5 46 25 C42.37 25 38.74 25 35 25 C35 24.67 35 24.34 35 24 C37.97 24 40.94 24 44 24 C44 16.74 44 9.48 44 2 C29.48 2 14.96 2 0 2 C0 1.34 0 0.68 0 0 Z " fill="#B7B7B7" transform="translate(171,717)"/>
<path d="M0 0 C3.77996976 1.74151473 6.1254265 3.97801247 9 7 C9.598125 7.556875 10.19625 8.11375 10.8125 8.6875 C12 10 12 10 12 12 C5.4 12 -1.2 12 -8 12 C-6.38617965 7.96544911 -5.59503354 6.20318936 -2.875 3.1875 C-2.33617188 2.58292969 -1.79734375 1.97835938 -1.2421875 1.35546875 C-0.83226563 0.90816406 -0.42234375 0.46085937 0 0 Z " fill="#1B1B1B" transform="translate(83,284)"/>
<path d="M0 0 C0.66 0 1.32 0 2 0 C2.08078641 2.12438339 2.13909141 4.2496323 2.1875 6.375 C2.22230469 7.55835938 2.25710937 8.74171875 2.29296875 9.9609375 C2.19628906 10.96382813 2.09960938 11.96671875 2 13 C-1.11470607 15.07647071 -2.44388746 15.3624111 -6.0625 15.6875 C-7.37927734 15.81705078 -7.37927734 15.81705078 -8.72265625 15.94921875 C-11 16 -11 16 -13 15 C-12.67 14.34 -12.34 13.68 -12 13 C-11.01 13.33 -10.02 13.66 -9 14 C-8.7421875 13.44828125 -8.484375 12.8965625 -8.21875 12.328125 C-6.82036875 9.65685825 -5.21236695 7.23148091 -3.5 4.75 C-2.8915625 3.85796875 -2.283125 2.9659375 -1.65625 2.046875 C-1.1096875 1.37140625 -0.563125 0.6959375 0 0 Z " fill="#333333" transform="translate(184,343)"/>
<path d="M0 0 C0 7.59 0 15.18 0 23 C-1.65 23 -3.3 23 -5 23 C-4.01 22.67 -3.02 22.34 -2 22 C-2 15.4 -2 8.8 -2 2 C-8.27 2 -14.54 2 -21 2 C-21 1.67 -21 1.34 -21 1 C-14.01590942 -0.33030297 -7.09468497 -0.06756843 0 0 Z " fill="#AAAAAA" transform="translate(134,794)"/>
<path d="M0 0 C2.64 0 5.28 0 8 0 C6.68 0.33 5.36 0.66 4 1 C4.03480469 1.78503906 4.06960937 2.57007813 4.10546875 3.37890625 C4.27019021 9.77166754 4.07880961 14.35551571 1 20 C0.67 20 0.34 20 0 20 C0 13.4 0 6.8 0 0 Z " fill="#121212" transform="translate(94,351)"/>
<path d="M0 0 C1.15518918 0.90484792 2.29885406 1.8244206 3.4375 2.75 C4.07558594 3.26046875 4.71367188 3.7709375 5.37109375 4.296875 C7.18810554 6.19667629 7.60423197 7.43586908 8 10 C8.66 10 9.32 10 10 10 C10 10.66 10 11.32 10 12 C6.7 12 3.4 12 0 12 C0 11.34 0 10.68 0 10 C1.98 9.67 3.96 9.34 6 9 C5.566875 8.60167969 5.13375 8.20335937 4.6875 7.79296875 C4.130625 7.26316406 3.57375 6.73335937 3 6.1875 C2.1646875 5.40439453 2.1646875 5.40439453 1.3125 4.60546875 C0 3 0 3 0 0 Z " fill="#313131" transform="translate(32,778)"/>
<path d="M0 0 C2 0 2 0 3.515625 1.50390625 C4.08796875 2.18324219 4.6603125 2.86257812 5.25 3.5625 C5.86488281 4.28566406 6.47976562 5.00882813 7.11328125 5.75390625 C7.73589844 6.49511719 8.35851563 7.23632812 9 8 C10.14473463 9.33427675 11.29046728 10.66769833 12.4375 12 C13.283125 12.99 14.12875 13.98 15 15 C13.68 14.67 12.36 14.34 11 14 C11 13.34 11 12.68 11 12 C10.360625 11.731875 9.72125 11.46375 9.0625 11.1875 C7 10 7 10 6 7 C5.0409375 6.566875 5.0409375 6.566875 4.0625 6.125 C1.28319146 4.60901352 0.92884019 2.94132727 0 0 Z " fill="#333333" transform="translate(22,125)"/>
<path d="M0 0 C2.31 0 4.62 0 7 0 C5.63055898 2.94956528 4.12169591 5.52468811 2 8 C1.34 8 0.68 8 0 8 C0 5.36 0 2.72 0 0 Z " fill="#161616" transform="translate(94,722)"/>
<path d="M0 0 C4.95 0.99 4.95 0.99 10 2 C10 2.66 10 3.32 10 4 C6.7 4.33 3.4 4.66 0 5 C0 3.35 0 1.7 0 0 Z " fill="#424242" transform="translate(93,382)"/>
<path d="M0 0 C2 1 2 1 3.10546875 3.80078125 C3.46253906 4.95964844 3.81960937 6.11851563 4.1875 7.3125 C4.55230469 8.46363281 4.91710937 9.61476563 5.29296875 10.80078125 C5.95478247 13.79539693 6.08640853 15.19748119 5 18 C4.49384702 16.73160474 3.99530901 15.46016898 3.5 14.1875 C3.2215625 13.47980469 2.943125 12.77210937 2.65625 12.04296875 C2 10 2 10 2 7 C1.01 7.33 0.02 7.66 -1 8 C-1.125 2.25 -1.125 2.25 0 0 Z " fill="#444444" transform="translate(91,1033)"/>
<path d="M0 0 C10.23 0 20.46 0 31 0 C31 0.33 31 0.66 31 1 C26.5625336 1.16756928 22.12502168 1.33390157 17.6875 1.5 C15.79354492 1.57154297 15.79354492 1.57154297 13.86132812 1.64453125 C12.65283203 1.68964844 11.44433594 1.73476563 10.19921875 1.78125 C8.52605591 1.8440918 8.52605591 1.8440918 6.8190918 1.90820312 C4.88018086 1.97133905 2.9399386 2 1 2 C0.67 1.34 0.34 0.68 0 0 Z " fill="#313131" transform="translate(180,938)"/>
<path d="M0 0 C3.63 1.98 7.26 3.96 11 6 C11 6.66 11 7.32 11 8 C12.32 8.33 13.64 8.66 15 9 C13.359375 9.703125 13.359375 9.703125 11 10 C8.203125 8.671875 8.203125 8.671875 5.25 6.75 C3.77273437 5.81414063 3.77273437 5.81414063 2.265625 4.859375 C1.51796875 4.24578125 0.7703125 3.6321875 0 3 C0 2.01 0 1.02 0 0 Z " fill="#2A2A2A" transform="translate(184,859)"/>
<path d="M0 0 C0.99 0.33 1.98 0.66 3 1 C2.01 1.66 1.02 2.32 0 3 C0.33 5.64 0.66 8.28 1 11 C1.66 11 2.32 11 3 11 C3 11.99 3 12.98 3 14 C2.34 14 1.68 14 1 14 C-3.03402647 7.76559546 -3.03402647 7.76559546 -2.875 4.1875 C-2 2 -2 2 0 0 Z " fill="#212121" transform="translate(29,285)"/>
<path d="M0 0 C4.29 0 8.58 0 13 0 C13 0.66 13 1.32 13 2 C12.04287109 2.07347656 12.04287109 2.07347656 11.06640625 2.1484375 C10.24011719 2.22320313 9.41382813 2.29796875 8.5625 2.375 C7.73878906 2.44460938 6.91507813 2.51421875 6.06640625 2.5859375 C5.38449219 2.72257813 4.70257813 2.85921875 4 3 C3.67 3.66 3.34 4.32 3 5 C1.5 3.625 1.5 3.625 0 2 C0 1.34 0 0.68 0 0 Z " fill="#393939" transform="translate(210,949)"/>
<path d="M0 0 C0 0.99 0 1.98 0 3 C-0.66 3.66 -1.32 4.32 -2 5 C0.31 5.33 2.62 5.66 5 6 C5 6.33 5 6.66 5 7 C0.71 7 -3.58 7 -8 7 C-5.42215154 4.35247996 -3.08351902 2.05567935 0 0 Z " fill="#2D2D2D" transform="translate(111,941)"/>
<path d="M0 0 C2.0625 0.4375 2.0625 0.4375 4 1 C3.278125 1.556875 2.55625 2.11375 1.8125 2.6875 C-0.97457299 4.97909334 -3.48641528 7.41459857 -6 10 C-6.66 9.67 -7.32 9.34 -8 9 C-6.85459775 7.68712379 -5.70866567 6.37470979 -4.5625 5.0625 C-3.92441406 4.33160156 -3.28632812 3.60070312 -2.62890625 2.84765625 C-1.77458541 1.87860647 -0.91348825 0.91348825 0 0 Z " fill="#373737" transform="translate(126,771)"/>
<path d="M0 0 C4.10839064 1.45002023 7.50344613 3.3979134 11 6 C11 6.66 11 7.32 11 8 C11.66 8 12.32 8 13 8 C13 8.66 13 9.32 13 10 C9.93124691 8.5360077 7.09565257 6.85990364 4.25 5 C3.45078125 4.484375 2.6515625 3.96875 1.828125 3.4375 C0.92320313 2.7259375 0.92320313 2.7259375 0 2 C0 1.34 0 0.68 0 0 Z " fill="#292929" transform="translate(111,424)"/>
<path d="M0 0 C0.99 0.495 0.99 0.495 2 1 C2 1.66 2 2.32 2 3 C2.99 3.33 3.98 3.66 5 4 C5 4.66 5 5.32 5 6 C5.66 6 6.32 6 7 6 C7 6.66 7 7.32 7 8 C8.32 7.34 9.64 6.68 11 6 C10.67 7.32 10.34 8.64 10 10 C6.7451198 9.41978222 5.06347592 8.47352859 2.75 6.125 C2.22921875 5.61195313 1.7084375 5.09890625 1.171875 4.5703125 C0 3 0 3 0 0 Z " fill="#1A1A1A" transform="translate(125,434)"/>
<path d="M0 0 C0 2.97 0 5.94 0 9 C-0.99 9.495 -0.99 9.495 -2 10 C-2 7.36 -2 4.72 -2 2 C-3.98 2 -5.96 2 -8 2 C-4.91190305 0.23537317 -3.76687864 0 0 0 Z " fill="#5C5C5C" transform="translate(170,1038)"/>
<path d="M0 0 C0 3.67034745 -1.0752892 5.0999431 -3 8.1875 C-3.556875 9.08855469 -4.11375 9.98960937 -4.6875 10.91796875 C-5.120625 11.60503906 -5.55375 12.29210937 -6 13 C-7.125 9.25 -7.125 9.25 -6 7 C-5.34 7 -4.68 7 -4 7 C-3.896875 6.21625 -3.79375 5.4325 -3.6875 4.625 C-3 2 -3 2 0 0 Z " fill="#363636" transform="translate(215,854)"/>
<path d="M0 0 C0.66 0 1.32 0 2 0 C1.46968862 4.5076467 -0.25221116 7.41954788 -3 11 C-3.66 11 -4.32 11 -5 11 C-3.55049545 7.2089881 -1.84827434 3.6125362 0 0 Z " fill="#2E2E2E" transform="translate(48,1041)"/>
<path d="M0 0 C0.99 0.495 0.99 0.495 2 1 C2 1.99 2 2.98 2 4 C2.66 4 3.32 4 4 4 C4.33 4.66 4.66 5.32 5 6 C5.99 6 6.98 6 8 6 C7.67 6.99 7.34 7.98 7 9 C4.28902773 8.62607279 3.17999533 8.18642373 1.25 6.1875 C0 4 0 4 0 0 Z " fill="#2D2D2D" transform="translate(51,160)"/>
<path d="M0 0 C1.98 0.99 3.96 1.98 6 3 C6 3.66 6 4.32 6 5 C6.66 5 7.32 5 8 5 C8.33 6.32 8.66 7.64 9 9 C7.68103535 8.07161713 6.37001311 7.13194268 5.0625 6.1875 C4.33160156 5.66542969 3.60070313 5.14335938 2.84765625 4.60546875 C1 3 1 3 0 0 Z " fill="#202020" transform="translate(57,1077)"/>
<path d="M0 0 C0.66 0 1.32 0 2 0 C1.1875 2.4375 1.1875 2.4375 0 5 C-0.99 5.33 -1.98 5.66 -3 6 C-3.33 6.99 -3.66 7.98 -4 9 C-4.33 8.01 -4.66 7.02 -5 6 C-2.6875 2.8125 -2.6875 2.8125 0 0 Z " fill="#343434" transform="translate(38,1056)"/>
<path d="M0 0 C0.66 0 1.32 0 2 0 C1.45912682 3.78611227 -0.11722332 5.55400767 -3 8 C-3.66 8 -4.32 8 -5 8 C-3.63055898 5.05043472 -2.12169591 2.47531189 0 0 Z " fill="#303030" transform="translate(104,896)"/>
<path d="M0 0 C2.22825644 2.22825644 2.69239369 3.65761628 3.625 6.625 C4.01558594 7.85089844 4.01558594 7.85089844 4.4140625 9.1015625 C4.60742188 9.72804688 4.80078125 10.35453125 5 11 C2 10 2 10 0.8125 7.75 C0.00061706 5.00208853 -0.16260121 2.84552111 0 0 Z " fill="#282828" transform="translate(125,863)"/>
<path d="M0 0 C0 3 0 3 -1.53125 4.60546875 C-2.1809375 5.12753906 -2.830625 5.64960938 -3.5 6.1875 C-4.1496875 6.71730469 -4.799375 7.24710937 -5.46875 7.79296875 C-5.9740625 8.19128906 -6.479375 8.58960938 -7 9 C-6.19095897 4.20719998 -3.74015409 2.86479887 0 0 Z " fill="#CFCFCF" transform="translate(49,285)"/>
<path d="M0 0 C4.42857143 5.14285714 4.42857143 5.14285714 5 9 C4.34 9 3.68 9 3 9 C0.56839395 5.63316085 0 4.26649636 0 0 Z " fill="#2A2A2A" transform="translate(43,92)"/>
</svg>
